<svg width="1440" height="1184" viewBox="0 0 1440 1184" fill="none" xmlns="http://www.w3.org/2000/svg">
<path opacity="0.5" d="M170.709 236V96H196.709V236H170.709ZM80.9094 236V96H106.909V236H80.9094ZM91.7094 178.4V154H183.309V178.4H91.7094ZM294.825 238C284.825 238 275.558 236.2 267.025 232.6C258.492 229 251.025 224 244.625 217.6C238.358 211.067 233.492 203.4 230.025 194.6C226.558 185.8 224.825 176.2 224.825 165.8C224.825 155.4 226.558 145.8 230.025 137C233.492 128.2 238.358 120.6 244.625 114.2C251.025 107.667 258.492 102.6 267.025 99C275.558 95.4 284.825 93.6 294.825 93.6C304.958 93.6 314.292 95.4 322.825 99C331.358 102.6 338.758 107.667 345.025 114.2C351.292 120.733 356.158 128.4 359.625 137.2C363.092 145.867 364.825 155.4 364.825 165.8C364.825 176.067 363.092 185.6 359.625 194.4C356.158 203.2 351.292 210.867 345.025 217.4C338.758 223.933 331.358 229 322.825 232.6C314.292 236.2 304.958 238 294.825 238ZM294.825 213.2C301.225 213.2 307.025 212.067 312.225 209.8C317.558 207.4 322.158 204.067 326.025 199.8C329.892 195.4 332.892 190.333 335.025 184.6C337.292 178.867 338.425 172.6 338.425 165.8C338.425 159 337.292 152.733 335.025 147C332.892 141.267 329.892 136.267 326.025 132C322.158 127.6 317.558 124.267 312.225 122C307.025 119.6 301.225 118.4 294.825 118.4C288.558 118.4 282.758 119.6 277.425 122C272.092 124.267 267.492 127.533 263.625 131.8C259.758 136.067 256.758 141.067 254.625 146.8C252.492 152.533 251.425 158.867 251.425 165.8C251.425 172.6 252.492 178.933 254.625 184.8C256.758 190.533 259.758 195.533 263.625 199.8C267.492 204.067 272.092 207.4 277.425 209.8C282.758 212.067 288.558 213.2 294.825 213.2ZM423.188 236V166.2L424.588 176L367.988 96H398.388L441.588 158L432.188 157.4L471.188 96H500.388L446.188 178.2L449.188 164.6V236H423.188ZM488.356 236L542.956 96H567.356L621.556 236H594.556L564.556 156.4C563.89 154.8 562.956 152.267 561.756 148.8C560.69 145.333 559.49 141.6 558.156 137.6C556.823 133.467 555.623 129.667 554.556 126.2C553.49 122.6 552.69 120 552.156 118.4L557.156 118.2C556.356 120.867 555.423 123.867 554.356 127.2C553.29 130.533 552.156 134 550.956 137.6C549.756 141.2 548.556 144.667 547.356 148C546.29 151.333 545.29 154.333 544.356 157L514.356 236H488.356ZM513.156 204L522.156 181.4H585.956L595.556 204H513.156ZM643.605 236V96H669.605V212H734.205V236H643.605ZM777.094 236V166.2L778.494 176L721.894 96H752.294L795.494 158L786.094 157.4L825.094 96H854.294L800.094 178.2L803.094 164.6V236H777.094ZM903.831 236V120H863.831V96H971.031V120H929.831V236H903.831ZM992.334 236V213H1015.33V119H992.334V96H1064.33V119H1041.33V213H1064.33V236H992.334ZM1153.98 238C1143.85 238 1134.58 236.267 1126.18 232.8C1117.78 229.333 1110.51 224.4 1104.38 218C1098.25 211.467 1093.45 203.8 1089.98 195C1086.65 186.067 1084.98 176.333 1084.98 165.8C1084.98 155.667 1086.78 146.267 1090.38 137.6C1093.98 128.933 1098.98 121.333 1105.38 114.8C1111.78 108.267 1119.25 103.2 1127.78 99.6C1136.31 96 1145.58 94.2 1155.58 94.2C1162.38 94.2 1168.98 95.2 1175.38 97.2C1181.78 99.2 1187.65 102 1192.98 105.6C1198.31 109.067 1202.78 113.133 1206.38 117.8L1189.78 136C1186.31 132.4 1182.71 129.4 1178.98 127C1175.38 124.467 1171.58 122.6 1167.58 121.4C1163.71 120.067 1159.71 119.4 1155.58 119.4C1149.45 119.4 1143.65 120.533 1138.18 122.8C1132.85 125.067 1128.18 128.267 1124.18 132.4C1120.31 136.533 1117.25 141.467 1114.98 147.2C1112.71 152.8 1111.58 159.067 1111.58 166C1111.58 173.067 1112.65 179.467 1114.78 185.2C1117.05 190.933 1120.18 195.867 1124.18 200C1128.31 204.133 1133.18 207.333 1138.78 209.6C1144.51 211.733 1150.78 212.8 1157.58 212.8C1161.98 212.8 1166.25 212.2 1170.38 211C1174.51 209.8 1178.31 208.133 1181.78 206C1185.38 203.733 1188.65 201.133 1191.58 198.2L1204.38 218.8C1201.18 222.4 1196.91 225.667 1191.58 228.6C1186.25 231.533 1180.25 233.867 1173.58 235.6C1167.05 237.2 1160.51 238 1153.98 238ZM1275.7 238C1267.57 238 1260.1 237 1253.3 235C1246.5 232.867 1240.37 229.733 1234.9 225.6C1229.43 221.467 1224.57 216.467 1220.3 210.6L1237.3 191.4C1243.83 200.467 1250.23 206.733 1256.5 210.2C1262.77 213.667 1269.83 215.4 1277.7 215.4C1282.23 215.4 1286.37 214.733 1290.1 213.4C1293.83 211.933 1296.77 210 1298.9 207.6C1301.03 205.067 1302.1 202.2 1302.1 199C1302.1 196.733 1301.63 194.667 1300.7 192.8C1299.9 190.8 1298.63 189.067 1296.9 187.6C1295.17 186 1293.03 184.533 1290.5 183.2C1287.97 181.867 1285.1 180.733 1281.9 179.8C1278.7 178.867 1275.17 178 1271.3 177.2C1263.97 175.733 1257.57 173.8 1252.1 171.4C1246.63 168.867 1242.03 165.8 1238.3 162.2C1234.57 158.467 1231.83 154.333 1230.1 149.8C1228.37 145.133 1227.5 139.867 1227.5 134C1227.5 128.133 1228.77 122.733 1231.3 117.8C1233.97 112.867 1237.57 108.6 1242.1 105C1246.63 101.4 1251.9 98.6 1257.9 96.6C1263.9 94.6 1270.37 93.6 1277.3 93.6C1285.17 93.6 1292.17 94.5333 1298.3 96.4C1304.57 98.2667 1310.03 101.067 1314.7 104.8C1319.5 108.4 1323.43 112.8 1326.5 118L1309.3 135C1306.63 130.867 1303.63 127.467 1300.3 124.8C1296.97 122 1293.37 119.933 1289.5 118.6C1285.63 117.133 1281.57 116.4 1277.3 116.4C1272.5 116.4 1268.3 117.067 1264.7 118.4C1261.23 119.733 1258.5 121.667 1256.5 124.2C1254.5 126.6 1253.5 129.533 1253.5 133C1253.5 135.667 1254.1 138.067 1255.3 140.2C1256.5 142.2 1258.17 144 1260.3 145.6C1262.57 147.2 1265.43 148.6 1268.9 149.8C1272.37 151 1276.3 152.067 1280.7 153C1288.03 154.467 1294.63 156.467 1300.5 159C1306.37 161.4 1311.37 164.333 1315.5 167.8C1319.63 171.133 1322.77 175 1324.9 179.4C1327.03 183.667 1328.1 188.467 1328.1 193.8C1328.1 203 1325.9 210.933 1321.5 217.6C1317.23 224.133 1311.17 229.2 1303.3 232.8C1295.43 236.267 1286.23 238 1275.7 238Z" fill="#11335B"/>
<path opacity="0.5" d="M170.709 596V456H196.709V596H170.709ZM80.9094 596V456H106.909V596H80.9094ZM91.7094 538.4V514H183.309V538.4H91.7094ZM294.825 598C284.825 598 275.558 596.2 267.025 592.6C258.492 589 251.025 584 244.625 577.6C238.358 571.067 233.492 563.4 230.025 554.6C226.558 545.8 224.825 536.2 224.825 525.8C224.825 515.4 226.558 505.8 230.025 497C233.492 488.2 238.358 480.6 244.625 474.2C251.025 467.667 258.492 462.6 267.025 459C275.558 455.4 284.825 453.6 294.825 453.6C304.958 453.6 314.292 455.4 322.825 459C331.358 462.6 338.758 467.667 345.025 474.2C351.292 480.733 356.158 488.4 359.625 497.2C363.092 505.867 364.825 515.4 364.825 525.8C364.825 536.067 363.092 545.6 359.625 554.4C356.158 563.2 351.292 570.867 345.025 577.4C338.758 583.933 331.358 589 322.825 592.6C314.292 596.2 304.958 598 294.825 598ZM294.825 573.2C301.225 573.2 307.025 572.067 312.225 569.8C317.558 567.4 322.158 564.067 326.025 559.8C329.892 555.4 332.892 550.333 335.025 544.6C337.292 538.867 338.425 532.6 338.425 525.8C338.425 519 337.292 512.733 335.025 507C332.892 501.267 329.892 496.267 326.025 492C322.158 487.6 317.558 484.267 312.225 482C307.025 479.6 301.225 478.4 294.825 478.4C288.558 478.4 282.758 479.6 277.425 482C272.092 484.267 267.492 487.533 263.625 491.8C259.758 496.067 256.758 501.067 254.625 506.8C252.492 512.533 251.425 518.867 251.425 525.8C251.425 532.6 252.492 538.933 254.625 544.8C256.758 550.533 259.758 555.533 263.625 559.8C267.492 564.067 272.092 567.4 277.425 569.8C282.758 572.067 288.558 573.2 294.825 573.2ZM423.188 596V526.2L424.588 536L367.988 456H398.388L441.588 518L432.188 517.4L471.188 456H500.388L446.188 538.2L449.188 524.6V596H423.188ZM488.356 596L542.956 456H567.356L621.556 596H594.556L564.556 516.4C563.89 514.8 562.956 512.267 561.756 508.8C560.69 505.333 559.49 501.6 558.156 497.6C556.823 493.467 555.623 489.667 554.556 486.2C553.49 482.6 552.69 480 552.156 478.4L557.156 478.2C556.356 480.867 555.423 483.867 554.356 487.2C553.29 490.533 552.156 494 550.956 497.6C549.756 501.2 548.556 504.667 547.356 508C546.29 511.333 545.29 514.333 544.356 517L514.356 596H488.356ZM513.156 564L522.156 541.4H585.956L595.556 564H513.156ZM643.605 596V456H669.605V572H734.205V596H643.605ZM777.094 596V526.2L778.494 536L721.894 456H752.294L795.494 518L786.094 517.4L825.094 456H854.294L800.094 538.2L803.094 524.6V596H777.094ZM903.831 596V480H863.831V456H971.031V480H929.831V596H903.831ZM992.334 596V573H1015.33V479H992.334V456H1064.33V479H1041.33V573H1064.33V596H992.334ZM1153.98 598C1143.85 598 1134.58 596.267 1126.18 592.8C1117.78 589.333 1110.51 584.4 1104.38 578C1098.25 571.467 1093.45 563.8 1089.98 555C1086.65 546.067 1084.98 536.333 1084.98 525.8C1084.98 515.667 1086.78 506.267 1090.38 497.6C1093.98 488.933 1098.98 481.333 1105.38 474.8C1111.78 468.267 1119.25 463.2 1127.78 459.6C1136.31 456 1145.58 454.2 1155.58 454.2C1162.38 454.2 1168.98 455.2 1175.38 457.2C1181.78 459.2 1187.65 462 1192.98 465.6C1198.31 469.067 1202.78 473.133 1206.38 477.8L1189.78 496C1186.31 492.4 1182.71 489.4 1178.98 487C1175.38 484.467 1171.58 482.6 1167.58 481.4C1163.71 480.067 1159.71 479.4 1155.58 479.4C1149.45 479.4 1143.65 480.533 1138.18 482.8C1132.85 485.067 1128.18 488.267 1124.18 492.4C1120.31 496.533 1117.25 501.467 1114.98 507.2C1112.71 512.8 1111.58 519.067 1111.58 526C1111.58 533.067 1112.65 539.467 1114.78 545.2C1117.05 550.933 1120.18 555.867 1124.18 560C1128.31 564.133 1133.18 567.333 1138.78 569.6C1144.51 571.733 1150.78 572.8 1157.58 572.8C1161.98 572.8 1166.25 572.2 1170.38 571C1174.51 569.8 1178.31 568.133 1181.78 566C1185.38 563.733 1188.65 561.133 1191.58 558.2L1204.38 578.8C1201.18 582.4 1196.91 585.667 1191.58 588.6C1186.25 591.533 1180.25 593.867 1173.58 595.6C1167.05 597.2 1160.51 598 1153.98 598ZM1275.7 598C1267.57 598 1260.1 597 1253.3 595C1246.5 592.867 1240.37 589.733 1234.9 585.6C1229.43 581.467 1224.57 576.467 1220.3 570.6L1237.3 551.4C1243.83 560.467 1250.23 566.733 1256.5 570.2C1262.77 573.667 1269.83 575.4 1277.7 575.4C1282.23 575.4 1286.37 574.733 1290.1 573.4C1293.83 571.933 1296.77 570 1298.9 567.6C1301.03 565.067 1302.1 562.2 1302.1 559C1302.1 556.733 1301.63 554.667 1300.7 552.8C1299.9 550.8 1298.63 549.067 1296.9 547.6C1295.17 546 1293.03 544.533 1290.5 543.2C1287.97 541.867 1285.1 540.733 1281.9 539.8C1278.7 538.867 1275.17 538 1271.3 537.2C1263.97 535.733 1257.57 533.8 1252.1 531.4C1246.63 528.867 1242.03 525.8 1238.3 522.2C1234.57 518.467 1231.83 514.333 1230.1 509.8C1228.37 505.133 1227.5 499.867 1227.5 494C1227.5 488.133 1228.77 482.733 1231.3 477.8C1233.97 472.867 1237.57 468.6 1242.1 465C1246.63 461.4 1251.9 458.6 1257.9 456.6C1263.9 454.6 1270.37 453.6 1277.3 453.6C1285.17 453.6 1292.17 454.533 1298.3 456.4C1304.57 458.267 1310.03 461.067 1314.7 464.8C1319.5 468.4 1323.43 472.8 1326.5 478L1309.3 495C1306.63 490.867 1303.63 487.467 1300.3 484.8C1296.97 482 1293.37 479.933 1289.5 478.6C1285.63 477.133 1281.57 476.4 1277.3 476.4C1272.5 476.4 1268.3 477.067 1264.7 478.4C1261.23 479.733 1258.5 481.667 1256.5 484.2C1254.5 486.6 1253.5 489.533 1253.5 493C1253.5 495.667 1254.1 498.067 1255.3 500.2C1256.5 502.2 1258.17 504 1260.3 505.6C1262.57 507.2 1265.43 508.6 1268.9 509.8C1272.37 511 1276.3 512.067 1280.7 513C1288.03 514.467 1294.63 516.467 1300.5 519C1306.37 521.4 1311.37 524.333 1315.5 527.8C1319.63 531.133 1322.77 535 1324.9 539.4C1327.03 543.667 1328.1 548.467 1328.1 553.8C1328.1 563 1325.9 570.933 1321.5 577.6C1317.23 584.133 1311.17 589.2 1303.3 592.8C1295.43 596.267 1286.23 598 1275.7 598Z" fill="#11335B"/>
<path opacity="0.5" d="M-537.291 420V280H-511.291V420H-537.291ZM-627.091 420V280H-601.091V420H-627.091ZM-616.291 362.4V338H-524.691V362.4H-616.291ZM-413.175 422C-423.175 422 -432.442 420.2 -440.975 416.6C-449.508 413 -456.975 408 -463.375 401.6C-469.642 395.067 -474.508 387.4 -477.975 378.6C-481.442 369.8 -483.175 360.2 -483.175 349.8C-483.175 339.4 -481.442 329.8 -477.975 321C-474.508 312.2 -469.642 304.6 -463.375 298.2C-456.975 291.667 -449.508 286.6 -440.975 283C-432.442 279.4 -423.175 277.6 -413.175 277.6C-403.042 277.6 -393.708 279.4 -385.175 283C-376.642 286.6 -369.242 291.667 -362.975 298.2C-356.708 304.733 -351.842 312.4 -348.375 321.2C-344.908 329.867 -343.175 339.4 -343.175 349.8C-343.175 360.067 -344.908 369.6 -348.375 378.4C-351.842 387.2 -356.708 394.867 -362.975 401.4C-369.242 407.933 -376.642 413 -385.175 416.6C-393.708 420.2 -403.042 422 -413.175 422ZM-413.175 397.2C-406.775 397.2 -400.975 396.067 -395.775 393.8C-390.442 391.4 -385.842 388.067 -381.975 383.8C-378.108 379.4 -375.108 374.333 -372.975 368.6C-370.708 362.867 -369.575 356.6 -369.575 349.8C-369.575 343 -370.708 336.733 -372.975 331C-375.108 325.267 -378.108 320.267 -381.975 316C-385.842 311.6 -390.442 308.267 -395.775 306C-400.975 303.6 -406.775 302.4 -413.175 302.4C-419.442 302.4 -425.242 303.6 -430.575 306C-435.908 308.267 -440.508 311.533 -444.375 315.8C-448.242 320.067 -451.242 325.067 -453.375 330.8C-455.508 336.533 -456.575 342.867 -456.575 349.8C-456.575 356.6 -455.508 362.933 -453.375 368.8C-451.242 374.533 -448.242 379.533 -444.375 383.8C-440.508 388.067 -435.908 391.4 -430.575 393.8C-425.242 396.067 -419.442 397.2 -413.175 397.2ZM-284.812 420V350.2L-283.412 360L-340.012 280H-309.612L-266.412 342L-275.812 341.4L-236.812 280H-207.612L-261.812 362.2L-258.812 348.6V420H-284.812ZM-219.644 420L-165.044 280H-140.644L-86.4437 420H-113.444L-143.444 340.4C-144.11 338.8 -145.044 336.267 -146.244 332.8C-147.31 329.333 -148.51 325.6 -149.844 321.6C-151.177 317.467 -152.377 313.667 -153.444 310.2C-154.51 306.6 -155.31 304 -155.844 302.4L-150.844 302.2C-151.644 304.867 -152.577 307.867 -153.644 311.2C-154.71 314.533 -155.844 318 -157.044 321.6C-158.244 325.2 -159.444 328.667 -160.644 332C-161.71 335.333 -162.71 338.333 -163.644 341L-193.644 420H-219.644ZM-194.844 388L-185.844 365.4H-122.044L-112.444 388H-194.844ZM-64.3953 420V280H-38.3953V396H26.2047V420H-64.3953ZM69.0938 420V350.2L70.4938 360L13.8938 280H44.2938L87.4938 342L78.0938 341.4L117.094 280H146.294L92.0938 362.2L95.0938 348.6V420H69.0938ZM195.831 420V304H155.831V280H263.031V304H221.831V420H195.831ZM284.334 420V397H307.334V303H284.334V280H356.334V303H333.334V397H356.334V420H284.334ZM445.981 422C435.848 422 426.581 420.267 418.181 416.8C409.781 413.333 402.515 408.4 396.381 402C390.248 395.467 385.448 387.8 381.981 379C378.648 370.067 376.981 360.333 376.981 349.8C376.981 339.667 378.781 330.267 382.381 321.6C385.981 312.933 390.981 305.333 397.381 298.8C403.781 292.267 411.248 287.2 419.781 283.6C428.315 280 437.581 278.2 447.581 278.2C454.381 278.2 460.981 279.2 467.381 281.2C473.781 283.2 479.648 286 484.981 289.6C490.315 293.067 494.781 297.133 498.381 301.8L481.781 320C478.315 316.4 474.715 313.4 470.981 311C467.381 308.467 463.581 306.6 459.581 305.4C455.715 304.067 451.715 303.4 447.581 303.4C441.448 303.4 435.648 304.533 430.181 306.8C424.848 309.067 420.181 312.267 416.181 316.4C412.315 320.533 409.248 325.467 406.981 331.2C404.715 336.8 403.581 343.067 403.581 350C403.581 357.067 404.648 363.467 406.781 369.2C409.048 374.933 412.181 379.867 416.181 384C420.315 388.133 425.181 391.333 430.781 393.6C436.515 395.733 442.781 396.8 449.581 396.8C453.981 396.8 458.248 396.2 462.381 395C466.515 393.8 470.315 392.133 473.781 390C477.381 387.733 480.648 385.133 483.581 382.2L496.381 402.8C493.181 406.4 488.915 409.667 483.581 412.6C478.248 415.533 472.248 417.867 465.581 419.6C459.048 421.2 452.515 422 445.981 422ZM567.7 422C559.567 422 552.1 421 545.3 419C538.5 416.867 532.367 413.733 526.9 409.6C521.433 405.467 516.567 400.467 512.3 394.6L529.3 375.4C535.833 384.467 542.233 390.733 548.5 394.2C554.767 397.667 561.833 399.4 569.7 399.4C574.233 399.4 578.367 398.733 582.1 397.4C585.833 395.933 588.767 394 590.9 391.6C593.033 389.067 594.1 386.2 594.1 383C594.1 380.733 593.633 378.667 592.7 376.8C591.9 374.8 590.633 373.067 588.9 371.6C587.167 370 585.033 368.533 582.5 367.2C579.967 365.867 577.1 364.733 573.9 363.8C570.7 362.867 567.167 362 563.3 361.2C555.967 359.733 549.567 357.8 544.1 355.4C538.633 352.867 534.033 349.8 530.3 346.2C526.567 342.467 523.833 338.333 522.1 333.8C520.367 329.133 519.5 323.867 519.5 318C519.5 312.133 520.767 306.733 523.3 301.8C525.967 296.867 529.567 292.6 534.1 289C538.633 285.4 543.9 282.6 549.9 280.6C555.9 278.6 562.367 277.6 569.3 277.6C577.167 277.6 584.167 278.533 590.3 280.4C596.567 282.267 602.033 285.067 606.7 288.8C611.5 292.4 615.433 296.8 618.5 302L601.3 319C598.633 314.867 595.633 311.467 592.3 308.8C588.967 306 585.367 303.933 581.5 302.6C577.633 301.133 573.567 300.4 569.3 300.4C564.5 300.4 560.3 301.067 556.7 302.4C553.233 303.733 550.5 305.667 548.5 308.2C546.5 310.6 545.5 313.533 545.5 317C545.5 319.667 546.1 322.067 547.3 324.2C548.5 326.2 550.167 328 552.3 329.6C554.567 331.2 557.433 332.6 560.9 333.8C564.367 335 568.3 336.067 572.7 337C580.033 338.467 586.633 340.467 592.5 343C598.367 345.4 603.367 348.333 607.5 351.8C611.633 355.133 614.767 359 616.9 363.4C619.033 367.667 620.1 372.467 620.1 377.8C620.1 387 617.9 394.933 613.5 401.6C609.233 408.133 603.167 413.2 595.3 416.8C587.433 420.267 578.233 422 567.7 422Z" fill="#11335B"/>
<path opacity="0.5" d="M-537.291 780V640H-511.291V780H-537.291ZM-627.091 780V640H-601.091V780H-627.091ZM-616.291 722.4V698H-524.691V722.4H-616.291ZM-413.175 782C-423.175 782 -432.442 780.2 -440.975 776.6C-449.508 773 -456.975 768 -463.375 761.6C-469.642 755.067 -474.508 747.4 -477.975 738.6C-481.442 729.8 -483.175 720.2 -483.175 709.8C-483.175 699.4 -481.442 689.8 -477.975 681C-474.508 672.2 -469.642 664.6 -463.375 658.2C-456.975 651.667 -449.508 646.6 -440.975 643C-432.442 639.4 -423.175 637.6 -413.175 637.6C-403.042 637.6 -393.708 639.4 -385.175 643C-376.642 646.6 -369.242 651.667 -362.975 658.2C-356.708 664.733 -351.842 672.4 -348.375 681.2C-344.908 689.867 -343.175 699.4 -343.175 709.8C-343.175 720.067 -344.908 729.6 -348.375 738.4C-351.842 747.2 -356.708 754.867 -362.975 761.4C-369.242 767.933 -376.642 773 -385.175 776.6C-393.708 780.2 -403.042 782 -413.175 782ZM-413.175 757.2C-406.775 757.2 -400.975 756.067 -395.775 753.8C-390.442 751.4 -385.842 748.067 -381.975 743.8C-378.108 739.4 -375.108 734.333 -372.975 728.6C-370.708 722.867 -369.575 716.6 -369.575 709.8C-369.575 703 -370.708 696.733 -372.975 691C-375.108 685.267 -378.108 680.267 -381.975 676C-385.842 671.6 -390.442 668.267 -395.775 666C-400.975 663.6 -406.775 662.4 -413.175 662.4C-419.442 662.4 -425.242 663.6 -430.575 666C-435.908 668.267 -440.508 671.533 -444.375 675.8C-448.242 680.067 -451.242 685.067 -453.375 690.8C-455.508 696.533 -456.575 702.867 -456.575 709.8C-456.575 716.6 -455.508 722.933 -453.375 728.8C-451.242 734.533 -448.242 739.533 -444.375 743.8C-440.508 748.067 -435.908 751.4 -430.575 753.8C-425.242 756.067 -419.442 757.2 -413.175 757.2ZM-284.812 780V710.2L-283.412 720L-340.012 640H-309.612L-266.412 702L-275.812 701.4L-236.812 640H-207.612L-261.812 722.2L-258.812 708.6V780H-284.812ZM-219.644 780L-165.044 640H-140.644L-86.4437 780H-113.444L-143.444 700.4C-144.11 698.8 -145.044 696.267 -146.244 692.8C-147.31 689.333 -148.51 685.6 -149.844 681.6C-151.177 677.467 -152.377 673.667 -153.444 670.2C-154.51 666.6 -155.31 664 -155.844 662.4L-150.844 662.2C-151.644 664.867 -152.577 667.867 -153.644 671.2C-154.71 674.533 -155.844 678 -157.044 681.6C-158.244 685.2 -159.444 688.667 -160.644 692C-161.71 695.333 -162.71 698.333 -163.644 701L-193.644 780H-219.644ZM-194.844 748L-185.844 725.4H-122.044L-112.444 748H-194.844ZM-64.3953 780V640H-38.3953V756H26.2047V780H-64.3953ZM69.0938 780V710.2L70.4938 720L13.8938 640H44.2938L87.4938 702L78.0938 701.4L117.094 640H146.294L92.0938 722.2L95.0938 708.6V780H69.0938ZM195.831 780V664H155.831V640H263.031V664H221.831V780H195.831ZM284.334 780V757H307.334V663H284.334V640H356.334V663H333.334V757H356.334V780H284.334ZM445.981 782C435.848 782 426.581 780.267 418.181 776.8C409.781 773.333 402.515 768.4 396.381 762C390.248 755.467 385.448 747.8 381.981 739C378.648 730.067 376.981 720.333 376.981 709.8C376.981 699.667 378.781 690.267 382.381 681.6C385.981 672.933 390.981 665.333 397.381 658.8C403.781 652.267 411.248 647.2 419.781 643.6C428.315 640 437.581 638.2 447.581 638.2C454.381 638.2 460.981 639.2 467.381 641.2C473.781 643.2 479.648 646 484.981 649.6C490.315 653.067 494.781 657.133 498.381 661.8L481.781 680C478.315 676.4 474.715 673.4 470.981 671C467.381 668.467 463.581 666.6 459.581 665.4C455.715 664.067 451.715 663.4 447.581 663.4C441.448 663.4 435.648 664.533 430.181 666.8C424.848 669.067 420.181 672.267 416.181 676.4C412.315 680.533 409.248 685.467 406.981 691.2C404.715 696.8 403.581 703.067 403.581 710C403.581 717.067 404.648 723.467 406.781 729.2C409.048 734.933 412.181 739.867 416.181 744C420.315 748.133 425.181 751.333 430.781 753.6C436.515 755.733 442.781 756.8 449.581 756.8C453.981 756.8 458.248 756.2 462.381 755C466.515 753.8 470.315 752.133 473.781 750C477.381 747.733 480.648 745.133 483.581 742.2L496.381 762.8C493.181 766.4 488.915 769.667 483.581 772.6C478.248 775.533 472.248 777.867 465.581 779.6C459.048 781.2 452.515 782 445.981 782ZM567.7 782C559.567 782 552.1 781 545.3 779C538.5 776.867 532.367 773.733 526.9 769.6C521.433 765.467 516.567 760.467 512.3 754.6L529.3 735.4C535.833 744.467 542.233 750.733 548.5 754.2C554.767 757.667 561.833 759.4 569.7 759.4C574.233 759.4 578.367 758.733 582.1 757.4C585.833 755.933 588.767 754 590.9 751.6C593.033 749.067 594.1 746.2 594.1 743C594.1 740.733 593.633 738.667 592.7 736.8C591.9 734.8 590.633 733.067 588.9 731.6C587.167 730 585.033 728.533 582.5 727.2C579.967 725.867 577.1 724.733 573.9 723.8C570.7 722.867 567.167 722 563.3 721.2C555.967 719.733 549.567 717.8 544.1 715.4C538.633 712.867 534.033 709.8 530.3 706.2C526.567 702.467 523.833 698.333 522.1 693.8C520.367 689.133 519.5 683.867 519.5 678C519.5 672.133 520.767 666.733 523.3 661.8C525.967 656.867 529.567 652.6 534.1 649C538.633 645.4 543.9 642.6 549.9 640.6C555.9 638.6 562.367 637.6 569.3 637.6C577.167 637.6 584.167 638.533 590.3 640.4C596.567 642.267 602.033 645.067 606.7 648.8C611.5 652.4 615.433 656.8 618.5 662L601.3 679C598.633 674.867 595.633 671.467 592.3 668.8C588.967 666 585.367 663.933 581.5 662.6C577.633 661.133 573.567 660.4 569.3 660.4C564.5 660.4 560.3 661.067 556.7 662.4C553.233 663.733 550.5 665.667 548.5 668.2C546.5 670.6 545.5 673.533 545.5 677C545.5 679.667 546.1 682.067 547.3 684.2C548.5 686.2 550.167 688 552.3 689.6C554.567 691.2 557.433 692.6 560.9 693.8C564.367 695 568.3 696.067 572.7 697C580.033 698.467 586.633 700.467 592.5 703C598.367 705.4 603.367 708.333 607.5 711.8C611.633 715.133 614.767 719 616.9 723.4C619.033 727.667 620.1 732.467 620.1 737.8C620.1 747 617.9 754.933 613.5 761.6C609.233 768.133 603.167 773.2 595.3 776.8C587.433 780.267 578.233 782 567.7 782Z" fill="#11335B"/>
<path opacity="0.5" d="M799.709 421V281H825.709V421H799.709ZM709.909 421V281H735.909V421H709.909ZM720.709 363.4V339H812.309V363.4H720.709ZM923.825 423C913.825 423 904.558 421.2 896.025 417.6C887.492 414 880.025 409 873.625 402.6C867.358 396.067 862.492 388.4 859.025 379.6C855.558 370.8 853.825 361.2 853.825 350.8C853.825 340.4 855.558 330.8 859.025 322C862.492 313.2 867.358 305.6 873.625 299.2C880.025 292.667 887.492 287.6 896.025 284C904.558 280.4 913.825 278.6 923.825 278.6C933.958 278.6 943.292 280.4 951.825 284C960.358 287.6 967.758 292.667 974.025 299.2C980.292 305.733 985.158 313.4 988.625 322.2C992.092 330.867 993.825 340.4 993.825 350.8C993.825 361.067 992.092 370.6 988.625 379.4C985.158 388.2 980.292 395.867 974.025 402.4C967.758 408.933 960.358 414 951.825 417.6C943.292 421.2 933.958 423 923.825 423ZM923.825 398.2C930.225 398.2 936.025 397.067 941.225 394.8C946.558 392.4 951.158 389.067 955.025 384.8C958.892 380.4 961.892 375.333 964.025 369.6C966.292 363.867 967.425 357.6 967.425 350.8C967.425 344 966.292 337.733 964.025 332C961.892 326.267 958.892 321.267 955.025 317C951.158 312.6 946.558 309.267 941.225 307C936.025 304.6 930.225 303.4 923.825 303.4C917.558 303.4 911.758 304.6 906.425 307C901.092 309.267 896.492 312.533 892.625 316.8C888.758 321.067 885.758 326.067 883.625 331.8C881.492 337.533 880.425 343.867 880.425 350.8C880.425 357.6 881.492 363.933 883.625 369.8C885.758 375.533 888.758 380.533 892.625 384.8C896.492 389.067 901.092 392.4 906.425 394.8C911.758 397.067 917.558 398.2 923.825 398.2ZM1052.19 421V351.2L1053.59 361L996.988 281H1027.39L1070.59 343L1061.19 342.4L1100.19 281H1129.39L1075.19 363.2L1078.19 349.6V421H1052.19ZM1117.36 421L1171.96 281H1196.36L1250.56 421H1223.56L1193.56 341.4C1192.89 339.8 1191.96 337.267 1190.76 333.8C1189.69 330.333 1188.49 326.6 1187.16 322.6C1185.82 318.467 1184.62 314.667 1183.56 311.2C1182.49 307.6 1181.69 305 1181.16 303.4L1186.16 303.2C1185.36 305.867 1184.42 308.867 1183.36 312.2C1182.29 315.533 1181.16 319 1179.96 322.6C1178.76 326.2 1177.56 329.667 1176.36 333C1175.29 336.333 1174.29 339.333 1173.36 342L1143.36 421H1117.36ZM1142.16 389L1151.16 366.4H1214.96L1224.56 389H1142.16ZM1272.6 421V281H1298.6V397H1363.2V421H1272.6ZM1406.09 421V351.2L1407.49 361L1350.89 281H1381.29L1424.49 343L1415.09 342.4L1454.09 281H1483.29L1429.09 363.2L1432.09 349.6V421H1406.09ZM1532.83 421V305H1492.83V281H1600.03V305H1558.83V421H1532.83ZM1621.33 421V398H1644.33V304H1621.33V281H1693.33V304H1670.33V398H1693.33V421H1621.33ZM1782.98 423C1772.85 423 1763.58 421.267 1755.18 417.8C1746.78 414.333 1739.51 409.4 1733.38 403C1727.25 396.467 1722.45 388.8 1718.98 380C1715.65 371.067 1713.98 361.333 1713.98 350.8C1713.98 340.667 1715.78 331.267 1719.38 322.6C1722.98 313.933 1727.98 306.333 1734.38 299.8C1740.78 293.267 1748.25 288.2 1756.78 284.6C1765.31 281 1774.58 279.2 1784.58 279.2C1791.38 279.2 1797.98 280.2 1804.38 282.2C1810.78 284.2 1816.65 287 1821.98 290.6C1827.31 294.067 1831.78 298.133 1835.38 302.8L1818.78 321C1815.31 317.4 1811.71 314.4 1807.98 312C1804.38 309.467 1800.58 307.6 1796.58 306.4C1792.71 305.067 1788.71 304.4 1784.58 304.4C1778.45 304.4 1772.65 305.533 1767.18 307.8C1761.85 310.067 1757.18 313.267 1753.18 317.4C1749.31 321.533 1746.25 326.467 1743.98 332.2C1741.71 337.8 1740.58 344.067 1740.58 351C1740.58 358.067 1741.65 364.467 1743.78 370.2C1746.05 375.933 1749.18 380.867 1753.18 385C1757.31 389.133 1762.18 392.333 1767.78 394.6C1773.51 396.733 1779.78 397.8 1786.58 397.8C1790.98 397.8 1795.25 397.2 1799.38 396C1803.51 394.8 1807.31 393.133 1810.78 391C1814.38 388.733 1817.65 386.133 1820.58 383.2L1833.38 403.8C1830.18 407.4 1825.91 410.667 1820.58 413.6C1815.25 416.533 1809.25 418.867 1802.58 420.6C1796.05 422.2 1789.51 423 1782.98 423ZM1904.7 423C1896.57 423 1889.1 422 1882.3 420C1875.5 417.867 1869.37 414.733 1863.9 410.6C1858.43 406.467 1853.57 401.467 1849.3 395.6L1866.3 376.4C1872.83 385.467 1879.23 391.733 1885.5 395.2C1891.77 398.667 1898.83 400.4 1906.7 400.4C1911.23 400.4 1915.37 399.733 1919.1 398.4C1922.83 396.933 1925.77 395 1927.9 392.6C1930.03 390.067 1931.1 387.2 1931.1 384C1931.1 381.733 1930.63 379.667 1929.7 377.8C1928.9 375.8 1927.63 374.067 1925.9 372.6C1924.17 371 1922.03 369.533 1919.5 368.2C1916.97 366.867 1914.1 365.733 1910.9 364.8C1907.7 363.867 1904.17 363 1900.3 362.2C1892.97 360.733 1886.57 358.8 1881.1 356.4C1875.63 353.867 1871.03 350.8 1867.3 347.2C1863.57 343.467 1860.83 339.333 1859.1 334.8C1857.37 330.133 1856.5 324.867 1856.5 319C1856.5 313.133 1857.77 307.733 1860.3 302.8C1862.97 297.867 1866.57 293.6 1871.1 290C1875.63 286.4 1880.9 283.6 1886.9 281.6C1892.9 279.6 1899.37 278.6 1906.3 278.6C1914.17 278.6 1921.17 279.533 1927.3 281.4C1933.57 283.267 1939.03 286.067 1943.7 289.8C1948.5 293.4 1952.43 297.8 1955.5 303L1938.3 320C1935.63 315.867 1932.63 312.467 1929.3 309.8C1925.97 307 1922.37 304.933 1918.5 303.6C1914.63 302.133 1910.57 301.4 1906.3 301.4C1901.5 301.4 1897.3 302.067 1893.7 303.4C1890.23 304.733 1887.5 306.667 1885.5 309.2C1883.5 311.6 1882.5 314.533 1882.5 318C1882.5 320.667 1883.1 323.067 1884.3 325.2C1885.5 327.2 1887.17 329 1889.3 330.6C1891.57 332.2 1894.43 333.6 1897.9 334.8C1901.37 336 1905.3 337.067 1909.7 338C1917.03 339.467 1923.63 341.467 1929.5 344C1935.37 346.4 1940.37 349.333 1944.5 352.8C1948.63 356.133 1951.77 360 1953.9 364.4C1956.03 368.667 1957.1 373.467 1957.1 378.8C1957.1 388 1954.9 395.933 1950.5 402.6C1946.23 409.133 1940.17 414.2 1932.3 417.8C1924.43 421.267 1915.23 423 1904.7 423Z" fill="#11335B"/>
<path opacity="0.5" d="M799.709 781V641H825.709V781H799.709ZM709.909 781V641H735.909V781H709.909ZM720.709 723.4V699H812.309V723.4H720.709ZM923.825 783C913.825 783 904.558 781.2 896.025 777.6C887.492 774 880.025 769 873.625 762.6C867.358 756.067 862.492 748.4 859.025 739.6C855.558 730.8 853.825 721.2 853.825 710.8C853.825 700.4 855.558 690.8 859.025 682C862.492 673.2 867.358 665.6 873.625 659.2C880.025 652.667 887.492 647.6 896.025 644C904.558 640.4 913.825 638.6 923.825 638.6C933.958 638.6 943.292 640.4 951.825 644C960.358 647.6 967.758 652.667 974.025 659.2C980.292 665.733 985.158 673.4 988.625 682.2C992.092 690.867 993.825 700.4 993.825 710.8C993.825 721.067 992.092 730.6 988.625 739.4C985.158 748.2 980.292 755.867 974.025 762.4C967.758 768.933 960.358 774 951.825 777.6C943.292 781.2 933.958 783 923.825 783ZM923.825 758.2C930.225 758.2 936.025 757.067 941.225 754.8C946.558 752.4 951.158 749.067 955.025 744.8C958.892 740.4 961.892 735.333 964.025 729.6C966.292 723.867 967.425 717.6 967.425 710.8C967.425 704 966.292 697.733 964.025 692C961.892 686.267 958.892 681.267 955.025 677C951.158 672.6 946.558 669.267 941.225 667C936.025 664.6 930.225 663.4 923.825 663.4C917.558 663.4 911.758 664.6 906.425 667C901.092 669.267 896.492 672.533 892.625 676.8C888.758 681.067 885.758 686.067 883.625 691.8C881.492 697.533 880.425 703.867 880.425 710.8C880.425 717.6 881.492 723.933 883.625 729.8C885.758 735.533 888.758 740.533 892.625 744.8C896.492 749.067 901.092 752.4 906.425 754.8C911.758 757.067 917.558 758.2 923.825 758.2ZM1052.19 781V711.2L1053.59 721L996.988 641H1027.39L1070.59 703L1061.19 702.4L1100.19 641H1129.39L1075.19 723.2L1078.19 709.6V781H1052.19ZM1117.36 781L1171.96 641H1196.36L1250.56 781H1223.56L1193.56 701.4C1192.89 699.8 1191.96 697.267 1190.76 693.8C1189.69 690.333 1188.49 686.6 1187.16 682.6C1185.82 678.467 1184.62 674.667 1183.56 671.2C1182.49 667.6 1181.69 665 1181.16 663.4L1186.16 663.2C1185.36 665.867 1184.42 668.867 1183.36 672.2C1182.29 675.533 1181.16 679 1179.96 682.6C1178.76 686.2 1177.56 689.667 1176.36 693C1175.29 696.333 1174.29 699.333 1173.36 702L1143.36 781H1117.36ZM1142.16 749L1151.16 726.4H1214.96L1224.56 749H1142.16ZM1272.6 781V641H1298.6V757H1363.2V781H1272.6ZM1406.09 781V711.2L1407.49 721L1350.89 641H1381.29L1424.49 703L1415.09 702.4L1454.09 641H1483.29L1429.09 723.2L1432.09 709.6V781H1406.09ZM1532.83 781V665H1492.83V641H1600.03V665H1558.83V781H1532.83ZM1621.33 781V758H1644.33V664H1621.33V641H1693.33V664H1670.33V758H1693.33V781H1621.33ZM1782.98 783C1772.85 783 1763.58 781.267 1755.18 777.8C1746.78 774.333 1739.51 769.4 1733.38 763C1727.25 756.467 1722.45 748.8 1718.98 740C1715.65 731.067 1713.98 721.333 1713.98 710.8C1713.98 700.667 1715.78 691.267 1719.38 682.6C1722.98 673.933 1727.98 666.333 1734.38 659.8C1740.78 653.267 1748.25 648.2 1756.78 644.6C1765.31 641 1774.58 639.2 1784.58 639.2C1791.38 639.2 1797.98 640.2 1804.38 642.2C1810.78 644.2 1816.65 647 1821.98 650.6C1827.31 654.067 1831.78 658.133 1835.38 662.8L1818.78 681C1815.31 677.4 1811.71 674.4 1807.98 672C1804.38 669.467 1800.58 667.6 1796.58 666.4C1792.71 665.067 1788.71 664.4 1784.58 664.4C1778.45 664.4 1772.65 665.533 1767.18 667.8C1761.85 670.067 1757.18 673.267 1753.18 677.4C1749.31 681.533 1746.25 686.467 1743.98 692.2C1741.71 697.8 1740.58 704.067 1740.58 711C1740.58 718.067 1741.65 724.467 1743.78 730.2C1746.05 735.933 1749.18 740.867 1753.18 745C1757.31 749.133 1762.18 752.333 1767.78 754.6C1773.51 756.733 1779.78 757.8 1786.58 757.8C1790.98 757.8 1795.25 757.2 1799.38 756C1803.51 754.8 1807.31 753.133 1810.78 751C1814.38 748.733 1817.65 746.133 1820.58 743.2L1833.38 763.8C1830.18 767.4 1825.91 770.667 1820.58 773.6C1815.25 776.533 1809.25 778.867 1802.58 780.6C1796.05 782.2 1789.51 783 1782.98 783ZM1904.7 783C1896.57 783 1889.1 782 1882.3 780C1875.5 777.867 1869.37 774.733 1863.9 770.6C1858.43 766.467 1853.57 761.467 1849.3 755.6L1866.3 736.4C1872.83 745.467 1879.23 751.733 1885.5 755.2C1891.77 758.667 1898.83 760.4 1906.7 760.4C1911.23 760.4 1915.37 759.733 1919.1 758.4C1922.83 756.933 1925.77 755 1927.9 752.6C1930.03 750.067 1931.1 747.2 1931.1 744C1931.1 741.733 1930.63 739.667 1929.7 737.8C1928.9 735.8 1927.63 734.067 1925.9 732.6C1924.17 731 1922.03 729.533 1919.5 728.2C1916.97 726.867 1914.1 725.733 1910.9 724.8C1907.7 723.867 1904.17 723 1900.3 722.2C1892.97 720.733 1886.57 718.8 1881.1 716.4C1875.63 713.867 1871.03 710.8 1867.3 707.2C1863.57 703.467 1860.83 699.333 1859.1 694.8C1857.37 690.133 1856.5 684.867 1856.5 679C1856.5 673.133 1857.77 667.733 1860.3 662.8C1862.97 657.867 1866.57 653.6 1871.1 650C1875.63 646.4 1880.9 643.6 1886.9 641.6C1892.9 639.6 1899.37 638.6 1906.3 638.6C1914.17 638.6 1921.17 639.533 1927.3 641.4C1933.57 643.267 1939.03 646.067 1943.7 649.8C1948.5 653.4 1952.43 657.8 1955.5 663L1938.3 680C1935.63 675.867 1932.63 672.467 1929.3 669.8C1925.97 667 1922.37 664.933 1918.5 663.6C1914.63 662.133 1910.57 661.4 1906.3 661.4C1901.5 661.4 1897.3 662.067 1893.7 663.4C1890.23 664.733 1887.5 666.667 1885.5 669.2C1883.5 671.6 1882.5 674.533 1882.5 678C1882.5 680.667 1883.1 683.067 1884.3 685.2C1885.5 687.2 1887.17 689 1889.3 690.6C1891.57 692.2 1894.43 693.6 1897.9 694.8C1901.37 696 1905.3 697.067 1909.7 698C1917.03 699.467 1923.63 701.467 1929.5 704C1935.37 706.4 1940.37 709.333 1944.5 712.8C1948.63 716.133 1951.77 720 1953.9 724.4C1956.03 728.667 1957.1 733.467 1957.1 738.8C1957.1 748 1954.9 755.933 1950.5 762.6C1946.23 769.133 1940.17 774.2 1932.3 777.8C1924.43 781.267 1915.23 783 1904.7 783Z" fill="#11335B"/>
</svg>
