<svg width="888" height="400" viewBox="0 0 888 400" fill="none" xmlns="http://www.w3.org/2000/svg">
<path d="M43.4991 252.5C-21.0008 276 -68.5 383.5 466.498 395" stroke="#58CCED" stroke-width="10"/>
<path d="M846.997 253C911.497 276.5 940.5 382 466.998 395" stroke="#58CCED" stroke-width="10"/>
<ellipse cx="444" cy="288" rx="442" ry="102" fill="#0A1D33"/>
<g clip-path="url(#clip0_1074_2)">
<path d="M666.658 251.386L668.398 260.113C668.529 260.78 668.666 261.459 668.816 262.132C670.27 261.831 671.779 261.915 673.191 262.376C672.07 263.976 671.066 265.654 670.186 267.398C671.283 270.776 672.893 273.897 675.587 276.155C677.386 277.629 679.536 278.615 681.827 279.018C684.119 279.421 686.476 279.226 688.671 278.454L688.593 278.109C691.49 272.491 689.916 265.408 686.316 260.22C684.48 257.66 682.304 255.362 679.849 253.387C677.417 251.362 674.788 249.545 672.183 247.752C671.598 247.35 670.907 247.131 670.197 247.124C669.487 247.117 668.791 247.321 668.197 247.712C667.604 248.102 667.141 248.659 666.867 249.314C666.592 249.968 666.52 250.69 666.658 251.386Z" fill="#58CCED"/>
<path d="M688.05 299.452C688.783 294.119 689.536 288.718 689.022 283.327C688.566 278.54 687.105 273.865 684.129 270.031C682.55 268 680.628 266.259 678.45 264.888C677.882 264.531 677.36 265.43 677.925 265.786C681.693 268.166 684.608 271.68 686.248 275.822C688.06 280.427 688.351 285.449 688.036 290.341C687.847 293.3 687.447 296.238 687.044 299.175C687.011 299.308 687.031 299.448 687.099 299.567C687.166 299.686 687.277 299.775 687.408 299.815C687.541 299.851 687.683 299.833 687.802 299.765C687.922 299.697 688.01 299.584 688.048 299.451L688.05 299.452Z" fill="#F2F2F2"/>
<path d="M681.762 31.9492C656.228 31.5055 630.691 31.4418 605.151 31.758C579.615 32.0761 554.088 32.7759 528.57 33.8573C514.25 34.4642 499.936 35.1912 485.628 36.0384C484.479 36.1064 484.483 34.3191 485.628 34.2514C511.121 32.7438 536.633 31.6157 562.164 30.8672C587.691 30.1207 613.225 29.7559 638.767 29.7727C653.099 29.7823 667.431 29.9121 681.762 30.1622C682.911 30.1822 682.915 31.9693 681.762 31.9492V31.9492Z" fill="#3895D4"/>
<path d="M503.813 20.7438L492.648 19.9134C491.507 19.8285 491.498 18.0408 492.648 18.1263L503.813 18.9567C504.954 19.0416 504.963 20.8293 503.813 20.7438Z" fill="#3895D4"/>
<path d="M503.813 31.4662L492.648 30.6358C491.507 30.5509 491.498 28.7632 492.648 28.8487L503.813 29.6792C504.954 29.764 504.963 31.5518 503.813 31.4662Z" fill="#3895D4"/>
<path d="M504.655 26.5696L488.781 28.0108C487.635 28.1148 487.642 26.3271 488.781 26.2238L504.655 24.7825C505.801 24.6785 505.794 26.4662 504.655 26.5696Z" fill="#3895D4"/>
<path d="M675.152 18.3405C675.929 18.3357 676.69 18.5594 677.34 18.9837C677.99 19.408 678.5 20.0141 678.808 20.7265C679.152 21.4238 679.259 22.2146 679.111 22.9779C678.963 23.7412 678.569 24.4351 677.989 24.9535C677.444 25.417 676.79 25.7348 676.088 25.8772C675.387 26.0196 674.661 25.9819 673.978 25.7678C673.28 25.524 672.674 25.0699 672.245 24.4679C671.815 23.866 671.583 23.1458 671.58 22.4065C671.549 21.5863 671.771 20.7764 672.217 20.0869C672.662 19.3974 673.31 18.8618 674.071 18.553C674.299 18.4909 674.543 18.5217 674.749 18.6386C674.955 18.7555 675.107 18.949 675.17 19.177C675.227 19.4053 675.193 19.6465 675.077 19.851C674.961 20.0554 674.771 20.2076 674.546 20.2762C674.39 20.3364 674.688 20.1996 674.543 20.2789C674.483 20.3114 674.422 20.3409 674.363 20.3756C674.313 20.4052 674.265 20.4376 674.217 20.4692C674.05 20.5781 674.298 20.3893 674.192 20.4872C674.099 20.5721 674.008 20.6549 673.923 20.7485C673.892 20.7839 673.767 20.8824 673.864 20.8136C673.938 20.7609 673.892 20.7733 673.864 20.8156C673.842 20.8477 673.819 20.8789 673.798 20.9111C673.728 21.0166 673.665 21.126 673.608 21.239C673.595 21.2651 673.583 21.2919 673.57 21.3179C673.545 21.3666 673.508 21.3794 673.567 21.3183C673.623 21.26 673.588 21.264 673.568 21.3201C673.554 21.357 673.54 21.3934 673.527 21.4305C673.485 21.551 673.45 21.6738 673.422 21.7982C673.408 21.8557 673.398 21.9135 673.387 21.9714C673.347 22.1766 673.392 21.8439 673.383 21.9963C673.375 22.1235 673.365 22.2494 673.368 22.3772C673.369 22.4357 673.371 22.4941 673.375 22.5524C673.377 22.5815 673.381 22.6105 673.382 22.6396C673.392 22.7798 673.392 22.5884 673.372 22.5753C673.413 22.6943 673.44 22.8176 673.453 22.9428C673.469 22.9984 673.488 23.0527 673.506 23.1077C673.568 23.2994 673.448 23.0031 673.514 23.1342C673.568 23.2467 673.629 23.3561 673.697 23.4616C673.726 23.5059 673.836 23.6057 673.746 23.5362C673.648 23.4608 673.797 23.5907 673.829 23.6241C673.869 23.667 673.912 23.7084 673.955 23.7484C673.983 23.7757 674.013 23.8015 674.044 23.8254C674.05 23.8226 673.895 23.7219 673.978 23.7752C674.084 23.8429 674.185 23.9153 674.297 23.9743C674.31 23.9812 674.453 24.0474 674.453 24.0498C674.459 24.0256 674.269 23.9828 674.399 24.025C674.427 24.0339 674.453 24.0446 674.481 24.0538C674.6 24.0937 674.721 24.126 674.844 24.1504C674.872 24.156 674.902 24.1589 674.93 24.1661C675.022 24.19 674.841 24.1521 674.836 24.1552C674.904 24.1522 674.973 24.1583 675.039 24.1732C675.166 24.1804 675.293 24.1804 675.42 24.1731C675.45 24.1715 675.479 24.1685 675.508 24.1668C675.576 24.1629 675.626 24.1138 675.536 24.1671C675.466 24.2082 675.472 24.1782 675.534 24.1668C675.563 24.1614 675.592 24.1569 675.621 24.1514C675.746 24.128 675.87 24.0976 675.993 24.0604C676.058 24.0404 676.123 24.0171 676.188 23.9944C676.216 23.9862 676.243 23.9756 676.27 23.9628C676.27 23.9554 676.103 24.0428 676.191 23.9952C676.303 23.935 676.418 23.8846 676.527 23.8188C676.586 23.7837 676.642 23.7456 676.698 23.708C676.723 23.6931 676.747 23.6761 676.769 23.6574C676.767 23.6499 676.63 23.7765 676.702 23.7081C676.793 23.6217 676.89 23.5443 676.976 23.4522C676.996 23.4311 677.014 23.4091 677.034 23.388L677.053 23.3663C677.101 23.3071 677.102 23.3074 677.055 23.3672C677.008 23.3811 677.01 23.4331 677.055 23.3656C677.071 23.3415 677.088 23.3182 677.104 23.2941C677.177 23.1907 677.239 23.0802 677.289 22.9643C677.285 22.9609 677.212 23.1793 677.267 23.0145C677.278 22.9833 677.29 22.9527 677.3 22.9215C677.321 22.8596 677.339 22.797 677.354 22.7337C677.37 22.671 677.378 22.6064 677.393 22.5439C677.42 22.4387 677.378 22.627 677.383 22.6223C677.398 22.6075 677.391 22.5163 677.393 22.4944C677.4 22.3542 677.384 22.2182 677.381 22.0788C677.379 21.9708 677.39 22.1629 677.392 22.1573C677.392 22.125 677.386 22.0929 677.375 22.0624C677.359 21.9889 677.344 21.9155 677.324 21.8428C677.302 21.7596 677.276 21.6774 677.246 21.5962C677.235 21.5658 677.222 21.5359 677.211 21.5052C677.174 21.393 677.286 21.6407 677.224 21.5396C677.139 21.4004 677.076 21.2497 676.985 21.1122C676.964 21.0796 676.834 20.8981 676.903 20.9898C676.972 21.081 676.832 20.908 676.806 20.8786C676.696 20.7566 676.567 20.6564 676.453 20.5395C676.386 20.4704 676.5 20.5736 676.507 20.5784C676.472 20.5533 676.437 20.5272 676.402 20.5027C676.34 20.46 676.276 20.4195 676.211 20.3814C676.138 20.3385 676.055 20.3065 675.984 20.261C675.9 20.2073 676.048 20.2846 676.051 20.2862C676.012 20.2672 675.972 20.2519 675.931 20.2406C675.862 20.216 675.56 20.0862 675.497 20.1268C675.5 20.125 675.726 20.145 675.543 20.1332C675.5 20.1305 675.457 20.1263 675.414 20.1245C675.327 20.1209 675.24 20.1231 675.152 20.1276C674.916 20.126 674.689 20.0314 674.522 19.8642C674.355 19.6969 674.26 19.4705 674.258 19.234C674.263 18.9987 674.359 18.7743 674.526 18.6078C674.692 18.4413 674.917 18.3456 675.152 18.3405L675.152 18.3405Z" fill="#3895D4"/>
<path d="M662.637 18.3405C663.413 18.3357 664.174 18.5594 664.824 18.9837C665.474 19.408 665.985 20.0141 666.293 20.7265C666.637 21.4238 666.743 22.2146 666.595 22.9779C666.447 23.7412 666.053 24.4351 665.473 24.9535C664.928 25.417 664.274 25.7348 663.573 25.8772C662.871 26.0196 662.145 25.9819 661.462 25.7678C660.764 25.524 660.158 25.0699 659.729 24.4679C659.299 23.866 659.067 23.1458 659.064 22.4065C659.033 21.5863 659.255 20.7764 659.701 20.0869C660.147 19.3974 660.794 18.8618 661.555 18.553C661.784 18.4909 662.027 18.5217 662.233 18.6386C662.44 18.7555 662.591 18.949 662.655 19.177C662.711 19.4053 662.678 19.6465 662.562 19.851C662.446 20.0554 662.255 20.2076 662.03 20.2762C661.874 20.3364 662.173 20.1996 662.027 20.2789C661.967 20.3114 661.906 20.3409 661.848 20.3756C661.798 20.4052 661.75 20.4376 661.701 20.4692C661.534 20.5781 661.783 20.3893 661.676 20.4872C661.584 20.5721 661.492 20.6549 661.408 20.7485C661.376 20.7839 661.251 20.8824 661.348 20.8136C661.422 20.7609 661.377 20.7733 661.348 20.8156C661.327 20.8477 661.304 20.8789 661.282 20.9111C661.213 21.0166 661.149 21.126 661.093 21.239C661.079 21.2651 661.067 21.2919 661.054 21.3179C661.029 21.3666 660.993 21.3794 661.052 21.3183C661.108 21.26 661.072 21.264 661.052 21.3201C661.039 21.357 661.024 21.3934 661.011 21.4305C660.969 21.551 660.934 21.6738 660.906 21.7982C660.893 21.8557 660.882 21.9135 660.871 21.9714C660.831 22.1766 660.877 21.8439 660.867 21.9963C660.859 22.1235 660.85 22.2494 660.852 22.3772C660.853 22.4357 660.856 22.4941 660.86 22.5524C660.862 22.5815 660.865 22.6105 660.867 22.6396C660.876 22.7798 660.876 22.5884 660.857 22.5753C660.898 22.6943 660.925 22.8176 660.938 22.9428C660.954 22.9984 660.973 23.0527 660.99 23.1077C661.053 23.2994 660.932 23.0031 660.998 23.1342C661.053 23.2467 661.114 23.3561 661.181 23.4616C661.21 23.5059 661.32 23.6057 661.23 23.5362C661.133 23.4608 661.281 23.5907 661.313 23.6241C661.354 23.667 661.396 23.7084 661.44 23.7484C661.468 23.7757 661.497 23.8015 661.528 23.8254C661.534 23.8226 661.379 23.7219 661.463 23.7752C661.569 23.8429 661.669 23.9153 661.781 23.9743C661.794 23.9812 661.938 24.0474 661.937 24.0498C661.943 24.0256 661.753 23.9828 661.883 24.025C661.911 24.0339 661.938 24.0446 661.965 24.0538C662.084 24.0937 662.205 24.126 662.328 24.1504C662.356 24.156 662.386 24.1589 662.414 24.1661C662.506 24.19 662.326 24.1521 662.32 24.1552C662.389 24.1522 662.457 24.1583 662.524 24.1732C662.651 24.1804 662.778 24.1804 662.905 24.1731C662.934 24.1715 662.963 24.1685 662.993 24.1668C663.061 24.1629 663.111 24.1138 663.02 24.1671C662.95 24.2082 662.956 24.1782 663.018 24.1668C663.047 24.1614 663.076 24.1569 663.105 24.1514C663.231 24.128 663.355 24.0976 663.477 24.0604C663.543 24.0404 663.607 24.0171 663.672 23.9944C663.7 23.9862 663.728 23.9756 663.754 23.9628C663.755 23.9554 663.587 24.0428 663.676 23.9952C663.787 23.935 663.903 23.8846 664.012 23.8188C664.07 23.7837 664.126 23.7456 664.182 23.708C664.207 23.6931 664.231 23.6761 664.253 23.6574C664.251 23.6499 664.115 23.7765 664.186 23.7081C664.277 23.6217 664.374 23.5443 664.46 23.4522C664.48 23.4311 664.499 23.4091 664.518 23.388L664.537 23.3663C664.586 23.3071 664.586 23.3074 664.54 23.3672C664.492 23.3811 664.495 23.4331 664.54 23.3656C664.556 23.3415 664.573 23.3182 664.589 23.2941C664.661 23.1907 664.723 23.0802 664.773 22.9643C664.769 22.9609 664.696 23.1793 664.752 23.0145C664.762 22.9833 664.774 22.9527 664.785 22.9215C664.805 22.8596 664.823 22.797 664.839 22.7337C664.854 22.671 664.862 22.6064 664.878 22.5439C664.904 22.4387 664.862 22.627 664.867 22.6223C664.882 22.6075 664.876 22.5163 664.877 22.4944C664.884 22.3542 664.868 22.2182 664.866 22.0788C664.864 21.9708 664.875 22.1629 664.877 22.1573C664.876 22.125 664.871 22.0929 664.86 22.0624C664.844 21.9889 664.829 21.9155 664.809 21.8428C664.786 21.7596 664.76 21.6774 664.73 21.5962C664.719 21.5658 664.706 21.5359 664.696 21.5052C664.658 21.393 664.77 21.6407 664.708 21.5396C664.623 21.4004 664.56 21.2497 664.47 21.1122C664.448 21.0796 664.318 20.8981 664.387 20.9898C664.456 21.081 664.316 20.908 664.29 20.8786C664.18 20.7566 664.051 20.6564 663.938 20.5395C663.871 20.4704 663.985 20.5736 663.991 20.5784C663.956 20.5533 663.922 20.5272 663.886 20.5027C663.824 20.46 663.761 20.4195 663.695 20.3814C663.622 20.3385 663.539 20.3065 663.468 20.261C663.384 20.2073 663.532 20.2846 663.535 20.2862C663.497 20.2672 663.456 20.2519 663.415 20.2406C663.346 20.216 663.045 20.0862 662.982 20.1268C662.985 20.125 663.21 20.145 663.028 20.1332C662.985 20.1305 662.942 20.1263 662.899 20.1245C662.811 20.1209 662.724 20.1231 662.637 20.1276C662.4 20.126 662.174 20.0314 662.006 19.8642C661.839 19.6969 661.744 19.4705 661.743 19.234C661.748 18.9987 661.844 18.7743 662.01 18.6078C662.177 18.4413 662.401 18.3456 662.637 18.3405L662.637 18.3405Z" fill="#3895D4"/>
<path d="M650.121 18.3405C650.898 18.3357 651.658 18.5594 652.308 18.9837C652.958 19.408 653.469 20.0141 653.777 20.7265C654.121 21.4238 654.228 22.2146 654.08 22.9779C653.932 23.7412 653.538 24.4351 652.958 24.9535C652.412 25.417 651.759 25.7348 651.057 25.8772C650.356 26.0196 649.63 25.9819 648.947 25.7678C648.248 25.524 647.643 25.0699 647.213 24.4679C646.784 23.866 646.552 23.1458 646.549 22.4065C646.517 21.5863 646.74 20.7764 647.185 20.0869C647.631 19.3974 648.278 18.8618 649.039 18.553C649.268 18.4909 649.512 18.5217 649.718 18.6386C649.924 18.7555 650.075 18.949 650.139 19.177C650.196 19.4053 650.162 19.6465 650.046 19.851C649.93 20.0554 649.74 20.2076 649.515 20.2762C649.359 20.3364 649.657 20.1996 649.512 20.2789C649.452 20.3114 649.391 20.3409 649.332 20.3756C649.282 20.4052 649.234 20.4376 649.186 20.4692C649.019 20.5781 649.267 20.3893 649.16 20.4872C649.068 20.5721 648.976 20.6549 648.892 20.7485C648.86 20.7839 648.736 20.8824 648.833 20.8136C648.907 20.7609 648.861 20.7733 648.833 20.8156C648.811 20.8477 648.788 20.8789 648.767 20.9111C648.697 21.0166 648.634 21.126 648.577 21.239C648.564 21.2651 648.552 21.2919 648.538 21.3179C648.513 21.3666 648.477 21.3794 648.536 21.3183C648.592 21.26 648.556 21.264 648.536 21.3201C648.523 21.357 648.509 21.3934 648.496 21.4305C648.454 21.551 648.419 21.6738 648.39 21.7982C648.377 21.8557 648.367 21.9135 648.355 21.9714C648.315 22.1766 648.361 21.8439 648.352 21.9963C648.343 22.1235 648.334 22.2494 648.336 22.3772C648.337 22.4357 648.34 22.4941 648.344 22.5524C648.346 22.5815 648.349 22.6105 648.351 22.6396C648.36 22.7798 648.361 22.5884 648.341 22.5753C648.382 22.6943 648.409 22.8176 648.422 22.9428C648.438 22.9984 648.457 23.0527 648.475 23.1077C648.537 23.2994 648.416 23.0031 648.483 23.1342C648.537 23.2467 648.598 23.3561 648.665 23.4616C648.694 23.5059 648.804 23.6057 648.714 23.5362C648.617 23.4608 648.766 23.5907 648.797 23.6241C648.838 23.667 648.88 23.7084 648.924 23.7484C648.952 23.7757 648.982 23.8015 649.013 23.8254C649.018 23.8226 648.863 23.7219 648.947 23.7752C649.053 23.8429 649.154 23.9153 649.266 23.9743C649.279 23.9812 649.422 24.0474 649.421 24.0498C649.428 24.0256 649.237 23.9828 649.368 24.025C649.395 24.0339 649.422 24.0446 649.45 24.0538C649.568 24.0937 649.69 24.126 649.813 24.1504C649.841 24.156 649.871 24.1589 649.898 24.1661C649.991 24.19 649.81 24.1521 649.805 24.1552C649.873 24.1522 649.941 24.1583 650.008 24.1732C650.135 24.1804 650.262 24.1804 650.389 24.1731C650.418 24.1715 650.448 24.1685 650.477 24.1668C650.545 24.1629 650.595 24.1138 650.504 24.1671C650.435 24.2082 650.44 24.1782 650.502 24.1668C650.531 24.1614 650.56 24.1569 650.589 24.1514C650.715 24.128 650.839 24.0976 650.961 24.0604C651.027 24.0404 651.092 24.0171 651.156 23.9944C651.185 23.9862 651.212 23.9756 651.239 23.9628C651.239 23.9554 651.071 24.0428 651.16 23.9952C651.272 23.935 651.387 23.8846 651.496 23.8188C651.554 23.7837 651.61 23.7456 651.667 23.708C651.692 23.6931 651.715 23.6761 651.738 23.6574C651.736 23.6499 651.599 23.7765 651.671 23.7081C651.762 23.6217 651.859 23.5443 651.945 23.4522C651.964 23.4311 651.983 23.4091 652.003 23.388L652.021 23.3663C652.07 23.3071 652.071 23.3074 652.024 23.3672C651.977 23.3811 651.979 23.4331 652.024 23.3656C652.04 23.3415 652.057 23.3182 652.073 23.2941C652.146 23.1907 652.208 23.0802 652.258 22.9643C652.253 22.9609 652.18 23.1793 652.236 23.0145C652.247 22.9833 652.259 22.9527 652.269 22.9215C652.29 22.8596 652.308 22.797 652.323 22.7337C652.339 22.671 652.347 22.6064 652.362 22.5439C652.389 22.4387 652.347 22.627 652.352 22.6223C652.367 22.6075 652.36 22.5163 652.361 22.4944C652.368 22.3542 652.352 22.2182 652.35 22.0788C652.348 21.9708 652.359 22.1629 652.361 22.1573C652.361 22.125 652.355 22.0929 652.344 22.0624C652.328 21.9889 652.313 21.9155 652.293 21.8428C652.27 21.7596 652.244 21.6774 652.215 21.5962C652.204 21.5658 652.19 21.5359 652.18 21.5052C652.142 21.393 652.255 21.6407 652.193 21.5396C652.108 21.4004 652.044 21.2497 651.954 21.1122C651.933 21.0796 651.802 20.8981 651.871 20.9898C651.94 21.081 651.801 20.908 651.774 20.8786C651.665 20.7566 651.536 20.6564 651.422 20.5395C651.355 20.4704 651.469 20.5736 651.476 20.5784C651.441 20.5533 651.406 20.5272 651.371 20.5027C651.309 20.46 651.245 20.4195 651.18 20.3814C651.106 20.3385 651.024 20.3065 650.952 20.261C650.868 20.2073 651.017 20.2846 651.019 20.2862C650.981 20.2672 650.941 20.2519 650.9 20.2406C650.83 20.216 650.529 20.0862 650.466 20.1268C650.469 20.125 650.695 20.145 650.512 20.1332C650.469 20.1305 650.426 20.1263 650.383 20.1245C650.296 20.1209 650.208 20.1231 650.121 20.1276C649.885 20.126 649.658 20.0314 649.491 19.8642C649.323 19.6969 649.229 19.4705 649.227 19.234C649.232 18.9987 649.328 18.7743 649.495 18.6078C649.661 18.4413 649.886 18.3456 650.121 18.3405L650.121 18.3405Z" fill="#3895D4"/>
<path d="M469.286 216.236H688.583C691.357 216.233 694.015 215.13 695.976 213.171C697.937 211.211 699.04 208.554 699.043 205.783V10.4528C699.04 7.6815 697.937 5.02459 695.976 3.06499C694.015 1.10538 691.357 0.00310762 688.583 0H469.286C466.513 0.00310762 463.854 1.10538 461.894 3.06499C459.933 5.02459 458.83 7.6815 458.827 10.4528V205.783C458.83 208.554 459.933 211.211 461.894 213.171C463.855 215.13 466.513 216.233 469.286 216.236ZM688.583 1.19138C691.04 1.19418 693.396 2.17083 695.133 3.90707C696.871 5.64332 697.848 7.99738 697.851 10.4528V205.783C697.848 208.239 696.871 210.593 695.133 212.329C693.396 214.065 691.04 215.042 688.583 215.044H469.286C466.829 215.042 464.474 214.065 462.736 212.329C460.999 210.593 460.022 208.239 460.019 205.783V10.4528C460.022 7.99738 460.999 5.64332 462.736 3.90707C464.474 2.17083 466.829 1.19418 469.286 1.19138H688.583Z" fill="#3895D4"/>
<path d="M688.949 132.902L611.83 132.668L535.104 132.434L491.823 132.303C491.591 132.295 491.372 132.197 491.211 132.031C491.049 131.864 490.959 131.641 490.959 131.409C490.959 131.178 491.049 130.955 491.211 130.788C491.372 130.621 491.591 130.524 491.823 130.516L568.942 130.75L645.668 130.983L688.949 131.115C689.181 131.123 689.4 131.221 689.561 131.387C689.722 131.554 689.812 131.777 689.812 132.009C689.812 132.24 689.722 132.463 689.561 132.63C689.4 132.796 689.181 132.894 688.949 132.902Z" fill="#3895D4"/>
<path d="M650.044 131.453L649.567 103.315C649.547 102.164 651.336 102.164 651.355 103.315L651.832 131.453C651.851 132.604 650.063 132.604 650.044 131.453Z" fill="#3895D4"/>
<path d="M613.184 131.758L612.022 96.389L611.69 86.2836C611.652 85.1333 613.44 85.1347 613.478 86.2836L614.64 121.652L614.972 131.758C615.01 132.908 613.222 132.907 613.184 131.758Z" fill="#3895D4"/>
<path d="M576.424 69.5179C577.125 82.0452 578.422 118.996 579.123 131.523C579.188 132.672 577.399 132.669 577.335 131.523C576.634 118.996 575.337 82.0452 574.636 69.5179C574.572 68.3688 576.36 68.3724 576.424 69.5179Z" fill="#3895D4"/>
<path d="M539.843 118.953L540.062 130.994C540.083 132.144 538.295 132.144 538.274 130.994C538.015 116.773 537.351 117.236 537.278 113.223C537.257 112.072 539.046 112.072 539.066 113.223C539.066 113.223 539.584 104.732 539.843 118.953Z" fill="#3895D4"/>
<path d="M504.012 87.3215L503.809 121.102L503.752 130.775C503.744 131.007 503.646 131.226 503.479 131.387C503.312 131.548 503.089 131.638 502.857 131.638C502.626 131.638 502.403 131.548 502.236 131.387C502.069 131.226 501.971 131.007 501.963 130.775L502.166 96.9944L502.224 87.3215C502.232 87.0898 502.329 86.8704 502.496 86.7094C502.663 86.5483 502.886 86.4583 503.118 86.4583C503.35 86.4583 503.572 86.5483 503.739 86.7094C503.906 86.8704 504.004 87.0898 504.012 87.3215Z" fill="#3895D4"/>
<path d="M688.803 131.897C690.283 127.832 686.946 123.922 683.518 122.165C679.41 120.061 674.685 119.584 670.534 117.555C664.345 114.53 659.838 109.101 655.827 103.667C651.699 98.0736 647.921 92.0708 642.676 87.4236C639.912 84.9202 636.647 83.0321 633.098 81.8842C628.626 80.4895 623.883 80.3938 619.262 80.9559C609.714 82.1173 600.863 86.0585 591.65 88.5634C582.964 90.9251 573.394 92.2531 564.868 88.5806C560.537 86.7147 556.994 83.5854 553.19 80.8774C549.508 78.229 545.391 76.2444 541.025 75.013C532.467 72.6347 523.12 73.2697 515.153 77.2903C507.828 80.9386 502.029 87.0553 498.779 94.5609C495.001 103.579 495.493 113.656 496.727 123.148C497.046 125.601 497.426 128.047 497.809 130.491C497.986 131.616 496.263 132.101 496.085 130.966C494.548 121.178 493.017 111.081 494.928 101.231C496.581 92.6312 501.314 84.9276 508.239 79.5622C515.194 74.1822 523.84 71.4553 532.625 71.871C537.229 72.0845 541.761 73.0918 546.021 74.8485C550.444 76.6766 554.189 79.3862 557.993 82.2373C561.904 85.1687 565.935 87.5934 570.791 88.5494C575.501 89.4768 580.4 89.1291 585.09 88.2536C594.765 86.4469 603.784 82.3055 613.377 80.1835C622.266 78.2175 631.857 78.0211 639.816 83.0392C645.939 86.8993 650.265 92.8919 654.417 98.6785C658.533 104.414 662.7 110.548 668.718 114.466C672.389 116.856 676.516 117.738 680.622 119.082C684.74 120.43 688.692 122.703 690.371 126.919C691.094 128.655 691.15 130.597 690.527 132.372C690.137 133.444 688.408 132.981 688.803 131.897V131.897Z" fill="#3895D4"/>
<path d="M650.634 99.4237L650.637 99.4248L650.632 99.4237H650.634Z" fill="#3895D4"/>
<path d="M647.536 97.7799C647.95 97.0485 648.609 96.4872 649.397 96.1956C650.186 95.904 651.052 95.9011 651.842 96.1874C652.235 96.3307 652.595 96.5513 652.901 96.836C653.207 97.1208 653.453 97.464 653.624 97.8453C653.658 97.9264 653.678 98.0116 653.706 98.0946C653.745 98.1572 653.791 98.2138 653.826 98.2793C654.196 99.0173 654.298 99.8614 654.113 100.666C653.928 101.471 653.468 102.186 652.812 102.688C652.156 103.19 651.345 103.448 650.519 103.418C649.694 103.387 648.904 103.069 648.288 102.519C647.64 101.934 647.212 101.144 647.075 100.282C646.938 99.4199 647.101 98.5369 647.536 97.7799ZM649.776 99.2975C649.771 99.3841 649.769 99.3426 649.776 99.2975V99.2975ZM650.004 98.7802C650.012 98.7701 650.011 98.7712 650.004 98.7802V98.7802ZM651.007 99.1834C651.022 99.1593 651.021 99.1628 651.007 99.1834V99.1834ZM650.769 99.3849C650.735 99.4002 650.713 99.4042 650.769 99.3849V99.3849ZM650.663 99.4355L650.64 99.4247C650.645 99.4253 650.651 99.4241 650.656 99.4214L650.656 99.4213L650.637 99.4236L650.634 99.422L650.644 99.4196C650.635 99.4192 650.634 99.4205 650.633 99.4219C650.527 99.3733 650.599 99.3967 650.661 99.4158L650.665 99.4148C650.703 99.3953 650.745 99.382 650.787 99.3755C650.791 99.3733 650.796 99.3717 650.799 99.3693C650.834 99.345 651.007 99.2099 650.846 99.3515C650.881 99.3207 650.916 99.2904 650.948 99.2571C650.968 99.2373 650.985 99.2157 651.001 99.1927C651.022 99.1566 651.042 99.1202 651.062 99.0835L651.065 99.0636C651.068 99.0472 651.07 99.0403 651.072 99.0304C651.071 99.0202 651.069 99.0092 651.068 98.9986C651.056 98.9665 651.048 98.9329 651.045 98.8987L651.038 98.89C651.012 98.8542 650.99 98.8124 650.965 98.7752C651.095 98.9719 650.915 98.7535 650.901 98.7258C650.899 98.7211 650.903 98.7236 650.902 98.7204C650.897 98.7175 650.898 98.7195 650.892 98.7158C650.852 98.6921 650.814 98.6658 650.773 98.6432C650.724 98.6163 650.533 98.562 650.731 98.6187C650.686 98.6058 650.643 98.5896 650.598 98.5777C650.589 98.5755 650.522 98.5662 650.486 98.5597C650.455 98.5589 650.424 98.558 650.421 98.558C650.406 98.5582 650.391 98.56 650.376 98.5607C650.409 98.5651 650.263 98.5966 650.22 98.6032C650.214 98.6081 650.211 98.6113 650.202 98.6175C650.166 98.6443 650.121 98.6681 650.082 98.693C650.255 98.5813 650.08 98.7019 650.047 98.7349C650.027 98.7547 650.009 98.7757 649.99 98.7965C649.973 98.8162 649.958 98.8374 649.944 98.8596C649.916 98.9115 649.886 98.9641 649.856 99.0152L649.848 99.0283C649.848 99.0299 649.848 99.0316 649.848 99.0333C649.833 99.1162 649.81 99.1975 649.78 99.2762C649.778 99.2829 649.777 99.2896 649.776 99.2964C649.773 99.3418 649.77 99.387 649.77 99.4327L649.77 99.4419C649.908 99.3701 650.06 99.3321 650.216 99.331C650.371 99.3299 650.524 99.3657 650.663 99.4355H650.663Z" fill="#3895D4"/>
<path d="M650.632 99.4226C650.63 99.4235 650.632 99.4233 650.633 99.4236L650.632 99.4226Z" fill="#3895D4"/>
<path d="M650.63 99.4235L650.633 99.4241C650.63 99.4245 650.631 99.4238 650.63 99.4235Z" fill="#3895D4"/>
<path d="M650.633 99.422L650.631 99.423L650.633 99.422Z" fill="#3895D4"/>
<path d="M612.486 82.7444L612.488 82.7455L612.484 82.7444H612.486Z" fill="#3895D4"/>
<path d="M609.388 81.1006C609.801 80.3692 610.461 79.8078 611.249 79.5163C612.037 79.2247 612.903 79.2218 613.694 79.5081C614.086 79.6514 614.446 79.8719 614.752 80.1567C615.058 80.4415 615.304 80.7847 615.475 81.166C615.509 81.247 615.529 81.3323 615.557 81.4153C615.596 81.4779 615.643 81.5344 615.677 81.5999C616.048 82.338 616.15 83.1821 615.964 83.9869C615.779 84.7916 615.319 85.5067 614.663 86.0089C614.007 86.5111 613.197 86.769 612.371 86.7382C611.545 86.7073 610.756 86.3897 610.139 85.84C609.491 85.2546 609.063 84.4651 608.927 83.6028C608.79 82.7406 608.953 81.8575 609.388 81.1006ZM611.628 82.6182C611.623 82.7047 611.62 82.6633 611.628 82.6182V82.6182ZM611.855 82.1009C611.864 82.0908 611.863 82.0919 611.855 82.1009V82.1009ZM612.859 82.5041C612.873 82.48 612.872 82.4834 612.859 82.5041V82.5041ZM612.621 82.7056C612.587 82.7208 612.564 82.7249 612.621 82.7056V82.7056ZM612.515 82.7562L612.491 82.7454C612.497 82.7459 612.503 82.7448 612.508 82.7421L612.507 82.742L612.489 82.7443L612.485 82.7427L612.496 82.7402C612.487 82.7399 612.486 82.7412 612.485 82.7426C612.379 82.6939 612.451 82.7174 612.512 82.7364L612.516 82.7355C612.555 82.7159 612.596 82.7027 612.639 82.6962C612.643 82.694 612.648 82.6924 612.651 82.69C612.685 82.6656 612.858 82.5306 612.698 82.6722C612.733 82.6413 612.767 82.6111 612.8 82.5778C612.819 82.5579 612.837 82.5364 612.852 82.5134C612.873 82.4773 612.894 82.4409 612.914 82.4041L612.917 82.3843C612.919 82.3678 612.921 82.361 612.923 82.3511C612.922 82.3409 612.921 82.3299 612.919 82.3193C612.907 82.2871 612.9 82.2535 612.896 82.2194L612.89 82.2107C612.864 82.1748 612.841 82.1331 612.817 82.0958C612.946 82.2925 612.766 82.0741 612.753 82.0465C612.75 82.0417 612.754 82.0443 612.753 82.041C612.748 82.0381 612.75 82.0401 612.743 82.0364C612.703 82.0128 612.665 81.9864 612.624 81.9639C612.576 81.9369 612.385 81.8827 612.583 81.9393C612.538 81.9265 612.495 81.9102 612.449 81.8983C612.441 81.8962 612.374 81.8869 612.338 81.8804C612.306 81.8796 612.276 81.8786 612.273 81.8787C612.258 81.8789 612.243 81.8807 612.228 81.8813C612.261 81.8857 612.115 81.9172 612.072 81.9239C612.065 81.9288 612.062 81.932 612.054 81.9382C612.017 81.9649 611.973 81.9887 611.934 82.0137C612.107 81.902 611.932 82.0226 611.899 82.0556C611.879 82.0753 611.861 82.0964 611.842 82.1171C611.825 82.1369 611.81 82.158 611.796 82.1803C611.768 82.2322 611.737 82.2847 611.708 82.3358L611.699 82.3489C611.7 82.3506 611.7 82.3523 611.7 82.354C611.684 82.4368 611.661 82.5181 611.631 82.5969C611.63 82.6035 611.629 82.6103 611.628 82.6171C611.625 82.6625 611.621 82.7077 611.621 82.7533L611.622 82.7625C611.759 82.6908 611.912 82.6528 612.067 82.6517C612.223 82.6506 612.376 82.6864 612.515 82.7562Z" fill="#3895D4"/>
<path d="M612.482 82.7442L612.484 82.7447C612.481 82.7452 612.482 82.7444 612.482 82.7442Z" fill="#3895D4"/>
<path d="M612.484 82.7426L612.482 82.7436L612.484 82.7426Z" fill="#3895D4"/>
<path d="M612.484 82.7433C612.481 82.7441 612.484 82.744 612.484 82.7442L612.484 82.7433Z" fill="#3895D4"/>
<path d="M575.527 91.0823L575.525 91.0833L575.527 91.0823Z" fill="#3895D4"/>
<path d="M572.431 64.4212C572.844 63.6898 573.504 63.1285 574.292 62.8369C575.08 62.5454 575.946 62.5425 576.737 62.8288C577.129 62.972 577.489 63.1926 577.795 63.4774C578.101 63.7621 578.347 64.1053 578.518 64.4867C578.552 64.5677 578.572 64.6529 578.6 64.736C578.639 64.7986 578.686 64.8551 578.72 64.9206C579.091 65.6586 579.193 66.5028 579.007 67.3075C578.822 68.1123 578.362 68.8274 577.706 69.3296C577.05 69.8318 576.24 70.0897 575.414 70.0588C574.588 70.028 573.799 69.7104 573.182 69.1607C572.534 68.5752 572.106 67.7858 571.97 66.9235C571.833 66.0613 571.996 65.1782 572.431 64.4212ZM574.671 65.9388C574.666 66.0254 574.663 65.984 574.671 65.9388V65.9388ZM574.898 65.4215C574.907 65.4115 574.906 65.4126 574.898 65.4215V65.4215ZM575.902 65.8247C575.916 65.8006 575.915 65.8041 575.902 65.8247V65.8247ZM575.664 66.0263C575.63 66.0415 575.607 66.0455 575.664 66.0263V66.0263ZM575.558 66.0768L575.534 66.0661C575.54 66.0666 575.546 66.0655 575.551 66.0628L575.55 66.0626L575.532 66.0649L575.528 66.0634L575.539 66.0609C575.53 66.0606 575.529 66.0618 575.528 66.0633C575.422 66.0146 575.494 66.038 575.555 66.0571L575.559 66.0561C575.598 66.0366 575.639 66.0233 575.682 66.0168C575.686 66.0146 575.691 66.013 575.694 66.0107C575.728 65.9863 575.901 65.8512 575.741 65.9928C575.776 65.962 575.81 65.9317 575.843 65.8985C575.862 65.8786 575.88 65.857 575.895 65.834C575.916 65.7979 575.937 65.7615 575.957 65.7248L575.96 65.705C575.962 65.6885 575.964 65.6817 575.966 65.6718C575.965 65.6615 575.964 65.6506 575.962 65.6399C575.95 65.6078 575.943 65.5742 575.939 65.54L575.933 65.5313C575.907 65.4955 575.884 65.4537 575.86 65.4165C575.989 65.6132 575.809 65.3948 575.796 65.3671C575.793 65.3624 575.797 65.365 575.796 65.3617C575.791 65.3588 575.793 65.3608 575.786 65.3571C575.746 65.3335 575.708 65.3071 575.667 65.2845C575.619 65.2576 575.428 65.2033 575.626 65.26C575.581 65.2471 575.538 65.2309 575.492 65.219C575.484 65.2169 575.417 65.2075 575.381 65.201C575.349 65.2002 575.319 65.1993 575.316 65.1993C575.301 65.1995 575.286 65.2013 575.271 65.202C575.304 65.2064 575.158 65.2379 575.115 65.2446C575.108 65.2495 575.105 65.2526 575.097 65.2588C575.06 65.2856 575.016 65.3094 574.977 65.3344C575.15 65.2227 574.975 65.3432 574.942 65.3762C574.922 65.396 574.904 65.417 574.885 65.4378C574.868 65.4576 574.853 65.4787 574.839 65.5009C574.811 65.5529 574.78 65.6054 574.751 65.6565L574.742 65.6696C574.743 65.6713 574.743 65.673 574.743 65.6747C574.727 65.7575 574.704 65.8388 574.674 65.9175C574.673 65.9242 574.672 65.931 574.671 65.9377C574.668 65.9831 574.664 66.0283 574.664 66.074L574.665 66.0832C574.802 66.0115 574.955 65.9735 575.11 65.9724C575.266 65.9712 575.419 66.0071 575.558 66.0768Z" fill="#3895D4"/>
<path d="M575.533 91.0841L575.535 91.0852L575.531 91.0841H575.533Z" fill="#3895D4"/>
<path d="M575.525 91.0838L575.527 91.0844C575.524 91.0848 575.525 91.0841 575.525 91.0838Z" fill="#3895D4"/>
<path d="M575.527 91.0829C575.524 91.0838 575.527 91.0837 575.527 91.0839L575.527 91.0829Z" fill="#3895D4"/>
<path d="M534.88 110.289C535.294 109.558 535.953 108.997 536.741 108.705C537.529 108.414 538.396 108.411 539.186 108.697C539.579 108.84 539.939 109.061 540.245 109.346C540.551 109.63 540.796 109.973 540.967 110.355C541.002 110.436 541.022 110.521 541.05 110.604C541.088 110.667 541.135 110.723 541.17 110.789C541.54 111.527 541.642 112.371 541.457 113.176C541.271 113.98 540.811 114.696 540.155 115.198C539.499 115.7 538.689 115.958 537.863 115.927C537.037 115.896 536.248 115.579 535.632 115.029C534.984 114.443 534.556 113.654 534.419 112.792C534.282 111.929 534.445 111.046 534.88 110.289ZM537.12 111.807C537.115 111.894 537.112 111.852 537.12 111.807V111.807ZM537.347 111.29C537.356 111.28 537.355 111.281 537.347 111.29V111.29ZM538.351 111.693C538.366 111.669 538.364 111.672 538.351 111.693V111.693ZM538.113 111.894C538.079 111.91 538.056 111.914 538.113 111.894V111.894ZM538.007 111.945L537.983 111.934C537.989 111.935 537.995 111.934 538 111.931L537.999 111.931L537.981 111.933L537.977 111.932L537.988 111.929C537.979 111.929 537.978 111.93 537.977 111.931C537.871 111.883 537.943 111.906 538.004 111.925L538.009 111.924C538.047 111.905 538.088 111.892 538.131 111.885C538.135 111.883 538.14 111.881 538.143 111.879C538.177 111.854 538.35 111.719 538.19 111.861C538.225 111.83 538.259 111.8 538.292 111.767C538.312 111.747 538.329 111.725 538.345 111.702C538.366 111.666 538.386 111.63 538.406 111.593L538.409 111.573C538.411 111.557 538.413 111.55 538.416 111.54C538.415 111.53 538.413 111.519 538.411 111.508C538.399 111.476 538.392 111.442 538.389 111.408L538.382 111.399C538.356 111.364 538.334 111.322 538.309 111.285C538.439 111.481 538.258 111.263 538.245 111.235C538.243 111.231 538.247 111.233 538.246 111.23C538.24 111.227 538.242 111.229 538.236 111.225C538.196 111.202 538.157 111.175 538.117 111.153C538.068 111.126 537.877 111.072 538.075 111.128C538.03 111.115 537.987 111.099 537.941 111.087C537.933 111.085 537.866 111.076 537.83 111.069C537.799 111.068 537.768 111.067 537.765 111.068C537.75 111.068 537.735 111.07 537.72 111.07C537.753 111.075 537.607 111.106 537.564 111.113C537.558 111.118 537.554 111.121 537.546 111.127C537.509 111.154 537.465 111.178 537.426 111.203C537.599 111.091 537.424 111.211 537.391 111.244C537.371 111.264 537.353 111.285 537.334 111.306C537.317 111.326 537.302 111.347 537.288 111.369C537.26 111.421 537.23 111.474 537.2 111.525L537.192 111.538C537.192 111.539 537.192 111.541 537.192 111.543C537.176 111.626 537.153 111.707 537.123 111.786C537.122 111.792 537.121 111.799 537.12 111.806C537.117 111.851 537.113 111.897 537.113 111.942L537.114 111.951C537.251 111.88 537.404 111.842 537.56 111.841C537.715 111.839 537.868 111.875 538.007 111.945Z" fill="#3895D4"/>
<path d="M537.978 72.6177L537.98 72.6188L537.976 72.6177H537.978Z" fill="#3895D4"/>
<path d="M537.974 72.6174L537.977 72.618C537.973 72.6184 537.975 72.6177 537.974 72.6174Z" fill="#3895D4"/>
<path d="M537.972 72.6165C537.969 72.6174 537.972 72.6173 537.973 72.6175L537.972 72.6165Z" fill="#3895D4"/>
<path d="M537.977 72.6159L537.975 72.6169L537.977 72.6159Z" fill="#3895D4"/>
<path d="M499.708 82.8877C500.122 82.1562 500.781 81.5949 501.569 81.3033C502.358 81.0118 503.224 81.0089 504.014 81.2952C504.407 81.4385 504.767 81.659 505.073 81.9438C505.379 82.2285 505.625 82.5717 505.796 82.9531C505.83 83.0341 505.85 83.1193 505.878 83.2024C505.916 83.265 505.963 83.3215 505.998 83.387C506.368 84.1251 506.47 84.9692 506.285 85.774C506.1 86.5787 505.639 87.2938 504.984 87.796C504.328 88.2982 503.517 88.5561 502.691 88.5253C501.865 88.4944 501.076 88.1768 500.46 87.6271C499.812 87.0417 499.384 86.2522 499.247 85.3899C499.11 84.5277 499.273 83.6446 499.708 82.8877ZM501.948 84.4053C501.943 84.4918 501.941 84.4504 501.948 84.4053V84.4053ZM502.176 83.8879C502.184 83.8779 502.183 83.879 502.176 83.8879V83.8879ZM503.179 84.2912C503.194 84.2671 503.192 84.2705 503.179 84.2912V84.2912ZM502.941 84.4927C502.907 84.5079 502.885 84.5119 502.941 84.4927V84.4927ZM502.835 84.5432L502.811 84.5325C502.817 84.533 502.823 84.5319 502.828 84.5292L502.827 84.5291L502.809 84.5313L502.806 84.5298L502.816 84.5273C502.807 84.527 502.806 84.5283 502.805 84.5297C502.699 84.481 502.771 84.5044 502.833 84.5235L502.837 84.5226C502.875 84.503 502.917 84.4898 502.959 84.4833C502.963 84.481 502.968 84.4794 502.971 84.4771C503.005 84.4527 503.178 84.3176 503.018 84.4593C503.053 84.4284 503.087 84.3981 503.12 84.3649C503.14 84.345 503.157 84.3234 503.173 84.3004C503.194 84.2643 503.214 84.2279 503.234 84.1912L503.237 84.1714C503.24 84.1549 503.242 84.1481 503.244 84.1382C503.243 84.128 503.241 84.117 503.239 84.1063C503.227 84.0742 503.22 84.0406 503.217 84.0065L503.21 83.9977C503.184 83.9619 503.162 83.9201 503.137 83.8829C503.267 84.0796 503.087 83.8612 503.073 83.8335C503.071 83.8288 503.075 83.8314 503.074 83.8281C503.069 83.8252 503.07 83.8272 503.064 83.8235C503.024 83.7999 502.986 83.7735 502.945 83.7509C502.896 83.724 502.705 83.6697 502.903 83.7264C502.858 83.7136 502.815 83.6973 502.769 83.6854C502.761 83.6833 502.694 83.6739 502.658 83.6675C502.627 83.6667 502.596 83.6657 502.593 83.6657C502.578 83.6659 502.563 83.6677 502.548 83.6684C502.581 83.6728 502.435 83.7043 502.392 83.711C502.386 83.7159 502.383 83.719 502.374 83.7253C502.337 83.752 502.293 83.7758 502.254 83.8008C502.427 83.6891 502.252 83.8097 502.219 83.8427C502.199 83.8624 502.181 83.8835 502.162 83.9042C502.145 83.924 502.13 83.9451 502.116 83.9674C502.088 84.0193 502.058 84.0718 502.028 84.1229L502.02 84.136C502.02 84.1377 502.02 84.1394 502.02 84.1411C502.004 84.2239 501.982 84.3052 501.952 84.384C501.95 84.3906 501.949 84.3974 501.948 84.4042C501.945 84.4495 501.942 84.4948 501.942 84.5404L501.942 84.5496C502.08 84.4779 502.232 84.4399 502.388 84.4388C502.543 84.4377 502.696 84.4735 502.835 84.5432Z" fill="#3895D4"/>
<path d="M502.81 84.5315L502.812 84.5326L502.808 84.5315H502.81Z" fill="#3895D4"/>
<path d="M502.809 84.5297L502.807 84.5307L502.809 84.5297Z" fill="#3895D4"/>
<path d="M502.804 84.5304C502.801 84.5312 502.804 84.5311 502.805 84.5313L502.804 84.5304Z" fill="#3895D4"/>
<path d="M502.806 84.5312L502.809 84.5318C502.805 84.5323 502.807 84.5315 502.806 84.5312Z" fill="#3895D4"/>
<path d="M512.448 111.831L540.164 113.37C540.32 113.379 540.473 113.328 540.593 113.226C540.712 113.125 540.788 112.982 540.805 112.827C540.822 112.671 540.779 112.515 540.684 112.391C540.589 112.266 540.45 112.183 540.296 112.158L511.968 107.551L512.448 111.831Z" fill="#3F3D56"/>
<path d="M477.226 173.495L466.782 155.935L459.063 159.578C459.063 159.578 472.364 176.181 472.788 176.659C472.607 177.466 472.675 178.309 472.983 179.076C473.292 179.844 473.826 180.5 474.515 180.957C475.205 181.415 476.017 181.652 476.845 181.638C477.672 181.625 478.476 181.36 479.15 180.88C479.823 180.399 480.335 179.726 480.618 178.948C480.9 178.171 480.94 177.326 480.732 176.526C480.523 175.725 480.076 175.007 479.45 174.465C478.825 173.924 478.049 173.586 477.226 173.495Z" fill="white"/>
<path d="M472.881 132.704L455.96 141.527C454.903 142.288 454.016 143.262 453.356 144.385C452.697 145.508 452.279 146.757 452.13 148.051C451.981 149.345 452.103 150.655 452.49 151.899C452.876 153.143 453.518 154.293 454.375 155.275L466.04 168.647L471.122 161.765L467.205 153.581L474.789 151.582L472.881 132.704Z" fill="#3895D3"/>
<path d="M521.1 112.118L523.006 132.457L531.543 132.471C531.543 132.471 526.645 111.773 526.467 111.16C526.977 110.508 527.277 109.718 527.328 108.892C527.378 108.067 527.177 107.245 526.75 106.536C526.323 105.828 525.691 105.265 524.938 104.923C524.184 104.581 523.344 104.476 522.529 104.622C521.715 104.767 520.963 105.156 520.375 105.738C519.786 106.319 519.388 107.066 519.233 107.878C519.078 108.691 519.174 109.531 519.507 110.288C519.84 111.045 520.396 111.683 521.1 112.118V112.118Z" fill="white"/>
<path d="M504.109 153.71L523.758 150.109C532.033 149.114 535.428 143.674 533.935 138.367L529.131 121.288L521.588 125.329L521.617 134.402L511.059 132.959L504.109 153.71Z" fill="#3895D3"/>
<path d="M512.152 294.266H517.555L520.125 273.44H512.151L512.152 294.266Z" fill="white"/>
<path d="M511.96 299.899L528.574 299.899V299.689C528.574 297.975 527.893 296.331 526.68 295.119C525.467 293.907 523.822 293.226 522.107 293.226H522.107L519.072 290.925L513.41 293.226L511.959 293.226L511.96 299.899Z" fill="#2F2E41"/>
<path d="M473.921 294.266H468.518L465.948 273.44H473.922L473.921 294.266Z" fill="white"/>
<path d="M474.113 299.899L457.499 299.899V299.689C457.499 297.975 458.18 296.331 459.393 295.119C460.605 293.907 462.25 293.226 463.965 293.226H463.966L467.001 290.925L472.663 293.226L474.113 293.226L474.113 299.899Z" fill="#2F2E41"/>
<path d="M520.361 258.135C520.281 256.947 519.646 250.375 519.646 250.375L518.127 236.437L515.448 199.491L513.061 189.78L501.244 194.381L491.655 189.787L480.257 193.428L471.382 196.754C471.382 196.754 471.367 198.178 471.299 199.898C471.208 202.149 471.048 204.909 470.668 205.627C470.034 206.895 470.193 213.703 470.193 213.703C470.193 213.703 469.563 227.553 468.769 229.072C467.975 230.59 467.815 233.753 468.054 234.387C468.294 235.021 467.26 251.654 467.26 251.654C467.26 251.654 464.608 281.089 466.272 285.528C467.936 289.966 474.224 287.059 474.224 287.059C474.224 287.059 473.92 285.874 475.744 285.316C477.567 284.758 483.122 243.021 483.122 243.021C483.122 243.021 484.155 234.463 485.105 232.01C486.055 229.558 486.928 222.667 486.928 222.667C486.928 222.667 492.794 211.261 492.87 208.725C492.87 208.725 493.638 206.352 494.363 208.964C495.089 211.576 497.228 217.833 497.228 217.833L499.314 225.518L501.768 236.999L503.356 246.665C503.356 246.665 505.734 259.495 506.114 260.049C506.494 260.603 506.114 272.324 506.114 272.324C506.114 272.324 507.953 282.305 510.551 284.048C513.15 285.791 520.035 284.076 520.035 284.076C520.035 284.076 520.44 259.324 520.361 258.135Z" fill="#2F2E41"/>
<path d="M511.526 158.533L513.036 178.082L515.304 180.428C515.509 180.64 515.669 180.891 515.774 181.165C515.879 181.44 515.928 181.733 515.917 182.027C515.907 182.321 515.837 182.61 515.712 182.876C515.587 183.143 515.409 183.381 515.19 183.577L516.44 185.719L516.882 192.468C517.008 192.994 517.017 193.54 516.907 194.069C516.798 194.598 516.573 195.096 516.248 195.528C515.924 195.96 515.508 196.315 515.03 196.567C514.553 196.82 514.025 196.964 513.485 196.99L474.364 198.826C473.827 198.852 473.291 198.759 472.794 198.554C472.297 198.35 471.851 198.039 471.488 197.643C471.124 197.248 470.852 196.777 470.691 196.265C470.529 195.753 470.482 195.211 470.553 194.679L473.879 169.652V167.78L475.369 164.166L474.603 152.059L472.823 132.843L483.172 130.172L488.783 126.313L498.532 126.469L504.447 131.324L512.334 132.558L518.299 133.743L519.059 135.393L517.539 135.063L512.031 156.532L511.526 158.533Z" fill="#3895D3"/>
<path d="M493.879 123.694C487.537 123.694 482.396 118.556 482.396 112.217C482.396 105.879 487.537 100.741 493.879 100.741C500.222 100.741 505.363 105.879 505.363 112.217C505.363 118.556 500.222 123.694 493.879 123.694Z" fill="white"/>
<path d="M496.648 122.954L488.351 122.531C487.288 122.476 486.127 122.383 485.354 121.651C484.938 121.2 484.618 120.669 484.414 120.09C483.647 118.309 482.879 116.529 482.132 114.74C481.098 112.265 480.083 109.653 480.347 106.984C480.408 105.765 480.92 104.613 481.782 103.749C482.222 103.333 482.788 103.074 483.391 103.013C483.993 102.952 484.6 103.092 485.114 103.412C485.242 102.568 485.56 101.764 486.045 101.061C486.529 100.357 487.167 99.7737 487.911 99.3534C489.412 98.5244 491.127 98.1612 492.836 98.3099C495.316 98.4697 497.683 99.4021 499.605 100.976C500.146 101.475 500.723 101.932 501.332 102.344C501.638 102.548 501.983 102.689 502.345 102.756C502.708 102.823 503.08 102.815 503.439 102.733C503.795 102.638 504.105 102.418 504.311 102.112C504.517 101.807 504.605 101.437 504.559 101.072C505.144 101.509 505.544 102.147 505.683 102.863C505.822 103.579 505.689 104.321 505.31 104.944C505.741 105.124 506.211 105.19 506.674 105.135C507.138 105.08 507.58 104.907 507.957 104.631C508.36 104.831 508.717 105.113 509.006 105.459C509.294 105.805 509.506 106.208 509.63 106.641C509.753 107.074 509.785 107.528 509.723 107.974C509.661 108.42 509.506 108.848 509.269 109.231C509.031 109.613 508.717 109.942 508.345 110.197C507.973 110.451 507.552 110.625 507.109 110.707C506.666 110.789 506.211 110.778 505.773 110.674C505.334 110.57 504.922 110.376 504.563 110.104C504.06 110.809 504.247 111.767 504.313 112.631C504.378 113.494 504.147 114.568 503.314 114.806C502.187 115.129 501.275 113.613 500.104 113.63C499.815 113.653 499.536 113.747 499.292 113.904C499.048 114.061 498.847 114.276 498.706 114.529C498.43 115.038 498.241 115.59 498.147 116.161L496.648 122.907" fill="#2F2E41"/>
<path d="M173.133 226.146C173.133 224.369 173.731 222.927 174.464 222.923H374.353C375.089 222.927 375.683 224.369 375.686 226.146V299.303C375.686 299.468 375.748 299.627 375.859 299.749C375.97 299.871 376.122 299.948 376.287 299.964C376.823 300.015 377.36 300.063 377.896 300.107C377.909 300.107 377.923 300.111 377.936 300.111C378.228 300.137 378.52 300.157 378.812 300.18H378.815C378.965 299.903 379.114 299.623 379.26 299.34C379.31 299.245 379.336 299.14 379.336 299.032V221.965C379.336 221.474 379.316 220.98 379.283 220.493C379.236 219.824 379.152 219.157 379.034 218.497C378.473 215.417 377.206 213.331 375.766 213.325H173.054C172.844 213.326 172.636 213.37 172.443 213.454C172.16 213.579 171.905 213.758 171.69 213.981C171.399 214.283 171.15 214.624 170.95 214.992C170.124 216.638 169.649 218.436 169.554 220.274C169.554 220.294 169.55 220.314 169.55 220.334C169.504 220.871 169.481 221.418 169.484 221.965L169.437 229.07L169.408 233.308L169.318 246.603L169.285 251.325L169.139 299.799C169.139 299.975 169.209 300.143 169.333 300.268C169.458 300.392 169.626 300.462 169.802 300.462H172.47C172.646 300.462 172.815 300.392 172.939 300.268C173.063 300.143 173.133 299.975 173.133 299.799V226.146Z" fill="#3895D4"/>
<path d="M227.449 180.077H248.987C249.292 180.078 249.584 180.199 249.799 180.415C250.014 180.63 250.135 180.922 250.135 181.227V215.23H226.299V181.227C226.298 181.076 226.328 180.926 226.386 180.787C226.444 180.647 226.528 180.521 226.635 180.414C226.742 180.307 226.869 180.222 227.009 180.165C227.148 180.107 227.298 180.077 227.449 180.077ZM238.146 199.397C238.819 199.394 239.464 199.125 239.941 198.649C240.417 198.173 240.686 197.529 240.689 196.855V192.934C240.689 192.259 240.421 191.613 239.944 191.136C239.467 190.66 238.82 190.392 238.146 190.392C237.471 190.392 236.824 190.66 236.347 191.136C235.87 191.613 235.602 192.259 235.602 192.934V196.855C235.605 197.529 235.874 198.173 236.351 198.649C236.827 199.125 237.472 199.394 238.146 199.397Z" fill="#306CB3"/>
<path d="M250.209 214.142V217.423C250.209 217.593 250.141 217.755 250.021 217.876C249.9 217.996 249.737 218.064 249.567 218.064H226.867C226.697 218.063 226.534 217.995 226.414 217.875C226.294 217.755 226.226 217.592 226.225 217.423V214.142H250.209Z" fill="#3F3D56"/>
<path d="M191.784 127.012H283.852C284.643 127.014 285.401 127.328 285.961 127.887C286.52 128.446 286.835 129.204 286.836 129.994V192.083C286.835 192.873 286.521 193.631 285.961 194.191C285.402 194.75 284.643 195.064 283.852 195.065H191.784C190.993 195.064 190.234 194.75 189.675 194.191C189.115 193.631 188.801 192.873 188.8 192.083V129.994C188.801 129.204 189.116 128.446 189.675 127.887C190.234 127.328 190.993 127.014 191.784 127.012Z" fill="#3895D4"/>
<path d="M192.551 129.166H283.082C283.505 129.167 283.911 129.336 284.21 129.635C284.51 129.935 284.678 130.341 284.678 130.764V191.314C284.677 191.737 284.509 192.142 284.21 192.441C283.91 192.74 283.505 192.908 283.082 192.909H192.551C192.128 192.908 191.723 192.74 191.424 192.441C191.125 192.142 190.956 191.737 190.956 191.314V130.764C190.956 130.341 191.124 129.935 191.423 129.635C191.722 129.336 192.128 129.167 192.551 129.166Z" fill="#A1C2E9"/>
<path d="M210.186 219.205H264.046C264.194 219.205 264.339 219.173 264.472 219.109C264.606 219.046 264.723 218.954 264.816 218.839C264.909 218.725 264.975 218.591 265.009 218.448C265.044 218.305 265.046 218.155 265.016 218.011L264.18 214.045C264.133 213.823 264.01 213.624 263.834 213.481C263.658 213.338 263.438 213.259 263.211 213.258H211.021C210.794 213.259 210.574 213.338 210.398 213.481C210.221 213.624 210.099 213.823 210.052 214.045L209.216 218.011C209.186 218.155 209.188 218.305 209.223 218.448C209.257 218.591 209.323 218.725 209.416 218.839C209.509 218.954 209.626 219.046 209.759 219.109C209.893 219.173 210.038 219.205 210.186 219.205Z" fill="#306CB3"/>
<path d="M261.46 213.973H262.537C262.698 213.973 262.828 214.103 262.828 214.263V214.677C262.828 214.837 262.698 214.967 262.537 214.967H261.46C261.3 214.967 261.169 214.837 261.169 214.677V214.263C261.169 214.103 261.3 213.973 261.46 213.973Z" fill="#3895D4"/>
<path d="M258.142 213.973H259.219C259.38 213.973 259.51 214.103 259.51 214.263V214.677C259.51 214.837 259.38 214.967 259.219 214.967H258.142C257.981 214.967 257.851 214.837 257.851 214.677V214.263C257.851 214.103 257.981 213.973 258.142 213.973Z" fill="#3895D4"/>
<path d="M254.825 213.973H255.902C256.063 213.973 256.193 214.103 256.193 214.263V214.677C256.193 214.837 256.063 214.967 255.902 214.967H254.825C254.665 214.967 254.535 214.837 254.535 214.677V214.263C254.535 214.103 254.665 213.973 254.825 213.973Z" fill="#3895D4"/>
<path d="M251.507 213.973H252.584C252.745 213.973 252.875 214.103 252.875 214.263V214.677C252.875 214.837 252.745 214.967 252.584 214.967H251.507C251.346 214.967 251.216 214.837 251.216 214.677V214.263C251.216 214.103 251.346 213.973 251.507 213.973Z" fill="#3895D4"/>
<path d="M248.189 213.973H249.266C249.426 213.973 249.557 214.103 249.557 214.263V214.677C249.557 214.837 249.426 214.967 249.266 214.967H248.189C248.028 214.967 247.898 214.837 247.898 214.677V214.263C247.898 214.103 248.028 213.973 248.189 213.973Z" fill="#3895D4"/>
<path d="M244.872 213.973H245.949C246.11 213.973 246.24 214.103 246.24 214.263V214.677C246.24 214.837 246.11 214.967 245.949 214.967H244.872C244.712 214.967 244.581 214.837 244.581 214.677V214.263C244.581 214.103 244.712 213.973 244.872 213.973Z" fill="#3895D4"/>
<path d="M241.554 213.973H242.631C242.792 213.973 242.922 214.103 242.922 214.263V214.677C242.922 214.837 242.792 214.967 242.631 214.967H241.554C241.393 214.967 241.263 214.837 241.263 214.677V214.263C241.263 214.103 241.393 213.973 241.554 213.973Z" fill="#3895D4"/>
<path d="M238.236 213.973H239.313C239.473 213.973 239.604 214.103 239.604 214.263V214.677C239.604 214.837 239.473 214.967 239.313 214.967H238.236C238.075 214.967 237.945 214.837 237.945 214.677V214.263C237.945 214.103 238.075 213.973 238.236 213.973Z" fill="#3895D4"/>
<path d="M234.919 213.973H235.996C236.157 213.973 236.287 214.103 236.287 214.263V214.677C236.287 214.837 236.157 214.967 235.996 214.967H234.919C234.759 214.967 234.628 214.837 234.628 214.677V214.263C234.628 214.103 234.759 213.973 234.919 213.973Z" fill="#3895D4"/>
<path d="M231.601 213.973H232.678C232.838 213.973 232.969 214.103 232.969 214.263V214.677C232.969 214.837 232.838 214.967 232.678 214.967H231.601C231.44 214.967 231.31 214.837 231.31 214.677V214.263C231.31 214.103 231.44 213.973 231.601 213.973Z" fill="#3895D4"/>
<path d="M228.283 213.973H229.359C229.52 213.973 229.65 214.103 229.65 214.263V214.677C229.65 214.837 229.52 214.967 229.359 214.967H228.283C228.122 214.967 227.992 214.837 227.992 214.677V214.263C227.992 214.103 228.122 213.973 228.283 213.973Z" fill="#3895D4"/>
<path d="M224.966 213.973H226.043C226.204 213.973 226.334 214.103 226.334 214.263V214.677C226.334 214.837 226.204 214.967 226.043 214.967H224.966C224.805 214.967 224.675 214.837 224.675 214.677V214.263C224.675 214.103 224.805 213.973 224.966 213.973Z" fill="#3895D4"/>
<path d="M221.648 213.973H222.725C222.885 213.973 223.016 214.103 223.016 214.263V214.677C223.016 214.837 222.885 214.967 222.725 214.967H221.648C221.487 214.967 221.357 214.837 221.357 214.677V214.263C221.357 214.103 221.487 213.973 221.648 213.973Z" fill="#3895D4"/>
<path d="M218.329 213.973H219.406C219.567 213.973 219.697 214.103 219.697 214.263V214.677C219.697 214.837 219.567 214.967 219.406 214.967H218.329C218.169 214.967 218.038 214.837 218.038 214.677V214.263C218.038 214.103 218.169 213.973 218.329 213.973Z" fill="#3895D4"/>
<path d="M215.013 213.973H216.09C216.251 213.973 216.381 214.103 216.381 214.263V214.677C216.381 214.837 216.251 214.967 216.09 214.967H215.013C214.852 214.967 214.722 214.837 214.722 214.677V214.263C214.722 214.103 214.852 213.973 215.013 213.973Z" fill="#3895D4"/>
<path d="M211.695 213.973H212.771C212.932 213.973 213.062 214.103 213.062 214.263V214.677C213.062 214.837 212.932 214.967 212.771 214.967H211.695C211.534 214.967 211.404 214.837 211.404 214.677V214.263C211.404 214.103 211.534 213.973 211.695 213.973Z" fill="#3895D4"/>
<path d="M261.499 215.63H262.576C262.737 215.63 262.867 215.761 262.867 215.921V216.334C262.867 216.495 262.737 216.625 262.576 216.625H261.499C261.339 216.625 261.208 216.495 261.208 216.334V215.921C261.208 215.761 261.339 215.63 261.499 215.63Z" fill="#3895D4"/>
<path d="M258.181 215.63H259.258C259.419 215.63 259.549 215.761 259.549 215.921V216.334C259.549 216.495 259.419 216.625 259.258 216.625H258.181C258.02 216.625 257.89 216.495 257.89 216.334V215.921C257.89 215.761 258.02 215.63 258.181 215.63Z" fill="#3895D4"/>
<path d="M254.865 215.63H255.941C256.102 215.63 256.232 215.761 256.232 215.921V216.334C256.232 216.495 256.102 216.625 255.941 216.625H254.865C254.704 216.625 254.574 216.495 254.574 216.334V215.921C254.574 215.761 254.704 215.63 254.865 215.63Z" fill="#3895D4"/>
<path d="M251.546 215.63H252.623C252.784 215.63 252.914 215.761 252.914 215.921V216.334C252.914 216.495 252.784 216.625 252.623 216.625H251.546C251.385 216.625 251.255 216.495 251.255 216.334V215.921C251.255 215.761 251.385 215.63 251.546 215.63Z" fill="#3895D4"/>
<path d="M248.228 215.63H249.305C249.465 215.63 249.596 215.761 249.596 215.921V216.334C249.596 216.495 249.465 216.625 249.305 216.625H248.228C248.067 216.625 247.937 216.495 247.937 216.334V215.921C247.937 215.761 248.067 215.63 248.228 215.63Z" fill="#3895D4"/>
<path d="M244.911 215.63H245.988C246.149 215.63 246.279 215.761 246.279 215.921V216.334C246.279 216.495 246.149 216.625 245.988 216.625H244.911C244.751 216.625 244.62 216.495 244.62 216.334V215.921C244.62 215.761 244.751 215.63 244.911 215.63Z" fill="#3895D4"/>
<path d="M241.593 215.63H242.67C242.831 215.63 242.961 215.761 242.961 215.921V216.334C242.961 216.495 242.831 216.625 242.67 216.625H241.593C241.432 216.625 241.302 216.495 241.302 216.334V215.921C241.302 215.761 241.432 215.63 241.593 215.63Z" fill="#3895D4"/>
<path d="M238.275 215.63H239.352C239.512 215.63 239.643 215.761 239.643 215.921V216.334C239.643 216.495 239.512 216.625 239.352 216.625H238.275C238.114 216.625 237.984 216.495 237.984 216.334V215.921C237.984 215.761 238.114 215.63 238.275 215.63Z" fill="#3895D4"/>
<path d="M234.958 215.63H236.035C236.196 215.63 236.326 215.761 236.326 215.921V216.334C236.326 216.495 236.196 216.625 236.035 216.625H234.958C234.798 216.625 234.667 216.495 234.667 216.334V215.921C234.667 215.761 234.798 215.63 234.958 215.63Z" fill="#3895D4"/>
<path d="M231.64 215.63H232.717C232.878 215.63 233.008 215.761 233.008 215.921V216.334C233.008 216.495 232.878 216.625 232.717 216.625H231.64C231.479 216.625 231.349 216.495 231.349 216.334V215.921C231.349 215.761 231.479 215.63 231.64 215.63Z" fill="#3895D4"/>
<path d="M228.322 215.63H229.398C229.559 215.63 229.689 215.761 229.689 215.921V216.334C229.689 216.495 229.559 216.625 229.398 216.625H228.322C228.161 216.625 228.031 216.495 228.031 216.334V215.921C228.031 215.761 228.161 215.63 228.322 215.63Z" fill="#3895D4"/>
<path d="M225.005 215.63H226.082C226.243 215.63 226.373 215.761 226.373 215.921V216.334C226.373 216.495 226.243 216.625 226.082 216.625H225.005C224.844 216.625 224.714 216.495 224.714 216.334V215.921C224.714 215.761 224.844 215.63 225.005 215.63Z" fill="#3895D4"/>
<path d="M221.687 215.63H222.764C222.924 215.63 223.055 215.761 223.055 215.921V216.334C223.055 216.495 222.924 216.625 222.764 216.625H221.687C221.526 216.625 221.396 216.495 221.396 216.334V215.921C221.396 215.761 221.526 215.63 221.687 215.63Z" fill="#3895D4"/>
<path d="M218.368 215.63H219.445C219.606 215.63 219.736 215.761 219.736 215.921V216.334C219.736 216.495 219.606 216.625 219.445 216.625H218.368C218.208 216.625 218.077 216.495 218.077 216.334V215.921C218.077 215.761 218.208 215.63 218.368 215.63Z" fill="#3895D4"/>
<path d="M215.052 215.63H216.129C216.29 215.63 216.42 215.761 216.42 215.921V216.334C216.42 216.495 216.29 216.625 216.129 216.625H215.052C214.891 216.625 214.761 216.495 214.761 216.334V215.921C214.761 215.761 214.891 215.63 215.052 215.63Z" fill="#3895D4"/>
<path d="M211.734 215.63H212.811C212.971 215.63 213.102 215.761 213.102 215.921V216.334C213.102 216.495 212.971 216.625 212.811 216.625H211.734C211.573 216.625 211.443 216.495 211.443 216.334V215.921C211.443 215.761 211.573 215.63 211.734 215.63Z" fill="#3895D4"/>
<path d="M233.962 217.62H246.65C246.811 217.62 246.941 217.75 246.941 217.911V218.324C246.941 218.484 246.811 218.614 246.65 218.614H233.962C233.801 218.614 233.671 218.484 233.671 218.324V217.911C233.671 217.75 233.801 217.62 233.962 217.62Z" fill="#3895D4"/>
<path d="M197.102 137.509H281.811C281.899 137.507 281.983 137.47 282.045 137.407C282.106 137.344 282.141 137.26 282.141 137.172C282.141 137.084 282.106 136.999 282.045 136.936C281.983 136.874 281.899 136.837 281.811 136.835H197.102C197.014 136.837 196.93 136.874 196.869 136.936C196.807 136.999 196.773 137.084 196.773 137.172C196.773 137.26 196.807 137.344 196.869 137.407C196.93 137.47 197.014 137.507 197.102 137.509Z" fill="#011025"/>
<path d="M276.045 135.116C274.955 135.116 274.071 134.213 274.071 133.099C274.071 131.986 274.955 131.083 276.045 131.083C277.136 131.083 278.02 131.986 278.02 133.099C278.02 134.213 277.136 135.116 276.045 135.116Z" fill="#306CB3"/>
<path d="M269.225 135.116C268.135 135.116 267.251 134.213 267.251 133.099C267.251 131.986 268.135 131.083 269.225 131.083C270.315 131.083 271.199 131.986 271.199 133.099C271.199 134.213 270.315 135.116 269.225 135.116Z" fill="#306CB3"/>
<path d="M262.405 135.116C261.314 135.116 260.431 134.213 260.431 133.099C260.431 131.986 261.314 131.083 262.405 131.083C263.495 131.083 264.379 131.986 264.379 133.099C264.379 134.213 263.495 135.116 262.405 135.116Z" fill="#306CB3"/>
<path d="M201.208 131.582H206.052C206.149 131.584 206.24 131.624 206.307 131.692C206.374 131.761 206.412 131.853 206.412 131.949C206.412 132.045 206.374 132.137 206.307 132.206C206.24 132.274 206.149 132.314 206.052 132.316H201.208C201.112 132.314 201.02 132.274 200.953 132.206C200.886 132.137 200.848 132.045 200.848 131.949C200.848 131.853 200.886 131.761 200.953 131.692C201.02 131.624 201.112 131.584 201.208 131.582H201.208Z" fill="#306CB3"/>
<path d="M201.208 132.959H206.053C206.149 132.96 206.24 133 206.307 133.068C206.374 133.137 206.412 133.229 206.412 133.325C206.412 133.421 206.374 133.513 206.307 133.582C206.24 133.65 206.149 133.69 206.053 133.692H201.208C201.112 133.69 201.021 133.65 200.953 133.582C200.886 133.513 200.849 133.421 200.849 133.325C200.849 133.229 200.886 133.137 200.953 133.068C201.021 133 201.112 132.96 201.208 132.959H201.208Z" fill="#306CB3"/>
<path d="M201.208 134.333H206.052C206.149 134.335 206.24 134.374 206.307 134.443C206.374 134.511 206.412 134.603 206.412 134.699C206.412 134.795 206.374 134.887 206.307 134.956C206.24 135.025 206.149 135.064 206.052 135.066H201.208C201.112 135.064 201.02 135.025 200.953 134.956C200.886 134.887 200.848 134.795 200.848 134.699C200.848 134.603 200.886 134.511 200.953 134.443C201.02 134.374 201.112 134.335 201.208 134.333H201.208Z" fill="#306CB3"/>
<path d="M232.618 155.85H243.203C243.998 155.85 244.643 156.494 244.643 157.288C244.643 158.083 243.998 158.727 243.203 158.727H232.618C231.823 158.727 231.179 158.083 231.179 157.288C231.179 156.494 231.823 155.85 232.618 155.85Z" fill="#3895D3"/>
<path d="M225.78 161.604H250.041C250.836 161.604 251.48 162.248 251.48 163.043C251.48 163.837 250.836 164.482 250.041 164.482H225.78C224.985 164.482 224.341 163.837 224.341 163.043C224.341 162.248 224.985 161.604 225.78 161.604Z" fill="#3895D4"/>
<path d="M225.78 167.359H250.041C250.836 167.359 251.48 168.003 251.48 168.797C251.48 169.592 250.836 170.236 250.041 170.236H225.78C224.985 170.236 224.341 169.592 224.341 168.797C224.341 168.003 224.985 167.359 225.78 167.359Z" fill="#3895D4"/>
<path d="M389.226 257.009L394.105 254.676L387.403 234.293L380.201 237.735L389.226 257.009Z" fill="white"/>
<path d="M356.513 253.723C356.868 253.945 357.223 254.163 357.581 254.382C358.295 254.819 359.015 255.249 359.735 255.671C360.097 255.883 360.463 256.094 360.825 256.302V256.312L360.847 256.316L360.854 256.32L361.406 256.456L362.198 254.364L362.563 253.4L363.08 252.036L364.026 249.539L369.008 236.393L361.262 234.484L360.972 235.67H360.968L360.825 236.257L358.119 247.225L357.567 249.467L357.549 249.535L357.216 250.875L356.929 252.036L356.61 253.332L356.513 253.723Z" fill="white"/>
<path d="M310.307 207.558C310.798 208.346 311.3 209.13 311.806 209.908C312.745 211.355 313.709 212.78 314.698 214.184C314.698 214.188 314.702 214.188 314.705 214.192C315.282 214.726 315.92 215.191 316.605 215.578C316.633 215.599 316.666 215.614 316.694 215.632C317.199 215.91 317.736 216.126 318.293 216.273C318.494 216.323 318.698 216.373 318.899 216.423C319.623 216.595 320.34 216.742 321.053 216.871C322.322 217.097 323.576 217.258 324.823 217.358C324.924 217.369 325.024 217.376 325.124 217.383C330.253 217.759 335.246 217.154 340.458 216.162C343.031 215.675 345.658 215.091 348.379 214.485C349.268 214.285 350.16 214.088 351.063 213.891C351.132 213.876 351.203 213.858 351.275 213.844C352.565 213.561 353.877 213.282 355.221 213.006C356.913 212.659 358.658 212.322 360.472 212.003L360.343 214.557C360.236 216.522 359.827 218.458 359.132 220.299C358.357 222.563 357.744 224.354 359.038 228.082L359.662 229.888C359.339 230.784 359.228 231.743 359.338 232.69C359.448 233.636 359.776 234.545 360.296 235.343L360.422 235.533L355.221 248.682L354.884 249.535H357.547L360.823 249.538H366.375L374.386 233.477L374.77 232.71V232.671L373.942 201.805C373.931 201.533 373.909 201.257 373.873 200.985C373.727 199.747 373.336 198.551 372.723 197.466C372.109 196.382 371.286 195.43 370.3 194.666C369.356 193.929 368.274 193.386 367.118 193.07C365.961 192.754 364.754 192.671 363.565 192.825L360.823 193.18L355.221 193.904L351.275 194.416L351.196 194.426L339.558 195.931L338.723 192.528L338.569 192.471L333.669 190.676L316.723 184.469L316.68 184.454L315.565 184.046L315.433 184.261C315.393 184.325 315.354 184.39 315.318 184.454C314.216 186.428 313.319 188.509 312.641 190.665C311.5 194.188 310.56 197.772 309.827 201.401C309.795 201.558 309.766 201.701 309.741 201.83L309.73 201.87C309.72 201.931 309.712 201.97 309.709 201.981C309.373 203.859 309.58 205.794 310.307 207.558Z" fill="#2F2E41"/>
<path d="M309.592 196.183C309.646 195.954 309.714 195.721 309.786 195.495C310.355 193.786 311.018 192.11 311.772 190.473C312.617 188.611 313.632 186.616 314.84 184.456C315.424 183.41 316.052 182.322 316.725 181.193C317.062 180.627 317.412 180.05 317.775 179.463C317.789 179.436 317.805 179.409 317.822 179.384L317.926 179.212L334.693 181.454L340.936 182.289L341.309 185.398L341.399 186.168C341.402 186.168 341.402 186.168 341.399 186.172L341.65 188.271V188.274L341.983 191.047L342.012 191.043L351.277 189.843L360.825 188.607L365.954 187.945C367.143 187.79 368.35 187.873 369.507 188.189C370.663 188.505 371.745 189.048 372.689 189.786C373.674 190.549 374.498 191.501 375.111 192.586C375.725 193.671 376.116 194.867 376.262 196.104C376.295 196.355 376.316 196.613 376.327 196.867L381.166 208.326C384.061 215.179 385.905 222.429 386.635 229.832L390.184 241.169L389.678 241.215L382.159 241.914L380.173 242.1L375.8 235.721C375.302 234.993 374.829 234.245 374.388 233.478C373.662 232.226 373.017 230.929 372.456 229.595L362.997 207.101C362.266 207.226 361.542 207.346 360.825 207.459C357.51 207.996 354.327 208.435 351.277 208.774C341.359 209.88 332.772 209.966 325.126 209.028C322.979 208.766 320.904 208.423 318.901 207.996C318.166 207.842 317.441 207.676 316.725 207.498C316.556 207.459 316.392 207.42 316.227 207.377C314.745 206.995 313.384 206.248 312.266 205.204C311.148 204.16 310.31 202.853 309.829 201.402C309.254 199.72 309.172 197.91 309.592 196.183Z" fill="#2F2E41"/>
<path d="M387.666 253.68L392.946 251.151L393.774 250.754L395.096 253.999L404.329 256.03C404.786 256.13 405.198 256.373 405.506 256.724C405.815 257.075 406.003 257.516 406.043 257.981C406.083 258.446 405.973 258.912 405.729 259.311C405.485 259.709 405.12 260.019 404.687 260.196L395.666 263.875L392.802 261.299L393.505 264.756L390.107 266.142L386.383 254.296L387.666 253.68Z" fill="#2F2E41"/>
<path d="M355.223 248.682L354.885 249.535H355.223V248.682Z" fill="#2F2E41"/>
<path d="M357.06 249.717L362.592 251.632L363.46 251.932L362.115 255.168L367.246 263.103C367.5 263.496 367.622 263.959 367.594 264.425C367.566 264.891 367.389 265.336 367.09 265.695C366.791 266.054 366.385 266.307 365.931 266.419C365.477 266.531 364.999 266.495 364.568 266.316L355.567 262.586L355.345 258.742L353.411 261.692L350.021 260.288L355.714 249.252L357.06 249.717Z" fill="#2F2E41"/>
<path d="M390.638 131.2C390.376 131.711 390.005 132.158 389.551 132.51C389.097 132.862 388.572 133.11 388.011 133.237C387.451 133.364 386.87 133.366 386.309 133.244C385.747 133.122 385.22 132.879 384.763 132.531L373.13 140.249L373.108 132.998L384.158 126.781C384.793 126.052 385.674 125.582 386.633 125.459C387.592 125.336 388.563 125.569 389.362 126.114C390.161 126.659 390.732 127.477 390.967 128.415C391.203 129.352 391.085 130.343 390.638 131.2V131.2Z" fill="white"/>
<path d="M381.947 134.552L376.52 128.381L354.421 141.492L325.127 138.811C323.679 138.679 322.219 138.866 320.852 139.361C319.485 139.855 318.243 140.645 317.216 141.673C316.188 142.701 315.399 143.942 314.906 145.309C314.412 146.676 314.226 148.135 314.36 149.582C314.605 152.195 315.877 154.604 317.897 156.281C319.918 157.958 322.521 158.766 325.137 158.527L358.129 155.475L381.947 134.552Z" fill="#306CB3"/>
<path d="M313.954 134.647L314.005 134.583C318.126 134.177 322.277 134.974 325.954 136.878C329.63 138.782 332.676 141.711 334.72 145.309L337.206 149.686C345.248 159.511 339.404 166.286 339.054 167.294L341.846 180.156L341.22 184.46L340.908 185.739L309.045 202.377C307.231 193.667 308.985 186.244 315.594 180.574L309.2 160.691C307.782 156.295 307.474 151.616 308.304 147.072C309.133 142.528 311.075 138.26 313.954 134.647Z" fill="#306CB3"/>
<path d="M339.289 231.242H349.51C350.072 231.242 350.615 231.039 351.039 230.67C351.464 230.302 351.741 229.793 351.82 229.237C352.451 224.596 352.451 219.891 351.82 215.25C351.742 214.7 351.47 214.197 351.054 213.829C350.638 213.462 350.104 213.254 349.549 213.245C346.333 211.804 342.87 211.804 339.254 213.244C338.917 213.249 338.586 213.327 338.282 213.473C337.979 213.619 337.711 213.83 337.498 214.091C337.276 214.362 337.117 214.679 337.033 215.019C336.948 215.359 336.941 215.714 337.011 216.058C337.832 220.141 337.832 224.346 337.011 228.429C336.941 228.772 336.948 229.127 337.033 229.467C337.117 229.808 337.276 230.125 337.498 230.396C337.715 230.661 337.988 230.874 338.298 231.021C338.608 231.167 338.947 231.243 339.289 231.242Z" fill="#3895D3"/>
<path d="M340.359 218.577H348.962C349.033 218.578 349.103 218.564 349.169 218.537C349.235 218.511 349.294 218.471 349.345 218.421C349.395 218.371 349.435 218.312 349.463 218.246C349.49 218.181 349.504 218.111 349.504 218.04C349.504 217.969 349.49 217.898 349.463 217.833C349.435 217.767 349.395 217.708 349.345 217.658C349.294 217.608 349.235 217.569 349.169 217.542C349.103 217.515 349.033 217.502 348.962 217.502H340.359C340.288 217.502 340.218 217.515 340.152 217.542C340.086 217.569 340.027 217.608 339.976 217.658C339.926 217.708 339.886 217.767 339.858 217.833C339.831 217.898 339.817 217.969 339.817 218.04C339.817 218.111 339.831 218.181 339.858 218.246C339.886 218.312 339.926 218.371 339.976 218.421C340.027 218.471 340.086 218.511 340.152 218.537C340.218 218.564 340.288 218.578 340.359 218.577Z" fill="white"/>
<path d="M340.359 222.875H348.962C349.033 222.876 349.103 222.862 349.169 222.836C349.235 222.809 349.294 222.769 349.345 222.72C349.395 222.67 349.435 222.61 349.463 222.545C349.49 222.479 349.504 222.409 349.504 222.338C349.504 222.267 349.49 222.197 349.463 222.131C349.435 222.066 349.395 222.006 349.345 221.956C349.294 221.906 349.235 221.867 349.169 221.84C349.103 221.813 349.033 221.8 348.962 221.801H340.359C340.288 221.8 340.218 221.813 340.152 221.84C340.086 221.867 340.027 221.906 339.976 221.956C339.926 222.006 339.886 222.066 339.858 222.131C339.831 222.197 339.817 222.267 339.817 222.338C339.817 222.409 339.831 222.479 339.858 222.545C339.886 222.61 339.926 222.67 339.976 222.72C340.027 222.769 340.086 222.809 340.152 222.836C340.218 222.862 340.288 222.876 340.359 222.875Z" fill="white"/>
<path d="M340.359 227.174H348.961C349.032 227.174 349.103 227.161 349.169 227.134C349.234 227.107 349.294 227.068 349.345 227.018C349.395 226.968 349.435 226.909 349.463 226.843C349.49 226.778 349.504 226.707 349.504 226.636C349.504 226.565 349.49 226.495 349.463 226.429C349.435 226.364 349.395 226.304 349.345 226.255C349.294 226.205 349.234 226.165 349.169 226.138C349.103 226.112 349.032 226.098 348.961 226.099H340.359C340.288 226.098 340.218 226.112 340.152 226.138C340.086 226.165 340.026 226.205 339.976 226.255C339.925 226.304 339.885 226.364 339.858 226.429C339.83 226.495 339.816 226.565 339.816 226.636C339.816 226.707 339.83 226.778 339.858 226.843C339.885 226.909 339.925 226.968 339.976 227.018C340.026 227.068 340.086 227.107 340.152 227.134C340.218 227.161 340.288 227.174 340.359 227.174Z" fill="white"/>
<path d="M388.762 134.74H398.982C399.544 134.74 400.088 134.537 400.512 134.168C400.936 133.8 401.213 133.291 401.292 132.735C401.923 128.094 401.923 123.389 401.292 118.748C401.214 118.199 400.943 117.695 400.527 117.327C400.11 116.96 399.577 116.752 399.022 116.743C395.806 115.302 392.343 115.302 388.727 116.743C388.39 116.747 388.058 116.825 387.755 116.971C387.452 117.117 387.184 117.328 386.971 117.589C386.749 117.86 386.589 118.177 386.505 118.517C386.421 118.857 386.414 119.212 386.484 119.556C387.305 123.639 387.305 127.844 386.484 131.927C386.414 132.271 386.421 132.625 386.505 132.965C386.589 133.306 386.749 133.623 386.971 133.894C387.188 134.159 387.461 134.373 387.771 134.519C388.081 134.665 388.419 134.741 388.762 134.74Z" fill="#58CCED"/>
<path d="M389.832 122.075H398.434C398.505 122.076 398.576 122.062 398.641 122.035C398.707 122.009 398.767 121.969 398.817 121.919C398.868 121.869 398.908 121.81 398.935 121.744C398.963 121.679 398.977 121.609 398.977 121.538C398.977 121.467 398.963 121.397 398.935 121.331C398.908 121.266 398.868 121.206 398.817 121.156C398.767 121.106 398.707 121.067 398.641 121.04C398.576 121.013 398.505 121 398.434 121H389.832C389.761 121 389.691 121.013 389.625 121.04C389.559 121.067 389.499 121.106 389.449 121.156C389.398 121.206 389.358 121.266 389.331 121.331C389.304 121.397 389.29 121.467 389.29 121.538C389.29 121.609 389.304 121.679 389.331 121.744C389.358 121.81 389.398 121.869 389.449 121.919C389.499 121.969 389.559 122.009 389.625 122.035C389.691 122.062 389.761 122.076 389.832 122.075Z" fill="white"/>
<path d="M389.832 126.373H398.434C398.505 126.374 398.576 126.361 398.641 126.334C398.707 126.307 398.767 126.268 398.817 126.218C398.868 126.168 398.908 126.108 398.935 126.043C398.963 125.977 398.977 125.907 398.977 125.836C398.977 125.765 398.963 125.695 398.935 125.629C398.908 125.564 398.868 125.504 398.817 125.454C398.767 125.404 398.707 125.365 398.641 125.338C398.576 125.312 398.505 125.298 398.434 125.299H389.832C389.761 125.298 389.691 125.312 389.625 125.338C389.559 125.365 389.499 125.404 389.449 125.454C389.398 125.504 389.358 125.564 389.331 125.629C389.304 125.695 389.29 125.765 389.29 125.836C389.29 125.907 389.304 125.977 389.331 126.043C389.358 126.108 389.398 126.168 389.449 126.218C389.499 126.268 389.559 126.307 389.625 126.334C389.691 126.361 389.761 126.374 389.832 126.373Z" fill="white"/>
<path d="M389.832 130.672H398.434C398.505 130.672 398.575 130.659 398.641 130.632C398.707 130.606 398.767 130.566 398.817 130.516C398.868 130.466 398.908 130.407 398.935 130.341C398.962 130.276 398.977 130.205 398.977 130.134C398.977 130.063 398.962 129.993 398.935 129.928C398.908 129.862 398.868 129.803 398.817 129.753C398.767 129.703 398.707 129.663 398.641 129.637C398.575 129.61 398.505 129.596 398.434 129.597H389.832C389.761 129.596 389.69 129.61 389.624 129.637C389.559 129.663 389.499 129.703 389.448 129.753C389.398 129.803 389.358 129.862 389.33 129.928C389.303 129.993 389.289 130.063 389.289 130.134C389.289 130.205 389.303 130.276 389.33 130.341C389.358 130.407 389.398 130.466 389.448 130.516C389.499 130.566 389.559 130.606 389.624 130.632C389.69 130.659 389.761 130.672 389.832 130.672Z" fill="white"/>
<path d="M568.18 160.951H578.4C578.962 160.95 579.506 160.747 579.93 160.379C580.354 160.01 580.631 159.501 580.71 158.945C581.341 154.304 581.341 149.599 580.71 144.958C580.632 144.409 580.361 143.905 579.945 143.538C579.528 143.17 578.995 142.963 578.44 142.953C575.224 141.513 571.761 141.513 568.145 142.953C567.808 142.957 567.476 143.035 567.173 143.182C566.87 143.328 566.602 143.539 566.389 143.799C566.167 144.07 566.007 144.387 565.923 144.728C565.839 145.068 565.832 145.423 565.902 145.766C566.723 149.849 566.723 154.054 565.902 158.137C565.832 158.481 565.839 158.836 565.923 159.176C566.007 159.516 566.167 159.833 566.389 160.104C566.606 160.369 566.879 160.583 567.189 160.729C567.499 160.876 567.837 160.951 568.18 160.951Z" fill="#3895D3"/>
<path d="M569.25 148.285H577.852C577.923 148.286 577.994 148.273 578.059 148.246C578.125 148.219 578.185 148.18 578.235 148.13C578.286 148.08 578.326 148.02 578.353 147.955C578.38 147.889 578.395 147.819 578.395 147.748C578.395 147.677 578.38 147.607 578.353 147.541C578.326 147.476 578.286 147.416 578.235 147.367C578.185 147.317 578.125 147.277 578.059 147.25C577.994 147.224 577.923 147.21 577.852 147.211H569.25C569.179 147.21 569.109 147.224 569.043 147.25C568.977 147.277 568.917 147.317 568.867 147.367C568.816 147.416 568.776 147.476 568.749 147.541C568.722 147.607 568.708 147.677 568.708 147.748C568.708 147.819 568.722 147.889 568.749 147.955C568.776 148.02 568.816 148.08 568.867 148.13C568.917 148.18 568.977 148.219 569.043 148.246C569.109 148.273 569.179 148.286 569.25 148.285Z" fill="white"/>
<path d="M569.25 152.584H577.852C577.923 152.584 577.994 152.571 578.059 152.544C578.125 152.517 578.185 152.478 578.235 152.428C578.286 152.378 578.326 152.319 578.353 152.253C578.38 152.188 578.395 152.117 578.395 152.046C578.395 151.975 578.38 151.905 578.353 151.84C578.326 151.774 578.286 151.715 578.235 151.665C578.185 151.615 578.125 151.575 578.059 151.549C577.994 151.522 577.923 151.509 577.852 151.509H569.25C569.179 151.509 569.109 151.522 569.043 151.549C568.977 151.575 568.917 151.615 568.867 151.665C568.816 151.715 568.776 151.774 568.749 151.84C568.722 151.905 568.708 151.975 568.708 152.046C568.708 152.117 568.722 152.188 568.749 152.253C568.776 152.319 568.816 152.378 568.867 152.428C568.917 152.478 568.977 152.517 569.043 152.544C569.109 152.571 569.179 152.584 569.25 152.584Z" fill="white"/>
<path d="M569.25 156.882H577.852C577.923 156.883 577.993 156.869 578.059 156.843C578.125 156.816 578.185 156.776 578.235 156.727C578.286 156.677 578.326 156.617 578.353 156.552C578.38 156.486 578.395 156.416 578.395 156.345C578.395 156.274 578.38 156.204 578.353 156.138C578.326 156.072 578.286 156.013 578.235 155.963C578.185 155.913 578.125 155.874 578.059 155.847C577.993 155.82 577.923 155.807 577.852 155.807H569.25C569.179 155.807 569.108 155.82 569.042 155.847C568.977 155.874 568.917 155.913 568.866 155.963C568.816 156.013 568.776 156.072 568.748 156.138C568.721 156.204 568.707 156.274 568.707 156.345C568.707 156.416 568.721 156.486 568.748 156.552C568.776 156.617 568.816 156.677 568.866 156.727C568.917 156.776 568.977 156.816 569.042 156.843C569.108 156.869 569.179 156.883 569.25 156.882Z" fill="white"/>
<path d="M336.294 218.186C335.799 217.894 335.375 217.497 335.05 217.024C334.726 216.55 334.509 216.011 334.416 215.445C334.322 214.878 334.354 214.298 334.509 213.745C334.664 213.193 334.938 212.681 335.313 212.245L328.294 200.183L335.538 200.591L341.093 211.983C341.783 212.66 342.2 213.567 342.266 214.531C342.332 215.495 342.042 216.45 341.45 217.215C340.859 217.979 340.007 218.5 339.057 218.679C338.106 218.858 337.123 218.683 336.294 218.186V218.186Z" fill="white"/>
<path d="M333.462 209.317L339.947 204.269L328.162 181.445L332.578 152.38C332.796 150.944 332.695 149.477 332.283 148.083C331.87 146.69 331.155 145.405 330.189 144.318C329.223 143.232 328.03 142.372 326.694 141.798C325.358 141.225 323.912 140.952 322.458 141C319.834 141.089 317.351 142.216 315.556 144.132C313.762 146.048 312.8 148.597 312.884 151.221L313.975 184.315L333.462 209.317Z" fill="#306CB3"/>
<path d="M646.933 203.082C646.525 202.671 646.211 202.176 646.015 201.632C645.818 201.087 645.744 200.507 645.796 199.93C645.849 199.354 646.027 198.796 646.319 198.296C646.61 197.796 647.008 197.366 647.484 197.036L641.176 165.726L648.142 167.961L653.191 198.245C653.692 199.081 653.869 200.072 653.689 201.029C653.508 201.987 652.983 202.845 652.211 203.441C651.44 204.037 650.477 204.33 649.504 204.264C648.531 204.197 647.616 203.777 646.933 203.082H646.933Z" fill="white"/>
<path d="M637.617 136.839L641.939 133.578C641.939 133.578 645.751 133.309 646.427 140.18C647.102 147.051 648.488 160.441 648.488 160.441L655.102 191.052L645.947 193.06L638.864 160.026L634.615 150.216L637.617 136.839Z" fill="#306CB3"/>
<path d="M644.742 186.822L620.389 186.417L618.359 169.786H644.742V186.822Z" fill="white"/>
<path d="M622.827 289.164H617.205L614.53 267.492L622.828 267.493L622.827 289.164Z" fill="white"/>
<path d="M658.047 289.685L652.425 289.645L649.902 267.955L657.214 269.632L658.047 289.685Z" fill="white"/>
<path d="M640.464 155.463L641.738 158.773L641.484 162.083L616.552 170.713L617.789 156.227L620.591 152.917L640.464 155.463Z" fill="white"/>
<path d="M629.767 125.676C624.849 125.676 620.863 121.692 620.863 116.777C620.863 111.862 624.849 107.878 629.767 107.878C634.685 107.878 638.672 111.862 638.672 116.777C638.672 121.692 634.685 125.676 629.767 125.676Z" fill="white"/>
<path d="M624.219 286.393L615.332 285.863V289.668L606.882 295.5C606.465 295.788 606.15 296.202 605.985 296.681C605.82 297.16 605.812 297.679 605.963 298.163C606.114 298.647 606.415 299.07 606.824 299.371C607.233 299.671 607.726 299.833 608.234 299.833H618.815L620.638 296.069L621.35 299.833H625.34L624.219 286.393Z" fill="#2F2E41"/>
<path d="M659.97 286.926L651.086 286.334L651.059 290.139L642.569 295.912C642.15 296.197 641.833 296.609 641.664 297.087C641.495 297.564 641.484 298.084 641.631 298.569C641.779 299.054 642.078 299.479 642.484 299.782C642.89 300.085 643.383 300.251 643.89 300.254L654.471 300.328L656.321 296.577L657.007 300.346L660.996 300.374L659.97 286.926Z" fill="#2F2E41"/>
<path d="M659.797 273.069L655.703 240.366L650.833 205.887C654.399 199.267 646.368 178.71 646.368 178.71L645.234 178.764L619.573 183.602L619.579 183.577C614.33 197.883 612.591 204.951 612.879 220.185L613.913 274.95H613.589C613.05 274.95 612.534 275.164 612.153 275.544C611.773 275.925 611.559 276.44 611.559 276.978C611.559 277.516 611.773 278.032 612.153 278.413C612.534 278.793 613.05 279.007 613.589 279.007H623.736C624.003 279.007 624.267 278.955 624.514 278.853C624.76 278.751 624.984 278.602 625.173 278.414C625.362 278.225 625.512 278.002 625.614 277.755C625.716 277.509 625.769 277.245 625.769 276.978C625.769 276.712 625.716 276.448 625.614 276.201C625.512 275.955 625.362 275.731 625.173 275.543C624.984 275.355 624.76 275.205 624.514 275.104C624.267 275.002 624.003 274.95 623.736 274.95H623.474L632.788 209.742L640.685 237.121L649.615 272.817C646.368 272.006 646.872 273.886 646.872 274.95C646.872 275.488 647.086 276.004 647.466 276.384C647.847 276.765 648.363 276.978 648.901 276.978H659.049C659.521 276.979 659.978 276.815 660.342 276.514C660.706 276.214 660.953 275.796 661.042 275.333C661.131 274.87 661.055 274.39 660.828 273.977C660.6 273.563 660.236 273.242 659.797 273.069H659.797Z" fill="#2F2E41"/>
<path d="M648.365 179.775L647.553 171.662C647.469 171.331 647.282 171.035 647.019 170.817C646.756 170.599 646.431 170.469 646.09 170.447C645.752 166.582 644.329 149.91 644.244 149.183L644.24 149.152L643.593 135.337C643.57 134.836 643.362 134.36 643.01 134.002C642.658 133.643 642.186 133.427 641.685 133.394L638.267 133.171C638.22 133.169 638.175 133.15 638.143 133.116C638.11 133.082 638.092 133.037 638.092 132.99C638.092 132.613 638.018 132.24 637.873 131.891C637.729 131.543 637.517 131.226 637.25 130.959C636.983 130.692 636.666 130.481 636.318 130.337C635.969 130.192 635.595 130.118 635.218 130.118H625.098C624.443 130.118 623.81 130.357 623.318 130.791C622.827 131.224 622.511 131.822 622.429 132.472C622.425 132.517 622.403 132.558 622.37 132.588C622.336 132.618 622.292 132.634 622.247 132.633H622.246C621.096 132.609 619.976 132.998 619.089 133.729C618.201 134.46 617.606 135.485 617.41 136.618C616.026 144.662 613.254 162.919 614.625 173.069C615.102 176.603 614.073 173.804 613.893 176.76C613.875 177.046 613.913 177.333 614.006 177.603C614.099 177.874 614.245 178.124 614.435 178.338C614.046 178.479 613.729 178.768 613.552 179.141C613.375 179.515 613.353 179.943 613.49 180.332L613.312 180.288C613.364 180.495 613.456 180.689 613.584 180.86C613.711 181.031 613.871 181.175 614.054 181.285C614.237 181.394 614.439 181.466 614.65 181.497C614.861 181.528 615.076 181.517 615.283 181.465L641.758 185.05C642.627 184.831 648.584 180.644 648.365 179.775Z" fill="#306CB3"/>
<path d="M577.62 146.79C577.786 147.345 578.071 147.856 578.456 148.288C578.841 148.721 579.316 149.064 579.848 149.292C580.38 149.521 580.956 149.631 581.535 149.614C582.114 149.596 582.682 149.452 583.199 149.192L593.434 158.526L594.793 151.342L584.859 143.602C584.363 142.763 583.577 142.135 582.649 141.836C581.72 141.538 580.715 141.59 579.823 141.983C578.93 142.376 578.213 143.082 577.807 143.968C577.401 144.854 577.335 145.858 577.62 146.79H577.62Z" fill="white"/>
<path d="M613.244 139.655C613.244 139.655 616.813 131.595 621.321 133.197C625.828 134.799 623.501 142.619 623.501 142.619L606.566 168.122C606.566 168.122 582.14 152.463 585.11 152.352C588.08 152.241 588.969 146.843 588.969 146.843L601.878 153.289L602.315 150.994L603.015 151.694L604.822 150.273L613.244 139.655Z" fill="#306CB3"/>
<path d="M321.3 130.801C314.434 130.801 308.868 125.238 308.868 118.376C308.868 111.515 314.434 105.952 321.3 105.952C328.166 105.952 333.732 111.515 333.732 118.376C333.732 125.238 328.166 130.801 321.3 130.801Z" fill="white"/>
<path d="M281.4 136.658C282.835 138.69 284.929 140.163 287.327 140.828C288.287 141.114 289.277 141.282 290.277 141.329C290.401 140.199 290.697 139.094 291.154 138.053C291.108 139.161 291.262 140.268 291.609 141.321C293.111 141.236 294.579 140.843 295.923 140.167C297.242 139.503 298.388 138.542 299.271 137.359C300.154 136.175 300.749 134.803 301.008 133.35C301.535 129.951 299.993 126.614 299.435 123.221C298.876 119.828 299.926 115.53 303.25 114.639C305.781 113.959 305.497 114.253 307.602 115.814C305.413 119.048 313.497 130.901 316.806 129.867C318.676 129.283 319.874 127.567 320.26 127.567C322.86 132.044 317.964 139.587 322.898 141.153L322.492 140.747C319.513 137.085 325.739 129.336 322.76 125.674C321.929 124.65 321.045 123.436 321.29 122.14C321.523 120.909 323.479 120.257 324.052 121.269C323.021 118.911 324.542 115.763 327.061 115.157C329.298 114.618 329.257 115.283 331.502 115.571C331.648 114.602 331.923 113.656 332.317 112.758C332.276 113.725 332.389 114.693 332.652 115.625C333.445 115.609 334.211 115.333 334.831 114.838C336.661 113.364 336.29 110.267 334.657 108.578C333.02 106.889 330.589 106.281 328.27 105.887C327.596 101.196 314.644 100.707 312.927 105.394C312.196 101.894 307.811 100.077 304.403 101.163C300.995 102.249 298.63 105.43 297.385 108.782C296.14 112.132 295.792 115.737 295.025 119.228C294.258 122.718 292.962 126.272 290.293 128.651C287.623 131.027 283.274 131.814 280.462 129.606C280.053 130.773 279.925 132.019 280.088 133.244C280.251 134.47 280.701 135.639 281.4 136.658Z" fill="#2F2E41"/>
<path d="M164.765 165.011L166.506 173.738C166.637 174.405 166.774 175.084 166.923 175.757C168.378 175.456 169.886 175.54 171.298 176.001C170.178 177.601 169.174 179.279 168.294 181.023C169.391 184.4 171 187.522 173.694 189.78C175.494 191.254 177.643 192.24 179.935 192.643C182.226 193.045 184.583 192.851 186.778 192.079L186.701 191.733C189.597 186.116 188.024 179.033 184.424 173.845C182.587 171.285 180.412 168.987 177.956 167.012C175.524 164.987 172.896 163.17 170.291 161.377C169.706 160.975 169.014 160.756 168.304 160.749C167.594 160.742 166.898 160.946 166.305 161.336C165.712 161.726 165.248 162.284 164.974 162.939C164.7 163.593 164.627 164.315 164.765 165.011Z" fill="#58CCED"/>
<path d="M186.158 213.077C186.89 207.744 187.644 202.343 187.13 196.952C186.673 192.165 185.212 187.49 182.237 183.656C180.657 181.625 178.736 179.884 176.558 178.513C175.99 178.156 175.468 179.055 176.033 179.411C179.801 181.791 182.715 185.305 184.356 189.446C186.168 194.052 186.459 199.073 186.144 203.966C185.955 206.925 185.555 209.863 185.151 212.8C185.119 212.933 185.138 213.073 185.206 213.192C185.274 213.311 185.384 213.4 185.515 213.44C185.648 213.476 185.79 213.458 185.91 213.39C186.03 213.321 186.118 213.209 186.155 213.076L186.158 213.077Z" fill="#F2F2F2"/>
<path d="M144.708 300.817L701.288 301C701.476 300.999 701.656 300.925 701.789 300.792C701.922 300.659 701.996 300.479 701.996 300.291C701.996 300.103 701.922 299.923 701.789 299.79C701.656 299.657 701.476 299.582 701.288 299.581L144.708 299.398C144.52 299.399 144.34 299.474 144.207 299.607C144.075 299.74 144 299.92 144 300.108C144 300.295 144.075 300.476 144.207 300.608C144.34 300.741 144.52 300.816 144.708 300.817Z" fill="#011025"/>
<path d="M640.247 111.328C641.612 111.983 643.141 110.998 644.32 110.021L643.899 110.385C645.982 112.412 646.957 115.327 647.433 118.196C647.909 121.063 647.962 123.994 648.562 126.841C649.163 129.684 650.408 132.541 652.735 134.282C655.852 136.614 660.151 136.465 663.976 135.75C664.027 135.739 664.074 135.731 664.125 135.721C663.096 132.751 662.677 129.605 662.895 126.469C663.92 129.611 665.666 132.47 667.992 134.819C670.528 134.121 673.004 133.22 675.394 132.123C676.941 131.412 678.606 130.439 679.035 128.792C679.466 127.157 678.466 125.442 677.13 124.41C675.794 123.378 674.154 122.839 672.631 122.104C671.112 121.372 669.608 120.328 668.999 118.753C667.595 115.129 671.594 110.97 670.036 107.407C669.267 105.656 667.385 104.703 665.616 103.968C662.915 102.849 660.142 101.915 657.315 101.17C654.834 100.516 652.243 100.007 649.715 100.436C647.187 100.865 644.71 102.402 643.8 104.801C642.282 105.314 640.67 105.891 639.696 107.169C638.722 108.443 638.801 110.636 640.247 111.328Z" fill="#2F2E41"/>
<path d="M628.096 107.129C632.003 104.046 635.162 104.572 637.599 106.487C638.009 106.032 639.752 107.285 640.342 107.105L642.477 111.111C643.576 113.048 644.027 115.026 643.849 116.139C645.87 121.803 641.078 125.627 635.41 127.647C633.149 128.458 630.682 128.494 628.398 127.748L628.328 126.783L627.899 127.574C627.899 127.574 622.718 138.235 621.493 138.714C622.236 136.788 624.196 127.635 624.742 125.727C625.492 123.131 624.98 119.007 624.539 116.479C624.265 114.92 624.25 113.326 624.497 111.762L624.508 111.694L623.295 114.14L620.576 112.43C621.615 109.405 621.636 105.785 628.096 107.129Z" fill="#2F2E41"/>
</g>
<defs>
<clipPath id="clip0_1074_2">
<rect width="558" height="301" fill="white" transform="matrix(-1 0 0 1 702 0)"/>
</clipPath>
</defs>
</svg>
