<svg width="301" height="210" viewBox="0 0 301 210" fill="none" xmlns="http://www.w3.org/2000/svg">
<path d="M127.873 89.5444C127.4 89.2013 126.949 88.8304 126.521 88.4336L127.106 87.8202C127.509 88.1937 127.934 88.5429 128.379 88.8661L127.873 89.5444Z" fill="#E4E4E4"/>
<path d="M124.173 85.6039C123.519 84.5646 123.003 83.4462 122.639 82.2764L123.455 82.0291C123.798 83.1294 124.283 84.1815 124.898 85.1592L124.173 85.6039ZM122.013 78.6743C122.004 78.4752 122 78.2759 122 78.0764C122 77.0529 122.112 76.0324 122.334 75.0326L123.167 75.2131C122.959 76.1536 122.854 77.1136 122.854 78.0764C122.854 78.2641 122.857 78.4516 122.865 78.6389L122.013 78.6743ZM124.347 71.9786L123.589 71.5931C123.941 70.918 124.347 70.2715 124.803 69.6598C125.083 69.2846 125.385 68.9263 125.709 68.5868L126.33 69.1638C126.031 69.4787 125.75 69.811 125.491 70.159C125.062 70.7348 124.679 71.3432 124.347 71.9786ZM129.069 67.0921L128.666 66.3495C129.768 65.7671 130.957 65.3639 132.189 65.1555L132.334 65.9858C131.192 66.1788 130.09 66.5523 129.069 67.0921ZM139.068 67.0001C138.039 66.4771 136.93 66.1231 135.786 65.9518L135.914 65.119C137.15 65.304 138.347 65.6863 139.459 66.251L139.068 67.0001Z" fill="#E4E4E4"/>
<path d="M142.788 70.3337C142.509 69.8753 142.185 69.4443 141.822 69.0468L142.456 68.4828C142.856 68.9204 143.212 69.3949 143.519 69.8996L142.788 70.3337Z" fill="#E4E4E4"/>
<path d="M110.068 61.3721L109.381 60.873C109.722 60.4148 110.082 59.9617 110.451 59.5262L111.106 60.0662C110.749 60.4884 110.4 60.9279 110.068 61.3721Z" fill="#E4E4E4"/>
<path d="M152.356 60.3981C151.7 59.4998 150.974 58.6539 150.183 57.8682L150.789 57.2746C151.611 58.0917 152.367 58.9716 153.049 59.9059L152.356 60.3981ZM113.429 57.6468L112.848 57.0301C113.699 56.2488 114.599 55.5212 115.542 54.8517L116.04 55.5358C115.126 56.1846 114.254 56.8897 113.429 57.6468ZM147.635 55.7045C146.727 55.0468 145.779 54.4452 144.796 53.9032L145.212 53.1675C146.226 53.7265 147.204 54.3471 148.141 55.0255L147.635 55.7045ZM118.9 53.7673L118.494 53.0267C119.516 52.4807 120.571 51.9985 121.654 51.583L121.963 52.368C120.914 52.7708 119.891 53.2382 118.9 53.7673ZM141.751 52.467C140.707 52.0523 139.637 51.7031 138.548 51.4213L138.764 50.6064C139.888 50.8972 140.992 51.2576 142.07 51.6855L141.751 52.467ZM125.18 51.3583L124.973 50.5411C126.1 50.2629 127.243 50.0541 128.397 49.9159L128.499 50.7523C127.381 50.8862 126.273 51.0886 125.18 51.3583ZM135.236 50.7824C134.119 50.6387 132.995 50.564 131.869 50.5588L131.873 49.7164C133.034 49.7219 134.195 49.7989 135.347 49.9472L135.236 50.7824Z" fill="#E4E4E4"/>
<path d="M154.793 64.7423C154.583 64.2342 154.35 63.7285 154.101 63.2395L154.863 62.8611C155.122 63.3698 155.364 63.8956 155.583 64.4239L154.793 64.7423Z" fill="#E4E4E4"/>
<path d="M157.131 114.244L156.838 113.453C157.364 113.263 157.894 113.06 158.413 112.849L158.738 113.628C158.208 113.843 157.668 114.05 157.131 114.244Z" fill="#E4E4E4"/>
<path d="M143.825 116.818L143.794 115.976C144.901 115.936 146.02 115.852 147.12 115.727L147.218 116.564C146.096 116.691 144.954 116.777 143.825 116.818ZM140.421 116.808C139.291 116.76 138.15 116.668 137.029 116.533L137.133 115.697C138.231 115.829 139.349 115.92 140.458 115.966L140.421 116.808ZM150.581 116.048L150.417 115.221C151.504 115.011 152.596 114.755 153.664 114.462L153.893 115.273C152.804 115.573 151.69 115.833 150.581 116.048ZM133.67 115.995C132.562 115.773 131.45 115.504 130.364 115.196L130.6 114.386C131.664 114.688 132.754 114.952 133.84 115.17L133.67 115.995ZM127.133 114.14C126.076 113.747 125.021 113.308 123.998 112.833L124.361 112.071C125.363 112.536 126.397 112.967 127.434 113.351L127.133 114.14ZM120.977 111.286C119.998 110.735 119.027 110.138 118.09 109.509L118.569 108.813C119.488 109.429 120.44 110.015 121.4 110.554L120.977 111.286Z" fill="#E4E4E4"/>
<path d="M115.344 107.5C114.899 107.141 114.458 106.767 114.033 106.389L114.605 105.763C115.019 106.133 115.45 106.497 115.884 106.847L115.344 107.5Z" fill="#E4E4E4"/>
<path d="M91.7167 22.5649L91.2783 21.8421C91.7685 21.5526 92.2681 21.2659 92.7633 20.99L93.1829 21.7235C92.6939 21.996 92.2006 22.2789 91.7167 22.5649Z" fill="#E4E4E4"/>
<path d="M173.879 34.0693C173.148 33.2285 172.378 32.3992 171.591 31.6047L172.202 31.0159C173.001 31.8235 173.783 32.6661 174.527 33.5206L173.879 34.0693ZM169.148 29.2898C168.314 28.5487 167.444 27.823 166.56 27.1331L167.09 26.4726C167.987 27.1736 168.872 27.9108 169.719 28.6638L169.148 29.2898ZM163.84 25.1369C162.917 24.4972 161.967 23.8735 161.017 23.2834L161.472 22.5704C162.434 23.1681 163.396 23.7996 164.331 24.4475L163.84 25.1369ZM158.103 21.5741C157.122 21.0314 156.112 20.5065 155.104 20.0137L155.482 19.2588C156.504 19.7577 157.526 20.2896 158.52 20.8392L158.103 21.5741ZM96.1796 20.1534L95.7988 19.3996C96.8196 18.8974 97.8674 18.4148 98.9127 17.9651L99.2537 18.7373C98.2217 19.1812 97.1874 19.6576 96.1796 20.1534ZM152.027 18.6076C150.994 18.1666 149.936 17.7467 148.882 17.3594L149.179 16.5699C150.247 16.9623 151.319 17.3877 152.366 17.8343L152.027 18.6076ZM102.397 17.4785L102.097 16.6902C103.163 16.2943 104.255 15.9199 105.343 15.5774L105.602 16.38C104.528 16.7181 103.45 17.0878 102.397 17.4785ZM145.675 16.2727C144.602 15.9395 143.505 15.6294 142.415 15.3509L142.629 14.5354C143.733 14.8174 144.844 15.1317 145.931 15.4692L145.675 16.2727ZM108.859 15.4444L108.642 14.6298C109.743 14.3433 110.868 14.0806 111.985 13.8492L112.161 14.6735C111.057 14.9022 109.947 15.1616 108.859 15.4444ZM139.111 14.5959C138.01 14.3734 136.886 14.1761 135.772 14.0095L135.9 13.1767C137.029 13.3453 138.167 13.5452 139.282 13.7705L139.111 14.5959ZM115.497 14.0698L115.365 13.2376C116.49 13.063 117.636 12.9146 118.772 12.7964L118.861 13.6341C117.74 13.7509 116.609 13.8975 115.497 14.0698ZM132.407 13.5931C131.288 13.4831 130.15 13.4005 129.025 13.3471L129.066 12.5059C130.206 12.5597 131.358 12.6435 132.492 12.7548L132.407 13.5931ZM122.243 13.368L122.197 12.527C123.336 12.466 124.492 12.4333 125.631 12.4299L125.634 13.2723C124.509 13.2757 123.368 13.3079 122.243 13.368Z" fill="#E4E4E4"/>
<path d="M177.009 38.0427C176.686 37.5882 176.351 37.1335 176.015 36.6915L176.697 36.1853C177.039 36.6346 177.379 37.0967 177.708 37.5587L177.009 38.0427Z" fill="#E4E4E4"/>
<path d="M138.143 174.265C137.577 174.194 137.012 174.117 136.446 174.036L136.569 173.203C137.13 173.283 137.691 173.359 138.252 173.43L138.143 174.265Z" fill="#E4E4E4"/>
<path d="M132.992 173.483C131.849 173.281 130.695 173.056 129.559 172.816L129.738 171.992C130.864 172.23 132.01 172.453 133.143 172.654L132.992 173.483ZM126.151 172.035C125.023 171.757 123.886 171.456 122.772 171.141L123.007 170.332C124.111 170.644 125.239 170.942 126.358 171.218L126.151 172.035ZM119.425 170.136C118.318 169.783 117.204 169.408 116.114 169.02L116.404 168.227C117.485 168.612 118.59 168.985 119.687 169.334L119.425 170.136ZM112.844 167.795C111.767 167.37 110.681 166.922 109.617 166.461L109.96 165.69C111.015 166.146 112.092 166.591 113.16 167.012L112.844 167.795ZM106.438 165.021C105.39 164.526 104.338 164.006 103.309 163.477L103.704 162.73C104.724 163.255 105.768 163.77 106.806 164.261L106.438 165.021ZM100.235 161.83C99.2274 161.268 98.2124 160.681 97.2179 160.083L97.662 159.363C98.6485 159.956 99.6552 160.539 100.654 161.096L100.235 161.83ZM94.2618 158.237C93.2918 157.609 92.3185 156.956 91.369 156.297L91.8603 155.608C92.8022 156.262 93.7677 156.91 94.7299 157.533L94.2618 158.237ZM88.5411 154.259C87.6131 153.564 86.6894 152.842 85.7956 152.113L86.3393 151.464C87.2241 152.185 88.1385 152.9 89.0572 153.588L88.5411 154.259ZM83.1424 149.857C82.2774 149.09 81.4175 148.294 80.5864 147.493L81.1829 146.891C82.0055 147.684 82.8567 148.471 83.7128 149.23L83.1424 149.857ZM78.1328 145.026C77.3359 144.19 76.5464 143.327 75.7863 142.459L76.4318 141.908C77.1842 142.767 77.9656 143.621 78.7543 144.449L78.1328 145.026ZM73.5512 139.797C72.8281 138.898 72.1149 137.972 71.4316 137.045L72.1219 136.549C72.7982 137.467 73.504 138.384 74.2197 139.273L73.5512 139.797Z" fill="#E4E4E4"/>
<path d="M69.4216 134.192C69.1049 133.721 68.7934 133.248 68.4873 132.772L69.2077 132.321C69.5108 132.791 69.8191 133.26 70.1325 133.725L69.4216 134.192Z" fill="#E4E4E4"/>
<path d="M251.994 36.442L241.356 46.1078L249.81 32.1072C243.149 20.1859 232.256 9.88309 232.256 9.88309C232.256 9.88309 209.655 31.2537 209.655 48.0523C209.655 64.851 219.774 70.7164 232.256 70.7164C244.737 70.7164 254.856 64.851 254.856 48.0523C254.856 44.3133 253.734 40.3479 251.994 36.442Z" fill="#F2F2F2"/>
<path d="M238.62 46.6311V47.4591C238.57 57.084 236.925 64.5937 233.698 69.8816C233.652 69.9595 233.602 70.0333 233.557 70.1111L233.195 69.8939L232.851 69.6807C236.431 63.9706 237.698 55.8993 237.743 47.5042C237.747 47.2337 237.752 46.959 237.747 46.6844C237.735 43.1304 237.515 39.5355 237.162 36.043C237.137 35.7724 237.108 35.4978 237.079 35.2231C236.589 30.6157 235.883 26.2132 235.16 22.3886C235.11 22.1181 235.056 21.8475 235.002 21.5811C233.752 15.1126 232.477 10.4273 232.186 9.39015C232.153 9.26308 232.132 9.1934 232.128 9.17701L232.523 9.06633L232.527 9.06222L232.925 8.95154C232.93 8.96795 233 9.20161 233.116 9.63612C233.561 11.2594 234.715 15.666 235.849 21.4786C235.899 21.741 235.953 22.0115 236.003 22.282C236.593 25.3851 237.17 28.853 237.627 32.4931C237.743 33.4072 237.847 34.309 237.938 35.1985C237.972 35.4732 238.001 35.7478 238.026 36.0184C238.408 39.7937 238.606 43.3313 238.62 46.6311Z" fill="white"/>
<path d="M235.849 21.4786C235.571 21.5155 235.288 21.5524 235.002 21.5811C234.223 21.6602 233.442 21.6999 232.659 21.7C229.325 21.7044 226.032 20.9703 223.024 19.552C222.849 19.7693 222.675 19.9865 222.496 20.2079C225.661 21.7327 229.137 22.5235 232.659 22.5198C233.494 22.5196 234.329 22.4758 235.16 22.3886C235.442 22.3599 235.724 22.323 236.003 22.2821C238.3 21.9569 240.533 21.2893 242.627 20.3022C242.449 20.0767 242.274 19.8554 242.104 19.6381C240.122 20.5522 238.014 21.1724 235.849 21.4786Z" fill="white"/>
<path d="M237.938 35.1986C237.652 35.2149 237.365 35.2231 237.079 35.2231C236.991 35.2273 236.9 35.2273 236.813 35.2273C233.2 35.2273 229.641 34.3651 226.438 32.7142C223.236 31.0633 220.486 28.6725 218.422 25.7459C218.256 25.9877 218.09 26.2296 217.928 26.4755C220.079 29.4368 222.914 31.8496 226.198 33.5141C229.482 35.1787 233.121 36.0469 236.813 36.0471C236.929 36.0471 237.045 36.0471 237.162 36.043C237.452 36.0389 237.739 36.0307 238.026 36.0184C242.46 35.7942 246.735 34.3142 250.34 31.7552C250.207 31.5134 250.074 31.2715 249.937 31.0297C246.434 33.542 242.264 34.9909 237.938 35.1986Z" fill="white"/>
<path d="M238.62 46.6311C238.329 46.6557 238.038 46.6721 237.748 46.6844C237.436 46.6967 237.125 46.7049 236.813 46.7049C231.958 46.6994 227.236 45.142 223.353 42.266C219.47 39.39 216.636 35.35 215.274 30.7509C215.087 31.083 214.9 31.4109 214.722 31.743C216.256 36.3313 219.216 40.3258 223.182 43.1589C227.148 45.992 231.918 47.5196 236.813 47.5248C237.125 47.5248 237.436 47.5207 237.744 47.5043C238.038 47.4961 238.329 47.4797 238.62 47.4592C244.492 47.0057 249.971 44.3668 253.946 40.0766C253.858 39.7732 253.759 39.474 253.659 39.1707C249.82 43.493 244.425 46.169 238.62 46.6311Z" fill="white"/>
<path d="M34.2472 43.135L41.1856 55.6558L29.4581 44.1811C16.1294 47.6854 3.37109 55.6343 3.37109 55.6343C3.37109 55.6343 18.9333 82.4361 35.4513 86.488C51.9693 90.54 60.1774 82.2631 63.1881 70.3077C66.1987 58.3525 62.8719 47.2461 46.3539 43.1942C42.6773 42.2923 38.5078 42.4098 34.2472 43.135Z" fill="#F2F2F2"/>
<path d="M41.0397 58.4024L41.8539 58.6022C51.306 60.9715 58.2935 64.3582 62.7146 68.7247C62.7802 68.7872 62.8407 68.8528 62.9063 68.9153L62.6055 69.209L62.3128 69.4878C57.5616 64.6813 49.9307 61.5211 41.6869 59.4524C41.4219 59.3832 41.1528 59.313 40.8818 59.2507C37.3841 58.4054 33.7962 57.7491 30.2769 57.2448C30.0048 57.2034 29.7277 57.165 29.4507 57.1266C24.802 56.4847 20.3027 56.0991 16.3678 55.8688C16.0897 55.8513 15.8107 55.8377 15.5356 55.8252C8.87369 55.4623 3.95907 55.5535 2.86918 55.5818C2.73622 55.583 2.66269 55.5861 2.64556 55.5861L2.6319 55.1815L2.62887 55.1765L2.61621 54.7679C2.63335 54.7679 2.88013 54.7566 3.33542 54.7501C5.03875 54.7159 9.65024 54.6729 15.6392 54.9889C15.9092 55.0045 16.1883 55.018 16.4663 55.0355C19.6598 55.2191 23.209 55.5026 26.8985 55.9431C27.8254 56.0522 28.7372 56.1702 29.6339 56.2973C29.9119 56.3317 30.189 56.3701 30.461 56.4115C34.2655 56.9561 37.7917 57.6198 41.0397 58.4024Z" fill="white"/>
<path d="M15.6393 54.9889C15.6085 55.2643 15.5767 55.5438 15.5357 55.8252C15.4258 56.5897 15.2762 57.3481 15.0876 58.0975C14.2877 61.2922 12.7717 64.269 10.6514 66.8087C10.8229 67.0282 10.9945 67.2477 11.169 67.4721C13.4318 64.8084 15.0478 61.6695 15.8938 58.2953C16.095 57.4953 16.2533 56.6853 16.3679 55.8688C16.4078 55.5914 16.4396 55.3119 16.4664 55.0355C16.7008 52.757 16.5831 50.4565 16.1175 48.2128C15.8527 48.3295 15.593 48.4432 15.3383 48.5539C15.7592 50.6726 15.8606 52.841 15.6393 54.9889Z" fill="white"/>
<path d="M29.6341 56.2972C29.5811 56.5757 29.52 56.8521 29.4509 57.1266C29.4339 57.2112 29.4119 57.2987 29.3908 57.3822C28.5194 60.8427 26.8131 64.0439 24.4173 66.7129C22.0216 69.3819 19.0074 71.4396 15.6318 72.7105C15.8296 72.9279 16.0273 73.1454 16.2301 73.3598C19.6608 72.0137 22.7171 69.8802 25.146 67.136C27.5748 64.3919 29.3063 61.1161 30.1969 57.58C30.225 57.4686 30.2531 57.3572 30.2771 57.2448C30.3432 56.9654 30.4042 56.6889 30.4613 56.4115C31.3104 52.1099 30.8864 47.658 29.2397 43.588C28.9698 43.657 28.7 43.7259 28.4291 43.7989C30.0544 47.7605 30.4732 52.1041 29.6341 56.2972Z" fill="white"/>
<path d="M41.04 58.4025C40.994 58.6868 40.94 58.9693 40.882 59.2507C40.8189 59.552 40.7519 59.8524 40.6767 60.1507C39.5003 64.7993 36.8299 68.9468 33.0654 71.9722C29.3008 74.9976 24.6446 76.7381 19.7939 76.9331C20.0754 77.1922 20.3527 77.4504 20.6361 77.7015C25.518 77.3386 30.1598 75.4666 33.9021 72.3514C37.6444 69.2363 40.297 65.0364 41.4829 60.3485C41.558 60.0501 41.6291 59.7508 41.6872 59.4524C41.7502 59.168 41.8042 58.8856 41.8542 58.6022C42.8248 52.8681 41.5513 46.9843 38.2916 42.1421C37.9723 42.1525 37.654 42.1758 37.3317 42.1981C40.6557 46.9181 41.9859 52.7306 41.04 58.4025Z" fill="white"/>
<path d="M53.6788 122.687L51.0791 120.075L54.2666 115.264L59.7223 106.301C59.544 105.915 59.4888 105.485 59.5638 105.067C59.6388 104.649 59.8405 104.264 60.1423 103.962C60.4441 103.659 60.8318 103.455 61.254 103.375C61.6762 103.295 62.1131 103.343 62.5068 103.514C62.9006 103.684 63.2326 103.968 63.4591 104.329C63.6855 104.69 63.7957 105.11 63.775 105.533C63.7543 105.957 63.6038 106.365 63.3432 106.702C63.0827 107.04 62.7245 107.292 62.316 107.424L57.8128 116.993L53.6788 122.687Z" fill="#A0616A"/>
<path d="M50.7995 128.651C50.4942 129.118 50.0593 129.488 49.5467 129.717C49.0341 129.946 48.4656 130.025 47.909 129.943C47.3792 129.882 46.8791 129.668 46.4703 129.33C46.0615 128.992 45.7616 128.543 45.6076 128.039C45.4941 127.681 45.461 127.304 45.5107 126.932C45.5604 126.56 45.6917 126.204 45.8953 125.887C47.6344 122.994 50.8419 119.172 50.874 119.134L50.9251 119.074L56.335 120.23L50.7995 128.651Z" fill="#3895D3"/>
<path d="M97.0808 24.3607L96.4446 24.5541L91.0785 7.35201C90.2548 4.7115 88.402 2.50208 85.9278 1.2098C83.4536 -0.0824771 80.5605 -0.35176 77.8852 0.461194L40.9589 11.6818C39.6342 12.0843 38.4028 12.7404 37.3349 13.6126C36.2671 14.4849 35.3839 15.5561 34.7355 16.7653C34.0872 17.9744 33.6865 19.2978 33.5564 20.6597C33.4263 22.0217 33.5692 23.3956 33.977 24.7031L63.4158 119.075C64.2395 121.715 66.0923 123.925 68.5665 125.217C71.0407 126.509 73.9337 126.779 76.6091 125.966L113.535 114.745C116.211 113.932 118.449 112.104 119.759 109.662C121.068 107.22 121.341 104.364 120.517 101.724L100.264 36.7988L100.9 36.6054L97.0808 24.3607Z" fill="#3F3D56"/>
<path d="M79.0996 2.92773L74.2795 4.39239C74.6685 4.86139 74.9346 5.41762 75.0545 6.01205C75.1744 6.60649 75.1443 7.2209 74.9669 7.80116C74.7895 8.38141 74.4702 8.90971 74.0372 9.3395C73.6042 9.76929 73.0708 10.0874 72.4839 10.2658L51.3293 16.6939C50.7424 16.8722 50.12 16.9053 49.5171 16.7903C48.9141 16.6753 48.3491 16.4157 47.8718 16.0344C47.3944 15.6531 47.0194 15.1618 46.7797 14.6038C46.5401 14.0457 46.4432 13.4381 46.4975 12.8343L41.9955 14.2023C39.9976 14.8094 38.3258 16.175 37.348 17.9987C36.3702 19.8223 36.1665 21.9546 36.7816 23.9265L66.1772 118.16C66.7923 120.132 68.1759 121.782 70.0236 122.747C71.8714 123.712 74.0318 123.913 76.0298 123.306L113.134 112.031C115.132 111.424 116.804 110.058 117.781 108.235C118.759 106.411 118.963 104.279 118.348 102.307L88.9522 8.0737C88.3371 6.1018 86.9535 4.45183 85.1058 3.48677C83.258 2.52172 81.0976 2.32062 79.0996 2.92773Z" fill="white"/>
<path d="M228.493 208.665L141.871 177.933C139.818 177.203 138.143 175.698 137.214 173.75C136.284 171.802 136.175 169.57 136.91 167.543L182.067 43.5582C182.807 41.5327 184.331 39.8797 186.305 38.9619C188.279 38.0441 190.541 37.9364 192.594 38.6625L279.217 69.3942C281.27 70.1249 282.944 71.6292 283.874 73.5771C284.804 75.5251 284.913 77.7575 284.178 79.7846L239.021 203.769C238.281 205.795 236.756 207.448 234.783 208.366C232.809 209.283 230.547 209.391 228.493 208.665Z" fill="#3F3D56"/>
<path d="M230.422 203.843L143.494 173.003C142.862 172.778 142.345 172.314 142.059 171.713C141.772 171.113 141.738 170.425 141.965 169.8L187.421 44.994C187.649 44.3696 188.119 43.8601 188.727 43.5772C189.336 43.2942 190.033 43.261 190.666 43.4849L277.594 74.3247C278.226 74.55 278.743 75.0137 279.029 75.6142C279.316 76.2146 279.35 76.9028 279.123 77.5277L233.667 202.334C233.439 202.958 232.969 203.467 232.361 203.75C231.752 204.033 231.055 204.066 230.422 203.843Z" fill="white"/>
<path d="M234.723 56.9431C235.11 56.9431 235.424 56.6338 235.424 56.2522C235.424 55.8706 235.11 55.5613 234.723 55.5613C234.337 55.5613 234.023 55.8706 234.023 56.2522C234.023 56.6338 234.337 56.9431 234.723 56.9431Z" fill="white"/>
<path d="M90.8332 75.139C98.216 67.8526 98.216 56.0389 90.8332 48.7524C83.4505 41.4659 71.4808 41.4659 64.0981 48.7524C56.7153 56.0389 56.7153 67.8526 64.0981 75.139C71.4808 82.4255 83.4505 82.4255 90.8332 75.139Z" fill="#3895D3"/>
<path d="M79.4451 70.8498L70.0879 64.5848L70.905 63.3968L78.6516 68.5838L84.2505 51.2973L85.6355 51.7342L79.4451 70.8498Z" fill="white"/>
<path d="M227.542 138.745C236.893 129.516 236.893 114.553 227.542 105.325C218.191 96.0957 203.031 96.0957 193.68 105.325C184.329 114.553 184.329 129.516 193.68 138.745C203.031 147.974 218.191 147.974 227.542 138.745Z" fill="#3895D3"/>
<path d="M204.836 132.076L201.397 118.355L203.186 117.919L206.033 129.278L226.137 117.676L227.067 119.244L204.836 132.076Z" fill="white"/>
<path d="M55.1861 192.686H58.4186L59.9563 180.381L55.1855 180.381L55.1861 192.686Z" fill="#A0616A"/>
<path d="M54.3613 191.645L60.7271 191.644C61.8029 191.644 62.835 192.066 63.5958 192.817C64.3565 193.568 64.784 194.586 64.784 195.648V195.778L54.3615 195.779L54.3613 191.645Z" fill="#2F2E41"/>
<path d="M30.0176 191.305L33.2136 191.782L36.598 179.842L32.4082 179.138L30.0176 191.305Z" fill="#A0616A"/>
<path d="M29.3603 190.154L35.6546 191.093C36.7184 191.252 37.6749 191.821 38.3134 192.676C38.9519 193.53 39.2203 194.6 39.0596 195.65L39.0398 195.779L28.7344 194.241L29.3603 190.154Z" fill="#2F2E41"/>
<path d="M48.7391 134.677L56.2558 133.061L60.4718 144.955L60.6036 190.884L54.4678 190.846L51.9029 153.673L35.5563 188.021L28.9648 187.241L43.3341 150.42C43.3341 150.42 42.5431 143.914 45.0479 140.662L44.5206 137.279L48.7391 134.677Z" fill="#2F2E41"/>
<path d="M41.683 125.931C41.5122 125.425 41.494 124.88 41.6308 124.363C41.7675 123.847 42.0533 123.381 42.4535 123.021L44.0423 121.596L48.5215 120.851L51.3222 120.349L57.9632 136.711L44.8907 138.18C43.9312 137.976 43.5479 137.458 44.1062 136.428L41.683 125.931Z" fill="#3895D3"/>
<path d="M57.5108 123.222L57.1367 119.578L62.6716 117.791L72.6072 114.162C72.7127 113.751 72.9422 113.381 73.2654 113.101C73.5886 112.821 73.9903 112.645 74.4172 112.595C74.8442 112.545 75.2764 112.625 75.6566 112.823C76.0368 113.021 76.3471 113.328 76.5465 113.704C76.7459 114.08 76.8249 114.507 76.7732 114.928C76.7214 115.349 76.5413 115.745 76.2567 116.063C75.9721 116.381 75.5964 116.607 75.1792 116.709C74.7621 116.812 74.3232 116.787 73.9206 116.638L64.3446 121.328L57.5108 123.222Z" fill="#A0616A"/>
<path d="M51.4847 126.099C50.9509 126.275 50.3772 126.295 49.8321 126.158C49.287 126.02 48.7935 125.731 48.4107 125.324C48.0364 124.949 47.7813 124.474 47.6765 123.958C47.5717 123.442 47.6218 122.906 47.8206 122.418C47.9587 122.069 48.1723 121.753 48.4465 121.494C48.7207 121.235 49.049 121.037 49.4084 120.916C52.5985 119.731 57.5226 118.728 57.5718 118.718L57.6501 118.702L61.1395 122.943L51.4847 126.099Z" fill="#3895D3"/>
<path d="M46.5556 119.285C49.2711 119.285 51.4725 117.112 51.4725 114.432C51.4725 111.752 49.2711 109.579 46.5556 109.579C43.84 109.579 41.6387 111.752 41.6387 114.432C41.6387 117.112 43.84 119.285 46.5556 119.285Z" fill="#A0616A"/>
<path d="M42.5744 121.345C41.8119 121.345 41.0501 121.299 40.2933 121.208L40.1895 121.196L39.3975 116.952C39.0616 115.153 39.4361 113.295 40.4442 111.76C41.4522 110.225 43.0174 109.129 44.8183 108.697C44.9385 108.667 45.0647 108.671 45.1832 108.707C45.3016 108.743 45.4076 108.811 45.4896 108.903L45.6785 108.838C46.4016 108.589 47.1674 108.483 47.9321 108.526C48.6967 108.569 49.4452 108.761 50.1349 109.089C50.8246 109.418 51.4419 109.878 51.9517 110.442C52.4614 111.006 52.8535 111.664 53.1057 112.377L53.1525 112.51L51.892 112.944C51.4992 113.079 51.1419 113.299 50.8461 113.587C50.5503 113.876 50.3233 114.226 50.1818 114.612C50.0403 114.998 49.9877 115.411 50.028 115.819C50.0682 116.228 50.2002 116.622 50.4144 116.974L51.7031 119.092L51.5659 119.16C48.7843 120.575 45.7039 121.324 42.5744 121.345Z" fill="#2F2E41"/>
<path d="M108.679 196.238H0.284499C0.209045 196.238 0.136682 196.209 0.0833276 196.156C0.0299737 196.104 0 196.032 0 195.958C0 195.883 0.0299737 195.812 0.0833276 195.759C0.136682 195.706 0.209045 195.677 0.284499 195.677H108.679C108.754 195.677 108.826 195.706 108.88 195.759C108.933 195.812 108.963 195.883 108.963 195.958C108.963 196.032 108.933 196.104 108.88 196.156C108.826 196.209 108.754 196.238 108.679 196.238Z" fill="#CACACA"/>
<path d="M300.716 209.997H192.322C192.246 209.997 192.174 209.968 192.12 209.915C192.067 209.862 192.037 209.791 192.037 209.716C192.037 209.642 192.067 209.571 192.12 209.518C192.174 209.465 192.246 209.436 192.322 209.436H300.716C300.791 209.436 300.864 209.465 300.917 209.518C300.97 209.571 301 209.642 301 209.716C301 209.791 300.97 209.862 300.917 209.915C300.864 209.968 300.791 209.997 300.716 209.997Z" fill="#CACACA"/>
<path d="M241.844 160.991C242.084 160.792 242.277 160.544 242.41 160.264C242.542 159.983 242.611 159.677 242.611 159.368C242.611 159.059 242.542 158.753 242.41 158.473C242.277 158.192 242.084 157.944 241.843 157.745L240.249 130.053L235.7 131.068L238.707 158.113C238.396 158.534 238.252 159.053 238.302 159.571C238.353 160.09 238.594 160.572 238.981 160.927C239.367 161.282 239.872 161.484 240.4 161.496C240.928 161.508 241.441 161.328 241.844 160.991Z" fill="#3895D3"/>
<path d="M260.314 164.597C260.067 164.407 259.864 164.166 259.722 163.89C259.579 163.615 259.499 163.312 259.488 163.002C259.476 162.693 259.534 162.385 259.656 162.1C259.779 161.816 259.963 161.561 260.196 161.354L260.773 133.623L265.356 134.474L263.343 161.609C263.669 162.018 263.832 162.532 263.801 163.052C263.77 163.572 263.546 164.062 263.173 164.431C262.8 164.799 262.303 165.019 261.776 165.05C261.249 165.081 260.729 164.919 260.314 164.597Z" fill="#3895D3"/>
<path d="M262.74 205.81L266.309 205.81L267.327 197.593L262.739 197.593L262.74 205.81Z" fill="#3895D3"/>
<path d="M261.829 204.66L268.857 204.66H268.858C270.046 204.66 271.185 205.126 272.025 205.955C272.865 206.784 273.337 207.908 273.337 209.081V209.224L261.829 209.225L261.829 204.66Z" fill="#2F2E41"/>
<path d="M240.47 205.81L244.039 205.81L245.057 192.224H240.47L240.47 205.81Z" fill="#3895D3"/>
<path d="M239.56 204.66L246.588 204.66C247.776 204.66 248.915 205.126 249.755 205.955C250.595 206.784 251.067 207.908 251.067 209.081V209.224L239.56 209.225L239.56 204.66Z" fill="#2F2E41"/>
<path d="M254.847 118.106C258.071 118.106 260.685 115.526 260.685 112.344C260.685 109.161 258.071 106.581 254.847 106.581C251.622 106.581 249.008 109.161 249.008 112.344C249.008 115.526 251.622 118.106 254.847 118.106Z" fill="#3895D3"/>
<path d="M262.267 125.641C262.267 125.641 264.862 125.855 265.078 127.135C265.294 128.416 265.078 132.258 265.078 132.258C265.078 132.258 266.808 137.38 265.078 138.661C263.348 139.941 258.807 140.155 258.807 140.155L262.267 125.641Z" fill="#E4E4E4"/>
<path d="M240.21 154.668L237.831 158.509C237.831 158.509 238.696 175.37 238.912 175.797C239.084 176.048 239.161 176.35 239.129 176.651V178.999L239.777 199.488C239.777 199.488 238.047 200.341 240.21 200.982C242.372 201.622 245.183 201.835 245.616 199.701C246.048 197.567 246.069 179.786 246.048 179.212L246.265 178.358L249.725 165.766L257.726 183.267L262.483 202.903C262.483 202.903 269.684 203.723 268.386 200.949C267.089 198.174 263.997 177.505 263.997 177.505C263.997 177.505 263.348 175.37 263.348 174.943C263.348 174.517 263.132 174.303 263.132 173.876C263.132 173.449 262.916 172.169 262.916 172.169L261.402 158.723L240.21 154.668Z" fill="#2F2E41"/>
<path d="M242.373 122.013C242.373 122.013 239.778 121.8 239.129 123.934C238.48 126.068 233.074 134.178 234.155 135.032C235.236 135.886 243.454 138.874 243.67 138.66C243.886 138.447 242.373 122.013 242.373 122.013Z" fill="#E4E4E4"/>
<path d="M261.646 108.669C261.401 107.769 261.055 106.869 260.352 106.247C259.639 105.622 258.724 105.266 257.77 105.244C256.682 104.621 255.461 104.26 254.205 104.19C252.95 104.12 251.695 104.342 250.543 104.839C250.418 104.591 250.216 104.388 249.967 104.26C249.897 104.853 249.828 105.445 249.758 106.038C249.49 105.839 249.222 105.64 248.954 105.44C248.941 105.791 248.927 106.142 248.914 106.493C248.668 106.284 248.423 106.075 248.177 105.867C248.124 107.109 249.172 108.184 250.356 108.608C251.54 109.031 252.839 108.953 254.097 108.895C254.718 108.866 255.426 108.876 255.846 109.329C256.285 109.804 256.202 110.533 256.213 111.176C256.228 112.08 257.169 111.637 257.64 112.413C257.844 112.669 257.97 112.977 258.006 113.301C257.962 113.595 257.854 113.876 257.69 114.125C257.343 114.833 256.652 117.036 256.982 117.752C257.592 117.415 258.202 117.078 258.812 116.741C258.812 116.741 262.832 113.027 261.646 108.669Z" fill="#2F2E41"/>
<path d="M260.537 138.02C260.537 138.02 264.862 127.135 264.646 126.282C264.429 125.428 259.034 121.925 259.034 121.925C258.828 121.9 258.633 121.875 258.436 121.851C258.466 121.776 258.486 121.697 258.496 121.617L258.589 120.782C258.617 120.522 258.541 120.262 258.375 120.059C258.21 119.855 257.969 119.725 257.706 119.697L250.85 118.955C250.587 118.926 250.324 119.002 250.117 119.165C249.911 119.329 249.779 119.566 249.75 119.825L249.67 120.548C249.308 120.46 249.292 120.425 249.292 120.425C249.292 120.425 243.237 121.373 241.723 121.8C240.21 122.227 241.507 138.447 241.507 138.447C241.507 138.447 240.426 153.387 239.777 153.814C239.128 154.241 239.777 154.027 239.128 155.735C239.043 155.96 240.238 154.703 240.75 154.988C244.124 156.865 257.807 161.256 261.186 161.071C262.266 149.943 260.104 146.344 260.104 146.344L260.537 138.02Z" fill="#E4E4E4"/>
</svg>
