<svg width="75" height="75" viewBox="0 0 75 75" fill="none" xmlns="http://www.w3.org/2000/svg">
<path d="M36.7188 50H38.9844V47.5C40.4427 47.2917 41.6802 46.6927 42.6969 45.7031C43.7115 44.7135 44.2188 43.4375 44.2188 41.875C44.2188 40.5208 43.6979 39.3875 42.6562 38.475C41.6146 37.5646 40.4167 36.8229 39.0625 36.25V30.4688C39.5833 30.625 40.0135 30.8854 40.3531 31.25C40.6906 31.6146 40.9375 32.0573 41.0938 32.5781L43.9062 31.4063C43.5417 30.3125 42.9167 29.4396 42.0312 28.7875C41.1458 28.1375 40.1562 27.7083 39.0625 27.5V25H36.7188V27.4219C35.2604 27.5781 34.0229 28.1115 33.0063 29.0219C31.9917 29.9344 31.4844 31.1458 31.4844 32.6562C31.4844 34.0625 32.0188 35.2344 33.0875 36.1719C34.1542 37.1094 35.3646 37.8646 36.7188 38.4375V44.6094C35.8854 44.349 35.1823 43.9063 34.6094 43.2813C34.0365 42.6563 33.6458 41.9271 33.4375 41.0937L30.7031 42.2656C31.1198 43.724 31.849 44.9219 32.8906 45.8594C33.9323 46.7969 35.2083 47.3698 36.7188 47.5781V50ZM39.0625 44.5312V39.375C39.6354 39.6354 40.1437 39.9479 40.5875 40.3125C41.0292 40.6771 41.25 41.224 41.25 41.9531C41.25 42.7865 41.0417 43.3719 40.625 43.7094C40.2083 44.049 39.6875 44.3229 39.0625 44.5312ZM36.7188 35.2344C36.1458 34.974 35.625 34.6615 35.1562 34.2969C34.6875 33.9323 34.4531 33.3854 34.4531 32.6562C34.4531 31.9271 34.6875 31.3937 35.1562 31.0562C35.625 30.7167 36.1458 30.4948 36.7188 30.3906V35.2344ZM25 59.375C18.9062 59.375 13.7375 57.2521 9.49375 53.0062C5.24792 48.7625 3.125 43.5938 3.125 37.5C3.125 31.4062 5.24792 26.2365 9.49375 21.9906C13.7375 17.7469 18.9062 15.625 25 15.625H50C56.0938 15.625 61.2625 17.7469 65.5062 21.9906C69.7521 26.2365 71.875 31.4062 71.875 37.5C71.875 43.5938 69.7521 48.7625 65.5062 53.0062C61.2625 57.2521 56.0938 59.375 50 59.375H25ZM25 53.125H50C54.3229 53.125 58.0083 51.601 61.0563 48.5531C64.1021 45.5073 65.625 41.8229 65.625 37.5C65.625 33.1771 64.1021 29.4917 61.0563 26.4437C58.0083 23.3979 54.3229 21.875 50 21.875H25C20.6771 21.875 16.9927 23.3979 13.9469 26.4437C10.899 29.4917 9.375 33.1771 9.375 37.5C9.375 41.8229 10.899 45.5073 13.9469 48.5531C16.9927 51.601 20.6771 53.125 25 53.125Z" fill="#072F5F"/>
</svg>
