<svg width="68" height="68" viewBox="0 0 68 68" fill="none" xmlns="http://www.w3.org/2000/svg">
<path d="M21.25 63.75H17V57.375H8.5V63.75H4.25V57.375C4.25113 56.2482 4.69925 55.1678 5.49604 54.371C6.29282 53.5743 7.37318 53.1261 8.5 53.125H17C18.1268 53.1261 19.2072 53.5743 20.004 54.371C20.8007 55.1678 21.2489 56.2482 21.25 57.375V63.75ZM63.75 63.75H59.5V57.375H51V63.75H46.75V57.375C46.7511 56.2482 47.1993 55.1678 47.996 54.371C48.7928 53.5743 49.8732 53.1261 51 53.125H59.5C60.6268 53.1261 61.7072 53.5743 62.504 54.371C63.3007 55.1678 63.7489 56.2482 63.75 57.375V63.75ZM42.5 63.75H38.25V57.375H29.75V63.75H25.5V57.375C25.5011 56.2482 25.9493 55.1678 26.746 54.371C27.5428 53.5743 28.6232 53.1261 29.75 53.125H38.25C39.3768 53.1261 40.4572 53.5743 41.254 54.371C42.0507 55.1678 42.4989 56.2482 42.5 57.375V63.75Z" fill="#3895D3"/>
<path d="M34 51C36.3472 51 38.25 49.0972 38.25 46.75C38.25 44.4028 36.3472 42.5 34 42.5C31.6528 42.5 29.75 44.4028 29.75 46.75C29.75 49.0972 31.6528 51 34 51Z" fill="#3895D3"/>
<path d="M12.75 51C15.0972 51 17 49.0972 17 46.75C17 44.4028 15.0972 42.5 12.75 42.5C10.4028 42.5 8.5 44.4028 8.5 46.75C8.5 49.0972 10.4028 51 12.75 51Z" fill="#3895D3"/>
<path d="M55.25 51C57.5972 51 59.5 49.0972 59.5 46.75C59.5 44.4028 57.5972 42.5 55.25 42.5C52.9028 42.5 51 44.4028 51 46.75C51 49.0972 52.9028 51 55.25 51Z" fill="#3895D3"/>
<path d="M44.625 42.5C46.9722 42.5 48.875 40.5972 48.875 38.25C48.875 35.9028 46.9722 34 44.625 34C42.2778 34 40.375 35.9028 40.375 38.25C40.375 40.5972 42.2778 42.5 44.625 42.5Z" fill="#3895D3"/>
<path d="M23.375 42.5C25.7222 42.5 27.625 40.5972 27.625 38.25C27.625 35.9028 25.7222 34 23.375 34C21.0278 34 19.125 35.9028 19.125 38.25C19.125 40.5972 21.0278 42.5 23.375 42.5Z" fill="#3895D3"/>
<path d="M55.25 29.75H12.75C11.6232 29.7489 10.5428 29.3007 9.74604 28.504C8.94925 27.7072 8.50113 26.6268 8.5 25.5V8.5C8.50113 7.37318 8.94925 6.29282 9.74604 5.49604C10.5428 4.69925 11.6232 4.25113 12.75 4.25H55.25C56.3768 4.25113 57.4572 4.69925 58.254 5.49604C59.0507 6.29282 59.4989 7.37318 59.5 8.5V25.5C59.4989 26.6268 59.0507 27.7072 58.254 28.504C57.4572 29.3007 56.3768 29.7489 55.25 29.75ZM12.75 8.5V25.5H55.25V8.5H12.75Z" fill="#3895D3"/>
</svg>
