<svg width="415" height="405" viewBox="0 0 415 405" fill="none" xmlns="http://www.w3.org/2000/svg">
<g clip-path="url(#clip0_483_2)">
<path d="M128.154 297.098H76.1699C74.8593 297.098 73.793 296.032 73.793 294.723C73.793 293.413 74.8593 292.347 76.1699 292.347H128.154C129.464 292.347 130.53 293.413 130.53 294.723C130.53 296.032 129.464 297.098 128.154 297.098Z" fill="#2966AE"/>
<path d="M35.3135 309.814C35.3135 310.241 35.6564 310.584 36.0833 310.584H168.24C168.667 310.584 169.01 310.241 169.01 309.814C169.01 309.388 168.667 309.045 168.24 309.045H36.0833C35.6564 309.045 35.3135 309.388 35.3135 309.814Z" fill="#3F3D56"/>
<path d="M314.144 154.789C337.367 154.789 356.193 135.973 356.193 112.762C356.193 89.5517 337.367 70.7358 314.144 70.7358C290.921 70.7358 272.095 89.5517 272.095 112.762C272.095 135.973 290.921 154.789 314.144 154.789Z" fill="#58CCED"/>
<path d="M0 362.92C0 363.347 0.342881 363.689 0.76986 363.689H338.644C339.071 363.689 339.413 363.347 339.413 362.92C339.413 362.493 339.071 362.15 338.644 362.15H0.76986C0.342881 362.15 0 362.493 0 362.92Z" fill="#3F3D56"/>
<path d="M4.88746 310.961L3.80664 309.778L109.294 213.572L147.299 230.6L188.339 160.258L222.057 144.014L253.298 196.054C270.165 152.412 312.464 106.752 363.15 60.4272L364.397 61.4363C316.859 106.925 276.185 152.62 253.102 198.844L224.206 150.567C222.841 148.286 219.972 147.405 217.561 148.526C199.13 157.098 183.757 171.088 173.497 188.628L147.789 232.575L141.921 229.946C122.295 221.153 99.3194 224.838 83.432 239.328L4.88746 310.961Z" fill="#3F3D56"/>
<path d="M365.528 69.186L363.927 69.2972L361.343 63.6996L355.557 62.5249L355.332 60.9362L364.87 59.5815L365.528 69.186Z" fill="#3F3D56"/>
<path d="M200.984 103.437L206.655 81.6494L228.745 80.5874L235.354 110.62L200.984 103.437Z" fill="#E9F3FF"/>
<path opacity="0.1" d="M200.984 103.437L206.655 81.6494L228.745 80.5874L235.354 110.62L200.984 103.437Z" fill="black"/>
<path d="M215.52 93.8423C230.245 93.8423 242.183 81.9112 242.183 67.1935C242.183 52.4758 230.245 40.5447 215.52 40.5447C200.794 40.5447 188.856 52.4758 188.856 67.1935C188.856 81.9112 200.794 93.8423 215.52 93.8423Z" fill="#E9F3FF"/>
<path d="M230.231 72.8342C230.231 72.8342 220.102 52.7762 208.235 53.9343C196.367 55.0923 190.115 56.5007 190.115 56.5007C190.115 56.5007 186.592 40.8786 203.178 34.8696C203.178 34.8696 182.09 14.0931 207.197 3.9013C232.304 -6.29049 246.353 6.70785 246.353 6.70785C246.353 6.70785 264.938 25.2508 241.531 39.11C241.531 39.11 258.911 62.4759 237.868 81.7347C237.868 81.7347 242.575 66.1501 237.664 69.0242C232.753 71.8982 230.231 72.8342 230.231 72.8342Z" fill="#2F2E41"/>
<path d="M186.102 213.631L182.555 217.028L156.933 271.938L154.128 362.761H197.177L217.371 317.784L230.977 362.327H269.684L278.657 281.469L254.536 224.283L186.102 213.631Z" fill="#2F2E41"/>
<path d="M230.697 101.223H201.947L170.676 118.042L177.968 150.559C177.968 150.559 176.285 170.182 180.212 184.758C184.138 199.335 182.456 218.397 182.456 218.397L254.537 224.283L256.78 158.128L255.658 113.837L230.697 101.223Z" fill="#E6E6E6"/>
<path d="M175.444 118.322C175.444 118.322 158.054 118.883 155.25 130.096C152.445 141.308 150.201 199.054 150.201 199.054C150.201 199.054 151.884 233.32 170.676 217.028C189.467 200.736 187.784 151.4 187.784 151.4L175.444 118.322Z" fill="#E6E6E6"/>
<path d="M344.108 404.354H241.632C238.162 404.354 235.338 401.532 235.338 398.063V292.183C235.338 288.714 238.162 285.893 241.632 285.893H344.108C347.579 285.893 350.402 288.714 350.402 292.183V398.063C350.402 401.532 347.579 404.354 344.108 404.354Z" fill="white"/>
<path d="M344.108 405H241.631C237.804 405 234.69 401.888 234.69 398.063V292.183C234.69 288.358 237.804 285.246 241.631 285.246H344.108C347.935 285.246 351.049 288.358 351.049 292.183V398.063C351.049 401.888 347.935 405 344.108 405ZM241.631 286.539C238.518 286.539 235.984 289.071 235.984 292.183V398.063C235.984 401.175 238.518 403.707 241.631 403.707H344.108C347.222 403.707 349.755 401.175 349.755 398.063V292.183C349.755 289.071 347.222 286.539 344.108 286.539H241.631Z" fill="#3F3D56"/>
<path d="M296.914 376.538H288.467C287.439 376.538 286.603 375.892 286.603 375.099V338.755C286.603 337.962 287.439 337.316 288.467 337.316H296.914C297.942 337.316 298.778 337.962 298.778 338.755V375.099C298.778 375.892 297.942 376.538 296.914 376.538Z" fill="#2966AE"/>
<path d="M268.99 355.12C268.159 355.12 267.483 355.641 267.483 356.282V375.058C267.483 375.699 268.159 376.221 268.99 376.221H277.436C278.267 376.221 278.943 375.699 278.943 375.058V356.282C278.943 355.641 278.267 355.12 277.436 355.12H268.99Z" fill="#2966AE"/>
<path d="M316.391 376.538H307.945C306.917 376.538 306.08 375.892 306.08 375.099V315.538C306.08 314.744 306.917 314.099 307.945 314.099H316.391C317.419 314.099 318.256 314.744 318.256 315.538V375.099C318.256 375.892 317.419 376.538 316.391 376.538Z" fill="#2966AE"/>
<path d="M134.638 115.458H124.99C123.815 115.458 122.859 114.721 122.859 113.814V72.299C122.859 71.3927 123.815 70.6555 124.99 70.6555H134.638C135.812 70.6555 136.768 71.3927 136.768 72.299V113.814C136.768 114.721 135.812 115.458 134.638 115.458Z" fill="#2966AE"/>
<path d="M102.741 90.9922C101.792 90.9922 101.02 91.5879 101.02 92.32V113.768C101.02 114.5 101.792 115.096 102.741 115.096H112.389C113.338 115.096 114.11 114.5 114.11 113.768V92.32C114.11 91.5879 113.338 90.9922 112.389 90.9922H102.741Z" fill="#2966AE"/>
<path d="M156.887 115.458H147.239C146.064 115.458 145.108 114.721 145.108 113.814V45.778C145.108 44.8717 146.064 44.1345 147.239 44.1345H156.887C158.061 44.1345 159.017 44.8717 159.017 45.778V113.814C159.017 114.721 158.061 115.458 156.887 115.458Z" fill="#2966AE"/>
<path d="M277.159 301.298C282.157 300.819 285.598 294.07 284.846 286.22C284.589 283.08 283.583 280.047 281.912 277.375L280.949 268.49L281.097 268.445L283.517 226.317C284.08 216.521 280.201 206.896 272.726 200.536C268.28 196.752 263.536 194.836 260.486 199.617C255.425 207.55 261.981 240.251 266.286 258.843L267.955 278.71C266.821 281.651 266.409 284.821 266.752 287.953C267.502 295.801 272.162 301.776 277.159 301.298Z" fill="#E9F3FF"/>
<path d="M249.488 114.959C249.488 114.959 264.073 109.352 270.804 126.171C277.535 142.991 284.828 225.965 284.828 225.965L250.61 219.798L249.488 114.959Z" fill="#E6E6E6"/>
<path d="M49.2251 106.732H29.5869C28.2763 106.732 27.21 105.666 27.21 104.356C27.21 103.047 28.2763 101.981 29.5869 101.981H49.2251C50.5357 101.981 51.6016 103.047 51.6016 104.356C51.6016 105.666 50.5357 106.732 49.2251 106.732Z" fill="#E6E6E6"/>
<path d="M49.2251 73.0596H29.5869C28.2763 73.0596 27.21 71.9938 27.21 70.684C27.21 69.3742 28.2763 68.3088 29.5869 68.3088H49.2251C50.5357 68.3088 51.6016 69.3741 51.6016 70.684C51.6016 71.9938 50.5357 73.0596 49.2251 73.0596Z" fill="#E6E6E6"/>
<path d="M49.2251 48.7767H29.5869C28.2763 48.7767 27.21 47.7109 27.21 46.401C27.21 45.0912 28.2763 44.0259 29.5869 44.0259H49.2251C50.5357 44.0259 51.6016 45.0912 51.6016 46.401C51.6016 47.7109 50.5357 48.7767 49.2251 48.7767Z" fill="#E6E6E6"/>
<path d="M26.4219 115.575C26.4219 116.002 26.7648 116.345 27.1917 116.345H159.349C159.776 116.345 160.118 116.002 160.118 115.575C160.118 115.149 159.776 114.806 159.349 114.806H27.1917C26.7648 114.806 26.4219 115.149 26.4219 115.575Z" fill="#3F3D56"/>
<path d="M281.304 314.716C281.304 315.142 281.647 315.485 282.074 315.485H414.23C414.657 315.485 415 315.142 415 314.716C415 314.289 414.657 313.946 414.23 313.946H282.074C281.647 313.946 281.304 314.289 281.304 314.716Z" fill="#3F3D56"/>
<path d="M242.489 377.432C242.489 377.859 242.832 378.201 243.259 378.201H375.416C375.843 378.201 376.186 377.859 376.186 377.432C376.186 377.005 375.843 376.663 375.416 376.663H243.259C242.832 376.663 242.489 377.005 242.489 377.432Z" fill="#3F3D56"/>
<path d="M153.62 111.685C148.622 112.163 145.181 118.912 145.933 126.763C146.19 129.903 147.196 132.936 148.867 135.608L149.83 144.493L149.683 144.537L147.262 186.666C146.699 196.461 150.578 206.087 158.053 212.447C162.499 216.231 167.243 218.147 170.293 213.366C175.354 205.433 168.798 172.732 164.493 154.14L162.824 134.273C163.958 131.332 164.37 128.162 164.027 125.029C163.277 117.181 158.617 111.207 153.62 111.685Z" fill="#E9F3FF"/>
</g>
<defs>
<clipPath id="clip0_483_2">
<rect width="415" height="405" fill="white"/>
</clipPath>
</defs>
</svg>
