<svg width="329" height="693" viewBox="0 0 329 693" fill="none" xmlns="http://www.w3.org/2000/svg">
<path d="M44.4996 5.49999C44.4996 2.46243 42.0372 -3.19311e-06 38.9996 0C35.9621 3.19312e-06 33.4996 2.46244 33.4996 5.50001L44.4996 5.49999ZM281.927 690.697C283.969 692.946 287.447 693.114 289.697 691.073L326.349 657.803C328.598 655.762 328.767 652.283 326.725 650.034C324.683 647.785 321.205 647.617 318.956 649.658L286.376 679.231L256.803 646.651C254.762 644.402 251.283 644.233 249.034 646.275C246.785 648.317 246.617 651.795 248.658 654.044L281.927 690.697ZM33.4996 5.50001C33.4997 32.1841 25.5002 64.0351 17.2515 97.707C9.09782 130.991 0.746717 165.914 0.875001 197.522C1.0042 229.356 9.74349 258.62 36.4374 279.678C62.8155 300.486 105.788 312.5 172.5 312.5V301.5C106.712 301.5 66.7472 289.577 43.2502 271.041C20.0691 252.755 11.9958 227.269 11.8749 197.478C11.7531 167.461 19.7144 133.884 27.9356 100.324C36.0618 67.1524 44.4997 33.8159 44.4996 5.49999L33.4996 5.50001ZM172.5 312.5C213.292 312.5 240.279 328.342 258.246 353.58C276.461 379.167 285.717 414.874 289.588 454.904C293.45 494.837 291.898 538.42 289.006 579.284C286.137 619.822 281.881 658.326 280.506 686.734L291.494 687.266C292.869 658.84 297.051 621.428 299.979 580.06C302.883 539.018 304.488 494.705 300.537 453.846C296.596 413.084 287.071 375.104 267.207 347.201C247.096 318.95 216.708 301.5 172.5 301.5V312.5Z" fill="#86BBFB"/>
</svg>
