<svg width="798" height="431" viewBox="0 0 798 431" fill="none" xmlns="http://www.w3.org/2000/svg">
<g clip-path="url(#clip0_338_4)">
<path d="M747.454 359.958L749.943 372.454C750.131 373.409 750.327 374.381 750.54 375.345C752.62 374.914 754.777 375.034 756.797 375.695C755.195 377.986 753.759 380.389 752.5 382.886C754.069 387.722 756.371 392.191 760.224 395.424C762.797 397.535 765.871 398.947 769.148 399.524C772.425 400.101 775.796 399.823 778.935 398.717L778.824 398.222C782.967 390.178 780.716 380.037 775.568 372.607C772.942 368.942 769.83 365.651 766.319 362.824C762.841 359.924 759.081 357.322 755.356 354.755C754.519 354.179 753.53 353.866 752.515 353.856C751.5 353.845 750.504 354.138 749.656 354.697C748.808 355.255 748.145 356.054 747.753 356.991C747.361 357.928 747.257 358.961 747.454 359.958Z" fill="#58CCED"/>
<path d="M778.048 428.783C779.096 421.147 780.174 413.413 779.439 405.695C778.786 398.84 776.697 392.145 772.441 386.655C770.183 383.747 767.434 381.255 764.32 379.292C763.508 378.78 762.761 380.067 763.569 380.577C768.957 383.985 773.125 389.017 775.472 394.947C778.063 401.542 778.479 408.732 778.029 415.737C777.759 419.974 777.187 424.182 776.61 428.387C776.563 428.577 776.591 428.778 776.688 428.948C776.784 429.119 776.942 429.245 777.13 429.303C777.32 429.354 777.523 429.328 777.694 429.231C777.866 429.134 777.992 428.973 778.045 428.783L778.048 428.783Z" fill="#F2F2F2"/>
<path d="M769.057 45.7479C732.541 45.1126 696.02 45.0213 659.496 45.4741C622.977 45.9296 586.471 46.9316 549.976 48.4801C529.498 49.3491 509.027 50.3901 488.565 51.6032C486.921 51.7005 486.927 49.1413 488.565 49.0443C525.023 46.8856 561.508 45.2704 598.02 44.1985C634.526 43.1296 671.042 42.6072 707.57 42.6314C728.067 42.645 748.562 42.8309 769.057 43.189C770.701 43.2176 770.706 45.7766 769.057 45.7479V45.7479Z" fill="#3895D4"/>
<path d="M514.572 29.7029L498.605 28.5138C496.974 28.3923 496.96 25.8324 498.605 25.9549L514.572 27.144C516.204 27.2655 516.217 29.8254 514.572 29.7029Z" fill="#3895D4"/>
<path d="M514.572 45.0563L498.605 43.8672C496.974 43.7457 496.96 41.1858 498.605 41.3083L514.572 42.4974C516.204 42.6189 516.217 45.1788 514.572 45.0563Z" fill="#3895D4"/>
<path d="M515.774 38.0448L493.072 40.1085C491.433 40.2575 491.443 37.6977 493.072 37.5496L515.774 35.4859C517.412 35.3369 517.402 37.8968 515.774 38.0448Z" fill="#3895D4"/>
<path d="M759.608 26.2616C760.718 26.2548 761.806 26.5751 762.735 27.1826C763.665 27.7902 764.396 28.6581 764.836 29.6782C765.328 30.6766 765.48 31.8089 765.268 32.9019C765.057 33.9949 764.493 34.9885 763.664 35.7307C762.884 36.3944 761.949 36.8494 760.946 37.0534C759.943 37.2573 758.905 37.2034 757.928 36.8967C756.929 36.5476 756.063 35.8974 755.449 35.0355C754.835 34.1735 754.503 33.1423 754.498 32.0837C754.454 30.9092 754.772 29.7495 755.409 28.7623C756.046 27.775 756.972 27.0081 758.06 26.5659C758.387 26.477 758.736 26.521 759.031 26.6884C759.325 26.8558 759.542 27.133 759.633 27.4595C759.714 27.7863 759.666 28.1317 759.5 28.4245C759.334 28.7172 759.062 28.9352 758.74 29.0334C758.517 29.1195 758.944 28.9237 758.736 29.0372C758.65 29.0838 758.563 29.1259 758.479 29.1757C758.407 29.2181 758.339 29.2644 758.27 29.3098C758.031 29.4657 758.386 29.1953 758.234 29.3355C758.101 29.457 757.97 29.5756 757.85 29.7097C757.804 29.7604 757.626 29.9013 757.765 29.8028C757.871 29.7274 757.806 29.7451 757.765 29.8057C757.734 29.8516 757.701 29.8963 757.67 29.9425C757.571 30.0935 757.48 30.2502 757.399 30.412C757.38 30.4494 757.363 30.4877 757.344 30.5249C757.308 30.5947 757.256 30.613 757.34 30.5256C757.421 30.4421 757.37 30.4478 757.341 30.5281C757.322 30.581 757.301 30.6331 757.283 30.6861C757.223 30.8587 757.173 31.0345 757.132 31.2127C757.113 31.295 757.098 31.3779 757.082 31.4607C757.025 31.7546 757.091 31.2781 757.077 31.4963C757.065 31.6786 757.052 31.8588 757.055 32.0418C757.056 32.1255 757.06 32.2091 757.066 32.2926C757.069 32.3343 757.073 32.3758 757.076 32.4175C757.089 32.6183 757.09 32.3441 757.062 32.3254C757.12 32.4958 757.159 32.6724 757.177 32.8517C757.2 32.9312 757.227 33.009 757.253 33.0877C757.342 33.3622 757.169 32.938 757.264 33.1257C757.342 33.2868 757.429 33.4434 757.525 33.5946C757.567 33.6579 757.724 33.8009 757.596 33.7014C757.456 33.5934 757.669 33.7793 757.714 33.8272C757.772 33.8886 757.833 33.948 757.896 34.0052C757.936 34.0443 757.978 34.0812 758.022 34.1154C758.03 34.1114 757.809 33.9673 757.928 34.0435C758.08 34.1405 758.224 34.2442 758.384 34.3286C758.403 34.3385 758.608 34.4334 758.607 34.4367C758.615 34.4022 758.343 34.3409 758.53 34.4012C758.569 34.4139 758.608 34.4292 758.647 34.4424C758.817 34.4997 758.99 34.5459 759.166 34.5809C759.207 34.5889 759.249 34.593 759.289 34.6032C759.421 34.6374 759.163 34.5832 759.155 34.5877C759.253 34.5834 759.35 34.5921 759.446 34.6134C759.627 34.6238 759.809 34.6238 759.991 34.6134C760.033 34.611 760.074 34.6068 760.116 34.6043C760.214 34.5987 760.285 34.5284 760.156 34.6047C760.056 34.6635 760.064 34.6206 760.153 34.6042C760.194 34.5965 760.236 34.5901 760.277 34.5823C760.457 34.5487 760.634 34.5051 760.809 34.4519C760.903 34.4233 760.995 34.3899 761.088 34.3575C761.128 34.3457 761.168 34.3306 761.206 34.3121C761.206 34.3016 760.966 34.4268 761.093 34.3585C761.253 34.2724 761.418 34.2002 761.574 34.106C761.657 34.0558 761.737 34.0012 761.818 33.9474C761.854 33.9259 761.887 33.9017 761.919 33.8749C761.916 33.8641 761.721 34.0454 761.824 33.9475C761.953 33.8237 762.092 33.7129 762.215 33.581C762.243 33.5509 762.27 33.5193 762.298 33.4891L762.325 33.4581C762.394 33.3733 762.396 33.3737 762.329 33.4593C762.261 33.4793 762.264 33.5537 762.329 33.457C762.352 33.4226 762.376 33.3891 762.399 33.3547C762.503 33.2066 762.591 33.0484 762.663 32.8824C762.657 32.8776 762.552 33.1903 762.632 32.9543C762.647 32.9097 762.664 32.8658 762.679 32.8211C762.709 32.7325 762.734 32.6429 762.757 32.5523C762.779 32.4625 762.79 32.3699 762.812 32.2805C762.85 32.1298 762.79 32.3994 762.797 32.3927C762.819 32.3716 762.81 32.2409 762.811 32.2097C762.821 32.0089 762.798 31.814 762.795 31.6145C762.792 31.4599 762.808 31.735 762.811 31.7269C762.81 31.6806 762.802 31.6347 762.787 31.591C762.763 31.4858 762.742 31.3806 762.714 31.2765C762.681 31.1574 762.644 31.0397 762.602 30.9234C762.586 30.8799 762.567 30.8371 762.552 30.7932C762.498 30.6325 762.658 30.9872 762.57 30.8424C762.448 30.643 762.358 30.4273 762.229 30.2305C762.198 30.1838 762.012 29.9239 762.111 30.0551C762.209 30.1858 762.01 29.9381 761.972 29.896C761.815 29.7212 761.63 29.5778 761.468 29.4104C761.372 29.3114 761.535 29.4592 761.545 29.4661C761.495 29.4301 761.445 29.3928 761.394 29.3577C761.306 29.2965 761.215 29.2386 761.122 29.1841C761.017 29.1225 760.898 29.0767 760.796 29.0116C760.676 28.9347 760.888 29.0454 760.892 29.0477C760.837 29.0204 760.78 28.9986 760.721 28.9823C760.622 28.9472 760.191 28.7613 760.101 28.8194C760.105 28.8168 760.428 28.8454 760.167 28.8287C760.105 28.8247 760.044 28.8187 759.982 28.8161C759.857 28.8109 759.732 28.8141 759.607 28.8206C759.269 28.8183 758.945 28.6828 758.706 28.4434C758.466 28.2039 758.331 27.8797 758.329 27.5411C758.336 27.204 758.473 26.8828 758.711 26.6444C758.95 26.406 759.271 26.2689 759.607 26.2617L759.608 26.2616Z" fill="#3895D4"/>
<path d="M741.706 26.2616C742.817 26.2548 743.904 26.5751 744.834 27.1826C745.764 27.7902 746.494 28.6581 746.934 29.6782C747.427 30.6766 747.579 31.8089 747.367 32.9019C747.155 33.9949 746.592 34.9885 745.763 35.7307C744.983 36.3944 744.048 36.8494 743.045 37.0534C742.042 37.2573 741.003 37.2034 740.027 36.8967C739.028 36.5476 738.162 35.8974 737.548 35.0355C736.933 34.1735 736.601 33.1423 736.597 32.0837C736.552 30.9092 736.87 29.7495 737.508 28.7623C738.145 27.775 739.071 27.0081 740.159 26.5659C740.486 26.477 740.835 26.521 741.129 26.6884C741.424 26.8558 741.641 27.133 741.732 27.4595C741.812 27.7863 741.765 28.1317 741.599 28.4245C741.433 28.7172 741.161 28.9352 740.839 29.0334C740.616 29.1195 741.042 28.9237 740.834 29.0372C740.749 29.0838 740.662 29.1259 740.578 29.1757C740.506 29.2181 740.438 29.2644 740.368 29.3098C740.13 29.4657 740.485 29.1953 740.332 29.3355C740.2 29.457 740.069 29.5756 739.949 29.7097C739.903 29.7604 739.725 29.9013 739.863 29.8028C739.969 29.7274 739.904 29.7451 739.863 29.8057C739.832 29.8516 739.8 29.8963 739.769 29.9425C739.669 30.0935 739.579 30.2502 739.498 30.412C739.479 30.4494 739.462 30.4877 739.443 30.5249C739.407 30.5947 739.355 30.613 739.439 30.5256C739.52 30.4421 739.468 30.4478 739.44 30.5281C739.421 30.581 739.4 30.6331 739.382 30.6861C739.322 30.8587 739.271 31.0345 739.231 31.2127C739.212 31.295 739.197 31.3779 739.181 31.4607C739.124 31.7546 739.189 31.2781 739.175 31.4963C739.164 31.6786 739.15 31.8588 739.154 32.0418C739.155 32.1255 739.159 32.2091 739.165 32.2926C739.167 32.3343 739.172 32.3758 739.175 32.4175C739.188 32.6183 739.189 32.3441 739.16 32.3254C739.219 32.4958 739.258 32.6724 739.276 32.8517C739.299 32.9312 739.326 33.009 739.352 33.0877C739.441 33.3622 739.268 32.938 739.363 33.1257C739.441 33.2868 739.528 33.4434 739.624 33.5946C739.666 33.6579 739.823 33.8009 739.694 33.7014C739.555 33.5934 739.767 33.7793 739.813 33.8272C739.871 33.8886 739.932 33.948 739.994 34.0052C740.034 34.0443 740.077 34.0812 740.121 34.1154C740.129 34.1114 739.907 33.9673 740.027 34.0435C740.179 34.1405 740.323 34.2442 740.483 34.3286C740.501 34.3385 740.706 34.4334 740.705 34.4367C740.714 34.4022 740.442 34.3409 740.629 34.4012C740.668 34.4139 740.707 34.4292 740.746 34.4424C740.916 34.4997 741.089 34.5459 741.265 34.5809C741.305 34.5889 741.348 34.593 741.388 34.6032C741.52 34.6374 741.261 34.5832 741.253 34.5877C741.351 34.5834 741.449 34.5921 741.544 34.6134C741.726 34.6238 741.908 34.6238 742.089 34.6134C742.131 34.611 742.173 34.6068 742.215 34.6043C742.312 34.5987 742.384 34.5284 742.254 34.6047C742.154 34.6635 742.163 34.6206 742.251 34.6042C742.293 34.5965 742.334 34.5901 742.376 34.5823C742.555 34.5487 742.733 34.5051 742.908 34.4519C743.002 34.4233 743.094 34.3899 743.187 34.3575C743.227 34.3457 743.266 34.3306 743.304 34.3121C743.305 34.3016 743.065 34.4268 743.192 34.3585C743.351 34.2724 743.517 34.2002 743.673 34.106C743.756 34.0558 743.836 34.0012 743.917 33.9474C743.952 33.9259 743.986 33.9017 744.018 33.8749C744.015 33.8641 743.82 34.0454 743.922 33.9475C744.052 33.8237 744.191 33.7129 744.314 33.581C744.342 33.5509 744.369 33.5193 744.397 33.4891L744.424 33.4581C744.493 33.3733 744.494 33.3737 744.428 33.4593C744.36 33.4793 744.363 33.5537 744.427 33.457C744.45 33.4226 744.475 33.3891 744.497 33.3547C744.601 33.2066 744.69 33.0484 744.762 32.8824C744.755 32.8776 744.651 33.1903 744.731 32.9543C744.746 32.9097 744.763 32.8658 744.778 32.8211C744.807 32.7325 744.833 32.6429 744.855 32.5523C744.877 32.4625 744.889 32.3699 744.911 32.2805C744.949 32.1298 744.889 32.3994 744.896 32.3927C744.917 32.3716 744.908 32.2409 744.91 32.2097C744.92 32.0089 744.897 31.814 744.894 31.6145C744.891 31.4599 744.906 31.735 744.91 31.7269C744.909 31.6806 744.901 31.6347 744.885 31.591C744.862 31.4858 744.841 31.3806 744.812 31.2765C744.78 31.1574 744.742 31.0397 744.7 30.9234C744.684 30.8799 744.665 30.8371 744.65 30.7932C744.597 30.6325 744.757 30.9872 744.669 30.8424C744.547 30.643 744.456 30.4273 744.327 30.2305C744.297 30.1838 744.11 29.9239 744.209 30.0551C744.308 30.1858 744.108 29.9381 744.07 29.896C743.914 29.7212 743.729 29.5778 743.567 29.4104C743.471 29.3114 743.634 29.4592 743.643 29.4661C743.593 29.4301 743.544 29.3928 743.493 29.3577C743.404 29.2965 743.313 29.2386 743.22 29.1841C743.115 29.1225 742.997 29.0767 742.895 29.0116C742.775 28.9347 742.987 29.0454 742.991 29.0477C742.936 29.0204 742.878 28.9986 742.819 28.9823C742.72 28.9472 742.29 28.7613 742.199 28.8194C742.203 28.8168 742.526 28.8454 742.265 28.8287C742.204 28.8247 742.142 28.8187 742.08 28.8161C741.955 28.8109 741.831 28.8141 741.706 28.8206C741.368 28.8183 741.044 28.6828 740.804 28.4434C740.565 28.2039 740.43 27.8797 740.427 27.5411C740.435 27.204 740.572 26.8828 740.81 26.6444C741.048 26.406 741.369 26.2689 741.706 26.2617L741.706 26.2616Z" fill="#3895D4"/>
<path d="M723.805 26.2616C724.915 26.2548 726.003 26.5751 726.933 27.1826C727.862 27.7902 728.593 28.6581 729.033 29.6782C729.525 30.6766 729.677 31.8089 729.466 32.9019C729.254 33.9949 728.69 34.9885 727.861 35.7307C727.082 36.3944 726.146 36.8494 725.143 37.0534C724.14 37.2573 723.102 37.2034 722.125 36.8967C721.126 36.5476 720.26 35.8974 719.646 35.0355C719.032 34.1735 718.7 33.1423 718.696 32.0837C718.651 30.9092 718.969 29.7495 719.606 28.7623C720.244 27.775 721.169 27.0081 722.258 26.5659C722.585 26.477 722.933 26.521 723.228 26.6884C723.523 26.8558 723.739 27.133 723.83 27.4595C723.911 27.7863 723.863 28.1317 723.697 28.4245C723.531 28.7172 723.259 28.9352 722.937 29.0334C722.715 29.1195 723.141 28.9237 722.933 29.0372C722.847 29.0838 722.76 29.1259 722.676 29.1757C722.605 29.2181 722.536 29.2644 722.467 29.3098C722.228 29.4657 722.583 29.1953 722.431 29.3355C722.299 29.457 722.167 29.5756 722.047 29.7097C722.002 29.7604 721.824 29.9013 721.962 29.8028C722.068 29.7274 722.003 29.7451 721.962 29.8057C721.931 29.8516 721.898 29.8963 721.868 29.9425C721.768 30.0935 721.677 30.2502 721.596 30.412C721.578 30.4494 721.56 30.4877 721.541 30.5249C721.505 30.5947 721.454 30.613 721.538 30.5256C721.618 30.4421 721.567 30.4478 721.538 30.5281C721.519 30.581 721.499 30.6331 721.48 30.6861C721.42 30.8587 721.37 31.0345 721.329 31.2127C721.311 31.295 721.296 31.3779 721.28 31.4607C721.222 31.7546 721.288 31.2781 721.274 31.4963C721.262 31.6786 721.249 31.8588 721.252 32.0418C721.254 32.1255 721.257 32.2091 721.263 32.2926C721.266 32.3343 721.271 32.3758 721.273 32.4175C721.287 32.6183 721.287 32.3441 721.259 32.3254C721.318 32.4958 721.356 32.6724 721.375 32.8517C721.398 32.9312 721.425 33.009 721.45 33.0877C721.539 33.3622 721.367 32.938 721.462 33.1257C721.54 33.2868 721.627 33.4434 721.723 33.5946C721.764 33.6579 721.921 33.8009 721.793 33.7014C721.654 33.5934 721.866 33.7793 721.911 33.8272C721.97 33.8886 722.03 33.948 722.093 34.0052C722.133 34.0443 722.175 34.0812 722.22 34.1154C722.228 34.1114 722.006 33.9673 722.126 34.0435C722.277 34.1405 722.421 34.2442 722.581 34.3286C722.6 34.3385 722.805 34.4334 722.804 34.4367C722.813 34.4022 722.541 34.3409 722.727 34.4012C722.767 34.4139 722.805 34.4292 722.844 34.4424C723.014 34.4997 723.188 34.5459 723.364 34.5809C723.404 34.5889 723.446 34.593 723.486 34.6032C723.618 34.6374 723.36 34.5832 723.352 34.5877C723.45 34.5834 723.548 34.5921 723.643 34.6134C723.825 34.6238 724.006 34.6238 724.188 34.6134C724.23 34.611 724.272 34.6068 724.314 34.6043C724.411 34.5987 724.483 34.5284 724.353 34.6047C724.253 34.6635 724.261 34.6206 724.35 34.6042C724.391 34.5965 724.433 34.5901 724.474 34.5823C724.654 34.5487 724.831 34.5051 725.006 34.4519C725.1 34.4233 725.192 34.3899 725.285 34.3575C725.326 34.3457 725.365 34.3306 725.403 34.3121C725.403 34.3016 725.164 34.4268 725.29 34.3585C725.45 34.2724 725.615 34.2002 725.771 34.106C725.854 34.0558 725.934 34.0012 726.015 33.9474C726.051 33.9259 726.085 33.9017 726.116 33.8749C726.114 33.8641 725.918 34.0454 726.021 33.9475C726.151 33.8237 726.29 33.7129 726.413 33.581C726.441 33.5509 726.467 33.5193 726.495 33.4891L726.522 33.4581C726.592 33.3733 726.593 33.3737 726.526 33.4593C726.459 33.4793 726.462 33.5537 726.526 33.457C726.549 33.4226 726.573 33.3891 726.596 33.3547C726.7 33.2066 726.788 33.0484 726.86 32.8824C726.854 32.8776 726.75 33.1903 726.829 32.9543C726.845 32.9097 726.862 32.8658 726.876 32.8211C726.906 32.7325 726.932 32.6429 726.954 32.5523C726.976 32.4625 726.987 32.3699 727.01 32.2805C727.047 32.1298 726.988 32.3994 726.995 32.3927C727.016 32.3716 727.007 32.2409 727.008 32.2097C727.019 32.0089 726.996 31.814 726.992 31.6145C726.989 31.4599 727.005 31.735 727.008 31.7269C727.007 31.6806 726.999 31.6347 726.984 31.591C726.961 31.4858 726.939 31.3806 726.911 31.2765C726.878 31.1574 726.841 31.0397 726.799 30.9234C726.783 30.8799 726.764 30.8371 726.749 30.7932C726.695 30.6325 726.856 30.9872 726.767 30.8424C726.646 30.643 726.555 30.4273 726.426 30.2305C726.395 30.1838 726.209 29.9239 726.308 30.0551C726.406 30.1858 726.207 29.9381 726.169 29.896C726.012 29.7212 725.828 29.5778 725.665 29.4104C725.569 29.3114 725.732 29.4592 725.742 29.4661C725.692 29.4301 725.643 29.3928 725.592 29.3577C725.503 29.2965 725.412 29.2386 725.319 29.1841C725.214 29.1225 725.095 29.0767 724.994 29.0116C724.873 28.9347 725.085 29.0454 725.089 29.0477C725.034 29.0204 724.977 28.9986 724.918 28.9823C724.819 28.9472 724.388 28.7613 724.298 28.8194C724.302 28.8168 724.625 28.8454 724.364 28.8287C724.302 28.8247 724.241 28.8187 724.179 28.8161C724.054 28.8109 723.93 28.8141 723.805 28.8206C723.466 28.8183 723.142 28.6828 722.903 28.4434C722.664 28.2039 722.528 27.8797 722.526 27.5411C722.533 27.204 722.67 26.8828 722.909 26.6444C723.147 26.406 723.468 26.2689 723.805 26.2617L723.805 26.2616Z" fill="#3895D4"/>
<path d="M465.196 309.627H778.815C782.781 309.622 786.583 308.044 789.387 305.238C792.192 302.432 793.769 298.628 793.773 294.66V14.9673C793.769 10.9991 792.192 7.19469 789.387 4.38874C786.583 1.58279 782.781 0.00445359 778.815 3.8147e-06H465.196C461.231 0.0044536 457.429 1.58279 454.624 4.38874C451.82 7.19469 450.243 10.9991 450.238 14.9673V294.66C450.243 298.628 451.82 302.432 454.624 305.238C457.429 308.044 461.231 309.622 465.196 309.627ZM778.815 1.70594C782.329 1.70994 785.698 3.1084 788.182 5.59452C790.667 8.08064 792.065 11.4514 792.069 14.9673V294.66C792.064 298.175 790.667 301.546 788.182 304.032C785.698 306.518 782.329 307.917 778.815 307.921H465.196C461.683 307.917 458.314 306.518 455.83 304.032C453.345 301.546 451.947 298.175 451.943 294.66V14.9673C451.947 11.4514 453.345 8.08064 455.829 5.59452C458.314 3.1084 461.683 1.70994 465.196 1.70594H778.815Z" fill="#3895D4"/>
<path d="M779.334 190.302L669.046 189.966L559.32 189.632L497.423 189.444C497.092 189.432 496.778 189.292 496.547 189.054C496.317 188.815 496.188 188.496 496.188 188.164C496.188 187.832 496.317 187.513 496.547 187.275C496.778 187.036 497.092 186.896 497.423 186.885L607.712 187.22L717.438 187.554L779.334 187.743C779.666 187.754 779.98 187.894 780.21 188.133C780.441 188.372 780.569 188.69 780.569 189.022C780.569 189.354 780.441 189.673 780.21 189.912C779.98 190.15 779.666 190.29 779.334 190.302Z" fill="#3895D4"/>
<path d="M723.695 188.227L723.013 147.936C722.986 146.288 725.543 146.288 725.571 147.936L726.253 188.227C726.281 189.874 723.723 189.875 723.695 188.227Z" fill="#3895D4"/>
<path d="M670.985 188.663L669.323 138.019L668.848 123.549C668.794 121.902 671.351 121.904 671.405 123.549L673.067 174.193L673.542 188.663C673.596 190.31 671.039 190.308 670.985 188.663Z" fill="#3895D4"/>
<path d="M618.415 99.5422C619.418 117.48 621.272 170.389 622.275 188.327C622.367 189.973 619.809 189.967 619.718 188.327C618.715 170.389 616.86 117.48 615.858 99.5422C615.766 97.8968 618.324 97.902 618.415 99.5422Z" fill="#3895D4"/>
<path d="M566.099 170.328L566.413 187.569C566.443 189.216 563.885 189.217 563.855 187.569C563.485 167.206 562.536 167.87 562.431 162.123C562.401 160.475 564.959 160.475 564.989 162.123C564.989 162.123 565.729 149.965 566.099 170.328Z" fill="#3895D4"/>
<path d="M514.857 125.035L514.568 173.406L514.485 187.256C514.474 187.588 514.334 187.902 514.096 188.133C513.857 188.363 513.538 188.492 513.207 188.492C512.875 188.492 512.556 188.363 512.318 188.133C512.079 187.902 511.94 187.588 511.928 187.256L512.217 138.886L512.3 125.035C512.312 124.703 512.451 124.389 512.69 124.159C512.928 123.928 513.247 123.799 513.579 123.799C513.91 123.799 514.229 123.928 514.468 124.159C514.706 124.389 514.846 124.703 514.857 125.035Z" fill="#3895D4"/>
<path d="M779.129 188.862C781.246 183.042 776.474 177.443 771.571 174.928C765.697 171.914 758.939 171.231 753.003 168.326C744.152 163.994 737.706 156.221 731.97 148.44C726.066 140.431 720.664 131.836 713.163 125.181C709.209 121.597 704.54 118.893 699.465 117.249C693.07 115.252 686.287 115.115 679.679 115.92C666.024 117.583 653.366 123.227 640.19 126.813C627.768 130.195 614.082 132.097 601.889 126.838C595.695 124.166 590.629 119.685 585.188 115.808C579.923 112.016 574.035 109.174 567.791 107.411C555.552 104.005 542.186 104.914 530.791 110.672C520.316 115.895 512.023 124.654 507.374 135.401C501.972 148.314 502.676 162.743 504.44 176.335C504.896 179.848 505.439 183.349 505.988 186.849C506.241 188.46 503.777 189.154 503.522 187.529C501.324 173.514 499.134 159.056 501.868 144.953C504.232 132.638 510.999 121.607 520.904 113.925C530.85 106.221 543.215 102.316 555.779 102.912C562.362 103.217 568.844 104.66 574.937 107.175C581.261 109.793 586.617 113.673 592.057 117.755C597.65 121.952 603.415 125.424 610.36 126.793C617.095 128.121 624.102 127.623 630.808 126.37C644.645 123.783 657.543 117.853 671.263 114.814C683.974 111.999 697.691 111.718 709.073 118.903C717.829 124.431 724.016 133.011 729.954 141.297C735.839 149.51 741.799 158.293 750.406 163.903C755.656 167.326 761.557 168.588 767.43 170.513C773.318 172.443 778.971 175.698 781.372 181.734C782.406 184.22 782.486 187.001 781.595 189.542C781.037 191.078 778.564 190.415 779.129 188.862V188.862Z" fill="#3895D4"/>
<path d="M724.544 142.364L724.548 142.366L724.541 142.364H724.544Z" fill="#3895D4"/>
<path d="M720.11 140.01C720.701 138.963 721.643 138.159 722.771 137.742C723.898 137.324 725.137 137.32 726.267 137.73C726.829 137.935 727.344 138.251 727.781 138.659C728.219 139.067 728.57 139.558 728.815 140.104C728.864 140.22 728.892 140.342 728.932 140.461C728.988 140.551 729.054 140.632 729.104 140.725C729.634 141.782 729.779 142.991 729.514 144.143C729.25 145.296 728.592 146.32 727.654 147.039C726.716 147.758 725.556 148.127 724.375 148.083C723.194 148.039 722.066 147.584 721.184 146.797C720.257 145.959 719.645 144.828 719.45 143.593C719.254 142.359 719.487 141.094 720.11 140.01ZM723.312 142.183C723.306 142.307 723.302 142.248 723.312 142.183V142.183ZM723.638 141.443C723.65 141.428 723.649 141.43 723.638 141.443V141.443ZM725.073 142.02C725.094 141.986 725.092 141.991 725.073 142.02V142.02ZM724.733 142.309C724.684 142.33 724.652 142.336 724.733 142.309V142.309ZM724.581 142.381L724.547 142.366C724.555 142.366 724.564 142.365 724.571 142.361L724.57 142.361L724.544 142.364L724.539 142.362L724.554 142.358C724.541 142.358 724.539 142.36 724.538 142.362C724.386 142.292 724.489 142.325 724.577 142.353L724.583 142.351C724.638 142.323 724.698 142.304 724.759 142.295C724.764 142.292 724.771 142.29 724.776 142.286C724.825 142.251 725.072 142.058 724.843 142.261C724.893 142.217 724.942 142.173 724.989 142.126C725.017 142.097 725.042 142.066 725.064 142.033C725.094 141.982 725.123 141.93 725.152 141.877L725.156 141.849C725.16 141.825 725.162 141.815 725.165 141.801C725.164 141.786 725.162 141.771 725.159 141.755C725.142 141.709 725.131 141.661 725.127 141.612L725.117 141.6C725.08 141.549 725.048 141.489 725.013 141.436C725.198 141.717 724.941 141.404 724.921 141.365C724.918 141.358 724.924 141.362 724.922 141.357C724.915 141.353 724.917 141.356 724.908 141.35C724.851 141.317 724.796 141.279 724.738 141.247C724.668 141.208 724.395 141.13 724.679 141.211C724.614 141.193 724.552 141.17 724.487 141.153C724.475 141.15 724.38 141.136 724.328 141.127C724.283 141.126 724.239 141.125 724.235 141.125C724.213 141.125 724.192 141.127 724.171 141.128C724.218 141.135 724.009 141.18 723.947 141.189C723.939 141.196 723.934 141.201 723.922 141.21C723.869 141.248 723.806 141.282 723.75 141.318C723.998 141.158 723.747 141.331 723.7 141.378C723.672 141.406 723.646 141.436 723.619 141.466C723.595 141.494 723.573 141.525 723.553 141.556C723.513 141.631 723.469 141.706 723.427 141.779L723.415 141.798C723.415 141.8 723.415 141.803 723.415 141.805C723.393 141.924 723.36 142.04 723.317 142.153C723.315 142.163 723.314 142.172 723.313 142.182C723.309 142.247 723.303 142.312 723.303 142.377L723.304 142.39C723.501 142.287 723.719 142.233 723.941 142.231C724.163 142.23 724.383 142.281 724.581 142.381H724.581Z" fill="#3895D4"/>
<path d="M724.536 142.363C724.532 142.364 724.536 142.364 724.537 142.364L724.536 142.363Z" fill="#3895D4"/>
<path d="M724.537 142.362L724.536 142.363L724.537 142.362Z" fill="#3895D4"/>
<path d="M724.538 142.364L724.541 142.364C724.537 142.365 724.538 142.364 724.538 142.364Z" fill="#3895D4"/>
<path d="M724.539 142.362L724.537 142.363L724.539 142.362Z" fill="#3895D4"/>
<path d="M669.988 118.481L669.991 118.483L669.984 118.481H669.988Z" fill="#3895D4"/>
<path d="M665.554 116.127C666.145 115.08 667.088 114.276 668.215 113.859C669.342 113.441 670.581 113.437 671.711 113.847C672.273 114.052 672.788 114.368 673.226 114.776C673.663 115.184 674.015 115.675 674.259 116.221C674.308 116.337 674.337 116.459 674.377 116.578C674.432 116.668 674.499 116.749 674.548 116.842C675.078 117.899 675.224 119.108 674.959 120.26C674.694 121.413 674.036 122.437 673.098 123.156C672.16 123.875 671.001 124.244 669.82 124.2C668.639 124.156 667.51 123.701 666.628 122.914C665.702 122.075 665.09 120.945 664.894 119.71C664.699 118.476 664.931 117.211 665.554 116.127ZM668.757 118.3C668.75 118.424 668.746 118.365 668.757 118.3V118.3ZM669.082 117.56C669.095 117.545 669.093 117.547 669.082 117.56V117.56ZM670.517 118.137C670.538 118.103 670.536 118.107 670.517 118.137V118.137ZM670.177 118.426C670.128 118.447 670.096 118.453 670.177 118.426V118.426ZM670.025 118.498L669.992 118.483C670 118.483 670.008 118.482 670.015 118.478L670.014 118.478L669.988 118.481L669.983 118.479L669.998 118.475C669.985 118.475 669.984 118.477 669.983 118.479C669.831 118.409 669.934 118.442 670.022 118.47L670.028 118.468C670.083 118.44 670.142 118.421 670.203 118.412C670.209 118.409 670.215 118.407 670.22 118.403C670.269 118.368 670.517 118.175 670.287 118.378C670.337 118.334 670.386 118.29 670.433 118.243C670.461 118.214 670.486 118.183 670.508 118.15C670.538 118.099 670.568 118.047 670.596 117.994L670.6 117.966C670.604 117.942 670.607 117.932 670.61 117.918C670.608 117.903 670.606 117.888 670.604 117.872C670.587 117.826 670.576 117.778 670.571 117.729L670.561 117.717C670.525 117.666 670.493 117.606 670.457 117.553C670.643 117.834 670.385 117.521 670.366 117.482C670.362 117.475 670.368 117.479 670.367 117.474C670.359 117.47 670.362 117.473 670.353 117.467C670.295 117.434 670.241 117.396 670.182 117.364C670.113 117.325 669.839 117.247 670.123 117.328C670.059 117.31 669.997 117.287 669.932 117.27C669.92 117.267 669.824 117.253 669.773 117.244C669.728 117.243 669.684 117.241 669.679 117.242C669.658 117.242 669.637 117.244 669.615 117.245C669.662 117.252 669.454 117.297 669.392 117.306C669.383 117.313 669.378 117.318 669.366 117.327C669.314 117.365 669.25 117.399 669.195 117.435C669.442 117.275 669.191 117.448 669.144 117.495C669.116 117.523 669.09 117.553 669.063 117.583C669.039 117.611 669.017 117.642 668.998 117.673C668.957 117.748 668.914 117.823 668.871 117.896L668.859 117.915C668.86 117.917 668.86 117.92 668.86 117.922C668.838 118.041 668.805 118.157 668.762 118.27C668.76 118.279 668.758 118.289 668.757 118.299C668.753 118.364 668.748 118.429 668.748 118.494L668.748 118.507C668.945 118.404 669.164 118.35 669.386 118.348C669.608 118.347 669.827 118.398 670.025 118.498Z" fill="#3895D4"/>
<path d="M669.981 118.481L669.984 118.481C669.98 118.482 669.982 118.481 669.981 118.481Z" fill="#3895D4"/>
<path d="M669.982 118.479L669.98 118.48L669.982 118.479Z" fill="#3895D4"/>
<path d="M669.98 118.48C669.975 118.481 669.979 118.481 669.98 118.481L669.98 118.48Z" fill="#3895D4"/>
<path d="M669.98 118.479L669.979 118.48L669.98 118.479Z" fill="#3895D4"/>
<path d="M617.131 130.42L617.129 130.421L617.131 130.42Z" fill="#3895D4"/>
<path d="M612.702 92.2444C613.293 91.1971 614.236 90.3933 615.364 89.9758C616.491 89.5583 617.73 89.5542 618.86 89.9641C619.421 90.1693 619.936 90.4851 620.374 90.8928C620.812 91.3006 621.163 91.792 621.408 92.338C621.457 92.4541 621.485 92.5761 621.525 92.695C621.581 92.7847 621.647 92.8656 621.697 92.9594C622.227 94.0162 622.372 95.2249 622.107 96.3772C621.842 97.5296 621.184 98.5535 620.246 99.2726C619.308 99.9917 618.149 100.361 616.968 100.317C615.787 100.273 614.659 99.8179 613.777 99.0307C612.85 98.1925 612.238 97.062 612.043 95.8273C611.847 94.5927 612.08 93.3283 612.702 92.2444ZM615.905 94.4174C615.899 94.5414 615.895 94.482 615.905 94.4174V94.4174ZM616.231 93.6767C616.243 93.6623 616.242 93.6638 616.231 93.6767V93.6767ZM617.666 94.254C617.687 94.2195 617.685 94.2245 617.666 94.254V94.254ZM617.326 94.5426C617.277 94.5644 617.245 94.5702 617.326 94.5426V94.5426ZM617.174 94.615L617.14 94.5996C617.148 94.6003 617.157 94.5987 617.164 94.5948L617.163 94.5947L617.137 94.5979L617.132 94.5957L617.147 94.5922C617.134 94.5917 617.132 94.5935 617.131 94.5956C616.979 94.5259 617.082 94.5594 617.17 94.5868L617.176 94.5854C617.231 94.5574 617.29 94.5384 617.352 94.5291C617.357 94.5259 617.364 94.5236 617.369 94.5202C617.418 94.4854 617.665 94.292 617.435 94.4947C617.485 94.4506 617.535 94.4072 617.582 94.3596C617.609 94.3311 617.635 94.3003 617.657 94.2673C617.687 94.2156 617.716 94.1635 617.744 94.1109L617.749 94.0825C617.752 94.0589 617.755 94.0491 617.758 94.035C617.757 94.0203 617.754 94.0046 617.752 93.9894C617.735 93.9434 617.724 93.8953 617.72 93.8464L617.71 93.8339C617.673 93.7826 617.641 93.7228 617.606 93.6695C617.791 93.9511 617.533 93.6384 617.514 93.5988C617.511 93.592 617.517 93.5957 617.515 93.591C617.508 93.5868 617.51 93.5897 617.501 93.5844C617.444 93.5506 617.389 93.5128 617.331 93.4805C617.261 93.442 616.988 93.3642 617.271 93.4454C617.207 93.427 617.145 93.4037 617.08 93.3867C617.068 93.3836 616.973 93.3702 616.921 93.361C616.876 93.3598 616.832 93.3585 616.828 93.3585C616.806 93.3588 616.785 93.3614 616.764 93.3623C616.811 93.3686 616.602 93.4137 616.54 93.4233C616.531 93.4303 616.527 93.4348 616.515 93.4437C616.462 93.482 616.398 93.5161 616.343 93.5519C616.59 93.3919 616.34 93.5646 616.293 93.6118C616.264 93.6401 616.238 93.6702 616.212 93.7C616.187 93.7283 616.165 93.7585 616.146 93.7904C616.105 93.8647 616.062 93.94 616.02 94.0131L616.008 94.0319C616.008 94.0343 616.008 94.0367 616.008 94.0391C615.986 94.1578 615.953 94.2741 615.91 94.3869C615.908 94.3965 615.907 94.4061 615.905 94.4158C615.902 94.4808 615.896 94.5456 615.896 94.6109L615.897 94.6241C616.093 94.5214 616.312 94.467 616.534 94.4654C616.756 94.4638 616.975 94.5151 617.174 94.615Z" fill="#3895D4"/>
<path d="M617.136 130.423L617.14 130.424L617.133 130.423H617.136Z" fill="#3895D4"/>
<path d="M617.129 130.421L617.128 130.421L617.129 130.421Z" fill="#3895D4"/>
<path d="M617.129 130.422L617.133 130.423C617.128 130.423 617.13 130.423 617.129 130.422Z" fill="#3895D4"/>
<path d="M617.128 130.421C617.124 130.422 617.128 130.422 617.129 130.423L617.128 130.421Z" fill="#3895D4"/>
<path d="M558.998 157.923C559.589 156.875 560.532 156.072 561.659 155.654C562.787 155.237 564.025 155.233 565.156 155.642C565.717 155.848 566.232 156.163 566.67 156.571C567.108 156.979 567.459 157.47 567.704 158.016C567.753 158.132 567.781 158.254 567.821 158.373C567.876 158.463 567.943 158.544 567.993 158.638C568.523 159.695 568.668 160.903 568.403 162.056C568.138 163.208 567.48 164.232 566.542 164.951C565.604 165.67 564.445 166.039 563.264 165.995C562.083 165.951 560.955 165.496 560.073 164.709C559.146 163.871 558.534 162.74 558.339 161.506C558.143 160.271 558.376 159.007 558.998 157.923ZM562.201 160.096C562.194 160.22 562.191 160.16 562.201 160.096V160.096ZM562.527 159.355C562.539 159.341 562.538 159.342 562.527 159.355V159.355ZM563.962 159.932C563.983 159.898 563.981 159.903 563.962 159.932V159.932ZM563.621 160.221C563.572 160.243 563.54 160.249 563.621 160.221V160.221ZM563.47 160.293L563.436 160.278C563.444 160.279 563.452 160.277 563.46 160.273L563.459 160.273L563.432 160.276L563.427 160.274L563.443 160.271C563.43 160.27 563.428 160.272 563.427 160.274C563.275 160.204 563.378 160.238 563.466 160.265L563.472 160.264C563.527 160.236 563.586 160.217 563.647 160.207C563.653 160.204 563.66 160.202 563.664 160.199C563.713 160.164 563.961 159.97 563.731 160.173C563.781 160.129 563.831 160.086 563.878 160.038C563.905 160.009 563.93 159.979 563.953 159.946C563.983 159.894 564.012 159.842 564.04 159.789L564.044 159.761C564.048 159.737 564.051 159.727 564.054 159.713C564.053 159.699 564.05 159.683 564.048 159.668C564.031 159.622 564.02 159.574 564.016 159.525L564.006 159.512C563.969 159.461 563.937 159.401 563.902 159.348C564.087 159.629 563.829 159.317 563.81 159.277C563.807 159.27 563.813 159.274 563.811 159.269C563.804 159.265 563.806 159.268 563.797 159.263C563.739 159.229 563.685 159.191 563.627 159.159C563.557 159.12 563.284 159.043 563.567 159.124C563.503 159.105 563.441 159.082 563.376 159.065C563.364 159.062 563.269 159.049 563.217 159.039C563.172 159.038 563.128 159.037 563.123 159.037C563.102 159.037 563.081 159.04 563.06 159.041C563.107 159.047 562.898 159.092 562.836 159.102C562.827 159.109 562.823 159.113 562.81 159.122C562.758 159.16 562.694 159.194 562.639 159.23C562.886 159.07 562.636 159.243 562.589 159.29C562.56 159.318 562.534 159.349 562.508 159.378C562.483 159.407 562.461 159.437 562.442 159.469C562.401 159.543 562.358 159.618 562.316 159.691L562.304 159.71C562.304 159.713 562.304 159.715 562.304 159.717C562.282 159.836 562.249 159.952 562.206 160.065C562.204 160.075 562.202 160.084 562.201 160.094C562.197 160.159 562.192 160.224 562.192 160.289L562.192 160.302C562.389 160.2 562.608 160.145 562.83 160.144C563.052 160.142 563.271 160.193 563.47 160.293Z" fill="#3895D4"/>
<path d="M563.432 103.981L563.436 103.983L563.429 103.981H563.432Z" fill="#3895D4"/>
<path d="M563.425 103.979L563.424 103.979L563.425 103.979Z" fill="#3895D4"/>
<path d="M563.425 103.98L563.429 103.981C563.424 103.981 563.426 103.981 563.425 103.98Z" fill="#3895D4"/>
<path d="M563.424 103.979C563.42 103.981 563.424 103.98 563.425 103.981L563.424 103.979Z" fill="#3895D4"/>
<path d="M563.427 103.978L563.425 103.979L563.427 103.978Z" fill="#3895D4"/>
<path d="M513.131 121.038L513.13 121.039L513.131 121.038Z" fill="#3895D4"/>
<path d="M508.704 118.686C509.295 117.639 510.238 116.835 511.366 116.418C512.493 116 513.732 115.996 514.862 116.406C515.423 116.611 515.938 116.927 516.376 117.335C516.814 117.743 517.165 118.234 517.41 118.78C517.459 118.896 517.487 119.018 517.527 119.137C517.583 119.227 517.649 119.308 517.699 119.401C518.229 120.458 518.374 121.667 518.109 122.819C517.844 123.972 517.186 124.995 516.248 125.715C515.31 126.434 514.151 126.803 512.97 126.759C511.789 126.715 510.661 126.26 509.779 125.473C508.852 124.634 508.24 123.504 508.045 122.269C507.849 121.035 508.082 119.77 508.704 118.686ZM511.907 120.859C511.9 120.983 511.897 120.924 511.907 120.859V120.859ZM512.233 120.119C512.245 120.104 512.244 120.106 512.233 120.119V120.119ZM513.668 120.696C513.689 120.661 513.687 120.666 513.668 120.696V120.696ZM513.328 120.985C513.279 121.006 513.247 121.012 513.328 120.985V120.985ZM513.176 121.057L513.142 121.041C513.15 121.042 513.159 121.041 513.166 121.037L513.165 121.037L513.138 121.04L513.134 121.038L513.149 121.034C513.136 121.034 513.134 121.035 513.133 121.038C512.981 120.968 513.084 121.001 513.172 121.029L513.178 121.027C513.233 120.999 513.292 120.98 513.353 120.971C513.359 120.968 513.366 120.966 513.371 120.962C513.419 120.927 513.667 120.734 513.437 120.937C513.487 120.893 513.537 120.849 513.584 120.802C513.611 120.773 513.636 120.742 513.659 120.709C513.689 120.658 513.718 120.605 513.746 120.553L513.751 120.524C513.754 120.501 513.757 120.491 513.76 120.477C513.759 120.462 513.756 120.447 513.754 120.431C513.737 120.385 513.726 120.337 513.722 120.288L513.712 120.276C513.675 120.225 513.643 120.165 513.608 120.111C513.793 120.393 513.535 120.08 513.516 120.041C513.513 120.034 513.519 120.038 513.517 120.033C513.51 120.029 513.512 120.032 513.503 120.026C513.445 119.992 513.391 119.955 513.333 119.922C513.263 119.884 512.99 119.806 513.273 119.887C513.209 119.869 513.147 119.846 513.082 119.829C513.07 119.826 512.975 119.812 512.923 119.803C512.878 119.802 512.834 119.8 512.829 119.8C512.808 119.801 512.787 119.803 512.766 119.804C512.813 119.811 512.604 119.856 512.542 119.865C512.533 119.872 512.529 119.877 512.517 119.886C512.464 119.924 512.4 119.958 512.345 119.994C512.592 119.834 512.342 120.006 512.295 120.054C512.266 120.082 512.24 120.112 512.214 120.142C512.189 120.17 512.167 120.2 512.148 120.232C512.107 120.307 512.064 120.382 512.022 120.455L512.01 120.474C512.01 120.476 512.01 120.479 512.01 120.481C511.988 120.6 511.955 120.716 511.912 120.829C511.91 120.838 511.909 120.848 511.907 120.858C511.903 120.923 511.898 120.988 511.898 121.053L511.898 121.066C512.095 120.963 512.314 120.909 512.536 120.907C512.758 120.906 512.977 120.957 513.176 121.057Z" fill="#3895D4"/>
<path d="M513.138 121.04L513.142 121.042L513.135 121.04H513.138Z" fill="#3895D4"/>
<path d="M513.133 121.038L513.131 121.039L513.133 121.038Z" fill="#3895D4"/>
<path d="M513.13 121.038C513.126 121.04 513.13 121.04 513.131 121.04L513.13 121.038Z" fill="#3895D4"/>
<path d="M513.131 121.04L513.135 121.04C513.13 121.041 513.132 121.04 513.131 121.04Z" fill="#3895D4"/>
<path d="M526.92 160.13L566.556 162.334C566.779 162.347 566.999 162.273 567.17 162.128C567.34 161.983 567.449 161.779 567.473 161.556C567.498 161.333 567.436 161.11 567.3 160.932C567.165 160.754 566.966 160.634 566.745 160.598L526.233 154.002L526.92 160.13Z" fill="#3F3D56"/>
<path d="M476.548 248.426L461.612 223.282L450.572 228.499C450.572 228.499 469.595 252.273 470.201 252.956C469.941 254.112 470.039 255.319 470.48 256.418C470.921 257.517 471.685 258.456 472.671 259.112C473.657 259.767 474.818 260.107 476.002 260.087C477.185 260.067 478.335 259.688 479.298 259C480.262 258.312 480.994 257.348 481.398 256.235C481.802 255.122 481.859 253.912 481.561 252.766C481.262 251.62 480.624 250.591 479.729 249.816C478.834 249.041 477.724 248.556 476.548 248.426Z" fill="white"/>
<path d="M470.335 190.018L446.136 202.651C444.624 203.741 443.356 205.135 442.413 206.744C441.469 208.352 440.872 210.14 440.658 211.993C440.445 213.846 440.62 215.723 441.173 217.504C441.726 219.285 442.644 220.931 443.869 222.337L460.551 241.485L467.819 231.631L462.217 219.911L473.063 217.05L470.335 190.018Z" fill="#3895D3"/>
<path d="M539.296 160.541L542.022 189.664L554.23 189.684C554.23 189.684 547.226 160.047 546.971 159.169C547.701 158.236 548.13 157.104 548.202 155.922C548.274 154.74 547.986 153.564 547.376 152.549C546.766 151.534 545.862 150.729 544.784 150.239C543.706 149.75 542.505 149.599 541.34 149.807C540.175 150.015 539.1 150.573 538.259 151.405C537.417 152.238 536.847 153.307 536.626 154.47C536.404 155.633 536.541 156.837 537.018 157.921C537.495 159.005 538.289 159.918 539.296 160.541V160.541Z" fill="white"/>
<path d="M514.993 220.096L543.093 214.94C554.927 213.516 559.783 205.725 557.648 198.127L550.776 173.672L539.989 179.458L540.031 192.449L524.932 190.384L514.993 220.096Z" fill="#3895D3"/>
<path d="M526.495 421.358H534.222L537.897 391.537H526.493L526.495 421.358Z" fill="white"/>
<path d="M526.223 429.424L549.983 429.423V429.122C549.983 426.668 549.009 424.314 547.274 422.579C545.54 420.844 543.188 419.869 540.735 419.869H540.735L536.394 416.574L528.297 419.869L526.222 419.869L526.223 429.424Z" fill="#2F2E41"/>
<path d="M471.824 421.358H464.098L460.422 391.537H471.826L471.824 421.358Z" fill="white"/>
<path d="M472.096 429.424L448.336 429.423V429.122C448.336 426.668 449.31 424.314 451.045 422.579C452.779 420.844 455.131 419.869 457.584 419.869H457.585L461.925 416.574L470.023 419.869L472.097 419.869L472.096 429.424Z" fill="#2F2E41"/>
<path d="M538.238 369.622C538.124 367.921 537.217 358.51 537.217 358.51L535.043 338.553L531.213 285.651L527.799 271.745L510.898 278.333L497.185 271.755L480.886 276.969L468.194 281.731C468.194 281.731 468.172 283.77 468.074 286.232C467.944 289.456 467.716 293.408 467.172 294.436C466.265 296.252 466.493 305.999 466.493 305.999C466.493 305.999 465.591 325.832 464.456 328.006C463.32 330.181 463.092 334.709 463.434 335.617C463.777 336.525 462.299 360.342 462.299 360.342C462.299 360.342 458.506 402.49 460.886 408.845C463.265 415.2 472.258 411.037 472.258 411.037C472.258 411.037 471.823 409.341 474.431 408.542C477.039 407.743 484.982 347.98 484.982 347.98C484.982 347.98 486.46 335.726 487.818 332.214C489.177 328.702 490.426 318.835 490.426 318.835C490.426 318.835 498.815 302.504 498.924 298.872C498.924 298.872 500.021 295.474 501.059 299.215C502.097 302.955 505.156 311.914 505.156 311.914L508.138 322.918L511.648 339.357L513.919 353.199C513.919 353.199 517.32 371.569 517.864 372.362C518.407 373.156 517.864 389.938 517.864 389.938C517.864 389.938 520.493 404.231 524.21 406.726C527.926 409.222 537.772 406.766 537.772 406.766C537.772 406.766 538.352 371.324 538.238 369.622Z" fill="#2F2E41"/>
<path d="M525.604 227.002L527.763 254.994L531.008 258.354C531.301 258.657 531.529 259.016 531.68 259.409C531.83 259.803 531.9 260.223 531.885 260.644C531.869 261.064 531.769 261.478 531.591 261.859C531.412 262.241 531.158 262.582 530.844 262.863L532.632 265.93L533.264 275.594C533.445 276.346 533.457 277.129 533.301 277.886C533.144 278.643 532.822 279.357 532.358 279.975C531.894 280.594 531.299 281.102 530.616 281.464C529.933 281.825 529.178 282.032 528.406 282.068L472.459 284.698C471.691 284.734 470.925 284.601 470.214 284.309C469.503 284.016 468.866 283.571 468.346 283.004C467.826 282.438 467.437 281.764 467.206 281.031C466.975 280.297 466.907 279.522 467.009 278.76L471.766 242.923V240.244L473.896 235.069L472.801 217.733L470.255 190.217L485.055 186.392L493.08 180.867L507.022 181.09L515.481 188.041L526.76 189.809L535.29 191.506L536.377 193.868L534.204 193.396L526.327 224.138L525.604 227.002Z" fill="#3895D3"/>
<path d="M500.362 177.116C491.292 177.116 483.939 169.759 483.939 160.683C483.939 151.607 491.292 144.25 500.362 144.25C509.432 144.25 516.785 151.607 516.785 160.683C516.785 169.759 509.432 177.116 500.362 177.116Z" fill="white"/>
<path d="M504.322 176.056L492.456 175.451C490.935 175.373 489.276 175.239 488.17 174.192C487.575 173.545 487.118 172.785 486.825 171.956C485.728 169.406 484.631 166.857 483.562 164.295C482.084 160.752 480.631 157.011 481.009 153.19C481.097 151.445 481.829 149.795 483.062 148.558C483.691 147.961 484.5 147.591 485.362 147.503C486.224 147.416 487.091 147.617 487.827 148.074C488.01 146.866 488.465 145.715 489.158 144.708C489.851 143.701 490.763 142.865 491.827 142.264C493.974 141.077 496.426 140.556 498.87 140.769C502.416 140.998 505.802 142.333 508.55 144.587C509.323 145.301 510.149 145.955 511.02 146.545C511.458 146.838 511.951 147.039 512.47 147.135C512.988 147.231 513.52 147.22 514.034 147.103C514.543 146.967 514.986 146.651 515.28 146.214C515.574 145.777 515.701 145.247 515.635 144.724C516.471 145.35 517.044 146.264 517.243 147.289C517.441 148.314 517.251 149.376 516.709 150.268C517.325 150.527 517.997 150.621 518.66 150.543C519.324 150.464 519.955 150.215 520.494 149.82C521.071 150.107 521.582 150.511 521.994 151.007C522.406 151.502 522.71 152.078 522.887 152.698C523.064 153.318 523.109 153.969 523.02 154.607C522.931 155.246 522.71 155.859 522.371 156.407C522.031 156.955 521.581 157.426 521.049 157.79C520.518 158.154 519.916 158.403 519.282 158.52C518.649 158.638 517.998 158.622 517.371 158.474C516.744 158.325 516.155 158.047 515.641 157.658C514.921 158.667 515.189 160.039 515.283 161.275C515.377 162.512 515.045 164.049 513.854 164.39C512.243 164.852 510.939 162.682 509.263 162.705C508.85 162.739 508.452 162.874 508.103 163.099C507.755 163.324 507.467 163.631 507.265 163.994C506.871 164.722 506.6 165.512 506.466 166.33L504.321 175.989" fill="#2F2E41"/>
<path d="M41.6628 323.817C41.6628 321.272 42.5168 319.207 43.5654 319.203H329.428C330.481 319.207 331.331 321.272 331.336 323.817V428.569C331.335 428.806 331.423 429.033 331.582 429.208C331.741 429.383 331.959 429.493 332.194 429.516C332.961 429.59 333.728 429.658 334.495 429.722C334.514 429.722 334.533 429.726 334.552 429.726C334.97 429.764 335.387 429.793 335.805 429.826H335.81C336.025 429.429 336.237 429.028 336.447 428.624C336.518 428.487 336.555 428.336 336.555 428.183V317.83C336.555 317.128 336.526 316.42 336.479 315.723C336.411 314.764 336.292 313.81 336.123 312.864C335.321 308.454 333.509 305.468 331.449 305.458H41.5489C41.2484 305.46 40.9514 305.523 40.6759 305.643C40.2713 305.823 39.9054 306.079 39.5988 306.398C39.1827 306.831 38.8268 307.318 38.5408 307.846C37.3595 310.202 36.6793 312.777 36.5432 315.409C36.5432 315.438 36.5386 315.466 36.5386 315.495C36.4721 316.264 36.4389 317.047 36.4437 317.83L36.3772 328.005L36.3345 334.072L36.2064 353.11L36.159 359.87L35.9502 429.28C35.9502 429.532 36.0502 429.773 36.2281 429.952C36.4061 430.13 36.6475 430.23 36.8991 430.23H40.7138C40.9655 430.23 41.2068 430.13 41.3848 429.952C41.5628 429.773 41.6628 429.532 41.6628 429.28V323.817Z" fill="#3895D4"/>
<path d="M119.341 257.851H150.143C150.579 257.852 150.997 258.026 151.304 258.335C151.612 258.643 151.785 259.062 151.784 259.498V308.186H117.696V259.498C117.696 259.281 117.738 259.067 117.821 258.868C117.903 258.668 118.025 258.486 118.177 258.333C118.33 258.18 118.512 258.059 118.711 257.977C118.911 257.894 119.125 257.851 119.341 257.851ZM134.639 285.516C135.602 285.511 136.524 285.126 137.205 284.445C137.887 283.763 138.271 282.84 138.276 281.876V276.26C138.276 275.295 137.893 274.369 137.21 273.687C136.528 273.004 135.603 272.621 134.639 272.621C133.674 272.621 132.749 273.004 132.067 273.687C131.385 274.369 131.001 275.295 131.001 276.26V281.876C131.006 282.84 131.39 283.763 132.072 284.445C132.753 285.126 133.675 285.511 134.639 285.516Z" fill="#306CB3"/>
<path d="M151.89 306.629V311.326C151.889 311.569 151.792 311.803 151.62 311.975C151.448 312.147 151.215 312.244 150.972 312.244H118.508C118.264 312.243 118.032 312.146 117.86 311.974C117.688 311.802 117.591 311.569 117.59 311.326V306.629H151.89Z" fill="#3F3D56"/>
<path d="M68.3347 181.868H200.002C201.133 181.87 202.218 182.32 203.018 183.121C203.818 183.921 204.268 185.006 204.27 186.138V275.042C204.268 276.174 203.818 277.26 203.018 278.06C202.218 278.861 201.134 279.311 200.002 279.312H68.3347C67.2032 279.311 66.1184 278.861 65.3184 278.06C64.5183 277.26 64.0684 276.174 64.0673 275.042V186.138C64.0691 185.006 64.5193 183.921 65.3192 183.121C66.1191 182.32 67.2034 181.87 68.3347 181.868Z" fill="#3895D4"/>
<path d="M69.4341 184.952H198.902C199.508 184.954 200.089 185.195 200.516 185.624C200.944 186.053 201.185 186.634 201.185 187.241V273.941C201.184 274.546 200.943 275.127 200.515 275.555C200.087 275.983 199.507 276.224 198.902 276.225H69.4341C68.8291 276.224 68.2493 275.983 67.8215 275.555C67.3937 275.127 67.1529 274.546 67.1519 273.941V187.241C67.1519 186.634 67.3922 186.053 67.8201 185.624C68.2479 185.195 68.8284 184.954 69.4341 184.952Z" fill="#A1C2E9"/>
<path d="M94.6521 313.879H171.679C171.89 313.879 172.098 313.832 172.288 313.741C172.478 313.65 172.646 313.518 172.779 313.354C172.912 313.191 173.007 312.999 173.056 312.794C173.106 312.589 173.109 312.375 173.065 312.169L171.87 306.489C171.802 306.171 171.627 305.886 171.375 305.682C171.123 305.477 170.809 305.364 170.484 305.363H95.8471C95.5224 305.364 95.2078 305.477 94.9556 305.682C94.7034 305.886 94.5288 306.171 94.4608 306.489L93.2656 312.169C93.2222 312.375 93.2253 312.589 93.2748 312.794C93.3243 312.999 93.419 313.191 93.5519 313.354C93.6847 313.518 93.8524 313.65 94.0428 313.741C94.2331 313.832 94.4413 313.879 94.6521 313.879Z" fill="#306CB3"/>
<path d="M167.98 306.386H169.52C169.75 306.386 169.937 306.573 169.937 306.802V307.394C169.937 307.624 169.75 307.81 169.52 307.81H167.98C167.75 307.81 167.564 307.624 167.564 307.394V306.802C167.564 306.573 167.75 306.386 167.98 306.386Z" fill="#3895D4"/>
<path d="M163.236 306.386H164.776C165.006 306.386 165.192 306.573 165.192 306.802V307.394C165.192 307.624 165.006 307.81 164.776 307.81H163.236C163.006 307.81 162.82 307.624 162.82 307.394V306.802C162.82 306.573 163.006 306.386 163.236 306.386Z" fill="#3895D4"/>
<path d="M158.491 306.386H160.031C160.261 306.386 160.447 306.573 160.447 306.802V307.394C160.447 307.624 160.261 307.81 160.031 307.81H158.491C158.261 307.81 158.075 307.624 158.075 307.394V306.802C158.075 306.573 158.261 306.386 158.491 306.386Z" fill="#3895D4"/>
<path d="M153.747 306.386H155.287C155.517 306.386 155.703 306.573 155.703 306.802V307.394C155.703 307.624 155.517 307.81 155.287 307.81H153.747C153.517 307.81 153.331 307.624 153.331 307.394V306.802C153.331 306.573 153.517 306.386 153.747 306.386Z" fill="#3895D4"/>
<path d="M149.002 306.386H150.542C150.772 306.386 150.958 306.573 150.958 306.802V307.394C150.958 307.624 150.772 307.81 150.542 307.81H149.002C148.772 307.81 148.586 307.624 148.586 307.394V306.802C148.586 306.573 148.772 306.386 149.002 306.386Z" fill="#3895D4"/>
<path d="M144.258 306.386H145.798C146.028 306.386 146.214 306.573 146.214 306.802V307.394C146.214 307.624 146.028 307.81 145.798 307.81H144.258C144.028 307.81 143.842 307.624 143.842 307.394V306.802C143.842 306.573 144.028 306.386 144.258 306.386Z" fill="#3895D4"/>
<path d="M139.513 306.386H141.053C141.282 306.386 141.469 306.573 141.469 306.802V307.394C141.469 307.624 141.282 307.81 141.053 307.81H139.513C139.283 307.81 139.096 307.624 139.096 307.394V306.802C139.096 306.573 139.283 306.386 139.513 306.386Z" fill="#3895D4"/>
<path d="M134.767 306.386H136.308C136.537 306.386 136.724 306.573 136.724 306.802V307.394C136.724 307.624 136.537 307.81 136.308 307.81H134.767C134.538 307.81 134.351 307.624 134.351 307.394V306.802C134.351 306.573 134.538 306.386 134.767 306.386Z" fill="#3895D4"/>
<path d="M130.023 306.386H131.563C131.793 306.386 131.979 306.573 131.979 306.802V307.394C131.979 307.624 131.793 307.81 131.563 307.81H130.023C129.793 307.81 129.607 307.624 129.607 307.394V306.802C129.607 306.573 129.793 306.386 130.023 306.386Z" fill="#3895D4"/>
<path d="M125.278 306.386H126.818C127.048 306.386 127.234 306.573 127.234 306.802V307.394C127.234 307.624 127.048 307.81 126.818 307.81H125.278C125.048 307.81 124.862 307.624 124.862 307.394V306.802C124.862 306.573 125.048 306.386 125.278 306.386Z" fill="#3895D4"/>
<path d="M120.534 306.386H122.074C122.304 306.386 122.49 306.573 122.49 306.802V307.394C122.49 307.624 122.304 307.81 122.074 307.81H120.534C120.304 307.81 120.118 307.624 120.118 307.394V306.802C120.118 306.573 120.304 306.386 120.534 306.386Z" fill="#3895D4"/>
<path d="M115.789 306.386H117.329C117.559 306.386 117.745 306.573 117.745 306.802V307.394C117.745 307.624 117.559 307.81 117.329 307.81H115.789C115.559 307.81 115.373 307.624 115.373 307.394V306.802C115.373 306.573 115.559 306.386 115.789 306.386Z" fill="#3895D4"/>
<path d="M111.045 306.386H112.585C112.815 306.386 113.001 306.573 113.001 306.802V307.394C113.001 307.624 112.815 307.81 112.585 307.81H111.045C110.815 307.81 110.629 307.624 110.629 307.394V306.802C110.629 306.573 110.815 306.386 111.045 306.386Z" fill="#3895D4"/>
<path d="M106.3 306.386H107.84C108.07 306.386 108.256 306.573 108.256 306.802V307.394C108.256 307.624 108.07 307.81 107.84 307.81H106.3C106.07 307.81 105.883 307.624 105.883 307.394V306.802C105.883 306.573 106.07 306.386 106.3 306.386Z" fill="#3895D4"/>
<path d="M101.556 306.386H103.096C103.325 306.386 103.512 306.573 103.512 306.802V307.394C103.512 307.624 103.325 307.81 103.096 307.81H101.556C101.326 307.81 101.139 307.624 101.139 307.394V306.802C101.139 306.573 101.326 306.386 101.556 306.386Z" fill="#3895D4"/>
<path d="M96.8104 306.386H98.3504C98.5803 306.386 98.7666 306.573 98.7666 306.802V307.394C98.7666 307.624 98.5803 307.81 98.3504 307.81H96.8104C96.5806 307.81 96.3942 307.624 96.3942 307.394V306.802C96.3942 306.573 96.5806 306.386 96.8104 306.386Z" fill="#3895D4"/>
<path d="M168.037 308.76H169.577C169.807 308.76 169.993 308.946 169.993 309.176V309.768C169.993 309.998 169.807 310.184 169.577 310.184H168.037C167.807 310.184 167.621 309.998 167.621 309.768V309.176C167.621 308.946 167.807 308.76 168.037 308.76Z" fill="#3895D4"/>
<path d="M163.292 308.76H164.832C165.062 308.76 165.248 308.946 165.248 309.176V309.768C165.248 309.998 165.062 310.184 164.832 310.184H163.292C163.062 310.184 162.876 309.998 162.876 309.768V309.176C162.876 308.946 163.062 308.76 163.292 308.76Z" fill="#3895D4"/>
<path d="M158.548 308.76H160.088C160.318 308.76 160.504 308.946 160.504 309.176V309.768C160.504 309.998 160.318 310.184 160.088 310.184H158.548C158.318 310.184 158.132 309.998 158.132 309.768V309.176C158.132 308.946 158.318 308.76 158.548 308.76Z" fill="#3895D4"/>
<path d="M153.803 308.76H155.343C155.572 308.76 155.759 308.946 155.759 309.176V309.768C155.759 309.998 155.572 310.184 155.343 310.184H153.803C153.573 310.184 153.386 309.998 153.386 309.768V309.176C153.386 308.946 153.573 308.76 153.803 308.76Z" fill="#3895D4"/>
<path d="M149.058 308.76H150.598C150.828 308.76 151.015 308.946 151.015 309.176V309.768C151.015 309.998 150.828 310.184 150.598 310.184H149.058C148.829 310.184 148.642 309.998 148.642 309.768V309.176C148.642 308.946 148.829 308.76 149.058 308.76Z" fill="#3895D4"/>
<path d="M144.313 308.76H145.853C146.083 308.76 146.27 308.946 146.27 309.176V309.768C146.27 309.998 146.083 310.184 145.853 310.184H144.313C144.084 310.184 143.897 309.998 143.897 309.768V309.176C143.897 308.946 144.084 308.76 144.313 308.76Z" fill="#3895D4"/>
<path d="M139.568 308.76H141.108C141.338 308.76 141.524 308.946 141.524 309.176V309.768C141.524 309.998 141.338 310.184 141.108 310.184H139.568C139.338 310.184 139.152 309.998 139.152 309.768V309.176C139.152 308.946 139.338 308.76 139.568 308.76Z" fill="#3895D4"/>
<path d="M134.824 308.76H136.364C136.594 308.76 136.78 308.946 136.78 309.176V309.768C136.78 309.998 136.594 310.184 136.364 310.184H134.824C134.594 310.184 134.408 309.998 134.408 309.768V309.176C134.408 308.946 134.594 308.76 134.824 308.76Z" fill="#3895D4"/>
<path d="M130.079 308.76H131.619C131.849 308.76 132.035 308.946 132.035 309.176V309.768C132.035 309.998 131.849 310.184 131.619 310.184H130.079C129.849 310.184 129.663 309.998 129.663 309.768V309.176C129.663 308.946 129.849 308.76 130.079 308.76Z" fill="#3895D4"/>
<path d="M125.335 308.76H126.875C127.105 308.76 127.291 308.946 127.291 309.176V309.768C127.291 309.998 127.105 310.184 126.875 310.184H125.335C125.105 310.184 124.919 309.998 124.919 309.768V309.176C124.919 308.946 125.105 308.76 125.335 308.76Z" fill="#3895D4"/>
<path d="M120.59 308.76H122.13C122.36 308.76 122.546 308.946 122.546 309.176V309.768C122.546 309.998 122.36 310.184 122.13 310.184H120.59C120.36 310.184 120.174 309.998 120.174 309.768V309.176C120.174 308.946 120.36 308.76 120.59 308.76Z" fill="#3895D4"/>
<path d="M115.846 308.76H117.386C117.615 308.76 117.802 308.946 117.802 309.176V309.768C117.802 309.998 117.615 310.184 117.386 310.184H115.846C115.616 310.184 115.429 309.998 115.429 309.768V309.176C115.429 308.946 115.616 308.76 115.846 308.76Z" fill="#3895D4"/>
<path d="M111.1 308.76H112.641C112.87 308.76 113.057 308.946 113.057 309.176V309.768C113.057 309.998 112.87 310.184 112.641 310.184H111.1C110.871 310.184 110.684 309.998 110.684 309.768V309.176C110.684 308.946 110.871 308.76 111.1 308.76Z" fill="#3895D4"/>
<path d="M106.355 308.76H107.895C108.125 308.76 108.312 308.946 108.312 309.176V309.768C108.312 309.998 108.125 310.184 107.895 310.184H106.355C106.125 310.184 105.939 309.998 105.939 309.768V309.176C105.939 308.946 106.125 308.76 106.355 308.76Z" fill="#3895D4"/>
<path d="M101.611 308.76H103.151C103.381 308.76 103.567 308.946 103.567 309.176V309.768C103.567 309.998 103.381 310.184 103.151 310.184H101.611C101.381 310.184 101.195 309.998 101.195 309.768V309.176C101.195 308.946 101.381 308.76 101.611 308.76Z" fill="#3895D4"/>
<path d="M96.8661 308.76H98.4061C98.636 308.76 98.8223 308.946 98.8223 309.176V309.768C98.8223 309.998 98.636 310.184 98.4061 310.184H96.8661C96.6362 310.184 96.4499 309.998 96.4499 309.768V309.176C96.4499 308.946 96.6362 308.76 96.8661 308.76Z" fill="#3895D4"/>
<path d="M128.656 311.608H146.803C147.032 311.608 147.219 311.795 147.219 312.025V312.616C147.219 312.846 147.032 313.033 146.803 313.033H128.656C128.426 313.033 128.24 312.846 128.24 312.616V312.025C128.24 311.795 128.426 311.608 128.656 311.608Z" fill="#3895D4"/>
<path d="M75.9425 196.898H197.086C197.211 196.895 197.331 196.843 197.419 196.753C197.507 196.663 197.557 196.542 197.557 196.416C197.557 196.29 197.507 196.169 197.419 196.078C197.331 195.988 197.211 195.936 197.086 195.934H75.9425C75.8166 195.936 75.6968 195.988 75.6087 196.078C75.5207 196.169 75.4713 196.29 75.4713 196.416C75.4713 196.542 75.5207 196.663 75.6087 196.753C75.6968 196.843 75.8166 196.895 75.9425 196.898Z" fill="#011025"/>
<path d="M188.839 193.472C187.28 193.472 186.016 192.179 186.016 190.584C186.016 188.989 187.28 187.696 188.839 187.696C190.398 187.696 191.662 188.989 191.662 190.584C191.662 192.179 190.398 193.472 188.839 193.472Z" fill="#306CB3"/>
<path d="M179.086 193.472C177.527 193.472 176.263 192.179 176.263 190.584C176.263 188.989 177.527 187.696 179.086 187.696C180.645 187.696 181.909 188.989 181.909 190.584C181.909 192.179 180.645 193.472 179.086 193.472Z" fill="#306CB3"/>
<path d="M169.332 193.472C167.773 193.472 166.509 192.179 166.509 190.584C166.509 188.989 167.773 187.696 169.332 187.696C170.891 187.696 172.155 188.989 172.155 190.584C172.155 192.179 170.891 193.472 169.332 193.472Z" fill="#306CB3"/>
<path d="M81.8143 188.412H88.7425C88.8799 188.415 89.0106 188.471 89.1068 188.569C89.2029 188.668 89.2568 188.8 89.2568 188.937C89.2568 189.074 89.2029 189.206 89.1068 189.305C89.0106 189.403 88.8799 189.459 88.7425 189.462H81.8143C81.677 189.459 81.5462 189.403 81.45 189.305C81.3539 189.206 81.3 189.074 81.3 188.937C81.3 188.8 81.3539 188.668 81.45 188.569C81.5462 188.471 81.677 188.415 81.8143 188.412H81.8143Z" fill="#306CB3"/>
<path d="M81.8145 190.382H88.7427C88.88 190.385 89.0108 190.442 89.1069 190.54C89.203 190.638 89.2568 190.77 89.2568 190.907C89.2568 191.045 89.203 191.177 89.1069 191.275C89.0108 191.373 88.88 191.43 88.7427 191.432H81.8145C81.6772 191.43 81.5465 191.373 81.4504 191.275C81.3543 191.177 81.3004 191.045 81.3004 190.907C81.3004 190.77 81.3543 190.638 81.4504 190.54C81.5465 190.442 81.6772 190.385 81.8145 190.382H81.8145Z" fill="#306CB3"/>
<path d="M81.8143 192.35H88.7425C88.8799 192.353 89.0106 192.409 89.1068 192.508C89.2029 192.606 89.2568 192.738 89.2568 192.875C89.2568 193.013 89.2029 193.145 89.1068 193.243C89.0106 193.341 88.8799 193.397 88.7425 193.4H81.8143C81.677 193.397 81.5462 193.341 81.45 193.243C81.3539 193.145 81.3 193.013 81.3 192.875C81.3 192.738 81.3539 192.606 81.45 192.508C81.5462 192.409 81.677 192.353 81.8143 192.35H81.8143Z" fill="#306CB3"/>
<path d="M126.733 223.16H141.87C143.007 223.16 143.929 224.083 143.929 225.22C143.929 226.358 143.007 227.28 141.87 227.28H126.733C125.596 227.28 124.674 226.358 124.674 225.22C124.674 224.083 125.596 223.16 126.733 223.16Z" fill="#3895D3"/>
<path d="M116.954 231.4H151.649C152.786 231.4 153.708 232.322 153.708 233.46C153.708 234.598 152.786 235.52 151.649 235.52H116.954C115.817 235.52 114.895 234.598 114.895 233.46C114.895 232.322 115.817 231.4 116.954 231.4Z" fill="#3895D4"/>
<path d="M116.954 239.64H151.649C152.786 239.64 153.708 240.562 153.708 241.7C153.708 242.838 152.786 243.76 151.649 243.76H116.954C115.817 243.76 114.895 242.838 114.895 241.7C114.895 240.562 115.817 239.64 116.954 239.64Z" fill="#3895D4"/>
<path d="M350.701 368.009L357.679 364.669L348.093 335.483L337.794 340.412L350.701 368.009Z" fill="white"/>
<path d="M303.917 363.304C304.424 363.622 304.931 363.935 305.444 364.248C306.464 364.873 307.494 365.489 308.525 366.094C309.042 366.397 309.565 366.699 310.083 366.997V367.012L310.114 367.017L310.124 367.022L310.913 367.217L312.046 364.222L312.569 362.842L313.307 360.888L314.66 357.313L321.785 338.49L310.708 335.756L310.293 337.454H310.288L310.083 338.295L306.213 354L305.424 357.211L305.398 357.308L304.921 359.226L304.511 360.888L304.055 362.745L303.917 363.304Z" fill="white"/>
<path d="M237.838 297.201C238.541 298.329 239.258 299.452 239.981 300.565C241.324 302.638 242.703 304.679 244.118 306.689C244.118 306.695 244.123 306.695 244.128 306.7C244.953 307.465 245.865 308.131 246.844 308.685C246.885 308.715 246.932 308.736 246.973 308.761C247.694 309.16 248.462 309.469 249.259 309.68C249.546 309.751 249.838 309.823 250.125 309.895C251.16 310.141 252.186 310.351 253.206 310.536C255.02 310.859 256.814 311.09 258.598 311.234C258.742 311.249 258.885 311.259 259.029 311.27C266.364 311.808 273.504 310.941 280.957 309.521C284.637 308.823 288.394 307.987 292.285 307.12C293.556 306.833 294.832 306.551 296.124 306.269C296.222 306.248 296.324 306.223 296.427 306.202C298.272 305.797 300.148 305.397 302.07 305.002C304.49 304.504 306.986 304.022 309.579 303.566L309.395 307.223C309.241 310.036 308.657 312.809 307.662 315.444C306.555 318.686 305.679 321.25 307.529 326.59L308.421 329.175C307.959 330.458 307.8 331.832 307.957 333.187C308.115 334.542 308.584 335.843 309.328 336.986L309.508 337.258L302.07 356.086L301.588 357.307H305.397L310.082 357.312H318.022L329.478 334.314L330.026 333.216V333.16L328.842 288.964C328.827 288.574 328.796 288.179 328.745 287.789C328.536 286.017 327.977 284.304 327.099 282.751C326.222 281.198 325.044 279.835 323.634 278.742C322.284 277.685 320.737 276.909 319.083 276.456C317.43 276.003 315.703 275.884 314.003 276.105L310.082 276.613L302.07 277.649L296.427 278.383L296.314 278.398L279.67 280.552L278.476 275.68L278.256 275.598L271.249 273.028L247.014 264.14L246.952 264.119L245.358 263.534L245.168 263.842C245.112 263.934 245.056 264.027 245.004 264.119C243.429 266.945 242.146 269.925 241.175 273.013C239.544 278.056 238.2 283.188 237.152 288.384C237.105 288.61 237.064 288.815 237.029 289L237.013 289.056C236.998 289.143 236.988 289.2 236.982 289.215C236.502 291.904 236.799 294.675 237.838 297.201Z" fill="#2F2E41"/>
<path d="M236.815 280.913C236.892 280.585 236.989 280.252 237.092 279.928C237.906 277.481 238.854 275.081 239.932 272.738C241.141 270.071 242.592 267.214 244.319 264.121C245.155 262.623 246.054 261.066 247.016 259.449C247.497 258.638 247.998 257.812 248.517 256.971C248.538 256.933 248.56 256.895 248.584 256.858L248.733 256.612L272.711 259.823L281.64 261.018L282.174 265.47L282.302 266.573C282.307 266.573 282.307 266.573 282.302 266.578L282.661 269.583V269.589L283.137 273.558L283.178 273.553L296.428 271.835L310.084 270.066L317.419 269.117C319.119 268.895 320.846 269.014 322.499 269.467C324.153 269.919 325.7 270.696 327.05 271.753C328.459 272.846 329.637 274.209 330.514 275.763C331.392 277.316 331.951 279.029 332.161 280.8C332.207 281.16 332.237 281.529 332.253 281.893L339.173 298.3C343.313 308.113 345.951 318.495 346.995 329.095L352.069 345.328L351.347 345.395L340.593 346.395L337.753 346.661L331.499 337.527C330.787 336.486 330.11 335.414 329.48 334.316C328.442 332.523 327.519 330.666 326.717 328.756L313.19 296.546C312.144 296.726 311.109 296.897 310.084 297.059C305.342 297.829 300.791 298.456 296.428 298.942C282.245 300.526 269.964 300.65 259.031 299.306C255.96 298.931 252.992 298.439 250.127 297.829C249.076 297.608 248.039 297.37 247.016 297.116C246.775 297.059 246.539 297.003 246.303 296.941C244.185 296.395 242.237 295.325 240.639 293.83C239.04 292.336 237.842 290.464 237.153 288.386C236.332 285.978 236.214 283.386 236.815 280.913Z" fill="#2F2E41"/>
<path d="M348.471 363.243L356.021 359.622L357.205 359.053L359.096 363.7L372.3 366.608C372.953 366.751 373.543 367.099 373.984 367.602C374.425 368.105 374.694 368.735 374.751 369.402C374.808 370.068 374.651 370.735 374.303 371.306C373.954 371.876 373.432 372.32 372.813 372.573L359.911 377.84L355.816 374.153L356.82 379.102L351.961 381.087L346.635 364.125L348.471 363.243Z" fill="#2F2E41"/>
<path d="M302.07 356.087L301.588 357.307H302.07V356.087Z" fill="#2F2E41"/>
<path d="M304.699 357.568L312.611 360.311L313.853 360.74L311.929 365.373L319.266 376.736C319.63 377.298 319.804 377.961 319.764 378.628C319.724 379.296 319.471 379.933 319.043 380.447C318.616 380.961 318.035 381.324 317.386 381.484C316.737 381.644 316.054 381.592 315.436 381.336L302.565 375.995L302.248 370.491L299.481 374.716L294.632 372.705L302.775 356.903L304.699 357.568Z" fill="#2F2E41"/>
<path d="M352.717 187.865C352.342 188.596 351.811 189.236 351.162 189.74C350.513 190.244 349.762 190.599 348.96 190.781C348.159 190.962 347.328 190.966 346.525 190.792C345.723 190.617 344.968 190.269 344.314 189.771L327.678 200.821L327.647 190.439L343.449 181.537C344.358 180.493 345.618 179.82 346.989 179.644C348.361 179.468 349.75 179.802 350.892 180.582C352.035 181.362 352.851 182.534 353.188 183.876C353.524 185.219 353.357 186.638 352.717 187.865V187.865Z" fill="white"/>
<path d="M340.289 192.664L332.527 183.828L300.924 202.602L259.03 198.763C256.959 198.573 254.872 198.842 252.916 199.55C250.961 200.258 249.185 201.388 247.716 202.86C246.246 204.332 245.118 206.11 244.412 208.067C243.707 210.024 243.44 212.113 243.632 214.185C243.982 217.927 245.801 221.377 248.691 223.778C251.58 226.179 255.303 227.336 259.044 226.993L306.226 222.623L340.289 192.664Z" fill="#306CB3"/>
<path d="M243.054 192.8L243.127 192.709C249.02 192.127 254.956 193.268 260.214 195.994C265.472 198.72 269.827 202.914 272.751 208.068L276.306 214.334C287.807 228.403 279.45 238.104 278.95 239.547L282.941 257.964L282.047 264.127L281.6 265.958L236.033 289.782C233.439 277.31 235.947 266.682 245.399 258.563L236.254 230.092C234.227 223.797 233.787 217.098 234.973 210.592C236.159 204.085 238.935 197.973 243.054 192.8Z" fill="#306CB3"/>
<path d="M279.284 331.114H293.9C294.704 331.114 295.481 330.823 296.088 330.295C296.695 329.768 297.091 329.039 297.204 328.242C298.106 321.597 298.106 314.86 297.204 308.215C297.092 307.428 296.704 306.707 296.109 306.181C295.514 305.654 294.751 305.358 293.957 305.344C289.358 303.281 284.405 303.281 279.234 305.343C278.752 305.35 278.278 305.462 277.844 305.671C277.41 305.88 277.028 306.182 276.723 306.555C276.405 306.943 276.177 307.397 276.057 307.885C275.936 308.372 275.926 308.88 276.026 309.371C277.2 315.218 277.2 321.24 276.026 327.086C275.926 327.578 275.936 328.086 276.057 328.573C276.177 329.06 276.405 329.514 276.723 329.902C277.033 330.282 277.424 330.588 277.867 330.797C278.31 331.007 278.794 331.115 279.284 331.114Z" fill="#3895D3"/>
<path d="M280.815 312.979H293.117C293.218 312.98 293.319 312.961 293.413 312.922C293.507 312.884 293.593 312.828 293.665 312.756C293.737 312.684 293.794 312.599 293.833 312.506C293.872 312.412 293.893 312.311 293.893 312.21C293.893 312.108 293.872 312.007 293.833 311.914C293.794 311.82 293.737 311.735 293.665 311.663C293.593 311.592 293.507 311.535 293.413 311.497C293.319 311.459 293.218 311.439 293.117 311.44H280.815C280.713 311.439 280.613 311.459 280.519 311.497C280.425 311.535 280.339 311.592 280.267 311.663C280.195 311.735 280.137 311.82 280.098 311.914C280.059 312.007 280.039 312.108 280.039 312.21C280.039 312.311 280.059 312.412 280.098 312.506C280.137 312.599 280.195 312.684 280.267 312.756C280.339 312.828 280.425 312.884 280.519 312.922C280.613 312.961 280.713 312.98 280.815 312.979Z" fill="white"/>
<path d="M280.815 319.134H293.117C293.218 319.134 293.319 319.115 293.413 319.077C293.507 319.039 293.593 318.982 293.665 318.911C293.737 318.839 293.794 318.754 293.833 318.66C293.872 318.566 293.893 318.466 293.893 318.364C293.893 318.263 293.872 318.162 293.833 318.068C293.794 317.974 293.737 317.889 293.665 317.818C293.593 317.746 293.507 317.69 293.413 317.652C293.319 317.613 293.218 317.594 293.117 317.595H280.815C280.713 317.594 280.613 317.613 280.519 317.652C280.425 317.69 280.339 317.746 280.267 317.818C280.195 317.889 280.137 317.974 280.098 318.068C280.059 318.162 280.039 318.263 280.039 318.364C280.039 318.466 280.059 318.566 280.098 318.66C280.137 318.754 280.195 318.839 280.267 318.911C280.339 318.982 280.425 319.039 280.519 319.077C280.613 319.115 280.713 319.134 280.815 319.134Z" fill="white"/>
<path d="M280.815 325.288H293.117C293.219 325.289 293.32 325.27 293.414 325.232C293.508 325.194 293.594 325.137 293.666 325.066C293.738 324.994 293.795 324.909 293.834 324.815C293.873 324.721 293.894 324.621 293.894 324.519C293.894 324.417 293.873 324.317 293.834 324.223C293.795 324.129 293.738 324.044 293.666 323.972C293.594 323.901 293.508 323.844 293.414 323.806C293.32 323.768 293.219 323.749 293.117 323.75H280.815C280.714 323.749 280.613 323.768 280.519 323.806C280.425 323.844 280.339 323.901 280.267 323.972C280.195 324.044 280.138 324.129 280.099 324.223C280.059 324.317 280.039 324.417 280.039 324.519C280.039 324.621 280.059 324.721 280.099 324.815C280.138 324.909 280.195 324.994 280.267 325.066C280.339 325.137 280.425 325.194 280.519 325.232C280.613 325.27 280.714 325.289 280.815 325.288Z" fill="white"/>
<path d="M350.037 192.934H364.653C365.457 192.933 366.234 192.642 366.841 192.115C367.448 191.587 367.844 190.858 367.957 190.062C368.859 183.417 368.859 176.68 367.957 170.035C367.845 169.248 367.457 168.526 366.862 168C366.267 167.474 365.504 167.177 364.709 167.163C360.111 165.101 355.158 165.101 349.987 167.163C349.505 167.169 349.031 167.281 348.597 167.49C348.163 167.7 347.781 168.002 347.476 168.375C347.158 168.763 346.93 169.217 346.81 169.704C346.689 170.191 346.679 170.699 346.779 171.191C347.953 177.037 347.953 183.059 346.779 188.906C346.679 189.397 346.689 189.905 346.81 190.392C346.93 190.879 347.158 191.334 347.476 191.722C347.786 192.101 348.177 192.407 348.62 192.617C349.063 192.827 349.547 192.935 350.037 192.934Z" fill="#58CCED"/>
<path d="M351.568 174.798H363.87C363.971 174.799 364.072 174.78 364.166 174.742C364.26 174.704 364.346 174.647 364.418 174.576C364.49 174.504 364.547 174.419 364.586 174.325C364.625 174.231 364.646 174.131 364.646 174.029C364.646 173.928 364.625 173.827 364.586 173.733C364.547 173.639 364.49 173.554 364.418 173.483C364.346 173.411 364.26 173.355 364.166 173.316C364.072 173.278 363.971 173.259 363.87 173.26H351.568C351.466 173.259 351.366 173.278 351.272 173.316C351.177 173.355 351.092 173.411 351.02 173.483C350.948 173.554 350.89 173.639 350.851 173.733C350.812 173.827 350.792 173.928 350.792 174.029C350.792 174.131 350.812 174.231 350.851 174.325C350.89 174.419 350.948 174.504 351.02 174.576C351.092 174.647 351.177 174.704 351.272 174.742C351.366 174.78 351.466 174.799 351.568 174.798Z" fill="white"/>
<path d="M351.568 180.953H363.87C363.971 180.954 364.072 180.935 364.166 180.897C364.26 180.858 364.346 180.802 364.418 180.73C364.49 180.659 364.547 180.574 364.586 180.48C364.625 180.386 364.646 180.285 364.646 180.184C364.646 180.082 364.625 179.982 364.586 179.888C364.547 179.794 364.49 179.709 364.418 179.637C364.346 179.566 364.26 179.509 364.166 179.471C364.072 179.433 363.971 179.414 363.87 179.414H351.568C351.466 179.414 351.366 179.433 351.272 179.471C351.177 179.509 351.092 179.566 351.02 179.637C350.948 179.709 350.89 179.794 350.851 179.888C350.812 179.982 350.792 180.082 350.792 180.184C350.792 180.285 350.812 180.386 350.851 180.48C350.89 180.574 350.948 180.659 351.02 180.73C351.092 180.802 351.177 180.858 351.272 180.897C351.366 180.935 351.466 180.954 351.568 180.953Z" fill="white"/>
<path d="M351.568 187.108H363.87C363.972 187.109 364.073 187.09 364.167 187.051C364.261 187.013 364.347 186.957 364.419 186.885C364.491 186.814 364.548 186.729 364.587 186.635C364.626 186.541 364.646 186.44 364.646 186.339C364.646 186.237 364.626 186.136 364.587 186.043C364.548 185.949 364.491 185.864 364.419 185.792C364.347 185.72 364.261 185.664 364.167 185.626C364.073 185.588 363.972 185.568 363.87 185.569H351.568C351.467 185.568 351.366 185.588 351.272 185.626C351.178 185.664 351.092 185.72 351.02 185.792C350.948 185.864 350.891 185.949 350.851 186.043C350.812 186.136 350.792 186.237 350.792 186.339C350.792 186.44 350.812 186.541 350.851 186.635C350.891 186.729 350.948 186.814 351.02 186.885C351.092 186.957 351.178 187.013 351.272 187.051C351.366 187.09 351.467 187.109 351.568 187.108Z" fill="white"/>
<path d="M606.623 230.464H621.239C622.043 230.464 622.82 230.173 623.427 229.645C624.034 229.118 624.43 228.389 624.543 227.592C625.445 220.947 625.445 214.21 624.543 207.565C624.431 206.778 624.043 206.057 623.448 205.531C622.853 205.004 622.09 204.708 621.295 204.694C616.697 202.631 611.744 202.631 606.573 204.693C606.091 204.7 605.617 204.812 605.183 205.021C604.749 205.23 604.366 205.532 604.062 205.905C603.744 206.293 603.516 206.748 603.396 207.235C603.275 207.722 603.265 208.23 603.365 208.721C604.539 214.568 604.539 220.59 603.365 226.436C603.265 226.928 603.275 227.436 603.396 227.923C603.516 228.41 603.744 228.864 604.062 229.252C604.372 229.632 604.763 229.938 605.206 230.147C605.649 230.357 606.133 230.465 606.623 230.464Z" fill="#3895D3"/>
<path d="M608.154 212.329H620.456C620.557 212.33 620.658 212.311 620.752 212.272C620.846 212.234 620.932 212.178 621.004 212.106C621.076 212.034 621.133 211.949 621.172 211.856C621.211 211.762 621.231 211.661 621.231 211.56C621.231 211.458 621.211 211.357 621.172 211.264C621.133 211.17 621.076 211.085 621.004 211.013C620.932 210.942 620.846 210.885 620.752 210.847C620.658 210.809 620.557 210.789 620.456 210.79H608.154C608.052 210.789 607.952 210.809 607.857 210.847C607.763 210.885 607.678 210.942 607.606 211.013C607.534 211.085 607.476 211.17 607.437 211.264C607.398 211.357 607.378 211.458 607.378 211.56C607.378 211.661 607.398 211.762 607.437 211.856C607.476 211.949 607.534 212.034 607.606 212.106C607.678 212.178 607.763 212.234 607.857 212.272C607.952 212.311 608.052 212.33 608.154 212.329Z" fill="white"/>
<path d="M608.154 218.484H620.456C620.557 218.485 620.658 218.465 620.752 218.427C620.846 218.389 620.932 218.332 621.004 218.261C621.076 218.189 621.133 218.104 621.172 218.01C621.211 217.917 621.231 217.816 621.231 217.714C621.231 217.613 621.211 217.512 621.172 217.418C621.133 217.325 621.076 217.239 621.004 217.168C620.932 217.096 620.846 217.04 620.752 217.002C620.658 216.963 620.557 216.944 620.456 216.945H608.154C608.052 216.944 607.952 216.963 607.857 217.002C607.763 217.04 607.678 217.096 607.606 217.168C607.534 217.239 607.476 217.325 607.437 217.418C607.398 217.512 607.378 217.613 607.378 217.714C607.378 217.816 607.398 217.917 607.437 218.01C607.476 218.104 607.534 218.189 607.606 218.261C607.678 218.332 607.763 218.389 607.857 218.427C607.952 218.465 608.052 218.485 608.154 218.484Z" fill="white"/>
<path d="M608.154 224.638H620.456C620.558 224.639 620.659 224.62 620.753 224.582C620.847 224.544 620.932 224.487 621.005 224.416C621.077 224.344 621.134 224.259 621.173 224.165C621.212 224.071 621.232 223.971 621.232 223.869C621.232 223.767 621.212 223.667 621.173 223.573C621.134 223.479 621.077 223.394 621.005 223.323C620.932 223.251 620.847 223.194 620.753 223.156C620.659 223.118 620.558 223.099 620.456 223.1H608.154C608.053 223.099 607.952 223.118 607.858 223.156C607.764 223.194 607.678 223.251 607.606 223.323C607.534 223.394 607.477 223.479 607.437 223.573C607.398 223.667 607.378 223.767 607.378 223.869C607.378 223.971 607.398 224.071 607.437 224.165C607.477 224.259 607.534 224.344 607.606 224.416C607.678 224.487 607.764 224.544 607.858 224.582C607.952 224.62 608.053 224.639 608.154 224.638Z" fill="white"/>
<path d="M275.002 312.419C274.295 312.001 273.688 311.433 273.224 310.755C272.76 310.076 272.45 309.305 272.316 308.494C272.183 307.683 272.228 306.852 272.45 306.061C272.672 305.269 273.064 304.536 273.6 303.913L263.562 286.64L273.922 287.225L281.865 303.537C282.852 304.507 283.449 305.805 283.544 307.186C283.638 308.566 283.222 309.934 282.377 311.028C281.531 312.123 280.313 312.869 278.954 313.126C277.594 313.382 276.189 313.131 275.002 312.419V312.419Z" fill="white"/>
<path d="M270.952 299.72L280.227 292.492L263.373 259.811L269.688 218.193C270 216.135 269.856 214.035 269.265 212.04C268.675 210.045 267.653 208.204 266.271 206.649C264.89 205.093 263.183 203.861 261.273 203.04C259.362 202.219 257.294 201.829 255.216 201.897C251.462 202.025 247.912 203.638 245.345 206.381C242.778 209.125 241.404 212.775 241.523 216.532L243.084 263.919L270.952 299.72Z" fill="#306CB3"/>
<path d="M719.247 290.791C718.662 290.204 718.214 289.495 717.933 288.716C717.652 287.936 717.546 287.104 717.621 286.279C717.696 285.453 717.951 284.655 718.368 283.938C718.785 283.222 719.354 282.607 720.034 282.134L711.014 237.302L720.975 240.503L728.196 283.866C728.913 285.063 729.167 286.481 728.908 287.853C728.65 289.224 727.898 290.453 726.795 291.306C725.692 292.16 724.314 292.579 722.923 292.484C721.532 292.389 720.224 291.787 719.247 290.791H719.247Z" fill="white"/>
<path d="M705.927 195.938L712.108 191.27C712.108 191.27 717.56 190.884 718.526 200.722C719.491 210.561 721.474 229.735 721.474 229.735L730.932 273.566L717.84 276.441L707.71 229.14L701.633 215.093L705.927 195.938Z" fill="#306CB3"/>
<path d="M716.117 267.51L681.289 266.929L678.386 243.115H716.117V267.51Z" fill="white"/>
<path d="M684.772 414.053H676.731L672.907 383.021L684.773 383.022L684.772 414.053Z" fill="white"/>
<path d="M735.143 414.798L727.102 414.741L723.495 383.684L733.952 386.084L735.143 414.798Z" fill="white"/>
<path d="M709.996 222.607L711.817 227.346L711.453 232.086L675.798 244.443L677.567 223.7L681.575 218.961L709.996 222.607Z" fill="white"/>
<path d="M694.699 179.955C687.666 179.955 681.964 174.25 681.964 167.212C681.964 160.175 687.666 154.47 694.699 154.47C701.732 154.47 707.434 160.175 707.434 167.212C707.434 174.25 701.732 179.955 694.699 179.955Z" fill="white"/>
<path d="M686.766 410.084L674.055 409.325V414.774L661.972 423.124C661.375 423.537 660.925 424.129 660.689 424.815C660.452 425.501 660.441 426.245 660.657 426.938C660.873 427.631 661.304 428.237 661.889 428.667C662.473 429.097 663.179 429.329 663.904 429.329H679.036L681.644 423.939L682.663 429.329H688.368L686.766 410.084Z" fill="#2F2E41"/>
<path d="M737.893 410.848L725.189 410L725.151 415.449L713.009 423.714C712.409 424.123 711.955 424.712 711.714 425.396C711.473 426.081 711.456 426.824 711.667 427.519C711.878 428.213 712.306 428.822 712.887 429.256C713.468 429.69 714.173 429.927 714.898 429.932L730.03 430.038L732.676 424.667L733.656 430.064L739.361 430.104L737.893 410.848Z" fill="#2F2E41"/>
<path d="M737.645 391.005L731.79 344.179L724.824 294.809C729.925 285.33 718.439 255.893 718.439 255.893L716.818 255.971L680.12 262.899L680.128 262.863C672.622 283.348 670.135 293.468 670.547 315.282L672.025 393.7H671.561C670.792 393.7 670.053 394.005 669.509 394.55C668.965 395.095 668.659 395.833 668.659 396.604C668.659 397.374 668.965 398.113 669.509 398.657C670.053 399.202 670.792 399.508 671.561 399.508H686.073C686.455 399.508 686.833 399.434 687.185 399.288C687.538 399.142 687.859 398.929 688.129 398.659C688.399 398.389 688.613 398.069 688.759 397.716C688.905 397.363 688.98 396.985 688.98 396.604C688.98 396.222 688.905 395.844 688.759 395.491C688.613 395.138 688.399 394.818 688.129 394.548C687.859 394.279 687.538 394.065 687.185 393.919C686.833 393.773 686.455 393.699 686.073 393.7H685.699L699.019 300.328L710.312 339.533L723.083 390.645C718.439 389.484 719.16 392.175 719.16 393.7C719.16 394.47 719.466 395.208 720.01 395.753C720.554 396.298 721.293 396.604 722.062 396.604H736.574C737.249 396.604 737.903 396.369 738.424 395.939C738.944 395.509 739.298 394.911 739.425 394.248C739.552 393.584 739.443 392.897 739.118 392.306C738.793 391.714 738.272 391.254 737.645 391.005H737.645Z" fill="#2F2E41"/>
<path d="M721.296 257.418L720.135 245.802C720.015 245.328 719.747 244.904 719.371 244.592C718.995 244.279 718.53 244.094 718.043 244.062C717.559 238.528 715.524 214.656 715.402 213.614L715.397 213.57L714.472 193.789C714.438 193.07 714.141 192.389 713.638 191.876C713.134 191.363 712.46 191.053 711.742 191.006L706.854 190.687C706.787 190.684 706.724 190.656 706.677 190.608C706.63 190.56 706.604 190.495 706.604 190.428C706.604 189.888 706.498 189.353 706.291 188.854C706.085 188.355 705.782 187.902 705.4 187.52C705.019 187.138 704.566 186.835 704.067 186.628C703.568 186.421 703.034 186.315 702.494 186.315H688.022C687.085 186.315 686.18 186.658 685.477 187.279C684.774 187.899 684.322 188.755 684.205 189.686C684.199 189.75 684.168 189.809 684.12 189.852C684.072 189.895 684.009 189.918 683.945 189.916H683.943C682.299 189.882 680.697 190.439 679.428 191.486C678.159 192.533 677.307 194.001 677.027 195.622C675.048 207.141 671.083 233.283 673.043 247.817C673.726 252.876 672.255 248.869 671.997 253.102C671.971 253.511 672.026 253.921 672.159 254.309C672.292 254.697 672.501 255.054 672.772 255.361C672.216 255.563 671.763 255.977 671.51 256.511C671.257 257.046 671.225 257.659 671.421 258.217L671.166 258.154C671.241 258.45 671.373 258.728 671.555 258.973C671.737 259.217 671.965 259.424 672.227 259.58C672.489 259.737 672.779 259.84 673.08 259.884C673.382 259.929 673.69 259.913 673.985 259.839L711.847 264.972C713.091 264.658 721.61 258.662 721.296 257.418Z" fill="#306CB3"/>
<path d="M620.124 210.188C620.361 210.982 620.77 211.714 621.32 212.333C621.871 212.952 622.551 213.443 623.311 213.771C624.072 214.099 624.895 214.256 625.723 214.231C626.551 214.206 627.363 213.999 628.103 213.626L642.74 226.993L644.684 216.706L630.477 205.623C629.768 204.422 628.643 203.522 627.316 203.095C625.988 202.667 624.55 202.742 623.274 203.304C621.998 203.867 620.973 204.879 620.392 206.147C619.812 207.416 619.716 208.853 620.124 210.188H620.124Z" fill="white"/>
<path d="M671.07 199.971C671.07 199.971 676.173 188.43 682.62 190.724C689.066 193.018 685.738 204.216 685.738 204.216L661.519 240.733C661.519 240.733 626.586 218.31 630.834 218.152C635.082 217.994 636.353 210.263 636.353 210.263L654.815 219.494L655.44 216.208L656.441 217.209L659.025 215.175L671.07 199.971Z" fill="#306CB3"/>
<path d="M253.559 187.292C243.739 187.292 235.779 179.328 235.779 169.502C235.779 159.677 243.739 151.712 253.559 151.712C263.378 151.712 271.338 159.677 271.338 169.502C271.338 179.328 263.378 187.292 253.559 187.292Z" fill="white"/>
<path d="M196.498 195.68C198.55 198.59 201.545 200.699 204.974 201.651C206.346 202.06 207.763 202.301 209.193 202.368C209.37 200.75 209.793 199.168 210.448 197.678C210.381 199.264 210.601 200.849 211.098 202.357C213.246 202.235 215.346 201.673 217.267 200.704C219.153 199.754 220.793 198.377 222.055 196.683C223.318 194.988 224.168 193.023 224.539 190.942C225.292 186.076 223.088 181.298 222.29 176.44C221.49 171.581 222.993 165.427 227.746 164.15C231.366 163.177 230.96 163.598 233.969 165.833C230.839 170.465 242.4 187.436 247.132 185.956C249.807 185.119 251.52 182.663 252.072 182.663C255.79 189.073 248.788 199.873 255.845 202.116L255.264 201.534C251.004 196.291 259.907 185.195 255.648 179.952C254.459 178.485 253.194 176.747 253.545 174.892C253.878 173.129 256.675 172.196 257.494 173.644C256.021 170.268 258.196 165.76 261.798 164.893C264.997 164.121 264.938 165.072 268.149 165.486C268.359 164.098 268.751 162.743 269.315 161.458C269.256 162.843 269.418 164.228 269.794 165.563C270.928 165.54 272.023 165.144 272.909 164.436C275.527 162.325 274.997 157.89 272.661 155.472C270.321 153.054 266.843 152.183 263.527 151.62C262.563 144.902 244.04 144.201 241.585 150.914C240.539 145.901 234.269 143.3 229.395 144.855C224.521 146.41 221.139 150.965 219.358 155.765C217.577 160.561 217.08 165.724 215.983 170.721C214.886 175.719 213.033 180.808 209.215 184.214C205.398 187.617 199.179 188.744 195.156 185.583C194.572 187.253 194.389 189.037 194.622 190.792C194.855 192.546 195.498 194.221 196.498 195.68Z" fill="#2F2E41"/>
<path d="M29.6962 236.278L32.1853 248.774C32.3728 249.729 32.5689 250.701 32.782 251.665C34.8624 251.234 37.0195 251.354 39.0389 252.015C37.4367 254.306 36.001 256.709 34.7426 259.206C36.3111 264.042 38.6127 268.511 42.4658 271.744C45.0392 273.855 48.1128 275.267 51.3902 275.844C54.6676 276.42 58.0381 276.142 61.1769 275.037L61.0661 274.542C65.209 266.498 62.9585 256.357 57.8098 248.927C55.1837 245.262 52.0722 241.971 48.5607 239.144C45.0828 236.244 41.3235 233.642 37.5983 231.075C36.7616 230.499 35.7724 230.186 34.7571 230.176C33.7417 230.165 32.7463 230.458 31.8981 231.017C31.0499 231.575 30.3873 232.374 29.9951 233.311C29.6029 234.248 29.4989 235.281 29.6962 236.278Z" fill="#58CCED"/>
<path d="M60.2907 305.103C61.3384 297.467 62.4158 289.733 61.681 282.015C61.0281 275.16 58.9387 268.465 54.6833 262.976C52.4247 260.067 49.6765 257.575 46.5621 255.612C45.7497 255.1 45.0029 256.387 45.8111 256.897C51.1996 260.305 55.3675 265.337 57.7138 271.267C60.3052 277.862 60.7212 285.052 60.2711 292.057C60.0009 296.294 59.4289 300.502 58.8518 304.707C58.8053 304.897 58.8333 305.098 58.9299 305.268C59.0266 305.439 59.1847 305.565 59.3718 305.623C59.5621 305.674 59.765 305.649 59.9364 305.551C60.1079 305.454 60.234 305.293 60.2873 305.103L60.2907 305.103Z" fill="#F2F2F2"/>
<path d="M1.01489 430.738L796.985 431C797.254 430.999 797.511 430.892 797.701 430.702C797.891 430.511 797.997 430.253 797.997 429.984C797.997 429.716 797.891 429.458 797.701 429.267C797.511 429.077 797.254 428.97 796.985 428.969L1.01489 428.707C0.746216 428.707 0.488831 428.815 0.299133 429.005C0.109375 429.196 0.00286865 429.453 0.00286865 429.722C0.00286865 429.991 0.109375 430.249 0.299133 430.439C0.488831 430.63 0.746216 430.737 1.01489 430.738Z" fill="#011025"/>
<path d="M709.687 159.41C711.64 160.348 713.826 158.937 715.512 157.539L714.909 158.06C717.889 160.962 719.283 165.136 719.964 169.245C720.645 173.349 720.721 177.547 721.579 181.622C722.438 185.693 724.219 189.784 727.546 192.277C732.004 195.617 738.152 195.403 743.622 194.379C743.695 194.364 743.762 194.353 743.835 194.338C742.363 190.086 741.765 185.58 742.076 181.091C743.543 185.59 746.039 189.683 749.366 193.046C752.993 192.048 756.533 190.757 759.951 189.187C762.163 188.168 764.545 186.775 765.159 184.416C765.774 182.075 764.345 179.62 762.434 178.142C760.523 176.664 758.178 175.893 756 174.84C753.827 173.792 751.676 172.297 750.806 170.041C748.798 164.852 754.517 158.897 752.288 153.796C751.189 151.287 748.497 149.923 745.968 148.871C742.105 147.269 738.139 145.931 734.097 144.864C730.548 143.928 726.842 143.2 723.227 143.814C719.612 144.428 716.07 146.628 714.769 150.064C712.598 150.798 710.293 151.625 708.899 153.454C707.507 155.278 707.619 158.419 709.687 159.41Z" fill="#2F2E41"/>
<path d="M692.309 153.397C697.896 148.983 702.414 149.737 705.899 152.479C706.484 151.827 708.978 153.621 709.822 153.363L712.875 159.098C714.446 161.873 715.091 164.705 714.837 166.299C717.727 174.408 710.874 179.885 702.769 182.777C699.534 183.939 696.006 183.99 692.739 182.922L692.64 181.54L692.026 182.673C692.026 182.673 684.617 197.938 682.866 198.624C683.928 195.866 686.73 182.76 687.512 180.028C688.585 176.311 687.852 170.406 687.222 166.785C686.829 164.553 686.808 162.271 687.161 160.032L687.177 159.934L685.443 163.436L681.553 160.988C683.04 156.656 683.07 151.473 692.309 153.397Z" fill="#2F2E41"/>
</g>
<defs>
<clipPath id="clip0_338_4">
<rect width="798" height="431" fill="white" transform="matrix(-1 0 0 1 798 0)"/>
</clipPath>
</defs>
</svg>
