<?xml version="1.0" encoding="UTF-8" standalone="no"?>
<!DOCTYPE svg PUBLIC "-//W3C//DTD SVG 1.1//EN" "http://www.w3.org/Graphics/SVG/1.1/DTD/svg11.dtd">
<svg width="100%" height="100%" viewBox="0 0 1048 974" version="1.1" xmlns="http://www.w3.org/2000/svg" xmlns:xlink="http://www.w3.org/1999/xlink" xml:space="preserve" xmlns:serif="http://www.serif.com/" style="fill-rule:evenodd;clip-rule:evenodd;stroke-linejoin:round;stroke-miterlimit:2;">
    <g transform="matrix(1,0,0,1,-427.405,-1529.76)">
        <g transform="matrix(3.00046,0,0,4.51649,-2011.19,337.386)">
            <path d="M1063.96,264.004C1098.25,345.71 1063.96,392.888 1063.96,427.416C1063.96,445.379 1085.91,459.962 1112.95,459.962C1139.98,459.962 1161.93,445.379 1161.93,427.416C1161.93,392.888 1112.95,329.438 1063.96,264.004Z" style="fill:rgb(18,97,160);"/>
        </g>
        <g transform="matrix(-1.50023,2.59848,-3.9114,-2.25825,3993.37,334.891)">
            <path d="M1063.96,264.004C1098.25,345.71 1063.96,392.888 1063.96,427.416C1063.96,445.379 1085.91,459.962 1112.95,459.962C1139.98,459.962 1161.93,445.379 1161.93,427.416C1161.93,392.888 1112.95,329.438 1063.96,264.004Z" style="fill:rgb(88,204,237);"/>
        </g>
        <g transform="matrix(-1.50023,-2.59848,3.9114,-2.25825,990.96,5533.93)">
            <path d="M1063.96,264.004C1098.25,345.71 1063.96,392.888 1063.96,427.416C1063.96,445.379 1085.91,459.962 1112.95,459.962C1139.98,459.962 1161.93,445.379 1161.93,427.416C1161.93,392.888 1112.95,329.438 1063.96,264.004Z" style="fill:rgb(56,149,211);"/>
        </g>
    </g>
</svg>
