<svg width="579" height="440" viewBox="0 0 579 440" fill="none" xmlns="http://www.w3.org/2000/svg">
<g clip-path="url(#clip0_30_845)">
<path d="M535.71 399.936C516.739 414.384 493.627 429.021 470.904 435.922C464.354 437.971 457.594 439.278 450.752 439.821C444.356 440.335 437.918 439.836 431.678 438.341C415.278 434.261 400.067 427.117 385.349 418.77C380.54 416.039 375.787 413.182 371.062 410.263C363.349 405.496 355.712 400.561 348.054 395.745C346.908 395.015 345.768 394.3 344.621 393.591H344.614C342.766 392.43 340.913 391.286 339.055 390.157C338.729 389.956 338.402 389.761 338.069 389.56C334.559 387.433 330.99 385.355 327.36 383.326C326.916 383.083 326.471 382.832 326.026 382.589C319.003 378.693 311.786 375.16 304.401 372.005C299.551 369.961 294.638 368.12 289.676 366.549H289.669C287.772 365.951 285.868 365.388 283.957 364.874C278.227 363.302 272.388 362.159 266.488 361.455C258.357 360.47 250.134 360.536 242.021 361.649C241.472 361.726 240.93 361.802 240.381 361.893C218.422 365.409 198.381 377.266 176.325 380.059C175.61 380.15 174.901 380.233 174.185 380.296C173.879 380.323 173.574 380.358 173.268 380.379C166.858 380.928 160.408 380.769 154.033 379.906C136.223 377.557 118.879 370.267 103.264 361.079C66.7616 339.598 37.1592 306.579 19.1615 268.341C16.0709 261.788 13.3269 255.077 10.9409 248.235C4.26989 229.264 0.596134 209.369 0.0519176 189.266C-1.63667 119.518 37.993 49.5399 100.214 17.9947C162.441 -13.5505 244.3 -3.11885 294.485 45.3422C324.928 74.74 342.544 114.576 365.454 150.166C388.365 185.749 420.928 219.741 462.927 224.926C484.323 227.566 506.712 222.458 527.218 229.102C538.573 232.786 548.26 239.833 556.063 248.812C561.31 254.905 565.7 261.686 569.113 268.967C571.615 274.23 573.645 279.705 575.18 285.326C575.465 286.362 575.729 287.397 575.986 288.433C586.201 330.16 569.878 373.902 535.71 399.936Z" fill="#2D68AE"/>
<path d="M193.989 324.398H128.669C118.883 324.398 110.95 332.333 110.95 342.12V342.12C110.95 351.908 118.883 359.842 128.669 359.842H193.989C203.776 359.842 211.709 351.908 211.709 342.12C211.709 332.333 203.776 324.398 193.989 324.398Z" fill="#11417A"/>
<path d="M174.185 350.807V380.296C167.475 380.945 160.713 380.814 154.033 379.906V350.807H174.185Z" fill="#11417A"/>
<path d="M242.021 361.649C241.472 361.726 240.93 361.802 240.381 361.892C218.422 365.409 198.381 377.265 176.326 380.059C175.61 380.15 174.901 380.233 174.185 380.296C173.88 380.323 173.574 380.358 173.268 380.379C167.883 375.104 162.497 369.489 157.438 363.672C154.694 360.523 152.039 357.313 149.544 354.06C143.068 345.665 137.578 337.033 133.951 328.554C134.319 324.489 131.79 315.085 130.581 307.885L130.574 307.878C130.06 304.855 129.782 302.228 130.039 300.539C131.512 290.796 139.468 291.915 141.914 282.366C144.121 280.534 146.47 278.882 148.94 277.424C149.35 277.181 149.767 276.938 150.198 276.695L176.742 258.347L186.888 268.299L202.328 283.45L219.061 299.858L204.858 314.21C204.858 314.21 216.727 327.894 230.604 346.137C234.328 351.037 238.199 356.27 242.021 361.649Z" fill="#073367"/>
<path d="M470.904 350.807V435.922C464.354 437.971 457.594 439.278 450.752 439.821V350.807H470.904Z" fill="#11417A"/>
<path d="M496.963 343.858H431.643C421.856 343.858 413.923 351.792 413.923 361.58C413.923 371.367 421.856 379.302 431.643 379.302H496.963C506.749 379.302 514.682 371.367 514.682 361.58C514.682 351.792 506.749 343.858 496.963 343.858Z" fill="#11417A"/>
<path d="M338.069 389.56C334.56 387.433 330.99 385.355 327.361 383.326C326.916 383.082 326.471 382.832 326.026 382.589L328.417 381.567L334.865 378.794L334.928 378.767L334.997 379.003L338.069 389.56Z" fill="#FFB6B6"/>
<path d="M348.054 395.745C346.908 395.015 345.768 394.299 344.621 393.591H344.614C342.766 392.43 340.913 391.286 339.055 390.157C338.729 389.956 338.402 389.761 338.069 389.56C334.559 387.433 330.99 385.355 327.36 383.326C326.916 383.082 326.471 382.832 326.026 382.589C319.004 378.693 311.786 375.16 304.401 372.004C299.551 369.961 294.638 368.119 289.676 366.549H289.669L285.771 360.023L268.225 330.632L264.368 324.176C264.368 324.176 251.214 328.068 232.598 331.8C225.823 333.162 218.332 334.496 210.472 335.622C202.071 336.817 193.26 337.77 184.504 338.228C180.328 338.451 176.165 338.562 172.066 338.527C161.468 338.458 151.288 337.464 142.373 335.101C139.399 332.307 130.435 328.506 124.014 325.024H124.007C121.311 323.564 119.073 322.167 117.899 320.923C111.13 313.765 116.912 308.184 110.894 300.373C110.813 297.507 110.96 294.639 111.332 291.797C111.395 291.324 111.457 290.844 111.534 290.358L113.431 258.139L127.523 256.276L148.967 253.441L172.198 250.369L174.755 270.398C174.755 270.398 192.843 269.481 215.76 269.787C252.569 270.287 301.823 273.956 308.494 289.705C309.119 291.185 309.745 292.679 310.37 294.173C311.857 297.746 313.33 301.336 314.79 304.946C320.078 318.011 325.123 331.202 329.73 343.67C332.593 351.426 335.289 358.904 337.77 365.902C339.764 371.532 341.613 376.855 343.301 381.755C344.844 386.231 346.24 390.352 347.484 394.049C347.679 394.626 347.867 395.196 348.054 395.745Z" fill="#073367"/>
<path d="M218.418 200.533L173.906 162.725L202.866 133.413L223.07 166.51L297.961 181.36C300.213 179.665 302.91 178.662 305.722 178.473C308.534 178.284 311.34 178.918 313.798 180.297C316.256 181.675 318.26 183.739 319.566 186.237C320.871 188.736 321.422 191.56 321.15 194.365C320.879 197.171 319.797 199.837 318.037 202.038C316.276 204.239 313.914 205.881 311.237 206.762C308.56 207.644 305.684 207.727 302.96 207.003C300.237 206.278 297.783 204.776 295.898 202.681L218.418 200.533Z" fill="#AFD2FD"/>
<path d="M134.568 113.037C129.424 129.774 178.416 169.692 178.416 169.692C178.96 165.673 206.737 200.322 208.627 197.184C213.997 188.266 219.907 166.221 226.108 163.404C229.654 161.792 209.312 139.397 209.312 139.397C209.312 139.397 198.935 125.667 185.235 108.265C181.453 103.274 176.469 99.3206 170.749 96.7735C165.028 94.2264 158.756 93.1683 152.516 93.6976C152.516 93.6976 139.713 96.2997 134.568 113.037Z" fill="#11417A"/>
<path d="M156.23 75.9845C172.856 75.9845 186.335 62.5041 186.335 45.8751C186.335 29.2462 172.856 15.7657 156.23 15.7657C139.603 15.7657 126.124 29.2462 126.124 45.8751C126.124 62.5041 139.603 75.9845 156.23 75.9845Z" fill="#AFD2FD"/>
<path d="M171.282 95.8848C177.768 99.7411 181.648 106.827 183.875 114.037C187.998 127.385 190.48 141.187 191.266 155.136L193.618 196.897L222.753 285.818C197.503 307.186 102.593 290.674 102.593 290.674C102.593 290.674 99.6793 289.703 102.593 286.789C105.506 283.875 108.342 286.457 105.429 283.543C102.516 280.629 104.524 283.875 105.495 280.962C106.466 278.048 105.495 279.99 104.524 279.019C103.553 278.048 112.042 269.306 112.042 269.306L104.273 218.265L94.5615 115.31C106.215 100.741 129.653 92.1527 129.653 92.1527L135.708 81.2507L165.988 83.6734L171.282 95.8848Z" fill="#11417A"/>
<path d="M181.047 29.8785C183.387 31.6239 185.12 34.0593 186.003 36.8419C186.343 32.2946 186.364 27.7292 186.068 23.1789C185.713 19.9814 183.462 19.2622 180.856 18.4288C178.502 17.6759 175.84 16.8253 175.124 13.7213C165.66 4.51388 149.187 4.97816 137.912 8.18986C131.708 9.9572 128.139 12.2279 127.819 13.558L127.753 13.8319L127.501 13.9578C122.719 16.3492 121.788 23.9005 121.85 29.814C121.966 40.9555 125.813 53.6095 127.98 54.6374C128.094 54.6918 128.123 54.6705 128.173 54.6292C131.436 52.0214 135.417 54.8273 137.166 56.3527C138.198 49.4281 141.52 43.0489 146.602 38.2342C151.684 33.4194 158.233 30.4468 165.202 29.791C167.478 29.571 169.736 29.1923 171.959 28.6578C173.087 28.366 174.246 28.2138 175.411 28.2047C177.417 28.1743 179.383 28.7583 181.047 29.8785V29.8785Z" fill="#2F2E41"/>
<path d="M143.112 245.897L133.903 241.18C133.41 240.828 133.059 240.31 132.916 239.722C132.772 239.133 132.845 238.512 133.121 237.973C133.397 237.434 133.858 237.012 134.42 236.784C134.981 236.557 135.606 236.539 136.18 236.734L145.389 241.451C145.882 241.802 146.233 242.32 146.376 242.908C146.52 243.497 146.447 244.118 146.171 244.657C145.895 245.197 145.434 245.619 144.872 245.846C144.311 246.074 143.686 246.092 143.112 245.897L143.112 245.897Z" fill="#6C63FF"/>
<path d="M112.118 233.259L96.9688 176.853L137.452 169.188L135.275 207.905L188.467 262.682C191.283 262.567 194.072 263.274 196.493 264.716C198.914 266.159 200.864 268.275 202.103 270.806C203.343 273.338 203.82 276.175 203.475 278.973C203.13 281.77 201.978 284.407 200.161 286.562C198.344 288.716 195.939 290.295 193.24 291.106C190.541 291.917 187.664 291.925 184.96 291.13C182.256 290.334 179.843 288.768 178.013 286.624C176.183 284.48 175.017 281.85 174.656 279.055L112.118 233.259Z" fill="#AFD2FD"/>
<path d="M92.826 113.609C79.0845 124.459 96.7218 185.148 96.7218 185.148C99.4525 182.15 102.626 226.447 105.963 224.939C115.45 220.652 132.837 205.87 139.54 207.074C143.373 207.764 139.357 177.775 139.357 177.775C139.357 177.775 138.618 160.579 137.23 138.475C136.953 132.218 135.098 126.133 131.838 120.786C128.577 115.439 124.017 111.005 118.582 107.894C118.582 107.894 106.568 102.76 92.826 113.609Z" fill="#11417A"/>
<path d="M569.114 268.966L19.1615 268.341C16.0709 261.788 13.3269 255.077 10.9409 248.235L556.063 248.812C561.31 254.905 565.7 261.686 569.114 268.966V268.966Z" fill="#11417A"/>
<path d="M393.952 414.788C391.11 416.164 388.242 417.491 385.349 418.77C380.54 416.038 375.787 413.182 371.062 410.263L388.587 402.563L393.952 414.788Z" fill="#FFB6B6"/>
<path d="M521.729 319.019C518.88 322.841 515.94 326.587 512.911 330.257C510.117 333.641 507.25 336.961 504.308 340.216C503.092 341.564 501.862 342.906 500.604 344.233C498.29 346.714 495.925 349.153 493.509 351.551C489.159 352.92 480.348 355.332 470.904 357.584C464.032 359.217 456.826 360.767 450.753 361.753C447.353 362.364 443.913 362.731 440.461 362.852C436.361 362.886 432.199 362.775 428.023 362.553C423.311 362.303 418.593 361.913 413.93 361.413C401.804 360.141 390.061 358.16 379.929 356.124C376.218 355.387 372.73 354.637 369.52 353.907C363.439 352.538 358.353 351.259 354.67 350.286C350.521 349.202 348.159 348.5 348.159 348.5L337.77 365.903L332.378 374.93L328.417 381.567L327.361 383.326C326.916 383.082 326.471 382.832 326.026 382.589C319.004 378.693 311.786 375.16 304.401 372.004C299.551 369.961 294.638 368.12 289.677 366.549H289.67C287.773 365.951 285.868 365.388 283.958 364.874C284.555 363.269 285.16 361.652 285.771 360.023C286.911 356.986 288.074 353.921 289.26 350.828C291.824 344.129 294.478 337.332 297.209 330.57C299.447 325.017 301.726 319.485 304.033 314.029C305.096 311.513 307.257 309.303 310.28 307.364C311.725 306.453 313.232 305.645 314.79 304.946C323.441 301.005 336.186 298.441 350.23 296.794C351.39 296.661 352.557 296.529 353.732 296.404C365.357 295.181 377.692 294.549 389.227 294.257C395.001 294.111 400.574 294.055 405.758 294.048C407.433 294.048 409.061 294.053 410.644 294.062H410.65C414.924 294.083 418.857 294.146 422.318 294.215C422.992 294.229 423.645 294.25 424.284 294.264H424.291C424.722 294.271 425.146 294.285 425.563 294.292C433.13 294.486 437.772 294.722 437.772 294.722L439.572 280.6L439.94 277.751L440.288 275.041V275.034L440.329 274.693L440.614 274.686L445.617 274.589L487.672 273.769L510.646 273.317L507.004 288.926L500.993 314.682C501.605 318.755 521.937 315.565 521.729 319.019Z" fill="#073367"/>
<path d="M399.136 412.216C397.42 413.092 395.689 413.954 393.952 414.788C391.11 416.164 388.242 417.491 385.349 418.77C380.541 416.038 375.788 413.182 371.062 410.263C363.349 405.496 355.712 400.561 348.054 395.745C346.908 395.015 345.768 394.299 344.622 393.591H344.615C341.46 388.906 338.242 384.028 334.997 379.003C334.949 378.933 334.907 378.864 334.865 378.794C334.031 377.516 333.202 376.228 332.378 374.93C327.187 366.799 321.968 358.32 316.902 349.661L329.73 343.67L353.579 332.536L357.693 330.618L369.52 353.907L380.068 374.68L382.417 379.302L399.136 412.216Z" fill="#2F2E41"/>
<path d="M402.73 300.406L463.534 241.761L480.387 194.036L455.528 183.226C442.76 195.458 428.958 233.559 428.958 233.559L387.117 286.798C386.79 286.91 386.465 287.028 386.144 287.17C384.26 288.001 382.621 289.304 381.387 290.954C380.154 292.603 379.366 294.543 379.101 296.586C378.836 298.629 379.102 300.705 379.874 302.615C380.646 304.525 381.897 306.203 383.507 307.488C385.117 308.773 387.031 309.621 389.065 309.949C391.098 310.278 393.182 310.077 395.114 309.364C397.047 308.652 398.763 307.454 400.097 305.884C401.432 304.315 402.338 302.428 402.73 300.406V300.406Z" fill="#E2EFFF"/>
<path d="M448.533 188.554L480.064 198.566L480.183 198.546C491.919 196.58 501.657 177.41 507.759 161.674C509.767 156.484 509.73 150.725 507.655 145.561C505.579 140.398 501.621 136.215 496.58 133.858V133.858C492.85 132.145 488.715 131.509 484.643 132.023C480.57 132.537 476.722 134.18 473.534 136.766L457.343 149.998L448.533 188.554Z" fill="#6C63FF"/>
<path d="M521.602 319.723L521.787 319.478C531.624 306.429 518.169 274.114 516.135 269.428L525.282 266.718L523.688 249.299L522.92 241.532L530.032 234.777L530.056 234.604L534.947 199.791L541.347 176.75C543.759 168.039 543.81 158.843 541.495 150.106C539.179 141.37 534.581 133.406 528.172 127.034L515.088 114.043L499.414 89.5058L473.134 88.8272L463.684 105.617C454.895 107.411 447.014 112.232 441.414 119.239C435.814 126.246 432.849 134.997 433.037 143.965L433.926 188.664L424.497 244.045L424.232 254.104L414.977 263.873L416.688 273.748L409.764 276.506L406.377 290.539C405.083 292.158 396.539 302.958 396.462 305.969C396.45 306.421 396.772 306.866 397.476 307.37C403.006 311.327 433.914 319.901 447.825 314.746C462.643 309.26 520.716 319.564 521.301 319.668L521.602 319.723Z" fill="#86BBFB"/>
<path d="M483.979 81.3052C503.207 81.3052 518.795 65.7153 518.795 46.4841C518.795 27.253 503.207 11.6631 483.979 11.6631C464.75 11.6631 449.162 27.253 449.162 46.4841C449.162 65.7153 464.75 81.3052 483.979 81.3052Z" fill="#E2EFFF"/>
<path d="M479.731 81.7711C485.123 81.8552 490.512 81.4786 495.84 80.6453C501.12 79.5713 512.934 70.9133 516.227 65.7033C518.673 61.8323 520.238 55.7875 521.12 51.3985C522.307 45.5904 522.262 39.5976 520.987 33.8082C519.711 28.0187 517.235 22.5617 513.717 17.7905C512.364 15.7948 510.498 14.2017 508.315 13.1797C508.122 13.104 507.922 13.037 507.721 12.9797C504.54 12.1426 501.682 10.3737 499.513 7.90012C499.093 7.39981 498.637 6.93044 498.149 6.49565C495.698 4.42697 492.792 2.96776 489.669 2.23731C484.629 0.888064 477.334 2.22737 467.987 6.22187C463.292 8.22879 458.157 7.50248 454.206 6.64543C453.984 6.60263 453.756 6.6186 453.542 6.69175C453.328 6.76491 453.138 6.89271 452.989 7.06242C451.308 8.64053 449.093 9.52388 446.787 9.53494C445.375 9.59695 443.894 11.5523 442.103 14.1022C441.697 14.681 441.223 15.3565 440.881 15.7674L440.835 14.978L440.036 15.8586C438.781 17.2427 437.896 18.922 437.464 20.7402C437.032 22.5584 437.067 24.4563 437.566 26.2572C438.065 28.0581 439.012 29.7034 440.318 31.0399C441.624 32.3765 443.247 33.3608 445.035 33.9011C446.456 34.2791 447.911 34.511 449.378 34.5933C450.267 34.6733 451.187 34.756 452.068 34.9089C454.896 35.4881 457.525 36.7908 459.7 38.6898C461.874 40.5888 463.519 43.0192 464.474 45.7438C464.699 46.3736 465.067 46.9431 465.548 47.4083C466.028 47.8735 466.61 48.2219 467.247 48.4268C467.883 48.6317 468.559 48.6874 469.221 48.5898C469.882 48.4922 470.513 48.2437 471.063 47.8637C471.981 47.1489 473.058 46.6667 474.203 46.4582C475.347 46.2498 476.525 46.3213 477.636 46.6667C478.596 47.2006 479.344 48.0483 479.753 49.0678C480.25 50.2036 481.075 51.1655 482.121 51.8308C485.699 53.6761 485.946 61.8505 484.661 68.6648C483.422 75.2332 480.973 79.9849 478.706 80.2198C476.96 80.4004 476.76 80.5244 476.634 80.8332L476.521 81.1096L476.717 81.3681C477.681 81.7177 478.709 81.8551 479.731 81.7711V81.7711Z" fill="#2F2E41"/>
<path d="M457.179 178.027L443.755 151.259C424.269 152.59 385.596 175.123 385.596 175.123L312.425 190.639C310.257 189.805 307.908 189.558 305.615 189.921C303.321 190.284 301.163 191.245 299.359 192.707C297.555 194.17 296.168 196.081 295.337 198.25C294.506 200.419 294.262 202.769 294.627 205.062C294.993 207.356 295.957 209.513 297.421 211.315C298.885 213.118 300.799 214.503 302.968 215.331C305.138 216.159 307.487 216.401 309.78 216.033C312.073 215.664 314.228 214.698 316.029 213.231L409.107 206.559L457.179 178.027Z" fill="#E2EFFF"/>
<path d="M451.765 182.422L486.825 156.364L493 134.105C494.197 129.731 494.146 125.11 492.854 120.763C491.562 116.416 489.08 112.517 485.689 109.507V109.507C481.065 105.458 475.075 103.315 468.932 103.514C462.788 103.712 456.949 106.236 452.596 110.575C439.402 123.746 424.354 142.12 427.586 154.862L427.619 154.991L451.765 182.422Z" fill="#86BBFB"/>
<path d="M408.364 252.12H314.553V264.63H408.364V252.12Z" fill="#E2EFFF"/>
<path d="M168.626 252.12H74.8154V264.63H168.626V252.12Z" fill="#E2EFFF"/>
<path d="M179.58 191.961V251.524C179.581 252.283 179.882 253.011 180.419 253.547C180.956 254.084 181.683 254.386 182.442 254.387H270.697C271.456 254.386 272.183 254.084 272.72 253.547C273.257 253.011 273.559 252.283 273.559 251.524V191.961C273.557 191.203 273.255 190.476 272.719 189.94C272.182 189.404 271.455 189.103 270.697 189.102H182.442C181.684 189.103 180.957 189.404 180.421 189.94C179.884 190.476 179.582 191.203 179.58 191.961Z" fill="#3F3D56"/>
<path d="M181.65 192.702V250.789C181.651 251.195 181.812 251.583 182.099 251.87C182.386 252.157 182.775 252.318 183.18 252.319H269.962C270.368 252.318 270.756 252.157 271.043 251.87C271.33 251.583 271.491 251.195 271.492 250.789V192.702C271.492 192.296 271.331 191.907 271.044 191.619C270.757 191.332 270.368 191.17 269.962 191.169H183.18C182.774 191.17 182.385 191.332 182.098 191.619C181.812 191.907 181.65 192.296 181.65 192.702Z" fill="#86BBFB"/>
<path d="M177.734 263.14C177.896 263.343 178.101 263.506 178.335 263.618C178.569 263.73 178.825 263.788 179.085 263.786H273.585C273.843 263.786 274.098 263.728 274.331 263.617C274.565 263.506 274.77 263.344 274.933 263.143C275.096 262.942 275.212 262.708 275.273 262.456C275.333 262.205 275.337 261.944 275.284 261.691L273.817 254.722C273.757 254.438 273.626 254.173 273.437 253.953C273.247 253.732 273.006 253.562 272.735 253.458C272.538 253.381 272.329 253.342 272.118 253.342H180.546C180.335 253.342 180.125 253.381 179.929 253.458C179.657 253.562 179.416 253.732 179.227 253.953C179.038 254.173 178.907 254.438 178.846 254.722L177.379 261.691C177.327 261.943 177.332 262.205 177.393 262.455C177.455 262.706 177.571 262.94 177.734 263.14V263.14Z" fill="#2F2E41"/>
<path d="M268.875 256.344H271.108C271.295 256.344 271.447 256.192 271.447 256.004V254.936C271.447 254.749 271.295 254.597 271.108 254.597H268.875C268.688 254.597 268.536 254.749 268.536 254.936V256.004C268.536 256.192 268.688 256.344 268.875 256.344Z" fill="#3F3D56"/>
<path d="M263.054 256.344H265.286C265.474 256.344 265.625 256.192 265.625 256.004V254.936C265.625 254.749 265.474 254.597 265.286 254.597H263.054C262.867 254.597 262.715 254.749 262.715 254.936V256.004C262.715 256.192 262.867 256.344 263.054 256.344Z" fill="#3F3D56"/>
<path d="M257.233 256.344H259.465C259.653 256.344 259.805 256.192 259.805 256.004V254.936C259.805 254.749 259.653 254.597 259.465 254.597H257.233C257.046 254.597 256.894 254.749 256.894 254.936V256.004C256.894 256.192 257.046 256.344 257.233 256.344Z" fill="#3F3D56"/>
<path d="M251.412 256.344H253.644C253.831 256.344 253.983 256.192 253.983 256.004V254.936C253.983 254.749 253.831 254.597 253.644 254.597H251.412C251.225 254.597 251.073 254.749 251.073 254.936V256.004C251.073 256.192 251.225 256.344 251.412 256.344Z" fill="#3F3D56"/>
<path d="M245.591 256.344H247.823C248.01 256.344 248.162 256.192 248.162 256.004V254.936C248.162 254.749 248.01 254.597 247.823 254.597H245.591C245.403 254.597 245.252 254.749 245.252 254.936V256.004C245.252 256.192 245.403 256.344 245.591 256.344Z" fill="#3F3D56"/>
<path d="M239.77 256.344H242.002C242.189 256.344 242.341 256.192 242.341 256.004V254.936C242.341 254.749 242.189 254.597 242.002 254.597H239.77C239.583 254.597 239.431 254.749 239.431 254.936V256.004C239.431 256.192 239.583 256.344 239.77 256.344Z" fill="#3F3D56"/>
<path d="M233.949 256.344H236.181C236.368 256.344 236.52 256.192 236.52 256.004V254.936C236.52 254.749 236.368 254.597 236.181 254.597H233.949C233.761 254.597 233.609 254.749 233.609 254.936V256.004C233.609 256.192 233.761 256.344 233.949 256.344Z" fill="#3F3D56"/>
<path d="M228.128 256.344H230.36C230.547 256.344 230.699 256.192 230.699 256.004V254.936C230.699 254.749 230.547 254.597 230.36 254.597H228.128C227.941 254.597 227.789 254.749 227.789 254.936V256.004C227.789 256.192 227.941 256.344 228.128 256.344Z" fill="#3F3D56"/>
<path d="M222.307 256.344H224.539C224.726 256.344 224.878 256.192 224.878 256.004V254.936C224.878 254.749 224.726 254.597 224.539 254.597H222.307C222.119 254.597 221.967 254.749 221.967 254.936V256.004C221.967 256.192 222.119 256.344 222.307 256.344Z" fill="#3F3D56"/>
<path d="M216.485 256.344H218.717C218.905 256.344 219.057 256.192 219.057 256.004V254.936C219.057 254.749 218.905 254.597 218.717 254.597H216.485C216.298 254.597 216.146 254.749 216.146 254.936V256.004C216.146 256.192 216.298 256.344 216.485 256.344Z" fill="#3F3D56"/>
<path d="M210.665 256.344H212.897C213.084 256.344 213.236 256.192 213.236 256.004V254.936C213.236 254.749 213.084 254.597 212.897 254.597H210.665C210.477 254.597 210.325 254.749 210.325 254.936V256.004C210.325 256.192 210.477 256.344 210.665 256.344Z" fill="#3F3D56"/>
<path d="M204.843 256.344H207.075C207.263 256.344 207.415 256.192 207.415 256.004V254.936C207.415 254.749 207.263 254.597 207.075 254.597H204.843C204.656 254.597 204.504 254.749 204.504 254.936V256.004C204.504 256.192 204.656 256.344 204.843 256.344Z" fill="#3F3D56"/>
<path d="M199.022 256.344H201.254C201.441 256.344 201.593 256.192 201.593 256.004V254.936C201.593 254.749 201.441 254.597 201.254 254.597H199.022C198.835 254.597 198.683 254.749 198.683 254.936V256.004C198.683 256.192 198.835 256.344 199.022 256.344Z" fill="#3F3D56"/>
<path d="M193.201 256.344H195.433C195.621 256.344 195.772 256.192 195.772 256.004V254.936C195.772 254.749 195.621 254.597 195.433 254.597H193.201C193.014 254.597 192.862 254.749 192.862 254.936V256.004C192.862 256.192 193.014 256.344 193.201 256.344Z" fill="#3F3D56"/>
<path d="M187.38 256.344H189.612C189.799 256.344 189.951 256.192 189.951 256.004V254.936C189.951 254.749 189.799 254.597 189.612 254.597H187.38C187.193 254.597 187.041 254.749 187.041 254.936V256.004C187.041 256.192 187.193 256.344 187.38 256.344Z" fill="#3F3D56"/>
<path d="M181.559 256.344H183.791C183.978 256.344 184.13 256.192 184.13 256.004V254.936C184.13 254.749 183.978 254.597 183.791 254.597H181.559C181.371 254.597 181.219 254.749 181.219 254.936V256.004C181.219 256.192 181.371 256.344 181.559 256.344Z" fill="#3F3D56"/>
<path d="M268.944 259.255H271.176C271.364 259.255 271.516 259.103 271.516 258.915V257.847C271.516 257.66 271.364 257.508 271.176 257.508H268.944C268.757 257.508 268.605 257.66 268.605 257.847V258.915C268.605 259.103 268.757 259.255 268.944 259.255Z" fill="#3F3D56"/>
<path d="M263.123 259.255H265.355C265.542 259.255 265.694 259.103 265.694 258.915V257.847C265.694 257.66 265.542 257.508 265.355 257.508H263.123C262.936 257.508 262.784 257.66 262.784 257.847V258.915C262.784 259.103 262.936 259.255 263.123 259.255Z" fill="#3F3D56"/>
<path d="M257.302 259.255H259.534C259.721 259.255 259.873 259.103 259.873 258.915V257.847C259.873 257.66 259.721 257.508 259.534 257.508H257.302C257.114 257.508 256.962 257.66 256.962 257.847V258.915C256.962 259.103 257.114 259.255 257.302 259.255Z" fill="#3F3D56"/>
<path d="M251.481 259.255H253.713C253.9 259.255 254.052 259.103 254.052 258.915V257.847C254.052 257.66 253.9 257.508 253.713 257.508H251.481C251.294 257.508 251.142 257.66 251.142 257.847V258.915C251.142 259.103 251.294 259.255 251.481 259.255Z" fill="#3F3D56"/>
<path d="M245.66 259.255H247.892C248.079 259.255 248.231 259.103 248.231 258.915V257.847C248.231 257.66 248.079 257.508 247.892 257.508H245.66C245.472 257.508 245.32 257.66 245.32 257.847V258.915C245.32 259.103 245.472 259.255 245.66 259.255Z" fill="#3F3D56"/>
<path d="M239.839 259.255H242.071C242.258 259.255 242.41 259.103 242.41 258.915V257.847C242.41 257.66 242.258 257.508 242.071 257.508H239.839C239.651 257.508 239.5 257.66 239.5 257.847V258.915C239.5 259.103 239.651 259.255 239.839 259.255Z" fill="#3F3D56"/>
<path d="M234.018 259.255H236.25C236.437 259.255 236.589 259.103 236.589 258.915V257.847C236.589 257.66 236.437 257.508 236.25 257.508H234.018C233.83 257.508 233.678 257.66 233.678 257.847V258.915C233.678 259.103 233.83 259.255 234.018 259.255Z" fill="#3F3D56"/>
<path d="M228.196 259.255H230.428C230.616 259.255 230.768 259.103 230.768 258.915V257.847C230.768 257.66 230.616 257.508 230.428 257.508H228.196C228.009 257.508 227.857 257.66 227.857 257.847V258.915C227.857 259.103 228.009 259.255 228.196 259.255Z" fill="#3F3D56"/>
<path d="M222.375 259.255H224.608C224.795 259.255 224.947 259.103 224.947 258.915V257.847C224.947 257.66 224.795 257.508 224.608 257.508H222.375C222.188 257.508 222.036 257.66 222.036 257.847V258.915C222.036 259.103 222.188 259.255 222.375 259.255Z" fill="#3F3D56"/>
<path d="M216.554 259.255H218.786C218.974 259.255 219.125 259.103 219.125 258.915V257.847C219.125 257.66 218.974 257.508 218.786 257.508H216.554C216.367 257.508 216.215 257.66 216.215 257.847V258.915C216.215 259.103 216.367 259.255 216.554 259.255Z" fill="#3F3D56"/>
<path d="M210.733 259.255H212.965C213.153 259.255 213.305 259.103 213.305 258.915V257.847C213.305 257.66 213.153 257.508 212.965 257.508H210.733C210.546 257.508 210.394 257.66 210.394 257.847V258.915C210.394 259.103 210.546 259.255 210.733 259.255Z" fill="#3F3D56"/>
<path d="M204.912 259.255H207.144C207.332 259.255 207.483 259.103 207.483 258.915V257.847C207.483 257.66 207.332 257.508 207.144 257.508H204.912C204.725 257.508 204.573 257.66 204.573 257.847V258.915C204.573 259.103 204.725 259.255 204.912 259.255Z" fill="#3F3D56"/>
<path d="M199.091 259.255H201.323C201.51 259.255 201.662 259.103 201.662 258.915V257.847C201.662 257.66 201.51 257.508 201.323 257.508H199.091C198.903 257.508 198.752 257.66 198.752 257.847V258.915C198.752 259.103 198.903 259.255 199.091 259.255Z" fill="#3F3D56"/>
<path d="M193.27 259.255H195.502C195.689 259.255 195.841 259.103 195.841 258.915V257.847C195.841 257.66 195.689 257.508 195.502 257.508H193.27C193.083 257.508 192.931 257.66 192.931 257.847V258.915C192.931 259.103 193.083 259.255 193.27 259.255Z" fill="#3F3D56"/>
<path d="M187.449 259.255H189.681C189.868 259.255 190.02 259.103 190.02 258.915V257.847C190.02 257.66 189.868 257.508 189.681 257.508H187.449C187.261 257.508 187.109 257.66 187.109 257.847V258.915C187.109 259.103 187.261 259.255 187.449 259.255Z" fill="#3F3D56"/>
<path d="M181.627 259.255H183.859C184.047 259.255 184.199 259.103 184.199 258.915V257.847C184.199 257.66 184.047 257.508 183.859 257.508H181.627C181.44 257.508 181.288 257.66 181.288 257.847V258.915C181.288 259.103 181.44 259.255 181.627 259.255Z" fill="#3F3D56"/>
<path d="M220.629 262.748H243.235C243.422 262.748 243.574 262.596 243.574 262.408V261.34C243.574 261.153 243.422 261.001 243.235 261.001H220.629C220.442 261.001 220.29 261.153 220.29 261.34V262.408C220.29 262.596 220.442 262.748 220.629 262.748Z" fill="#3F3D56"/>
</g>
<defs>
<clipPath id="clip0_30_845">
<rect width="579" height="440" fill="white"/>
</clipPath>
</defs>
</svg>
