<svg width="335" height="333" viewBox="0 0 335 333" fill="none" xmlns="http://www.w3.org/2000/svg">
<g clip-path="url(#clip0_23_722)">
<path d="M222.822 333H18.2854C13.4375 332.995 8.78968 331.067 5.36169 327.641C1.93371 324.215 0.00547224 319.57 0 314.725V18.2747C0.00547224 13.4296 1.93371 8.78457 5.36169 5.35858C8.78968 1.9326 13.4375 0.00546904 18.2854 0H222.822C227.67 0.00546226 232.318 1.93259 235.746 5.35857C239.174 8.78456 241.102 13.4296 241.107 18.2747V314.725C241.102 319.57 239.174 324.215 235.746 327.641C232.318 331.067 227.67 332.995 222.822 333V333Z" fill="#265D9D"/>
<path d="M223.182 321.34H17.9252C16.4308 321.339 14.9981 320.745 13.9414 319.688C12.8847 318.632 12.2903 317.201 12.2886 315.707V17.293C12.2903 15.7995 12.8847 14.3676 13.9414 13.3115C14.9981 12.2554 16.4308 11.6614 17.9252 11.6597H223.182C224.676 11.6614 226.109 12.2554 227.166 13.3115C228.222 14.3676 228.817 15.7995 228.818 17.293V315.707C228.817 317.201 228.222 318.632 227.166 319.688C226.109 320.745 224.676 321.339 223.182 321.34V321.34Z" fill="#E9F3FF"/>
<path d="M119.776 7.15127C120.635 7.15127 121.331 6.45524 121.331 5.59665C121.331 4.73805 120.635 4.04202 119.776 4.04202C118.917 4.04202 118.22 4.73805 118.22 5.59665C118.22 6.45524 118.917 7.15127 119.776 7.15127Z" fill="white"/>
<path d="M175.304 137.861L168.509 117.522L168.394 117.168L197.009 99.1033L198.531 101.152L206.5 111.877L203.587 120.552L196.057 142.964L195.727 143.949L209.671 154.31C210.224 155.329 210.683 156.258 211.056 157.111C215.219 166.591 209.057 166.161 209.057 166.161L180.698 154.012L175.304 137.861Z" fill="#306CB3"/>
<path d="M190.317 141.647L189.067 137.903L182.931 119.523L181.653 115.691L180.58 112.485L194.571 103.649L209.195 94.4204L218.686 107.194L215.809 115.76L214.411 119.921L212.25 126.359L207.913 139.266L221.857 149.627C222.912 151.476 223.745 153.444 224.338 155.488C224.581 156.341 224.696 157.225 224.679 158.112C224.702 158.566 224.628 159.019 224.463 159.443C224.297 159.866 224.043 160.249 223.719 160.568C223.394 160.886 223.005 161.131 222.578 161.288C222.152 161.445 221.696 161.51 221.243 161.478L192.884 149.329L190.317 141.647Z" fill="#306CB3"/>
<path opacity="0.15" d="M188.987 142.476L187.341 125.138L195.542 120.694L196.078 121.684L188.532 125.773L190.058 141.846L206.824 153.322L206.188 154.25L188.987 142.476Z" fill="black"/>
<path opacity="0.15" d="M206.875 141.896L206.206 142.801L223.126 155.295L223.795 154.39L206.875 141.896Z" fill="black"/>
<path d="M205.866 158.89L120.746 99.087L34.7568 158.333L119.464 194.082L205.866 158.89Z" fill="white"/>
<path d="M144.924 108.13L173.587 80.121L224.85 76.6597L288.572 137.473L335 162.867L321.92 201.308L265.883 174.723C254.474 173.885 247.132 170.101 242.49 166.122C240.893 164.756 239.454 163.215 238.199 161.53C236.825 159.743 235.753 157.743 235.026 155.609L212.25 126.359L207.554 120.322L204.513 116.416L194.571 103.649L193.856 102.732L176.967 102.285L168.177 113.817L162.004 121.91C161.86 124.761 160.83 127.495 159.057 129.733C153.521 136.463 142.295 135.149 142.295 135.149L144.924 108.13Z" fill="#275E9F"/>
<path d="M35.085 158.278H35.1463L70.3015 173.281L118.401 193.808C118.589 193.887 118.791 193.928 118.995 193.929C119.198 193.93 119.401 193.891 119.589 193.814L169.214 173.238L205.233 158.303L205.288 158.278H205.349C205.917 158.279 206.462 158.505 206.864 158.906C207.266 159.308 207.492 159.853 207.493 160.421V253.46C207.492 254.028 207.266 254.573 206.864 254.974C206.462 255.376 205.917 255.602 205.349 255.603H35.085C34.5167 255.602 33.9718 255.376 33.5699 254.974C33.1681 254.573 32.942 254.028 32.9414 253.46V160.421C32.942 159.853 33.1681 159.308 33.5699 158.906C33.9718 158.505 34.5167 158.279 35.085 158.278V158.278Z" fill="white"/>
<path d="M34.9324 158.89C34.9949 158.89 35.0559 158.871 35.1072 158.836L119.798 99.889C120.056 99.7105 120.362 99.6151 120.675 99.6156C120.989 99.6161 121.295 99.7126 121.552 99.892L205.633 158.835C205.699 158.881 205.781 158.899 205.861 158.885C205.941 158.871 206.012 158.826 206.059 158.76C206.105 158.693 206.124 158.611 206.11 158.531C206.096 158.452 206.051 158.38 205.984 158.334L121.904 99.3908C121.544 99.1396 121.115 99.0046 120.676 99.0039C120.237 99.0032 119.809 99.1368 119.448 99.3868L34.7571 158.333C34.7036 158.37 34.6634 158.424 34.6424 158.485C34.6213 158.547 34.6205 158.614 34.6401 158.676C34.6596 158.738 34.6985 158.793 34.7511 158.831C34.8037 158.87 34.8672 158.89 34.9324 158.89L34.9324 158.89Z" fill="#3F3D56"/>
<path d="M200.828 160.98L120.592 101.55L39.7476 165.208L116.458 210.657L158.105 201.17L200.828 160.98Z" fill="#E6E6E6"/>
<path d="M154.59 238.729H194.228C194.719 238.729 195.19 238.534 195.537 238.188C195.885 237.841 196.08 237.371 196.081 236.881C196.082 236.39 195.887 235.919 195.541 235.572C195.195 235.224 194.725 235.028 194.234 235.027H154.59C154.099 235.027 153.628 235.222 153.281 235.568C152.934 235.915 152.738 236.385 152.737 236.875C152.737 237.366 152.931 237.836 153.277 238.184C153.623 238.532 154.094 238.727 154.584 238.729H154.59Z" fill="#68A6F0"/>
<path d="M180.007 230.771H194.228C194.719 230.772 195.19 230.577 195.537 230.231C195.885 229.884 196.08 229.414 196.081 228.923C196.082 228.433 195.887 227.962 195.541 227.615C195.195 227.267 194.724 227.071 194.234 227.07H180.007C179.516 227.07 179.045 227.264 178.698 227.611C178.351 227.957 178.155 228.427 178.154 228.918C178.154 229.408 178.348 229.879 178.694 230.227C179.04 230.574 179.511 230.77 180.001 230.771H180.007Z" fill="#68A6F0"/>
<path d="M119.464 194.082C119.765 194.082 120.064 194.023 120.342 193.91L169.826 173.389V109.157C169.826 108.589 169.6 108.045 169.198 107.643C168.796 107.241 168.251 107.015 167.683 107.015H72.7515C72.1832 107.015 71.6384 107.241 71.2365 107.643C70.8346 108.045 70.6086 108.589 70.6079 109.157V173.434L70.7009 173.474L118.559 193.9C118.845 194.02 119.153 194.082 119.464 194.082V194.082Z" fill="white"/>
<path d="M118.498 194.04L70.4546 173.535V109.157C70.4553 108.548 70.6975 107.965 71.128 107.535C71.5586 107.104 72.1424 106.862 72.7513 106.862H167.683C168.292 106.862 168.875 107.104 169.306 107.535C169.736 107.965 169.979 108.548 169.979 109.157V173.491L120.401 194.051C119.79 194.299 119.106 194.295 118.498 194.04H118.498ZM169.367 109.157C169.366 108.711 169.189 108.283 168.873 107.967C168.557 107.652 168.129 107.474 167.683 107.474H72.7513C72.3048 107.474 71.8767 107.652 71.5609 107.967C71.2452 108.283 71.0676 108.711 71.067 109.157V173.131L118.738 193.477C119.194 193.668 119.708 193.671 120.167 193.485L169.367 173.083L169.367 109.157Z" fill="#3F3D56"/>
<path d="M33.4009 160.421V253.46C33.4015 254.028 33.6276 254.573 34.0294 254.974C34.4313 255.376 34.9762 255.602 35.5445 255.603H205.808C206.377 255.602 206.922 255.376 207.323 254.974C207.725 254.573 207.951 254.028 207.952 253.46V160.421C207.951 159.853 207.725 159.308 207.323 158.906C206.922 158.505 206.377 158.279 205.808 158.278H205.747L205.692 158.303L169.673 173.238L120.049 193.814C119.86 193.891 119.658 193.93 119.454 193.929C119.25 193.928 119.048 193.887 118.86 193.808L70.761 173.281L35.6058 158.278H35.5445C34.9762 158.279 34.4313 158.505 34.0294 158.906C33.6276 159.308 33.4015 159.853 33.4009 160.421V160.421ZM34.0134 160.421C34.0143 160.026 34.1675 159.646 34.4413 159.361C34.7151 159.076 35.0882 158.907 35.4832 158.89L70.761 173.945L118.619 194.371C119.151 194.594 119.75 194.597 120.284 194.38L169.673 173.899L205.867 158.89C206.262 158.906 206.636 159.074 206.911 159.36C207.185 159.645 207.339 160.025 207.34 160.421V253.46C207.339 253.866 207.178 254.255 206.891 254.542C206.604 254.829 206.214 254.99 205.808 254.99H35.5445C35.1385 254.99 34.7491 254.829 34.462 254.542C34.1749 254.255 34.0135 253.866 34.0134 253.46V160.421Z" fill="#3F3D56"/>
<path d="M81.0617 131.025H114.747C115.397 131.025 116.02 130.767 116.479 130.308C116.939 129.849 117.197 129.226 117.197 128.576C117.197 127.927 116.939 127.304 116.479 126.845C116.02 126.386 115.397 126.128 114.747 126.128H81.0617C80.4119 126.128 79.7888 126.386 79.3294 126.845C78.8699 127.304 78.6118 127.927 78.6118 128.576C78.6118 129.226 78.8699 129.849 79.3294 130.308C79.7888 130.767 80.4119 131.025 81.0617 131.025V131.025Z" fill="#68A6F0"/>
<path d="M81.0822 120.619H97.3124C97.9621 120.619 98.5852 120.361 99.0447 119.902C99.5041 119.443 99.7622 118.82 99.7622 118.171C99.7622 117.521 99.5041 116.899 99.0447 116.439C98.5852 115.98 97.9621 115.722 97.3124 115.722H81.0822C80.4324 115.722 79.8093 115.98 79.3499 116.439C78.8904 116.899 78.6323 117.521 78.6323 118.171C78.6323 118.82 78.8904 119.443 79.3499 119.902C79.8093 120.361 80.4324 120.619 81.0822 120.619V120.619Z" fill="#68A6F0"/>
<path d="M95.0231 155.509H146.47C147.119 155.509 147.743 155.251 148.202 154.792C148.661 154.333 148.92 153.71 148.92 153.061C148.92 152.411 148.661 151.788 148.202 151.329C147.743 150.87 147.119 150.612 146.47 150.612H95.0231C94.3733 150.612 93.7502 150.87 93.2908 151.329C92.8314 151.788 92.5732 152.411 92.5732 153.061C92.5732 153.71 92.8314 154.333 93.2908 154.792C93.7502 155.251 94.3733 155.509 95.0231 155.509V155.509Z" fill="#CCCCCC"/>
<path d="M95.0231 166.833H146.47C147.119 166.833 147.743 166.575 148.202 166.116C148.661 165.657 148.92 165.034 148.92 164.384C148.92 163.735 148.661 163.112 148.202 162.653C147.743 162.194 147.119 161.936 146.47 161.936H95.0231C94.3733 161.936 93.7502 162.194 93.2908 162.653C92.8314 163.112 92.5732 163.735 92.5732 164.384C92.5732 165.034 92.8314 165.657 93.2908 166.116C93.7502 166.575 94.3733 166.833 95.0231 166.833V166.833Z" fill="#CCCCCC"/>
<path opacity="0.1" d="M214.411 119.921L224.629 119.331L265.456 169.617L251.032 167.412L242.489 166.122C240.893 164.756 239.454 163.215 238.199 161.53L228.706 158.713L224.338 155.488C224.612 156.536 214.411 119.921 214.411 119.921Z" fill="black"/>
<path d="M149.095 118.321C149.388 116.44 150.414 114.752 151.948 113.624C153.483 112.497 155.401 112.022 157.285 112.303L168.177 113.817L181.653 115.691L192.067 117.138L204.513 116.416L215.809 115.76L222.483 115.375L266.86 170.034L228.707 158.713L224.338 155.488L205.212 141.369C205.212 141.369 198.946 140.216 189.067 137.903C187.597 137.554 170.967 133.383 163.155 131.115C161.642 130.674 160.284 130.213 159.057 129.733C150.348 126.307 148.605 121.914 149.095 118.321Z" fill="#306CB3"/>
<path opacity="0.15" d="M155.334 125.15C155.373 125.145 159.261 124.661 160.92 121.816C162.038 119.899 161.926 117.317 160.586 114.143L161.623 113.706C163.11 117.228 163.199 120.149 161.888 122.39C159.939 125.722 155.644 126.247 155.462 126.267L155.334 125.15Z" fill="black"/>
<path opacity="0.15" d="M194.646 117.551L194.643 116.427L214.66 116.395L193.558 103.209L194.154 102.254L218.574 117.513L194.646 117.551Z" fill="black"/>
</g>
<defs>
<clipPath id="clip0_23_722">
<rect width="335" height="333" fill="white"/>
</clipPath>
</defs>
</svg>
