<svg width="648" height="331" viewBox="0 0 648 331" fill="none" xmlns="http://www.w3.org/2000/svg">
<path d="M619.237 182.995L617.207 199.148L612.169 239.268H510.961C511.752 230.276 512.832 217.333 513.986 203.36C514.1 201.965 514.22 200.561 514.333 199.148C517.228 164.025 520.395 124.28 520.395 124.28L533.7 126.757L559.515 131.554L570.035 133.508L598.204 138.749C612.249 141.357 621.91 161.679 619.237 182.995V182.995Z" fill="#F2F2F2"/>
<path d="M542.682 59.2853L555.128 81.0501L531.207 97.9914L521.003 71.2383L542.682 59.2853Z" fill="#AFD2FD"/>
<path d="M526.838 79.8757C543.867 79.8757 557.671 66.0808 557.671 49.0638C557.671 32.0468 543.867 18.2518 526.838 18.2518C509.81 18.2518 496.005 32.0468 496.005 49.0638C496.005 66.0808 509.81 79.8757 526.838 79.8757Z" fill="#AFD2FD"/>
<path d="M524.624 55.952C522.176 52.2285 523.137 50.281 521.087 48.9126C521.087 48.9125 520.262 48.3619 514.36 48.048C513.038 38.5424 511.388 37.3897 511.388 37.3897C509.487 36.0611 506.665 36.4928 504.909 37.3054C501.197 39.0239 501.627 42.7361 499.127 43.4465C495.674 44.4278 489.391 38.8957 488.772 32.5626C488.267 27.3965 491.598 22.379 492.919 22.6444C494.228 22.9076 497.364 18.9069 499.057 18.9686C500.214 19.0107 504.938 16.9586 506.209 17.119C507.597 17.2943 512.174 19.6809 512.364 19.1356C513.69 15.3465 513.3 14.2952 514.425 13.2112C516.417 11.2904 519.677 12.628 524.791 13.3461C535.312 14.8236 537.148 11.3567 542.541 13.7066C545.264 14.8936 547.543 18.095 551.991 24.4492C558.21 33.3355 561.319 37.7787 561.339 42.961C561.36 48.246 558.799 47.9106 557.674 55.7346C556.422 64.4441 559.082 68.4265 556.176 71.2561C553.929 73.4429 549.363 73.9621 546.964 72.0428C542.857 68.7567 548.232 60.8276 543.687 55.0346C540.897 51.4786 535.285 49.8963 532.715 51.6541C529.809 53.6416 531.41 59.4753 529.366 60.0285C527.616 60.5022 525.051 56.6009 524.624 55.9521L524.624 55.952Z" fill="#2F2E41"/>
<path d="M596.448 177.306C595.588 192.001 592.172 196.64 590.975 213.995C590.714 217.805 590.557 222.227 590.557 227.502C590.557 228.846 590.564 230.146 590.564 231.416C590.564 234.121 590.512 236.676 590.198 239.268C589.959 241.337 589.548 243.422 588.868 245.618H522.461C522.454 245.603 522.454 245.588 522.446 245.573C522.057 243.885 521.811 242.271 521.624 240.725C521.564 240.232 521.511 239.746 521.467 239.268C521.407 238.708 521.354 238.155 521.302 237.61C521.1 235.436 520.899 233.381 520.42 231.416C519.777 228.704 518.611 226.149 516.218 223.684C515.239 222.676 514.26 221.891 513.303 221.204C513.116 221.077 512.937 220.95 512.75 220.823C510.104 219.007 507.599 217.7 505.431 213.995C505.394 213.943 505.364 213.883 505.334 213.831C504.96 213.181 503.989 211.477 503.286 209.206C502.545 206.845 502.097 203.879 502.905 200.847C504.826 193.66 511.943 192.943 517.759 185.681C518.387 184.897 519.007 184.03 519.598 183.066C522.229 178.793 522.939 175.028 523.777 170.553C523.911 169.828 524.031 169.111 524.128 168.416C524.203 167.893 524.27 167.378 524.323 166.87C524.786 162.604 524.561 158.929 524.016 155.642C522.237 144.876 516.989 138.213 520.697 128.553C521.863 125.52 523.515 123.241 525.182 121.292C528.71 117.16 532.336 114.478 531.709 109.144C531.073 103.765 526.991 103.026 526.535 98.3267C526.303 95.9512 527.081 93.4485 528.539 90.9906V90.9833C533.204 83.0717 544.851 75.7878 552.251 76.0194C553.619 76.057 554.831 76.363 555.84 76.9532C559.496 79.1047 557.971 83.8038 563.57 90.3931C567.733 95.2862 572.443 97.2436 574.23 98.1698C581.309 101.861 587.066 112.745 590.975 126.663C591.005 126.768 591.035 126.872 591.065 126.984C593.48 135.702 595.185 145.601 596.029 155.642C596.388 159.892 596.597 164.166 596.642 168.394C596.68 171.771 596.605 174.699 596.448 177.306V177.306Z" fill="#AFD2FD"/>
<path d="M546.72 227.651L545.366 231.416L544.514 233.777L542.54 239.268L540.253 245.618H525.548L528.015 239.268L529.159 236.31L531.058 231.416L534.242 223.199L546.72 227.651Z" fill="#AFD2FD"/>
<path d="M591.208 125.378C591.17 125.864 591.118 126.401 591.065 126.984C590.483 132.916 589.106 143.532 587.096 155.642C586.034 162.029 584.793 168.835 583.395 175.596C580.39 190.186 576.653 204.552 572.429 213.995C571.674 215.698 570.896 217.237 570.103 218.597C569.498 219.635 568.862 220.658 568.197 221.667C566.044 224.977 563.629 228.114 561.125 231.043C561.028 231.17 560.916 231.29 560.804 231.416C560.4 231.894 559.981 232.365 559.563 232.836C557.514 235.144 555.421 237.296 553.395 239.268C550.929 241.674 548.551 243.803 546.421 245.618H522.543L522.446 245.573L519.007 244.049C519.007 244.049 519.986 242.899 521.624 240.725C521.96 240.284 522.319 239.798 522.708 239.268C523.186 238.618 523.702 237.901 524.255 237.124C525.406 235.495 526.714 233.583 528.12 231.416C530.841 227.225 533.943 222.07 537.076 216.102C537.435 215.407 537.801 214.705 538.167 213.995C538.175 213.972 538.19 213.95 538.197 213.928C538.818 212.717 539.431 211.47 540.044 210.2C545.239 199.397 546.727 190.432 547.154 187.526C547.751 183.418 548.581 177.672 548.357 171.352C548.207 167.184 547.602 162.776 546.159 158.398V158.391C545.86 157.472 545.523 156.553 545.142 155.642C544.462 154.006 543.654 152.392 542.697 150.801C538.474 143.793 535.043 143.502 532.314 135.867C531.506 133.603 529.675 128.493 530.235 123.099V123.092C530.303 122.427 530.415 121.755 530.565 121.082V121.075C530.602 120.888 530.655 120.694 530.707 120.507C531.133 118.856 531.836 117.22 532.905 115.666C534.99 112.648 537.838 110.855 540.387 109.787L540.396 109.779C543.341 108.554 545.883 108.293 546.376 108.248C557.298 107.277 565.768 116.451 570.395 121.463C572.182 123.398 573.819 125.02 575.314 126.342C586.954 136.726 590.146 130.092 590.975 126.663C591.102 126.133 591.17 125.677 591.208 125.378V125.378Z" fill="#AFD2FD"/>
<path d="M591.245 124.99C591.245 125.027 591.237 125.154 591.208 125.363C591.222 125.251 591.23 125.139 591.237 125.034C591.237 125.012 591.237 124.997 591.245 124.99V124.99Z" fill="#AFD2FD"/>
<path d="M531.873 282.628H131.139C127.416 282.628 124.381 285.653 124.381 289.374C124.381 293.101 127.416 296.127 131.139 296.127H531.873C535.595 296.127 538.624 293.101 538.624 289.374C538.624 285.653 535.595 282.628 531.873 282.628Z" fill="#E6E6E6"/>
<path d="M175.73 60.7175L200.986 50.0959L211.819 72.2878L185.279 83.1131L175.73 60.7175Z" fill="#AFD2FD"/>
<path opacity="0.1" d="M175.73 60.7175L200.986 50.0959L211.819 72.2878L185.279 83.1131L175.73 60.7175Z" fill="#11417A"/>
<path d="M179.321 52.261L204.236 80.948C204.236 80.948 186.904 135.616 169.572 140.487C152.24 145.359 120.283 169.174 120.283 169.174L80.2026 143.194L99.7013 114.507C99.7013 114.507 146.823 50.0959 159.281 50.0959C171.738 50.0959 179.321 52.261 179.321 52.261V52.261Z" fill="#AFD2FD"/>
<path d="M145.658 239.268H87.6605L83.9936 234.37L69.0229 214.37L65.5782 209.769C65.5782 209.769 52.579 185.954 55.2872 164.303C57.9954 142.652 86.1602 137.781 86.1602 137.781H87.3193L121.799 168.059L119.741 196.238L130.661 214.37L145.658 239.268V239.268Z" fill="#2F2E41"/>
<path d="M99.5385 239.268H83.9937V216.264L99.5385 239.268Z" fill="#2F2E41"/>
<path d="M434.819 204.346L432.885 214.37L428.087 239.268H331.682C332.434 233.688 333.464 225.655 334.563 216.984C334.671 216.118 334.785 215.247 334.893 214.37C337.65 192.573 340.667 167.908 340.667 167.908L353.341 169.445L377.931 172.422L387.952 173.634L414.784 176.887C428.162 178.506 437.365 191.117 434.819 204.346H434.819Z" fill="#F2F2F2"/>
<path d="M571.25 239.268H518.961C519.758 238.332 520.207 237.791 520.207 237.791L535.882 235.203L568.179 229.877C568.179 229.877 569.653 233.682 571.25 239.268V239.268Z" fill="#2F2E41"/>
<path d="M349.455 71.5435L372.194 103.681L332.529 104.864L328.271 74.6631L349.455 71.5435Z" fill="#E2EFFF"/>
<path opacity="0.1" d="M349.455 71.5435L372.194 103.681L332.529 104.864L328.271 74.6631L349.455 71.5435Z" fill="#11417A"/>
<path d="M237.313 138.129C234.395 129.718 227.687 124.405 222.331 126.261C216.974 128.118 214.999 136.44 217.919 144.854C219.039 148.231 220.952 151.291 223.498 153.777L236.311 189.26L252.846 182.897L238.459 148.592C238.919 145.063 238.526 141.476 237.313 138.129V138.129Z" fill="#E2EFFF"/>
<path d="M391.238 121.754L391.207 154.506L388.157 166.603L381.885 191.485L377.319 214.37L373.918 231.42L372.705 237.509C371.789 238.121 370.879 238.705 369.969 239.268H290.745C286.244 236.567 283.726 234.467 283.726 234.467C283.726 234.467 284.971 233.298 286.396 231.42C288.801 228.248 291.709 223.052 289.927 218.088C289.554 217.049 289.456 215.783 289.57 214.37C290.296 205.049 300.077 189.288 300.077 189.288L298.052 165.894L297.163 155.643L303.426 105.657L323.84 93.7975L327.365 93.4567L362.154 91.5785L376.533 92.4066L377.188 92.5853L391.238 121.754V121.754Z" fill="#073367"/>
<path d="M392.783 239.268H375.45L374.687 231.42L374.67 231.263L379.578 230.927L392.344 230.056L392.566 234.754L392.739 238.359L392.783 239.268Z" fill="#AFD2FD"/>
<path d="M397.05 129.673L404.33 172.362L398.389 214.37L397.463 220.908L395.827 232.454L395.323 236.004L395.339 236.389L395.464 239.268H374.882L374.124 231.42L374.059 230.716L372.51 214.641L372.483 214.37L369.195 180.281L375.64 155.643L376.117 153.829V153.824L378.921 111.638L376.749 92.4662L376.728 92.2875C376.771 92.3146 376.809 92.3417 376.852 92.3687C376.966 92.4391 377.08 92.5095 377.188 92.5852C389.84 100.607 397.38 114.68 397.05 129.673V129.673Z" fill="#073367"/>
<path d="M310.8 113.837L302.885 105.656C302.885 105.656 285.942 113.289 285.098 117.524C284.253 121.759 254.338 183.957 254.338 183.957L241.323 149.22L224.381 160.523C224.381 160.523 237.975 214.455 250.688 216.987C263.401 219.519 306.009 153.153 306.009 153.153L310.8 113.837H310.8Z" fill="#073367"/>
<path d="M632.174 213.995H15.8187C7.09461 213.995 0 221.092 0 229.81C0 238.528 7.0946 245.618 15.8187 245.618H632.174C640.898 245.618 648 238.529 648 229.81C648 221.091 640.898 213.995 632.174 213.995Z" fill="#E6E6E6"/>
<path d="M387.631 165.803L386.432 221.685C386.316 227.095 381.895 231.42 376.48 231.42H273.613C268.327 231.42 263.962 227.29 263.674 222.015L260.617 166.133C260.305 160.434 264.845 155.643 270.556 155.643H377.679C383.26 155.643 387.75 160.227 387.631 165.803V165.803Z" fill="#5F7187"/>
<path d="M221.568 74.2069C235.16 74.2069 246.179 63.1955 246.179 49.6122C246.179 36.0289 235.16 25.0175 221.568 25.0175C207.975 25.0175 196.957 36.0289 196.957 49.6122C196.957 63.1955 207.975 74.2069 221.568 74.2069Z" fill="#AFD2FD"/>
<path d="M180.404 113.965L183.112 143.194L201.528 217.347L185.618 222.919L158.739 142.111L155.026 109.635L180.404 113.965Z" fill="#AFD2FD"/>
<path d="M173.079 165.803L171.881 221.685C171.765 227.095 167.343 231.42 161.929 231.42H59.0613C53.7749 231.42 49.4106 227.29 49.122 222.015L46.065 166.133C45.7532 160.434 50.2932 155.643 56.0043 155.643H163.127C168.708 155.643 173.198 160.227 173.079 165.803V165.803Z" fill="#5F7187"/>
<path d="M204.46 231.798C215.195 231.798 223.897 227.951 223.897 223.206C223.897 218.461 215.195 214.615 204.46 214.615C193.726 214.615 185.023 218.461 185.023 223.206C185.023 227.951 193.726 231.798 204.46 231.798Z" fill="#AFD2FD"/>
<path d="M142.219 118.434L153.323 59.2974C153.323 59.2974 184.196 54.9673 185.279 65.2513C186.362 75.5354 184.505 125.795 184.505 125.795L142.219 118.434V118.434Z" fill="#AFD2FD"/>
<path d="M211.633 53.4793C211.633 53.4793 226.858 48.0494 233.28 45.1278C239.702 42.2062 252.46 62.584 252.744 51.8218C253.028 41.0596 248.619 36.5465 248.619 36.5465C248.619 36.5465 247.518 13.0027 223.783 15.9462C223.783 15.9462 229.003 4.16699 211.866 2.34555C194.728 0.524115 168.066 41.8809 170.454 48.0615C172.842 54.242 175.704 59.3517 168.93 65.9601C162.155 72.5685 149.47 109.864 159.122 119.901C168.773 129.937 169.406 134.292 162.794 140.535C156.181 146.779 140.55 160.355 157.451 162.712C174.351 165.069 155.905 163.309 168.504 152.234C181.103 141.158 199.489 141.611 192.624 123.842C185.759 106.073 197.686 80.6097 196.193 76.7468C194.701 72.884 199.537 48.3547 199.537 48.3547C199.537 48.3547 210.792 46.7022 211.633 53.4793V53.4793Z" fill="#2F2E41"/>
<path d="M337.297 83.1756C352.093 83.1756 364.088 71.1889 364.088 56.4025C364.088 41.6161 352.093 29.6293 337.297 29.6293C322.5 29.6293 310.505 41.6161 310.505 56.4025C310.505 71.1889 322.5 83.1756 337.297 83.1756Z" fill="#E2EFFF"/>
<path d="M339.435 20.4079C338.659 20.8601 337.621 20.1759 337.372 19.3139C337.124 18.452 337.413 17.5368 337.701 16.6869L339.146 12.4083C340.171 9.37389 341.259 6.23341 343.48 3.9238C346.831 0.437819 352.157 -0.448998 356.951 0.19347C363.108 1.01853 369.183 4.35017 372.046 9.85948C374.908 15.3688 373.69 23.0563 368.517 26.4935C375.889 34.9379 378.459 44.3488 378.053 55.548C377.647 66.7472 365.435 77.0541 357.471 84.9435C355.692 83.8661 354.075 78.8169 355.053 76.9826C356.031 75.1483 354.63 73.0233 355.841 71.3337C357.052 69.6442 358.066 72.3344 356.841 70.6545C356.069 69.5944 359.084 67.1556 357.936 66.5211C352.38 63.4522 350.532 56.532 347.043 51.2327C342.834 44.8407 335.631 40.512 328.008 39.7939C323.809 39.3983 319.374 40.1148 315.932 42.551C312.49 44.9872 310.261 49.3407 311.06 53.4796C308.993 51.3822 307.964 48.3084 308.352 45.3902C308.74 42.472 310.536 39.7735 313.08 38.2884C311.533 33.1774 312.858 27.2983 316.448 23.3432C320.038 19.3882 334.599 20.0618 339.84 21.1027L339.435 20.4079V20.4079Z" fill="#2F2E41"/>
<path d="M340.249 39.9491C347.19 40.6978 352.201 46.7063 356.433 52.2551C358.872 55.4533 361.427 58.9852 361.366 63.0059C361.304 67.071 358.584 70.5577 357.285 74.4101C355.16 80.7071 357.231 88.199 362.288 92.5137C357.291 93.4613 351.889 89.7169 351.026 84.7074C350.022 78.8758 354.445 73.2474 353.921 67.3533C353.46 62.1605 349.365 58.164 345.884 54.2814C342.402 50.3987 339.133 45.2465 340.734 40.285L340.249 39.9491V39.9491Z" fill="#2F2E41"/>
<path d="M444.016 217.379C437.141 221.287 433.586 227.999 436.075 232.371C438.565 236.743 446.155 237.119 453.032 233.209C455.801 231.684 458.164 229.52 459.924 226.896L488.845 209.97L480.608 196.577L452.971 214.684C449.814 214.855 446.743 215.779 444.016 217.379Z" fill="#AFD2FD"/>
<path d="M541.938 93.2641C541.074 92.9218 533.491 90.0519 526.567 93.841C518.615 98.1936 517.386 108.13 516.955 111.615C515.96 119.665 518.892 121.469 519.511 129.619C520.669 144.867 523.722 127.472 518.846 134.432C517.158 136.842 499.92 174.175 490.413 181.487C471.923 195.709 460.182 205.725 460.182 205.725L473.586 220.276C473.586 220.276 494.767 214.636 513.488 202.488C532.692 190.027 542.294 183.797 549.722 171.608C550.362 170.559 565.669 144.583 557.448 115.859C555.573 109.307 552.138 97.3032 541.938 93.2641V93.2641Z" fill="#AFD2FD"/>
<path d="M611.154 165.803L609.956 221.685C609.84 227.095 605.418 231.42 600.004 231.42H497.136C491.85 231.42 487.486 227.29 487.197 222.015L484.14 166.133C483.828 160.434 488.368 155.643 494.079 155.643H601.202C606.783 155.643 611.274 160.227 611.154 165.803V165.803Z" fill="#5F7187"/>
</svg>
