<svg width="463" height="308" viewBox="0 0 463 308" fill="none" xmlns="http://www.w3.org/2000/svg">
<g clip-path="url(#clip0_407_226)">
<path d="M348.24 11.8996C344.742 13.8633 339.096 6.09606 337.817 9.89535C336.538 13.6946 339.636 29.0246 341.235 32.7012C342.03 34.5287 343.153 36.2001 343.932 38.034C344.712 39.8679 345.13 41.9765 344.441 43.8462C343.242 47.1 339.283 48.4237 337.321 51.2835C335.035 54.6144 335.958 59.1007 337.027 62.9955C337.948 66.3526 338.929 69.7401 340.702 72.7366C342.475 75.7332 345.148 78.3424 348.488 79.3339C352.741 80.5962 357.286 79.096 361.386 77.4023C365.327 75.774 369.226 73.9281 372.578 71.2937C375.931 68.6593 378.728 65.1626 379.9 61.0657C381.37 55.9265 380.142 50.3024 377.597 45.6011C375.051 40.8997 371.287 36.9831 367.424 33.2853C360.917 27.0575 353.994 21.2652 346.714 15.9601L348.24 11.8996Z" fill="#2F2E41"/>
<path d="M400.262 275.594L396.959 306.386L396.809 307.794L359.447 307.648L359.249 306.235L355.294 278.02L400.262 275.594Z" fill="#DDECFF"/>
<path d="M343.136 306.174C343.136 306.639 343.131 307.108 343.127 307.582L304.341 307.432L304.214 306.019L301.823 279.235L341.929 274.378C341.929 274.378 343.221 288.584 343.136 306.174Z" fill="#DDECFF"/>
<path d="M338.819 66.4459C344.98 74.199 355.842 76.4458 364.608 71.8308C377.121 65.2434 394.205 57.6936 397.225 63.7263C402.086 73.4394 402.086 82.8657 402.086 82.8657L406.947 196.067C406.947 196.067 409.378 241.774 378.994 237.74C348.611 233.705 301.213 250.703 301.213 250.703L306.054 200.554L318.982 181.646L324.219 127.4L315.189 83.7596L326.127 78.903C326.127 78.903 327.343 70.4041 330.989 70.4041C334.635 70.4041 335.515 62.2397 338.721 66.3219C338.753 66.3627 338.786 66.404 338.819 66.4458V66.4459Z" fill="#1261A0"/>
<path d="M404.733 307.826L396.808 307.793L359.446 307.648L354.584 307.629L354.302 306.217L346.786 268.31L345.611 306.184L345.569 307.592L343.126 307.582L304.341 307.432L301.56 307.418L301.55 306.01L301.386 279.24L301.235 254.451L301.212 250.701L301.217 250.696L312.83 227.179L316.217 220.317L316.912 218.909L323.696 205.172L385.078 196.682L386.017 196.551L402.695 194.246L402.817 201.075L402.887 204.952L403.136 218.909L403.164 220.317L403.193 221.927L404.705 306.414L404.733 307.826Z" fill="#2F2E41"/>
<path d="M356.978 62.845C370.996 62.845 382.359 51.4927 382.359 37.4888C382.359 23.485 370.996 12.1327 356.978 12.1327C342.96 12.1327 331.597 23.485 331.597 37.4888C331.597 51.4927 342.96 62.845 356.978 62.845Z" fill="#DDECFF"/>
<path d="M385.59 77.2C379.666 85.6422 376.637 96.073 377.118 106.372C370.401 103.121 365.868 96.2539 364.325 88.9591C362.782 81.6643 363.959 74.0047 366.438 66.9723C366.463 66.902 366.488 66.8317 366.513 66.7615C370.278 56.2059 366.78 44.4084 357.687 37.8468C351.554 33.4207 346.235 27.868 342.152 21.5031C339.848 17.9098 337.889 13.4023 339.611 9.49658C341.197 5.89764 345.296 4.21555 349.067 3.09004C357.68 0.520023 366.831 -0.942352 375.671 0.683881C384.51 2.31011 393.02 7.38866 397.198 15.3393C401.376 23.29 400.281 34.1407 393.5 40.0348C395.639 40.7256 397.152 42.9903 396.971 45.2285C396.789 47.4668 394.93 49.4583 392.708 49.7959C394.158 49.7446 395.014 51.6522 394.497 53.0064C393.98 54.3605 392.646 55.2017 391.374 55.8987C389.563 56.8916 387.554 57.9298 387.546 60.5298C387.543 61.5723 387.915 62.584 388.523 63.4313C389.997 65.4846 392.375 66.4093 394.665 67.2774C389.822 68.7025 385.96 73.027 385.093 77.996L385.59 77.2Z" fill="#2F2E41"/>
<path d="M277.36 67.3908C276.668 60.1312 279.856 53.8896 284.48 53.45C289.105 53.0104 293.414 58.5388 294.106 65.8011C294.422 68.6983 294.04 71.629 292.99 74.3481L295.535 105.145L281.044 106.03L280.073 75.5762C278.527 73.1033 277.597 70.2965 277.36 67.3908Z" fill="#DDECFF"/>
<path d="M356.313 82.0003C356.313 82.0003 332.638 68.0873 327.764 70.1743C322.889 72.2612 299.214 107.739 299.214 107.739L297.037 101.265L280.412 102.87C280.412 102.87 270.664 148.087 292.25 143.913C313.837 139.739 349.35 100.783 349.35 100.783L356.313 82.0003H356.313Z" fill="#1261A0"/>
<path d="M136.658 156.756C136.658 156.756 150.026 148.926 153.626 156.186C157.226 163.446 190.484 250.052 190.484 250.052L169.053 254.22L136.658 156.756V156.756Z" fill="#1261A0"/>
<path d="M107.502 105.02L108.132 105.916C105.783 107.271 105.436 110.689 106.538 113.169C107.64 115.649 109.772 117.488 111.616 119.48C113.46 121.473 115.142 123.941 114.971 126.65C114.779 129.697 112.292 132.207 111.946 135.242C111.445 139.66 115.563 143.537 115.359 147.981C115.205 151.374 112.593 154.1 110.001 156.301C107.973 158.027 105.766 159.761 104.397 161.987C104.022 162.6 103.709 163.255 103.479 163.955C102.457 167.115 103.421 170.558 104.719 173.613C106.012 176.669 107.66 179.654 108.065 182.947C108.466 186.24 107.222 190.042 104.189 191.392C110.231 190.876 116.127 188.77 121.13 185.348C121.581 185.039 122.019 184.723 122.453 184.398C129.546 179.062 134.528 171.354 139.323 163.842C139.719 163.225 140.112 162.604 140.508 161.987C141.572 160.316 142.64 158.648 143.708 156.977C146.754 152.2 149.838 147.351 151.499 141.941C153.026 136.951 153.285 131.678 153.911 126.496C154.215 123.957 154.616 121.427 154.691 118.872C154.812 114.941 154.14 110.993 152.771 107.304C151.432 103.677 149.421 100.297 146.83 97.4202C144.176 94.473 140.929 92.0761 137.358 90.3503C133.898 88.6787 130.135 87.6407 126.3 87.3531C125.015 87.2572 123.734 87.2406 122.453 87.2989C117.4 87.5074 112.405 88.7829 107.548 90.3503C103.976 92.0761 100.73 94.473 98.0757 97.4202C95.4845 100.297 93.4732 103.677 92.1338 107.304C96.7905 104.819 102.324 103.965 107.502 105.02Z" fill="#2F2E41"/>
<path d="M143.716 150.623L119.757 141.237L119.15 150.623L98.1467 153.908L88.2812 198.494L97.2071 226.184L163.916 228.061L161.568 218.674C161.568 218.674 172.373 206.472 165.796 186.761L165.065 181.744C163.155 168.628 155.271 157.135 143.716 150.623L143.716 150.623Z" fill="#1261A0"/>
<path d="M130.38 140.815C142.133 140.815 151.661 131.297 151.661 119.555C151.661 107.814 142.133 98.2956 130.38 98.2956C118.627 98.2956 109.1 107.814 109.1 119.555C109.1 131.297 118.627 140.815 130.38 140.815Z" fill="#1261A0"/>
<path d="M90.2141 118.872C90.2892 121.427 90.6898 123.957 90.9944 126.496C91.6203 131.678 91.879 136.951 93.4062 141.941C95.067 147.351 98.1506 152.2 101.197 156.977C102.265 158.648 103.333 160.316 104.397 161.987C104.794 162.604 105.186 163.225 105.582 163.842C110.377 171.354 115.359 179.062 122.452 184.398C122.886 184.723 123.325 185.04 123.775 185.348C128.778 188.77 134.674 190.876 140.716 191.392C137.683 190.042 136.439 186.24 136.84 182.947C137.245 179.654 138.893 176.669 140.186 173.613C141.484 170.558 142.448 167.115 141.426 163.955C141.196 163.255 140.883 162.6 140.508 161.987C139.139 159.761 136.932 158.027 134.904 156.301C132.313 154.1 129.7 151.374 129.546 147.981C129.342 143.537 126.5 145.025 125.999 140.607C125.653 137.572 121.601 132.399 121.409 129.352C121.238 126.642 122.903 120.089 124.747 118.096C126.592 116.104 124.898 110.155 125.999 107.675C127.101 105.195 139.122 107.271 136.773 105.916L137.403 105.02C142.582 103.965 148.115 104.819 152.771 107.304C153.785 107.842 154.753 108.454 155.671 109.146C157.887 105.103 155.258 99.9714 151.682 97.0576C148.181 94.1979 143.867 92.5471 139.586 91.0923C138.847 90.8422 138.104 90.5921 137.357 90.3503C132.5 88.7829 127.506 87.5074 122.452 87.2989C121.171 87.2406 119.89 87.2572 118.605 87.3531C114.77 87.6407 111.007 88.6787 107.548 90.3503C103.976 92.0761 100.729 94.473 98.0755 97.4202C95.4842 100.297 93.473 103.677 92.1335 107.304C90.7649 110.993 90.0931 114.941 90.2141 118.872H90.2141Z" fill="#2F2E41"/>
<path d="M461.686 288.824L432.024 226.559C429.811 221.913 425.052 218.909 419.899 218.909H45.2366C43.8131 218.909 42.4273 219.13 41.1212 219.552C37.8187 220.608 35.0094 222.917 33.3464 226.09L1.55134 286.641C-0.647213 290.823 -0.501552 295.741 1.9413 299.787C4.37945 303.837 8.65923 306.268 13.39 306.287L301.56 307.418L304.341 307.432L343.126 307.582L345.569 307.592L354.584 307.629L359.447 307.648L396.809 307.793L404.734 307.826L449.509 308H449.565C454.188 308 458.421 305.672 460.901 301.772C463.391 297.853 463.682 293.01 461.686 288.824Z" fill="white"/>
<path d="M461.686 288.824L432.024 226.559C429.811 221.913 425.052 218.909 419.899 218.909H45.2366C43.8131 218.909 42.4273 219.13 41.1212 219.552C37.8187 220.608 35.0094 222.917 33.3464 226.09L1.55134 286.641C-0.647213 290.823 -0.501552 295.741 1.9413 299.787C4.37945 303.837 8.65923 306.268 13.39 306.287L301.56 307.418L304.341 307.432L343.126 307.582L345.569 307.592L354.584 307.629L359.447 307.648L396.809 307.793L404.734 307.826L449.509 308H449.565C454.188 308 458.421 305.672 460.901 301.772C463.391 297.853 463.682 293.01 461.686 288.824ZM459.713 301.017C457.491 304.513 453.704 306.592 449.565 306.592H449.514L404.706 306.414L396.959 306.386L359.249 306.235L354.303 306.217L345.612 306.184L343.136 306.174L304.214 306.019L301.551 306.01L13.3946 304.879C9.16192 304.86 5.32842 302.687 3.14867 299.064C0.964108 295.441 0.832672 291.039 2.80104 287.294L34.596 226.747C35.7422 224.564 37.4898 222.837 39.5804 221.725C41.2857 220.815 43.2212 220.317 45.2366 220.317H419.899C424.512 220.317 428.768 223.006 430.75 227.164L460.413 289.424C462.202 293.179 461.939 297.511 459.713 301.017Z" fill="black"/>
<path d="M133.145 263.964L204.082 238.151L168.614 223.9L97.9111 242.375L133.145 263.964Z" fill="#F2F2F2"/>
<path d="M241.195 225.01L233.209 250.353L326.696 255.985L318.71 227.357L241.195 225.01Z" fill="#F2F2F2"/>
<path d="M130.997 229.345C137.57 229.997 142.561 233.913 142.146 238.091C141.73 242.27 136.066 245.129 129.49 244.477C126.86 244.252 124.322 243.402 122.089 241.996L94.2734 238.886L96.0127 225.877L123.249 230.324C125.716 229.385 128.373 229.049 130.997 229.345H130.997Z" fill="#1261A0"/>
<path d="M103.079 156.49L98.146 153.908C98.146 153.908 90.3946 154.143 85.2269 159.306C80.0593 164.468 38.2486 223.602 38.2486 223.602C38.2486 223.602 27.9133 239.559 53.7514 241.906C79.5895 244.252 108.246 244.252 108.246 244.252L110.595 225.01L71.6032 220.786L98.908 184.649L103.079 156.49Z" fill="#1261A0"/>
<path d="M378.151 219.838C372.574 223.975 365.917 224.454 363.282 220.908C360.647 217.362 363.032 211.135 368.611 206.997C370.817 205.313 373.395 204.182 376.128 203.698L399.979 186.467L407.834 197.821L383.488 213.602C382.233 216.077 380.403 218.215 378.151 219.838Z" fill="#DDECFF"/>
<path d="M393.177 79.5101C393.177 79.5101 412.417 80.1171 416.063 93.4726C419.709 106.828 427.001 135.295 425.785 174.82C425.785 174.82 431.862 200.316 416.063 199.102L394.187 208.815L379.603 189.389L391.756 174.82L393.177 79.5101Z" fill="#1261A0"/>
</g>
<defs>
<clipPath id="clip0_407_226">
<rect width="463" height="308" fill="white"/>
</clipPath>
</defs>
</svg>
