<svg width="95" height="95" viewBox="0 0 95 95" fill="none" xmlns="http://www.w3.org/2000/svg">
<path d="M47.4988 1.49272C41.5274 1.27489 36.9032 5.40071 31.8958 7.99317C25.0853 12.0303 18.0722 15.7546 11.3974 20.001C7.03144 23.5496 5.02549 29.2598 5.48398 34.7741C5.5094 44.5509 5.43332 54.33 5.52239 64.1053C6.08775 70.0243 10.192 75.0476 15.4735 77.5237C23.9518 82.3897 32.3805 87.3462 40.8898 92.1554C46.2993 94.622 52.7031 93.5846 57.4883 90.2474C65.9418 85.3371 74.4477 80.5136 82.868 75.5486C87.7117 72.1 90.011 66.0343 89.5139 60.2224C89.4885 50.4454 89.5647 40.6665 89.4755 30.8911C88.9096 24.9726 84.806 19.9481 79.524 17.4731C71.0455 12.6081 62.6153 7.65492 54.1063 2.84518C52.0468 1.8885 49.759 1.49903 47.499 1.49254L47.4988 1.49272ZM42.1746 26.1129H52.825V68.8852H42.1746V26.1129ZM55.5768 35.4226H66.222V68.8852H55.5768V35.4226ZM28.7742 52.8788H39.4227V68.8852H28.7742V52.8786V52.8788Z" fill="#3895D3"/>
</svg>
