<svg width="94" height="24" viewBox="0 0 94 24" fill="none" xmlns="http://www.w3.org/2000/svg">
<g clip-path="url(#clip0_809_443)">
<path d="M21.26 12.8179H17.4431V10.9094H21.26V12.8179ZM21.26 13.9084H17.4431V15.8169H21.26V13.9084ZM21.26 4.9115H17.4431V6.81992H21.26V4.9115ZM21.26 7.91047H17.4431V9.81889H21.26V7.91047ZM21.26 16.9074H17.4431V18.8158H21.26V16.9073V16.9074ZM23.8964 20.6697C23.7873 21.2368 23.1057 21.2504 22.6504 21.2696H14.1715V23.7232H12.4785L0 21.5421V2.46055L12.5521 0.276733H14.1715V2.44962H22.3587C22.8195 2.4687 23.3266 2.43598 23.7273 2.71133C24.0082 3.11483 23.9809 3.62741 24 4.09086L23.9891 18.2842C23.9755 19.0775 24.0627 19.8873 23.8964 20.6697ZM9.99745 16.3921C9.24502 14.8654 8.47894 13.3495 7.72917 11.8227C8.47073 10.3369 9.20142 8.84562 9.92934 7.3543C9.31045 7.3843 8.69156 7.42245 8.07544 7.46609C7.61466 8.58659 7.07756 9.67714 6.7177 10.8358C6.38236 9.74258 5.93798 8.69019 5.53177 7.6242C4.93195 7.65692 4.33214 7.69236 3.73238 7.7278C4.36486 9.12373 5.03831 10.5005 5.65172 11.9045C4.92923 13.2677 4.25311 14.65 3.55242 16.0213C4.14947 16.0459 4.74656 16.0704 5.34361 16.0786C5.76895 14.9935 6.29784 13.9493 6.66863 12.8424C7.00125 14.0311 7.56558 15.1298 8.02908 16.2667C8.68612 16.3131 9.34041 16.354 9.99745 16.3921ZM22.6997 3.74445H14.1715V4.9115H16.3526V6.81992H14.1715V7.91047H16.3526V9.81889H14.1715V10.9094H16.3526V12.8179H14.1715V13.9084H16.3526V15.8169H14.1715V16.9074H16.3526V18.8158H14.1715V20.0766H22.6997V3.74445Z" fill="white"/>
</g>
<g clip-path="url(#clip1_809_443)">
<path d="M45.654 0.174011V2.37701H43.682V2.95701H45.654V5.16001H46.35V2.95701H48.32V2.37701H46.35V0.174011H46.002H45.654ZM51.684 2.43601L51.682 4.05901V5.68201H48.725V6.60901H51.682V9.79701H52.725L52.736 8.21501L52.756 6.63901L54.221 6.61901L55.681 6.60901V5.68201H52.728V2.43601H52.206H51.684ZM39.277 2.49601V5.68601H36.291V6.61101H39.277V9.80101H40.262V6.61001H43.275V5.68501H40.262V2.49601H39.77H39.277ZM45.363 7.76601V11.359H42.06V12.547H45.364V16.143H46.644V12.547H49.953V11.359H46.643V7.76601H46.006H45.363ZM55.084 9.31601V11.537H53.072V12.348H55.084V14.609H55.971V12.348H58V11.537H55.971V9.31701H55.549L55.084 9.31601ZM35.973 9.44701V11.621H34V12.242H35.973V14.436H36.64V12.242H38.64V11.622H36.609V9.44601H36.291L35.973 9.44701ZM51.682 13.963V17.217H48.666V18.144H51.682V21.361H52.754V18.145H55.74V17.217H52.754V13.963H52.221H51.682ZM39.219 13.971V17.217H36.262V18.145H39.219V21.334H40.32V18.145H43.275V17.217H40.32V13.97H39.77L39.219 13.971ZM45.535 18.549L45.537 19.652V20.752H43.566V21.564H45.537V23.826H46.465L46.477 22.707L46.494 21.564H48.463V20.752H46.463V18.549H45.998H45.535Z" fill="white"/>
</g>
<g clip-path="url(#clip2_809_443)">
<path d="M92.9077 2.7333H84.1671V0.280334H82.6217L70 2.46626V21.5392L82.4718 23.7196H84.1671V20.9941H92.3463C92.8123 20.9723 93.3302 21.0187 93.7281 20.7297C94.0443 20.2419 93.9676 19.6314 93.9949 19.0808V3.80173C94.0576 3.17487 93.5346 2.67335 92.9077 2.7333ZM77.9938 12.9049C77.3752 13.221 76.6665 13.1774 75.9933 13.1556L75.9906 16.3526L74.3689 16.2163L74.3717 7.48113C75.8516 7.55196 77.645 6.89515 78.8715 8.0044C80.0462 9.42987 79.7354 12.0518 77.9938 12.9049ZM92.6925 19.7078H84.1671V17.996H90.7083V16.9059H84.1671V15.5432H90.7083V14.4529H84.1698C84.1698 14.4529 84.1671 13.3846 84.1644 12.8504C85.2437 13.1856 86.4729 13.1774 87.4376 12.5288C88.4815 11.9101 89.0266 10.7299 89.1166 9.55254H85.5298V5.99304L84.1671 6.26833V4.0196H92.6925V19.7078ZM86.0747 5.42337C87.9689 5.51055 89.5636 7.11185 89.6644 9.00063H86.0747V5.42337ZM75.9906 8.95558C76.5275 8.93107 77.1925 8.83296 77.555 9.33715C77.8658 9.87138 77.8494 10.5746 77.5905 11.1251C77.2798 11.6865 76.5766 11.6321 76.0342 11.6974C75.977 10.7844 75.9824 9.87138 75.9906 8.95558Z" fill="white"/>
</g>
<defs>
<clipPath id="clip0_809_443">
<rect width="24" height="24" fill="white"/>
</clipPath>
<clipPath id="clip1_809_443">
<rect width="24" height="24" fill="white" transform="translate(34)"/>
</clipPath>
<clipPath id="clip2_809_443">
<rect width="24" height="24" fill="white" transform="translate(70)"/>
</clipPath>
</defs>
</svg>
