<svg width="100" height="32" viewBox="0 0 100 32" fill="none" xmlns="http://www.w3.org/2000/svg">
<g filter="url(#filter0_d_1086_128)">
<g clip-path="url(#clip0_1086_128)">
<path d="M13.6008 3.99999H15.2008M11.2008 6.39999V2.39999C11.2008 1.97564 11.3694 1.56868 11.6694 1.26862C11.9695 0.968559 12.3764 0.799988 12.8008 0.799988H19.2008C19.6251 0.799988 20.0321 0.968559 20.3322 1.26862C20.6322 1.56868 20.8008 1.97564 20.8008 2.39999V10.4C20.8008 10.8243 20.6322 11.2313 20.3322 11.5314C20.0321 11.8314 19.6251 12 19.2008 12H12.8008C12.3764 12 11.9695 12.1686 11.6694 12.4686C11.3694 12.7687 11.2008 13.1756 11.2008 13.6V21.6C11.2008 22.0243 11.3694 22.4313 11.6694 22.7314C11.9695 23.0314 12.3764 23.2 12.8008 23.2H19.2008C19.6251 23.2 20.0321 23.0314 20.3322 22.7314C20.6322 22.4313 20.8008 22.0243 20.8008 21.6V17.6M16.8008 7.19999H6.40078C5.97643 7.19999 5.56947 7.36856 5.26941 7.66862C4.96935 7.96868 4.80078 8.37564 4.80078 8.79999V16.8C4.80078 17.2243 4.96935 17.6313 5.26941 17.9314C5.56947 18.2314 5.97643 18.4 6.40078 18.4H11.2008M15.2008 16.8H25.6008C26.0251 16.8 26.4321 16.6314 26.7322 16.3314C27.0322 16.0313 27.2008 15.6243 27.2008 15.2V7.19999C27.2008 6.77564 27.0322 6.36868 26.7322 6.06862C26.4321 5.76856 26.0251 5.59999 25.6008 5.59999H20.8008M16.8008 20H18.4008" stroke="white"/>
</g>
<path d="M54.9221 0H57.5451V18.104H54.9221V0ZM50.7961 12.94H53.4191V15.51H50.7961V12.94ZM50.7961 5.903H53.4191V11.349H50.7961V5.903ZM50.7961 17.1H53.4191V22.546H50.7961V17.1ZM42.4561 5.896H45.0781V24H42.4551L42.4561 5.896ZM46.6691 8.455H49.2921V11.025H46.6701L46.6691 8.455ZM46.6691 12.606H49.2921V18.053H46.6701L46.6691 12.606ZM46.6691 1.419H49.2921V6.865H46.6701L46.6691 1.419Z" fill="white"/>
<path d="M73.2923 5.856L83.5403 0V24L79.4453 21.622V7.603L73.2773 11.167L73.2923 5.856ZM94.7223 11.167L94.7083 5.857L84.4603 0V24L88.5553 21.622V14.87L91.6473 16.658L91.6293 12.04L88.5553 10.284V7.603L94.7223 11.167Z" fill="white"/>
</g>
<defs>
<filter id="filter0_d_1086_128" x="0" y="0" width="100" height="32" filterUnits="userSpaceOnUse" color-interpolation-filters="sRGB">
<feFlood flood-opacity="0" result="BackgroundImageFix"/>
<feColorMatrix in="SourceAlpha" type="matrix" values="0 0 0 0 0 0 0 0 0 0 0 0 0 0 0 0 0 0 127 0" result="hardAlpha"/>
<feOffset dy="4"/>
<feGaussianBlur stdDeviation="2"/>
<feComposite in2="hardAlpha" operator="out"/>
<feColorMatrix type="matrix" values="0 0 0 0 0 0 0 0 0 0 0 0 0 0 0 0 0 0 0.25 0"/>
<feBlend mode="normal" in2="BackgroundImageFix" result="effect1_dropShadow_1086_128"/>
<feBlend mode="normal" in="SourceGraphic" in2="effect1_dropShadow_1086_128" result="shape"/>
</filter>
<clipPath id="clip0_1086_128">
<rect width="24" height="24" fill="white" transform="translate(4)"/>
</clipPath>
</defs>
</svg>
