<svg width="95" height="95" viewBox="0 0 95 95" fill="none" xmlns="http://www.w3.org/2000/svg">
<g clip-path="url(#clip0_807_387)">
<path d="M56.7386 11.2892L75.3823 22.0559C75.9444 21.4621 76.6015 20.9475 77.3417 20.5121C79.3709 19.3467 81.7793 19.0331 84.0392 19.64C86.2992 20.2469 88.2264 21.7249 89.3988 23.75C90.1036 24.9801 90.5024 26.3615 90.5615 27.778C90.6206 29.1944 90.3383 30.6043 89.7383 31.8888C89.1384 33.1733 88.2384 34.2947 87.1143 35.1585C85.9902 36.0223 84.6748 36.6031 83.2792 36.8521V58.1479C84.6904 58.4018 86.0184 58.9959 87.1481 59.8788C88.2779 60.7617 89.1754 61.9068 89.7628 63.2147C90.3502 64.5227 90.6098 65.9542 90.5192 67.3852C90.4286 68.8161 89.9904 70.2034 89.2427 71.4268C88.4949 72.6503 87.4602 73.673 86.2281 74.4063C84.996 75.1396 83.6036 75.5614 82.1717 75.6352C80.7398 75.709 79.3114 75.4326 78.0104 74.8299C76.7094 74.2272 75.575 73.3163 74.7054 72.1763L56.3942 82.745C56.9587 84.087 57.1826 85.5477 57.0461 86.9971C56.9095 88.4466 56.4168 89.8398 55.6117 91.0527C54.8065 92.2657 53.714 93.2608 52.4314 93.9495C51.1487 94.6382 49.7157 94.999 48.2598 95C46.8635 95.0033 45.4864 94.6748 44.2418 94.0416C42.9973 93.4084 41.921 92.4887 41.1016 91.3581C40.2821 90.2275 39.743 88.9184 39.5285 87.5386C39.3141 86.1588 39.4305 84.7479 39.8681 83.4219L21.3511 72.7304C20.4373 73.7491 19.2991 74.5414 18.0266 75.0447C16.754 75.548 15.3818 75.7485 14.0184 75.6304C12.6551 75.5123 11.3378 75.0789 10.1707 74.3642C9.00364 73.6496 8.0187 72.6734 7.29369 71.5128C6.56868 70.3521 6.12346 69.0388 5.99319 67.6765C5.86293 66.3142 6.05119 64.9403 6.5431 63.6633C7.03502 62.3863 7.81711 61.2411 8.82762 60.3183C9.83812 59.3954 11.0494 58.7202 12.3656 58.3459L12.3696 36.6542C11.0771 36.2883 9.88512 35.6324 8.8842 34.7366C7.88328 33.8407 7.09981 32.7284 6.59338 31.4843C6.08694 30.2401 5.87086 28.8969 5.96158 27.5567C6.0523 26.2165 6.44742 24.9146 7.1169 23.75C7.78342 22.5989 8.70125 21.6132 9.80191 20.8663C10.9026 20.1195 12.1577 19.6308 13.4736 19.4367C14.7895 19.2426 16.1322 19.3482 17.4016 19.7455C18.671 20.1428 19.8344 20.8216 20.8048 21.7313L39.6663 10.8379C39.3609 9.54269 39.3528 8.19511 39.6425 6.89627C39.9322 5.59743 40.5121 4.38103 41.339 3.33829C42.1658 2.29555 43.2179 1.45354 44.4165 0.875394C45.6151 0.297248 46.9291 -0.00202531 48.2598 1.80145e-05C49.6303 -0.00275249 50.9826 0.314077 52.2093 0.925342C53.436 1.53661 54.5032 2.42547 55.3262 3.52134C56.1493 4.61721 56.7055 5.88989 56.9507 7.23831C57.1958 8.58673 57.1232 9.97374 56.7386 11.2892ZM54.7871 14.7725C54.5892 14.9863 54.3794 15.1921 54.1656 15.3861L79.0161 58.4329L79.2892 58.3538V36.6344C78.1582 36.3068 77.1043 35.7558 76.1898 35.0141C75.2753 34.2723 74.5187 33.3547 73.9649 32.3156C73.411 31.2765 73.071 30.1369 72.965 28.9641C72.859 27.7914 72.9892 26.6093 73.3477 25.4877L54.7831 14.7646L54.7871 14.7725ZM41.8038 14.8477C41.6766 14.7105 41.5539 14.5692 41.4356 14.4242L23.0215 25.0563C23.4767 26.2642 23.6611 27.5573 23.5617 28.8444C23.4622 30.1314 23.0813 31.3808 22.4458 32.5045C21.8104 33.6281 20.936 34.5984 19.8843 35.3469C18.8326 36.0955 17.6294 36.6039 16.3596 36.8363V58.1559L16.7554 58.235L41.8038 14.8477ZM50.6704 17.3177C48.8442 17.835 46.9001 17.7517 45.1248 17.0802L20.3456 59.9846C21.7527 61.1278 22.7751 62.6752 23.2748 64.4179H73.2329C73.6575 62.9194 74.4699 61.5595 75.5882 60.4754L50.6704 17.3177ZM54.4269 79.8594L73.1854 69.0294C73.1319 68.824 73.0856 68.6167 73.0469 68.4079H23.4727C23.4213 68.685 23.354 68.9621 23.2788 69.2313L41.9463 80.0098C42.7674 79.1658 43.7497 78.4954 44.835 78.0384C45.9202 77.5815 47.0862 77.3473 48.2638 77.3498C50.6665 77.3498 52.8396 78.3077 54.4309 79.8594H54.4269Z" fill="#58CCED"/>
</g>
<defs>
<clipPath id="clip0_807_387">
<rect width="95" height="95" fill="white"/>
</clipPath>
</defs>
</svg>
